<svg width="343" height="320" viewBox="0 0 343 320" fill="none" xmlns="http://www.w3.org/2000/svg">
<mask id="mask0_414_344" style="mask-type:alpha" maskUnits="userSpaceOnUse" x="0" y="0" width="343" height="320">
<rect width="343" height="320" fill="#D9D9D9"/>
</mask>
<g mask="url(#mask0_414_344)">
<path fill-rule="evenodd" clip-rule="evenodd" d="M242.398 1.52568C237.037 3.13322 237.029 3.14664 236.36 11.1253C235.764 18.217 235.301 19.2502 232.245 20.3197C229.493 21.2818 227.636 20.788 223.004 17.8641L217.207 14.2049L212.067 19.3683L206.927 24.5331L210.925 30.9297C214.742 37.0365 214.824 37.4753 212.739 40.6581C210.866 43.5176 209.54 43.99 203.393 43.99C196.258 43.99 196.225 44.0101 194.833 49.0219C192.524 57.336 192.972 58.5678 199.459 61.7185C204.527 64.1808 205.497 65.2704 205.497 68.4962V72.3406L199.88 69.2356C196.791 67.5274 191.954 63.7152 189.132 60.7631C186.308 57.811 182.138 53.4326 179.863 51.0347C177.588 48.6355 175.179 46.6737 174.509 46.6737C172.791 46.6737 172.992 51.6962 174.755 52.7871C175.631 53.3279 175.88 55.491 175.375 58.1814C174.722 61.6595 175.15 63.2912 177.267 65.4086C178.771 66.9128 180.78 68.1433 181.73 68.1433C183.756 68.1433 193.42 79.3183 193.42 81.6611C193.42 82.5427 194.119 85.5981 194.974 88.4509C196.3 92.8737 197.085 93.6385 200.3 93.6385C204.072 93.6385 214.89 98.4826 214.89 100.172C214.89 100.664 213.38 103.288 211.535 106.004C209.69 108.718 208.181 111.453 208.181 112.081C208.181 112.709 210.456 115.444 213.238 118.16L218.296 123.098L224.202 119.187C229.754 115.512 230.339 115.395 233.912 117.243C237.567 119.134 237.683 119.492 236.864 126.454L236.013 133.697L241.889 135.204C245.12 136.033 248.519 136.963 249.441 137.273C250.397 137.592 252.57 134.966 254.496 131.167C257.38 125.477 258.445 124.501 261.777 124.501C264.976 124.501 266.251 125.529 268.848 130.204C272.21 136.253 274.244 136.921 282.632 134.731L286.635 133.686L282.655 136.809C279.343 139.408 277.282 139.887 270.385 139.659C259.888 139.313 258.185 141.807 265.942 146.167C269.99 148.442 271.241 149.964 271.218 152.591C271.173 157.912 266.652 166.663 260.505 173.333C246.389 188.647 227.105 189.048 212.393 174.336C207.188 169.131 189.395 143.963 189.395 141.807C189.395 139.959 180.76 140.449 165.241 143.174C149.988 145.853 145.645 145.198 143.735 139.93C142.894 137.608 143.33 137.243 146.938 137.246C150.441 137.249 151.821 136.195 155.494 130.723C159.765 124.359 161.373 116.192 158.681 114.528C158.025 114.123 157.104 112.266 156.636 110.401C155.941 107.629 156.77 106.072 161.185 101.873C165.969 97.3232 166.583 96.031 166.583 90.5388C166.583 85.5686 165.787 83.4324 162.572 79.7705C159.279 76.02 157.296 75.0485 151.502 74.3427C147.619 73.8703 139.204 72.7767 132.802 71.9126C117.326 69.8247 112.786 71.239 101.169 81.7658C82.4839 98.7 73.2184 101.059 54.5384 93.6385C48.8329 91.3721 41.8955 89.613 38.6643 89.613C30.3368 89.613 22.0348 95.2984 16.972 104.471C13.2832 111.154 12.9558 112.804 13.0041 124.501C13.0671 139.498 17.0658 152.626 25.1451 164.357C34.6629 178.177 52.9684 187.54 71.1277 187.876L80.2027 188.045L75.7572 198.327C73.0694 204.543 70.736 212.893 69.8544 219.44C68.542 229.187 68.6588 230.86 71.0151 236.188C75.0352 245.275 85.3715 249.138 93.8547 244.724C98.2641 242.43 102.502 237.894 105.227 232.552L107.263 228.559L108.166 237.92C109.631 253.124 112.246 257.345 120.201 257.345C122.094 257.345 123.644 257.613 123.644 257.942C123.644 258.269 121.61 263 119.125 268.455C116.638 273.91 113.874 280.585 112.982 283.291C112.089 285.994 110.766 288.207 110.041 288.207C109.318 288.207 109.081 288.783 109.516 289.485C109.949 290.188 108.748 296.902 106.847 304.405C104.944 311.908 103.568 318.223 103.787 318.439C104.947 319.576 316.566 320.649 317.263 319.522C317.98 318.36 295.041 229.158 293.301 226.341C292.893 225.681 289.901 225.14 286.652 225.14C280.811 225.14 280.728 225.076 279.374 219.437C278.62 216.3 277.067 210.88 275.923 207.393C273.969 201.434 274.003 200.741 276.469 195.906C279.903 189.176 282.88 177.122 283.999 165.428C284.87 156.322 285.058 155.934 290.134 152.755C296.516 148.759 303.947 139.805 302.978 137.28C302.589 136.264 303.148 134.705 304.22 133.814C305.468 132.778 305.721 131.657 304.924 130.696C304.24 129.873 303.478 128.594 303.231 127.856C302.403 125.387 294.96 126.388 291.308 129.459L287.707 132.491L286.84 126.166C286.079 120.62 286.346 119.555 289.01 117.505C292.954 114.469 293.31 114.503 299.138 118.463C301.854 120.308 304.723 121.817 305.513 121.817C306.304 121.817 309.015 119.687 311.54 117.083C315.762 112.726 315.978 112.112 314.249 109.368C308.196 99.7668 308.142 99.5695 310.559 95.8808C312.636 92.7113 313.386 92.4872 319.509 93.2118C326.823 94.0786 327.298 93.6117 329.523 83.3814C330.378 79.4511 330.045 78.9452 324.662 75.9838C319.757 73.2853 318.823 72.0937 318.485 68.0883C318.112 63.6843 318.49 63.1758 324.188 60.4075C327.544 58.7772 330.28 56.9831 330.269 56.4195C330.257 55.856 329.422 52.6785 328.415 49.3574L326.58 43.319L319.169 43.57C312.154 43.8088 311.674 43.6142 310.141 39.9161C308.716 36.4742 308.932 35.3109 311.961 30.1447L315.397 24.2795L310.153 19.1576L304.909 14.0371L299.35 17.7151C294.4 20.9919 293.367 21.2174 289.9 19.7816C286.25 18.2693 286.008 17.6937 286.008 10.5349V2.89974L279.398 1.20498C273.201 -0.382432 272.603 -0.304605 269.854 2.44485C267.528 4.77028 265.925 5.21712 262.124 4.59987C259.474 4.17047 256.554 4.46434 255.599 5.25603C254.293 6.34025 253.482 5.83571 252.279 3.20031C250.509 -0.684349 250.033 -0.764862 242.398 1.52568ZM251.073 4.98766C251.837 6.41539 252.462 9.21718 252.462 11.2139C252.462 13.2105 253.338 15.5145 254.409 16.3344C257.423 18.641 253.231 22.7645 243.375 27.1873C234.108 31.3457 225.016 40.0785 220.142 49.5023C217.871 53.8888 216.94 58.4041 216.497 67.1638L215.9 78.9318L211.706 76.2763C209.398 74.815 207.435 72.9914 207.342 72.2225C207.249 71.455 207.099 69.1001 207.007 66.988C206.871 63.8802 205.691 62.5397 200.814 59.9526C196.855 57.8526 194.992 56.0626 195.382 54.7342C195.709 53.6218 196.382 51.0172 196.876 48.9454C197.752 45.2755 197.949 45.2017 204.656 46.0323C211.249 46.8495 211.633 46.7179 213.883 42.8816C216.994 37.5786 216.865 36.1522 212.723 30.0562L209.214 24.8927L213.234 20.8725L217.254 16.8523L223.45 20.4834L229.644 24.1131L234.007 21.5314C238.08 19.1227 238.36 18.4867 238.193 12.0726C238.027 5.79412 238.319 5.08428 241.547 3.90076C247.047 1.88396 249.565 2.17111 251.073 4.98766ZM283.649 4.60658C284.209 4.95143 284.666 6.5214 284.666 8.09539C284.666 10.8194 284.58 10.8381 282.863 8.49124C281.631 6.80587 279.964 6.23424 277.599 6.68645C274.971 7.1883 273.972 6.71865 273.454 4.73808C272.84 2.38984 273.266 2.22076 277.702 3.05271C280.414 3.56127 283.091 4.26038 283.649 4.60658ZM150.435 8.09539C134.588 16.0942 134.614 37.8684 150.481 46.3422C161.793 52.3846 174.795 47.35 180.359 34.7741C182.762 29.341 182.891 27.9132 181.462 22.5525C178.813 12.6174 169.639 5.07622 160.201 5.07622C158.12 5.07622 153.726 6.43552 150.435 8.09539ZM172.73 11.87C177.636 16.4525 180.003 21.5381 179.996 27.4852C179.987 37.5531 170.85 46.6589 160.747 46.6683C149.119 46.6804 141.088 38.7795 141.088 27.3268C141.088 14.3283 148.59 7.27552 161.532 8.10613C167.402 8.48184 170.061 9.37686 172.73 11.87ZM192.078 10.2356C192.078 11.5346 196.533 15.811 197.887 15.811C198.382 15.811 198.788 15.2072 198.788 14.4692C198.788 13.7312 197.882 13.1273 196.775 13.1273C195.668 13.1273 194.762 12.2216 194.762 11.1146C194.762 10.0075 194.158 9.10178 193.42 9.10178C192.682 9.10178 192.078 9.61169 192.078 10.2356ZM153.836 15.811C150.953 18.7631 147.847 21.1785 146.933 21.1785C144.027 21.1785 143.929 23.049 146.364 31.9468L148.742 40.6353H160.651H172.558L174.112 33.9261C174.966 30.236 176.098 26.1688 176.628 24.8873C177.331 23.1859 176.74 22.2264 174.436 21.3274C172.699 20.6498 169.198 17.9245 166.656 15.2703C164.112 12.6161 161.366 10.4436 160.554 10.4436C159.741 10.4436 156.718 12.859 153.836 15.811ZM165.271 17.1932L168.108 21.1785H159.702H151.297L155.797 16.5343C160.761 11.4125 161.174 11.442 165.271 17.1932ZM50.1774 14.0156C49.2556 14.3887 48.5001 16.117 48.5001 17.856C48.5001 21.9286 46.6148 23.0423 43.2628 20.9477C41.0367 19.5575 40.1444 19.6971 37.8284 21.7917C35.3473 24.0379 35.2574 24.6015 36.9655 27.2101C39.3393 30.8318 37.8981 33.4242 33.7759 32.9465C31.3499 32.6661 30.4146 33.4282 29.6068 36.3468C28.7225 39.5444 29.0553 40.3334 31.8236 41.5947C35.9042 43.4532 35.9081 44.4784 31.8504 47.5687C27.6598 50.7596 29.1814 56.0666 34.2885 56.0666C38.5073 56.0666 39.6519 57.9144 37.5345 61.3039C35.2346 64.9873 39.4976 70.089 43.2132 68.1004C47.1032 66.0192 48.5001 66.5693 48.5001 70.1843C48.5001 72.5406 49.5776 74.0595 52.0479 75.1854C55.1919 76.6171 55.8213 76.4601 57.5791 73.814C60.0709 70.0608 62.8123 69.983 63.9703 73.6328C64.6319 75.7167 65.6047 76.2401 67.7503 75.6644C69.3404 75.2377 71.0929 74.8808 71.6471 74.8714C72.2013 74.8606 72.6535 73.0411 72.6535 70.827C72.6535 66.4928 75.9504 65.2677 79.1091 68.4264C80.3812 69.6985 81.3755 69.4114 83.6862 67.0993C85.9982 64.7887 86.2853 63.7944 85.0133 62.5223C82.0934 59.6024 83.0635 56.0666 86.7858 56.0666C89.0616 56.0666 90.5793 55.0683 91.3791 53.0475C92.3479 50.6013 91.8943 49.4459 88.9878 46.9622C85.5258 44.002 85.4897 43.8289 87.9399 41.9785C89.3354 40.9238 91.0341 39.8758 91.7131 39.6491C92.4431 39.4062 92.3787 37.7396 91.5561 35.5752C90.5833 33.0163 89.2106 31.9133 86.9992 31.9133C82.5617 31.9133 81.7258 30.5889 83.9881 27.1363C85.7446 24.4553 85.6789 23.9212 83.3172 21.785C81.1447 19.8192 80.1101 19.6769 77.2989 20.9571C73.6987 22.5981 73.3002 22.2345 72.3824 16.482C71.7396 12.443 66.0408 12.1652 62.972 16.0217L60.4708 19.1657L58.348 16.1465C56.3057 13.2441 53.7454 12.5772 50.1774 14.0156ZM188.053 14.4692C188.053 15.2072 188.959 15.811 190.066 15.811C191.173 15.811 192.078 16.7168 192.078 17.8238C192.078 18.9309 192.682 19.8366 193.42 19.8366C195.371 19.8366 195.063 17.2616 192.845 15.0448C190.628 12.8268 188.053 12.5181 188.053 14.4692ZM60.0642 19.8366C61.7737 19.8366 63.7985 18.6544 64.5755 17.2026C66.4179 13.762 69.9698 15.1321 69.9698 19.2838C69.9698 21.5864 70.9265 22.7095 73.4223 23.3362C75.3466 23.8192 77.5311 23.5468 78.355 22.7229C80.7892 20.2888 83.6701 23.5119 81.9445 26.7378C79.8861 30.5822 81.6573 34.597 85.4118 34.597C89.9231 34.597 91.1389 37.3787 87.6433 39.7001C83.9385 42.1597 83.9156 45.9504 87.5896 48.5254C91.0019 50.9139 90.1244 54.8321 86.3954 53.8566C82.4101 52.814 79.9612 56.7215 81.9136 61.0073C83.9385 65.4529 82.1189 67.6522 78.1645 65.5361C74.2543 63.4441 69.9698 65.8836 69.9698 70.2031C69.9698 74.242 66.6379 74.6298 64.6023 70.827C63.812 69.351 62.0005 68.1433 60.5768 68.1433C59.1531 68.1433 57.3416 69.351 56.5512 70.827C54.5492 74.5694 51.1838 74.2514 51.1838 70.3198C51.1838 65.673 47.6977 63.1355 44.2599 65.2825C40.547 67.6012 37.191 65.0007 39.3795 61.4971C41.4916 58.1143 39.77 54.7248 35.9377 54.7248C30.6843 54.7248 30.1717 48.143 35.417 48.0356C37.7036 47.99 36.2194 41.4981 33.5102 39.7001C30.0147 37.3787 31.2305 34.597 35.7418 34.597C39.4963 34.597 41.4984 30.0978 39.0535 27.1524C37.7908 25.6307 37.7975 24.7693 39.087 23.2154C40.5147 21.4951 41.1012 21.4831 43.4427 23.1228C46.8939 25.5408 51.1838 23.2302 51.1838 18.955C51.1838 15.1737 54.1869 14.1109 55.7502 17.3367C56.4157 18.7121 58.3573 19.8366 60.0642 19.8366ZM261.184 18.4948C261.64 19.2328 261.036 19.8366 259.842 19.8366C258.648 19.8366 258.044 19.2328 258.5 18.4948C258.956 17.7567 259.56 17.1529 259.842 17.1529C260.124 17.1529 260.728 17.7567 261.184 18.4948ZM278.292 19.7601C280.323 20.7772 281.983 22.4183 281.983 23.4073C281.983 25.9796 280.49 25.5771 276.28 21.8709C272.838 18.8423 271.308 16.3048 273.596 17.4199C274.15 17.6896 276.262 18.7417 278.292 19.7601ZM298.057 20.686C300.993 18.743 303.899 17.1529 304.514 17.1529C305.13 17.1529 307.307 18.9 309.354 21.0349L313.073 24.9182L309.356 30.5339L305.639 36.1495L308.111 40.7413C310.446 45.0769 310.979 45.3318 317.673 45.3318C325.54 45.3318 325.654 45.415 326.904 52.0746C327.757 56.6248 327.579 56.8865 321.658 59.7634C315.888 62.5666 315.529 63.0577 315.529 68.1433C315.529 73.2169 315.897 73.7241 321.567 76.4789C327.869 79.541 328.643 81.3445 326.297 87.513C325.118 90.614 324.279 90.9548 317.823 90.9548C310.938 90.9548 310.569 91.1413 308.39 95.7117C306.171 100.367 306.194 100.576 309.484 105.416C313.664 111.568 313.656 112.102 309.332 116.615L305.818 120.282L299.619 116.425L293.419 112.565L289.379 115.118C285.804 117.373 285.292 118.511 284.939 124.963C284.543 132.226 284.519 132.264 279.275 133.595L274.008 134.931L270.558 129.045C267.427 123.703 266.63 123.159 261.926 123.159C257.189 123.159 256.432 123.688 253.145 129.297C250.673 133.516 248.915 135.192 247.525 134.659C246.413 134.232 244.05 133.518 242.273 133.072C239.36 132.34 239.043 131.551 239.043 125.004C239.043 118.088 238.831 117.647 234.528 115.595C230.174 113.519 229.797 113.568 224.032 116.946L218.051 120.45L214.458 116.7C212.481 114.636 210.864 112.517 210.864 111.988C210.864 111.461 212.395 108.603 214.267 105.639C216.139 102.673 217.366 99.7547 216.993 99.1522C216.621 98.5497 217.876 97.3461 219.781 96.4779C222.967 95.026 223.761 95.3802 229.613 100.854C244.994 115.241 263.202 117.992 283.314 108.967C291.508 105.288 297.12 99.2931 302.846 88.0953C304.118 85.6089 305.982 83.0916 306.988 82.5011C309.339 81.1244 309.299 76.6896 306.822 63.7461C303.864 48.2839 298.36 39.0264 287.809 31.7684C282.68 28.2393 282.208 27.4919 283.646 25.1866C284.919 23.1496 284.914 22.2318 283.626 20.9436C280.121 17.4387 282.235 17.2817 287.35 20.6672L292.717 24.2191L298.057 20.686ZM264.538 24.7196C264.538 26.299 263.464 28.9183 262.15 30.5406C259.782 33.4645 259.732 33.4685 256.58 30.9163C254.214 29.0001 253.608 27.508 254.214 25.0953C254.884 22.4264 255.873 21.8494 259.783 21.8494C263.747 21.8494 264.538 22.3271 264.538 24.7196ZM277.597 25.5395C284.972 33.2122 301.509 59.3488 304.001 67.2698C306.228 74.3548 306.246 75.1558 304.226 78.2381C301.778 81.9751 296.646 82.6662 294.101 79.5987C293.206 78.5199 292.309 74.4447 292.111 70.5412C291.636 61.2355 283.844 40.2046 279.387 36.2005C277.493 34.499 273.851 31.3967 271.293 29.3061C267.265 26.0145 266.883 25.2161 268.439 23.3429C271.046 20.2002 272.89 20.6431 277.597 25.5395ZM254.872 31.5778C261.828 38.4468 261.011 40.4461 250.509 42.2442C244.895 43.2063 239.868 45.1399 235.922 47.8545C229.014 52.6073 218.43 67.4818 219.377 71.1034C219.722 72.4265 219.362 73.9052 218.576 74.391C215.864 76.0683 218.628 57.85 222.246 50.2014C226.175 41.8967 235.266 32.8888 243.485 29.1571C246.576 27.7535 249.257 26.5915 249.441 26.5754C249.625 26.5593 252.069 28.8109 254.872 31.5778ZM49.5145 33.2672C44.3819 38.3985 44.1646 38.9553 44.7832 45.3868C45.8526 56.5215 54.7075 62.839 65.1874 59.9446C83.2433 54.9596 78.7589 27.8877 59.8764 27.8877C55.8508 27.8877 53.8608 28.921 49.5145 33.2672ZM154.507 33.2551C154.507 36.2072 153.976 38.6225 153.328 38.6225C152.68 38.6225 151.536 36.2072 150.787 33.2551C149.555 28.403 149.668 27.8877 151.965 27.8877C154.036 27.8877 154.507 28.8834 154.507 33.2551ZM162.558 33.2551C162.558 37.1317 161.998 38.6225 160.545 38.6225C159.092 38.6225 158.532 37.1317 158.532 33.2551C158.532 29.3785 159.092 27.8877 160.545 27.8877C161.998 27.8877 162.558 29.3785 162.558 33.2551ZM170.303 33.2551C169.554 36.2072 168.409 38.6225 167.761 38.6225C167.113 38.6225 166.583 36.2072 166.583 33.2551C166.583 28.8834 167.054 27.8877 169.125 27.8877C171.422 27.8877 171.535 28.403 170.303 33.2551ZM273.047 38.0898L271.068 41.109L266.461 38.3918C261.126 35.2438 261.209 35.4866 263.994 31.2383L266.133 27.9749L270.578 31.5228C274.75 34.8506 274.903 35.2572 273.047 38.0898ZM70.4246 34.0763C75.2902 38.9419 76.302 45.4445 73.0587 50.9985C69.7336 56.6919 65.1834 59.004 58.7948 58.2458C52.6156 57.5118 49.1107 54.6013 47.1113 48.5455C45.3025 43.0641 46.3478 39.1392 50.9141 34.2615C55.7703 29.0753 65.3336 28.984 70.4246 34.0763ZM97.7729 32.2997C96.7088 35.072 98.786 37.6135 101.664 37.0593C105.23 36.3723 104.967 31.3537 101.338 30.8358C99.7723 30.613 98.1674 31.2705 97.7729 32.2997ZM101.643 35.5752C100.28 36.9399 99.1537 34.8855 100.273 33.0753C101.118 31.7066 101.435 31.7066 101.888 33.07C102.2 34.0025 102.088 35.1297 101.643 35.5752ZM296.063 42.3784C300.089 47.8787 304.161 56.0666 302.868 56.0666C302.624 56.0666 298.76 50.9287 294.279 44.6475C289.439 37.8617 287.212 33.8053 288.79 34.6493C290.25 35.4303 293.522 38.9084 296.063 42.3784ZM280.681 40.0395C281.822 42.1717 281.639 42.6441 279.681 42.628C278.364 42.6159 276.419 42.059 275.359 41.3881C273.769 40.3817 273.737 39.802 275.177 38.0684C277.144 35.6986 278.645 36.2354 280.681 40.0395ZM266.472 40.6783C267.905 41.7611 270.169 42.6481 271.504 42.6481C272.839 42.6481 273.931 43.2251 273.931 43.9296C273.931 45.6404 265.479 47.1527 262.032 46.0591C259.665 45.3077 259.496 44.7441 260.789 41.9061C262.519 38.11 262.954 38.016 266.472 40.6783ZM183.792 58.0834C187.177 62.5397 192.724 67.0309 201.471 72.397C208.483 76.6976 214.93 80.2173 215.798 80.2187C216.668 80.2187 218.622 78.6393 220.141 76.7084C222.72 73.4302 223.395 73.2585 230.302 74.1213C234.372 74.6298 237.701 75.655 237.701 76.3984C237.701 78.6433 222.105 93.5124 218.187 95.0018C216.178 95.7654 213.386 96.0257 211.981 95.5802C210.574 95.1333 204.003 88.6589 197.377 81.1928C190.751 73.7254 183.449 66.8256 181.15 65.8581C177.28 64.2318 177.03 63.7326 177.774 59.1395C178.366 55.4963 177.966 53.4795 176.271 51.5553C174.077 49.0622 174.084 48.9977 176.412 50.2604C177.758 50.9917 181.079 54.5114 183.792 58.0834ZM236.184 91.7532C235.648 97.3581 234.975 102.179 234.688 102.468C234.399 102.755 232.121 100.883 229.622 98.3068L225.083 93.6224L231 87.5921C234.255 84.2751 236.973 81.5618 237.038 81.5618C237.104 81.5618 236.719 86.1483 236.184 91.7532ZM202.813 91.4835C202.813 91.9303 201.606 92.2967 200.13 92.2967C198.653 92.2967 197.438 91.5425 197.427 90.6193C197.418 89.6975 197.014 87.4324 196.531 85.5874C195.697 82.4032 195.836 82.4475 199.233 86.4515C201.202 88.773 202.813 91.0367 202.813 91.4835ZM302.105 85.2519C302.101 85.8048 300.292 88.9756 298.085 92.2967L294.071 98.335L294.065 91.2903C294.059 84.3556 294.122 84.2455 298.085 84.2455C300.299 84.2455 302.108 84.6991 302.105 85.2519ZM151.283 93.3232C152.094 93.8653 153.127 98.3847 153.581 103.367C154.527 113.748 155.544 113.161 140.472 110.919C130.601 109.451 130.353 109.321 130.353 105.601C130.353 101.971 130.638 101.793 136.249 101.906C143.518 102.052 144.675 101.373 145.788 96.3075C146.657 92.349 148.408 91.399 151.283 93.3232ZM121.967 106.778C126.022 111.937 122.048 120.476 115.593 120.476C111.441 120.476 107.542 116.402 107.542 112.065C107.542 110.719 109.061 108.1 110.919 106.241C114.581 102.579 118.828 102.785 121.967 106.778ZM157.503 116.91C159.355 119.821 158.535 122.851 154.132 129.381C150.336 135.012 149.197 135.848 145.822 135.48C143.671 135.245 140.724 134.417 139.272 133.641C136.786 132.309 136.771 132.151 139.012 130.898C140.319 130.165 143.397 129.893 145.852 130.29C150.764 131.088 154.018 128.66 152.686 125.19C151.588 122.329 147.473 122.668 144.754 125.843C143.49 127.319 141.594 128.527 140.54 128.527C139.486 128.527 137.517 128.941 136.166 129.449C134.026 130.252 133.94 130.086 135.5 128.166C137.658 125.512 136.502 123.159 133.037 123.159C129.586 123.159 128.731 121.324 129.721 116.042L130.562 111.562L143.54 113.46C150.677 114.504 156.961 116.057 157.503 116.91ZM134.379 125.681C134.379 126.329 132.567 127.61 130.353 128.527C125.831 130.4 125.026 132.552 128.848 132.552C130.232 132.552 132.196 133.553 133.209 134.776C134.885 136.799 134.597 136.915 130.018 136.057C124.414 135.008 123.64 136.285 127.669 139.932C131.451 143.354 131.036 145.313 125.665 149.41C120.006 153.727 119.173 156.457 115.504 182.7C109.434 226.138 101.26 243.926 87.3736 243.926C76.9608 243.926 71.3116 237.931 71.3116 226.878C71.3116 219.622 75.7236 211.39 95.8299 181.133C111.946 156.881 113.241 154.457 114.382 146.385C115.059 141.612 116.159 136.699 116.829 135.465C118.99 131.483 125.565 126.087 129.011 125.469C130.856 125.137 132.818 124.784 133.372 124.684C133.927 124.583 134.379 125.031 134.379 125.681ZM292.98 132.952C286.373 139.769 287.904 140.594 294.73 133.894C301.961 126.797 302.741 127.677 295.916 135.232C289.789 142.014 291.549 142.236 298.593 135.571L303.912 130.539L298.985 136.716C293.472 143.629 292.536 146.363 297.011 142.489L299.963 139.932L297.09 143.702C293.56 148.335 288.94 152.023 285.199 153.194C282.699 153.976 282.287 155.419 281.593 165.791C280.803 177.625 276.921 192.854 273.501 197.53C271.751 199.924 271.456 199.943 268.462 197.847C263.944 194.681 250.313 194.842 245.343 198.119C240.083 201.588 237.954 205.046 236.283 212.837L234.838 219.574L229.896 218.883C222.351 217.828 211.809 214.726 209.18 212.787C204.821 209.572 196.156 184.098 193.35 166.248C191.912 157.104 190.737 149.282 190.737 148.865C190.737 148.449 193.885 152.911 197.733 158.78C211.317 179.504 221.481 186.901 236.36 186.892C243.402 186.887 246.266 186.19 251.233 183.276C259.345 178.513 266.742 170.158 270.92 161.029C274.981 152.158 274.123 147.963 267.589 144.747C260.753 141.383 262.036 139.208 269.24 141.948C274.427 143.919 278.604 142.361 287.704 135.056C297.18 127.452 299.024 126.715 292.98 132.952ZM141.088 138.596C141.088 139.537 142.233 141.72 143.631 143.447C145.594 145.87 147.965 146.757 154.03 147.335L161.887 148.084L150.889 151.679C139.023 155.558 122.302 157.954 122.302 155.773C122.302 155.058 124.717 152.53 127.669 150.157C133.517 145.458 134.195 143.294 130.862 139.962C128.857 137.957 128.95 137.853 132.057 138.634C136.146 139.659 137.995 137.317 135.5 134.273C134.008 132.45 134.325 132.485 137.398 134.485C139.428 135.806 141.088 137.655 141.088 138.596ZM188.053 144.719C188.053 145.507 189.287 154.11 190.796 163.84C192.752 176.46 195.252 186.163 199.518 197.698C208.403 221.722 207.696 228.825 195.34 239.702C186.639 247.361 177.062 250.582 158.564 252.066C150.06 252.749 138.651 253.917 133.213 254.664C121.704 256.243 113.53 254.708 112.269 250.732C111.828 249.342 110.981 242.863 110.386 236.337C109.455 226.095 109.733 222.722 112.418 211.722C114.129 204.71 116.763 190.256 118.271 179.602C119.779 168.947 121.153 160.129 121.323 160.005C121.493 159.882 126.462 159.035 132.366 158.125C143.377 156.429 161.864 150.901 164.868 148.406C165.796 147.637 166.246 146.513 165.872 145.905C165.11 144.673 170.458 143.824 181.008 143.502C185.238 143.373 188.053 143.859 188.053 144.719ZM277.286 147.313C275.951 148.789 275.481 149.996 276.243 149.996C277.004 149.996 278.353 149.123 279.238 148.056C280.125 146.988 283.369 145.886 286.448 145.606L292.046 145.097L285.881 144.864C281.218 144.687 279.123 145.284 277.286 147.313ZM316.49 149.868C313.097 155.609 313.59 156.706 319.554 156.706C322.507 156.706 324.922 156.424 324.922 156.08C324.922 154.669 320.338 145.971 319.595 145.971C319.153 145.971 317.755 147.725 316.49 149.868ZM321.746 154.963C320.424 156.283 317.138 153.544 317.842 151.71C318.541 149.889 318.873 149.933 320.427 152.059C321.408 153.399 322.001 154.706 321.746 154.963ZM103.998 165.448C101.295 169.518 98.9082 172.672 98.6935 172.458C98.4788 172.243 96.8122 169.871 94.9899 167.185L91.6769 162.304L99.2745 160.308C103.452 159.212 107.33 158.254 107.891 158.18C108.451 158.108 106.7 161.378 103.998 165.448ZM316.943 171.529C314.83 185.977 310.831 200.89 305.878 212.798C303.636 218.187 302.086 222.879 302.434 223.227C303.687 224.481 311.612 204.629 314.882 192.041C318.082 179.724 320.72 160.731 319.231 160.731C318.841 160.731 317.811 165.59 316.943 171.529ZM90.5659 170.94L88.0848 174.748L87.6487 170.982C87.4098 168.908 87.5829 166.252 88.0338 165.076C88.7771 163.138 89.0496 163.134 90.9496 165.034C92.8511 166.935 92.8148 167.486 90.5659 170.94ZM96.1279 172.782C96.6861 174.542 95.6407 177.377 93.0335 181.169C90.8691 184.32 85.3407 192.936 80.7489 200.316C72.31 213.878 71.6819 213.614 77.5432 198.974C81.0588 190.196 92.7169 170.124 94.3003 170.124C94.841 170.124 95.6636 171.32 96.1279 172.782ZM20.3212 184.885C20.3212 185.623 20.925 186.226 21.6631 186.226C22.4011 186.226 23.0049 185.623 23.0049 184.885C23.0049 184.146 22.4011 183.543 21.6631 183.543C20.925 183.543 20.3212 184.146 20.3212 184.885ZM320.364 188.91C318.575 198.612 312.849 215.783 308.574 224.269C304.26 232.832 304.209 236.024 308.499 228.901C314.761 218.502 322.792 193.103 321.932 186.414C321.573 183.615 321.244 184.138 320.364 188.91ZM14.9538 186.226C14.9538 186.964 15.5576 187.568 16.2956 187.568C17.0337 187.568 17.6375 186.964 17.6375 186.226C17.6375 185.488 17.0337 184.885 16.2956 184.885C15.5576 184.885 14.9538 185.488 14.9538 186.226ZM22.334 190.252C22.7902 190.99 23.429 191.594 23.755 191.594C24.0811 191.594 24.3468 190.99 24.3468 190.252C24.3468 189.514 23.7067 188.91 22.9257 188.91C22.1447 188.91 21.8777 189.514 22.334 190.252ZM16.9666 191.594C16.5103 192.332 16.7773 192.936 17.5583 192.936C18.3393 192.936 18.9793 192.332 18.9793 191.594C18.9793 190.856 18.7137 190.252 18.3876 190.252C18.0615 190.252 17.4228 190.856 16.9666 191.594ZM265.613 202.7L268.7 206.001L264.271 209.736C259.728 213.565 254.405 216.214 248.027 217.815C244.637 218.664 244.411 218.44 244.416 214.215C244.423 208.17 248.858 201.244 254.147 199.021C258.904 197.02 260.901 197.66 265.613 202.7ZM246.543 202.432C243.952 205.511 243.069 208.068 243.069 212.496C243.069 215.761 242.816 218.431 242.508 218.431C242.199 218.431 240.992 218.797 239.824 219.245C235.342 220.964 238.604 207.158 243.94 201.823C248.823 196.94 250.779 197.397 246.543 202.432ZM268.591 200.348C269.525 201.472 270.019 202.663 269.69 202.991C269.361 203.32 268.073 202.401 266.828 200.946C265.584 199.493 265.089 198.303 265.729 198.303C266.37 198.303 267.657 199.224 268.591 200.348ZM276.037 214.612C278.398 225.626 278.453 225.14 274.849 225.14C271.86 225.14 271.741 224.735 271.741 214.384C271.741 201.929 273.334 202.013 276.037 214.612ZM17.5811 207.092C16.1561 208.811 16.2433 209.561 18.0884 211.405C20.1709 213.489 20.4715 213.489 22.554 211.405C24.3991 209.561 24.4863 208.811 23.0613 207.092C22.1112 205.949 20.8781 205.012 20.3212 205.012C19.7643 205.012 18.5312 205.949 17.5811 207.092ZM21.6631 209.038C21.6631 209.776 21.0592 210.38 20.3212 210.38C19.5832 210.38 18.9793 209.776 18.9793 209.038C18.9793 208.3 19.5832 207.696 20.3212 207.696C21.0592 207.696 21.6631 208.3 21.6631 209.038ZM268.755 224.144C266.891 226.008 245.753 223.969 245.753 221.924C245.753 221.047 248.393 219.624 251.62 218.76C254.846 217.897 260.13 215.17 263.362 212.701L269.235 208.213L269.643 215.53C269.868 219.555 269.468 223.431 268.755 224.144ZM226.631 220.528C235.09 221.647 235.965 223.792 227.973 223.817C216.98 223.852 217.123 223.681 213.631 240.99C211.891 249.615 210.181 257.188 209.831 257.817C209.481 258.445 207.154 254.266 204.661 248.531C200.645 239.295 200.351 237.854 202.09 235.934C205.195 232.502 208.181 224.309 208.181 219.22V214.556L213.883 217.076C217.019 218.462 222.756 220.016 226.631 220.528ZM28.3723 221.194C28.3723 221.975 28.9761 222.242 29.7142 221.785C30.4522 221.329 31.056 220.691 31.056 220.364C31.056 220.038 30.4522 219.773 29.7142 219.773C28.9761 219.773 28.3723 220.413 28.3723 221.194ZM23.0049 222.456C23.0049 223.194 23.645 223.798 24.426 223.798C25.2069 223.798 25.4739 223.194 25.0177 222.456C24.5615 221.718 23.9227 221.115 23.5966 221.115C23.2706 221.115 23.0049 221.718 23.0049 222.456ZM243.069 222.456C243.069 223.194 241.559 223.798 239.714 223.798C237.869 223.798 236.36 223.194 236.36 222.456C236.36 221.718 237.869 221.115 239.714 221.115C241.559 221.115 243.069 221.718 243.069 222.456ZM29.7142 226.482C29.7142 227.22 30.318 227.824 31.056 227.824C31.794 227.824 32.3979 227.22 32.3979 226.482C32.3979 225.744 31.794 225.14 31.056 225.14C30.318 225.14 29.7142 225.744 29.7142 226.482ZM24.3468 227.903C24.3468 228.684 24.9506 228.951 25.6886 228.495C26.4266 228.038 27.0305 227.4 27.0305 227.074C27.0305 226.748 26.4266 226.482 25.6886 226.482C24.9506 226.482 24.3468 227.122 24.3468 227.903ZM224.287 244.932C224.288 255.081 224.685 275.611 225.17 290.555L226.05 317.728H213.09C203.59 317.728 200.143 317.28 200.178 316.051C200.317 311.133 204.342 298.099 206.121 296.798C208.713 294.903 208.802 293.42 206.266 294.393C204.939 294.903 204.527 294.376 204.924 292.674C205.239 291.324 208.244 276.936 211.601 260.699C219.035 224.752 218.525 226.482 221.689 226.482C224.127 226.482 224.283 227.592 224.287 244.932ZM243.069 227.555C243.069 228.146 242.34 229.358 241.449 230.249C239.31 232.387 243.27 236.6 246.319 235.429C248.823 234.469 249.106 230.372 246.826 228.092C245.574 226.84 249.002 226.482 262.257 226.482C278.652 226.482 280.932 226.996 277.913 230.015C275.713 232.214 277.931 236.069 281.133 235.611C284.821 235.082 285.585 230.838 282.436 228.379C280.202 226.635 280.528 226.487 285.92 226.804L291.869 227.153L302.811 268.75C308.829 291.629 314.164 312.009 314.666 314.038L315.58 317.728H271.273H226.967V300.725C226.967 286.448 227.344 283.292 229.315 281.04C231.494 278.553 231.498 278.42 229.368 279.195C227.26 279.963 227.042 277.856 226.685 253.255L226.296 226.479L234.682 226.481C239.296 226.482 243.069 226.965 243.069 227.555ZM246.017 231.666C247.029 230.222 247.199 230.211 246.827 231.615C246.258 233.764 243.913 233.979 243.538 231.916C243.365 230.962 243.529 230.98 244.003 231.967C244.519 233.045 245.114 232.955 246.017 231.666ZM218.379 248.958C216.552 285.298 215.988 290.891 214.138 290.891C213.163 290.891 211.932 291.59 211.405 292.445C210.746 293.509 211.355 293.76 213.339 293.24C215.789 292.599 216.232 293.054 216.232 296.217C216.232 304.505 214.715 307.809 209.403 311.092C206.517 312.876 204.155 314.832 204.155 315.44C204.155 316.601 204.492 316.44 212.542 311.432C217.454 308.375 217.574 308.11 217.574 300.203C217.574 293.11 218.031 291.671 221.264 288.612C224.896 285.175 224.904 285.132 221.767 285.91L218.58 286.702L219.464 266.32C219.95 255.11 220.699 242.768 221.128 238.894C221.605 234.593 221.389 231.849 220.574 231.849C219.802 231.849 218.875 239.081 218.379 248.958ZM283.324 232.441C283.324 233.857 280.749 234.453 279.983 233.213C279.52 232.463 280.082 231.849 281.232 231.849C282.382 231.849 283.324 232.115 283.324 232.441ZM239.996 238.559C240.382 240.035 240.93 241.242 241.213 241.242C241.495 241.242 241.727 240.035 241.727 238.559C241.727 237.083 241.179 235.875 240.511 235.875C239.842 235.875 239.611 237.083 239.996 238.559ZM25.1062 241.179C23.6798 241.697 23.076 242.451 23.7644 242.855C24.4541 243.259 26.1851 243.167 27.6129 242.647C29.0392 242.129 29.6431 241.375 28.9547 240.971C28.265 240.567 26.5339 240.66 25.1062 241.179ZM33.4043 240.789C34.3275 241.162 35.837 241.162 36.7589 240.789C37.6821 240.417 36.9266 240.112 35.0816 240.112C33.2365 240.112 32.4824 240.417 33.4043 240.789ZM41.7908 241.211C41.7908 241.794 42.9985 242.587 44.4746 242.973C45.9506 243.358 47.1583 243.197 47.1583 242.615C47.1583 242.033 45.9506 241.24 44.4746 240.853C42.9985 240.468 41.7908 240.629 41.7908 241.211ZM51.1838 243.735C51.1838 245.115 55.2483 247.018 56.1876 246.08C56.5137 245.752 55.522 244.812 53.9829 243.988C52.4425 243.164 51.1838 243.05 51.1838 243.735ZM16.3345 245.216C15.249 245.903 14.6894 246.792 15.0906 247.193C15.4919 247.596 16.984 247.043 18.4064 245.967C21.235 243.827 19.5161 243.203 16.3345 245.216ZM240.385 247.952C240.385 249.428 240.989 250.635 241.727 250.635C242.465 250.635 243.069 249.428 243.069 247.952C243.069 246.476 242.465 245.268 241.727 245.268C240.989 245.268 240.385 246.476 240.385 247.952ZM59.2349 247.808C59.2349 248.467 60.1903 249.373 61.3577 249.821C64.6399 251.081 65.0733 250.807 63.2605 248.623C61.4087 246.392 59.2349 245.952 59.2349 247.808ZM67.2861 252.008C67.2861 252.776 68.2173 253.76 69.3566 254.198C72.5046 255.406 72.8736 254.101 69.9094 252.251C68.2482 251.214 67.2861 251.125 67.2861 252.008ZM240.385 257.345C240.385 258.821 240.617 260.028 240.899 260.028C241.182 260.028 241.73 258.821 242.116 257.345C242.501 255.869 242.27 254.661 241.601 254.661C240.933 254.661 240.385 255.869 240.385 257.345ZM76.0161 258.694C77.3553 260.176 78.7428 261.095 79.0984 260.739C80.0001 259.838 76.6536 256.003 74.9655 256.003C74.2033 256.003 74.6756 257.214 76.0161 258.694ZM83.3883 264.725C84.3075 265.832 85.6627 266.738 86.4007 266.738C87.1495 266.738 87.0032 265.848 86.072 264.725C85.1528 263.618 83.7976 262.712 83.0595 262.712C82.3108 262.712 82.457 263.602 83.3883 264.725ZM237.763 265.28C236.725 267.222 236.704 268.079 237.696 268.079C239.324 268.079 241.095 264.315 239.989 263.21C239.588 262.81 238.587 263.741 237.763 265.28ZM88.7557 269.092C88.7557 269.831 89.6615 271.186 90.7685 272.105C91.8916 273.036 92.7813 273.182 92.7813 272.434C92.7813 271.696 91.8755 270.34 90.7685 269.421C89.6453 268.49 88.7557 268.344 88.7557 269.092ZM233.738 273.331C232.914 274.872 232.8 276.13 233.485 276.13C234.865 276.13 236.767 272.066 235.829 271.127C235.502 270.801 234.561 271.792 233.738 273.331ZM95.465 275.802C95.465 276.54 96.3707 277.895 97.4777 278.814C98.6009 279.745 99.4905 279.892 99.4905 279.143C99.4905 278.405 98.5848 277.05 97.4777 276.13C96.3546 275.199 95.465 275.053 95.465 275.802ZM102.174 282.597C102.174 284.218 104.72 286.109 105.651 285.179C105.988 284.84 105.344 283.801 104.219 282.867C102.944 281.808 102.174 281.706 102.174 282.597Z" fill="black"/>
</g>
</svg>
