<svg width="63" height="80" viewBox="0 0 63 80" fill="none" xmlns="http://www.w3.org/2000/svg">
<path fill-rule="evenodd" clip-rule="evenodd" d="M27.0836 0.268267C18.7674 1.38678 10.8095 6.17277 5.95575 12.9752C1.8226 18.767 0.00222962 24.4749 1.51006e-06 31.6499C-0.00178098 38.5843 1.5744 43.1372 5.19954 46.6679C7.39022 48.8015 9.60541 49.6976 12.6896 49.6976C15.8196 49.6976 18.0085 48.6166 20.4153 45.8827C23.5975 42.2673 24.8595 36.8138 23.5802 32.2069C23.0516 30.3037 22.0468 30.0573 19.3717 31.1749C17.3472 32.0211 17.0812 33.2858 17.9782 37.8053C18.9452 42.6751 18.9653 42.5677 17.0834 42.5677C13.5777 42.5677 9.65888 36.2973 10.4454 31.9467C11.1789 27.8884 14.3014 25.3617 20.5294 23.7869C23.5267 23.0289 25.0454 22.893 28.2119 23.098C33.6196 23.4482 35.9252 24.5957 37.3383 27.6393C39.2268 31.707 41.188 34.5982 42.688 35.5264C44.4549 36.62 47.2276 36.4457 51.3888 34.9796C54.3125 33.9498 56.206 34.2381 57.7514 35.948C58.5736 36.8575 58.5633 36.8887 57.0255 38.1845C56.1676 38.9078 53.7831 40.3364 51.727 41.36C45.7075 44.356 41.6639 43.938 37.6217 39.9015C35.7621 38.0446 35.1904 37.7545 35.1895 38.6685C35.1895 38.9751 34.6049 40.4612 33.8901 41.9714L32.5915 44.7169L35.3388 45.0164C38.9372 45.4085 42.9719 46.4379 45.0351 47.4909C48.0622 49.035 50.3095 52.7158 50.3594 56.2109L50.3777 57.496L52.1767 55.5059C58.6074 48.3906 62.0481 41.4523 62.459 34.7693L62.5958 32.5412H53.1258H43.6564V31.5385C43.6568 30.7752 43.9139 30.5359 44.7356 30.5359C45.5935 30.5359 45.876 30.2395 46.1162 29.0876C46.6367 26.5903 48.4709 23.9406 50.5033 22.7495C51.5604 22.1301 52.76 21.6234 53.17 21.6234C53.5795 21.6234 54.2582 21.2223 54.6779 20.7322C55.6387 19.6101 56.001 19.6101 56.357 20.7322C56.5126 21.2223 56.9849 21.6234 57.4069 21.6234C57.8289 21.6234 58.918 22.0026 59.828 22.4665C61.287 23.2107 61.4817 23.2263 61.4817 22.5984C61.4817 21.2598 57.5259 13.8272 55.5411 11.4369C48.6714 3.16304 37.6672 -1.1555 27.0836 0.268267ZM40.5201 10.2511C44.6514 12.3874 45.163 17.5892 41.5535 20.7585C40.0678 22.0632 39.7603 22.1524 37.3468 21.9777C35.2385 21.8253 34.4912 21.5476 33.4173 20.5187C30.2123 17.4479 30.6874 12.7479 34.4342 10.4632C36.1298 9.42938 38.7545 9.33803 40.5201 10.2511ZM52.3464 23.1439C50.6245 23.909 49.2239 25.4455 48.3572 27.5199C47.4 29.8104 47.4771 30.5359 48.6767 30.5359C49.4927 30.5359 49.8447 30.0871 50.5127 28.1963C51.0176 26.7668 52.0185 25.2071 53.0871 24.1857C54.8958 22.4563 54.6552 22.1176 52.3464 23.1439ZM27.2868 53.9257C26.0034 54.2844 23.9023 55.1106 22.6176 55.7617C19.6725 57.2541 15.7599 58.6101 14.3985 58.6101C13.8246 58.6101 13.3544 58.7255 13.3544 58.8668C13.3544 59.1961 27.2539 76.1213 29.3376 78.3289C30.2048 79.2482 31.1646 80 31.4703 80C32.4783 80 38.7741 71.8259 40.6114 68.1313C43.6719 61.9781 43.499 56.5678 40.1765 54.5139C38.8008 53.6641 37.8138 53.4814 34.0777 53.3865C31.1945 53.3134 28.7953 53.5037 27.2868 53.9257Z" fill="black"/>
</svg>
