<svg width="94" height="120" viewBox="0 0 94 120" fill="none" xmlns="http://www.w3.org/2000/svg">
<path fill-rule="evenodd" clip-rule="evenodd" d="M40.6255 0.402401C28.1511 2.08017 16.2142 9.25916 8.93362 19.4628C2.73389 28.1504 0.00334444 36.7124 2.26509e-06 47.4749C-0.00267147 57.8764 2.3616 64.7058 7.79931 70.0018C11.0853 73.2023 14.4081 74.5465 19.0343 74.5465C23.7294 74.5465 27.0128 72.9248 30.623 68.824C35.3963 63.401 37.2893 55.2207 35.3702 48.3104C34.5775 45.4555 33.0701 45.0859 29.0575 46.7623C26.0208 48.0317 25.6218 49.9287 26.9673 56.708C28.4178 64.0126 28.4479 63.8515 25.6251 63.8515C20.3665 63.8515 14.4883 54.446 15.6681 47.9201C16.7683 41.8326 21.4521 38.0426 30.7941 35.6804C35.29 34.5433 37.568 34.3395 42.3179 34.647C50.4294 35.1724 53.8878 36.8936 56.0074 41.459C58.8403 47.5604 61.782 51.8972 64.032 53.2896C66.6823 54.9299 70.8414 54.6686 77.0832 52.4694C81.4688 50.9247 84.309 51.3572 86.6271 53.9219C87.8604 55.2862 87.845 55.333 85.5382 57.2768C84.2515 58.3617 80.6747 60.5047 77.5905 62.0401C68.5613 66.5339 62.4959 65.907 56.4326 59.8523C53.6432 57.0669 52.7856 56.6318 52.7843 58.0027C52.7843 58.4626 51.9073 60.6918 50.8351 62.9572L48.8873 67.0754L53.0082 67.5246C58.4058 68.1128 64.4578 69.6569 67.5527 71.2364C72.0933 73.5525 75.4642 79.0738 75.5391 84.3163L75.5665 86.2441L78.265 83.2588C87.9112 72.586 93.0721 62.1784 93.6884 52.1539L93.8936 48.8117H79.6888H65.4845V47.3078C65.4852 46.1627 65.8709 45.8038 67.1035 45.8038C68.3902 45.8038 68.814 45.3593 69.1743 43.6314C69.955 39.8855 72.7063 35.911 75.755 34.1242C77.3405 33.1951 79.14 32.4351 79.7549 32.4351C80.3692 32.4351 81.3872 31.8335 82.0169 31.0982C83.458 29.4151 84.0015 29.4151 84.5356 31.0982C84.7688 31.8335 85.4774 32.4351 86.1104 32.4351C86.7434 32.4351 88.3771 33.0039 89.742 33.6998C91.9304 34.8161 92.2225 34.8395 92.2225 33.8976C92.2225 31.8897 86.2889 20.7409 83.3117 17.1554C73.0071 4.74455 56.5008 -1.73325 40.6255 0.402401ZM60.7801 15.3767C66.9771 18.5811 67.7445 26.3838 62.3302 31.1377C60.1016 33.0949 59.6404 33.2285 56.0202 32.9665C52.8578 32.7379 51.7368 32.3215 50.1259 30.7781C45.3185 26.1719 46.0311 19.1219 51.6513 15.6948C54.1947 14.1441 58.1317 14.007 60.7801 15.3767ZM78.5196 34.7158C75.9368 35.8635 73.8359 38.1683 72.5358 41.2798C71.1 44.7156 71.2157 45.8038 73.0151 45.8038C74.239 45.8038 74.7671 45.1307 75.7691 42.2945C76.5264 40.1502 78.0277 37.8107 79.6306 36.2786C82.3438 33.6844 81.9828 33.1764 78.5196 34.7158ZM40.9303 80.8886C39.0052 81.4267 35.8535 82.6659 33.9264 83.6425C29.5087 85.8811 23.6399 87.9152 21.5978 87.9152C20.7369 87.9152 20.0317 88.0883 20.0317 88.3002C20.0317 88.7942 40.8808 114.182 44.0064 117.493C45.3072 118.872 46.747 120 47.2055 120C48.7175 120 58.1612 107.739 60.9171 102.197C65.5079 92.9672 65.2486 84.8517 60.2647 81.7709C58.2013 80.4962 56.7207 80.2221 51.1165 80.0798C46.7918 79.9701 43.1929 80.2556 40.9303 80.8886Z" fill="black"/>
</svg>
