<svg width="343" height="320" viewBox="0 0 343 320" fill="none" xmlns="http://www.w3.org/2000/svg">
<mask id="mask0_414_1102" style="mask-type:alpha" maskUnits="userSpaceOnUse" x="0" y="0" width="343" height="320">
<rect width="343" height="320" fill="#D9D9D9"/>
</mask>
<g mask="url(#mask0_414_1102)">
<path fill-rule="evenodd" clip-rule="evenodd" d="M237.924 2.61988C220.026 9.06245 204.653 25.6414 199.175 44.4083C196.491 53.6037 196.489 59.081 199.164 72.0174C200.333 77.6713 201.051 83.0152 200.759 83.8928C200.466 84.7691 199.204 80.3877 197.955 74.1568C196.705 67.9246 195.152 62.2962 194.503 61.6478C193.856 61.0007 186.753 60.0611 178.721 59.5623L164.116 58.655L160.626 43.1519C156.619 25.3637 154.62 20.9824 147.751 14.951C140.957 8.98561 137.449 7.82624 124.425 7.23982C108.631 6.52668 103.426 8.22393 95.0554 16.8154C88.4592 23.5855 87.9657 24.602 85.1388 37.2539C83.5035 44.5755 81.5987 52.842 80.9071 55.6218L79.6493 60.6772L69.2528 60.6974C63.5355 60.7095 58.0797 61.2124 57.1293 61.815C56.1803 62.4176 53.7213 69.2336 51.6681 76.9595C49.6136 84.6868 47.3583 91.0189 46.6546 91.0296C45.9522 91.0418 44.538 91.581 43.5135 92.2308C42.2705 93.0181 41.2405 92.6757 40.4142 91.1981C38.8342 88.3766 35.2658 88.32 35.2658 91.1159C35.2658 92.7808 34.3828 93.0518 31.2215 92.3575C27.7394 91.5931 27.1772 91.8587 27.1772 94.2732C27.1772 96.1484 26.3118 97.0759 24.5606 97.0759C21.2739 97.0759 19.6535 99.5281 21.6325 101.507C23.7261 103.601 23.5023 105.164 21.1108 105.164C18.3296 105.164 18.5615 108.777 21.4478 110.406C23.2542 111.425 23.4362 112.111 22.227 113.334C19.9123 115.672 21.6028 118.885 24.6401 117.92C26.549 117.315 27.1772 117.785 27.1772 119.824C27.1772 123.203 29.4447 124.724 31.6974 122.854C32.9431 121.822 34.0673 122.215 35.867 124.318C38.6886 127.613 39.6822 122.966 21.2199 192.791C15.8289 213.181 11.6633 230.319 11.9625 230.875C12.2618 231.43 19.8192 231.886 28.7545 231.886H45.0032L44.0595 236.941C42.5523 245.019 35.8199 261.338 29.2249 272.896C25.8749 278.769 23.1329 284.057 23.1329 284.649C23.1329 285.241 22.2782 285.397 21.2321 284.996C18.9794 284.132 11 287.98 11 289.932C11 292.736 14.7679 300.121 18.3903 304.419C21.1498 307.69 23.0601 308.763 25.5918 308.463C28.9257 308.067 29.0254 307.777 28.6803 299.486C28.4282 293.431 28.7652 291.191 29.8329 291.851C30.6634 292.364 34.7387 290.164 38.8882 286.963C46.8716 280.804 54.6434 271.366 59.5411 261.881C61.1682 258.729 62.7778 256.152 63.1175 256.152C63.4572 256.152 63.4276 256.648 63.0528 257.256C62.6781 257.862 62.0216 268.851 61.5942 281.674C61.0159 299.055 60.3108 305.713 58.8265 307.832C55.281 312.895 56.2813 316.424 61.7789 318.238C69.7879 320.882 76.6376 320.532 79.8556 317.312L82.6839 314.485L77.9992 311.59C70.2759 306.816 70.059 306.097 73.6503 297.192C78.9092 284.156 83.8796 265.599 84.8826 255.265L85.8196 245.614L100.6 277.372C110.785 299.256 116.153 309.333 117.864 309.78C119.403 310.184 120.055 311.197 119.575 312.446C118.55 315.116 121.207 318.164 124.559 318.164C126.774 318.164 127.139 317.458 126.649 314.12C126.098 310.364 126.356 310.076 130.257 310.076C133.954 310.076 134.451 310.521 134.404 313.783C134.361 316.853 134.931 317.49 137.721 317.49C140.512 317.49 141.082 316.853 141.039 313.783C140.988 310.271 141.31 310.076 147.158 310.076C153.006 310.076 153.328 310.271 153.277 313.783C153.237 316.623 153.935 317.591 156.263 317.922C159.9 318.438 161.684 314.98 159.276 312.08C157.853 310.364 158.372 310.076 162.886 310.076C167.741 310.076 168.156 310.367 168.106 313.747C168.07 316.269 168.836 317.572 170.556 317.916C174.667 318.739 176.018 316.2 173.952 311.533C172.132 307.419 172.017 307.379 161.855 307.379H151.597L144.66 292.588C140.844 284.452 137.721 277.476 137.721 277.085C137.721 276.694 142.49 276.373 148.319 276.373H158.915L163.226 268.285L167.537 260.196L241.268 260.191C311.581 260.187 315.193 260.067 319.239 257.6C321.763 256.06 324.041 253.195 324.863 250.526C325.624 248.059 327.32 225.001 328.631 199.286C331.244 148.066 331.119 146.625 323.848 143.881C321.136 142.856 319.711 141.205 319.16 138.448C317.768 131.496 318.246 130.125 324.429 123.307C330.915 116.156 332.707 110.837 331.249 103.067C330.058 96.7186 326.362 93.2634 319.603 92.1836C314.718 91.4017 313.778 90.6414 311.671 85.7613C310.355 82.7159 307.98 79.0626 306.392 77.6403C302.745 74.3779 296.301 74.3172 292.77 77.5122C289.524 80.4497 289.176 88.3833 292.122 92.278C294.81 95.8329 294.612 97.998 291.275 101.514C289.721 103.15 287.916 105.855 287.265 107.524C286.314 109.956 285.026 110.557 280.764 110.557C273.867 110.557 271.183 109.46 271.183 106.638C271.183 105.383 270.543 103.715 269.76 102.932C268.759 101.932 270.113 101.264 274.306 100.689C282.662 99.5442 287.292 97.1419 288.213 93.4778C289.391 88.7837 288.136 86.8708 282.052 84.0923C277.649 82.0823 276.685 81.0281 277.282 78.8765C280.735 66.4268 280.989 62.5901 278.845 55.2848C276.198 46.2673 269.799 38.2151 262.783 35.0741L257.563 32.7364L265.145 29.6601C277.763 24.5373 279.432 18.3765 270.848 8.5987C263.084 -0.243484 251.647 -2.32091 237.924 2.61988ZM258.345 2.86389C261.361 3.70106 265.974 6.61969 268.885 9.52889C273.137 13.7821 273.985 15.4996 273.633 19.1543C273.239 23.2539 272.382 23.9994 262.767 28.6112C250.904 34.3029 246.934 39.1264 246.918 47.8702C246.907 53.7506 242.35 62.6939 240.08 61.2906C237.186 59.503 231.982 62.2477 228.846 67.2154C224.478 74.1339 222.107 89.8689 223.963 99.6143C225.179 105.995 225.02 107.398 222.65 111.232C219.124 116.939 219.25 119.489 223.326 124.832C226.569 129.085 227.595 134.953 225.878 139.43C225.289 140.966 223.244 141.563 218.571 141.563H212.083L209.953 132.198C207.255 120.336 207.247 106.014 209.93 87.9506C214.298 58.5364 223.895 36.7726 239.74 20.3514C245.11 14.7878 249.172 9.90771 248.767 9.50598C248.364 9.10424 243.599 13.3993 238.178 19.0519C220.938 37.0261 209.272 65.9361 206.724 96.9923L205.667 109.883L203.874 101.794C202.887 97.3455 201.944 89.1558 201.779 83.5949C201.613 78.034 201.007 68.2697 200.43 61.8958C199.568 52.3863 199.811 48.9999 201.779 43.0224C208.094 23.8511 225.604 7.13197 243.879 2.82479C250.908 1.16797 252.248 1.17068 258.345 2.86389ZM163.783 8.88046C163.334 10.0493 163.959 12 165.173 13.2133C167.216 15.2556 167.545 15.2529 169.623 13.1755C171.477 11.3232 171.564 10.5696 170.132 8.84271C167.896 6.14921 164.824 6.16673 163.783 8.88046ZM188.258 9.86322C187.705 11.2046 186.422 11.9811 185.405 11.5915C184.389 11.2019 183.557 11.4702 183.557 12.1873C183.557 12.9059 184.316 13.4842 185.242 13.4734C188.142 13.437 190.656 11.1898 189.944 9.26871C189.435 7.88961 189.011 8.03789 188.258 9.86322ZM111.433 11.0185C106.603 13.6837 101.135 19.4482 98.2167 24.9525C95.7254 29.6506 95.3965 32.297 95.6553 45.511L95.9546 60.6772H89.2019C85.4879 60.6772 82.4493 60.1622 82.4493 59.5326C82.4493 55.9952 89.3906 27.8064 91.038 24.6505C94.841 17.3708 105.533 9.42778 111.433 9.49923L114.13 9.53159L111.433 11.0185ZM129.478 12.066C135.955 15.3716 142.349 22.5947 144.461 28.9941C145.387 31.7982 145.873 38.2866 145.586 43.9782C145.121 53.1979 144.752 54.2845 141.063 57.2988C137.237 60.4237 136.144 60.5828 118.024 60.6286L99.0026 60.6772L98.152 53.5996C95.9128 34.9608 98.2316 24.5616 106.208 17.453C115.88 8.83462 120.876 7.67795 129.478 12.066ZM139.474 11.6252C144.977 14.4009 150.925 19.9174 153.287 24.4348C155.016 27.7471 162.405 58.0281 161.658 58.7467C160.746 59.6243 151.65 59.7645 150.287 58.9219C149.434 58.3948 148.424 58.7265 148.044 59.658C147.662 60.5895 147.436 54.3748 147.541 45.8481C147.759 27.9655 146.028 23.0517 136.468 14.4131C130.609 9.12042 131.981 7.84646 139.474 11.6252ZM168.728 10.7975C168.728 11.5389 168.121 12.1456 167.38 12.1456C166.638 12.1456 166.032 11.5389 166.032 10.7975C166.032 10.056 166.638 9.44936 167.38 9.44936C168.121 9.44936 168.728 10.056 168.728 10.7975ZM187.64 14.7892C186.55 15.4794 186.128 16.5134 186.702 17.089C187.278 17.6633 188.17 17.484 188.685 16.69C189.201 15.896 190.533 14.8997 191.645 14.4764C193.442 13.7916 193.442 13.6972 191.645 13.6204C190.533 13.5732 188.731 14.099 187.64 14.7892ZM266.585 39.7816C268.999 41.6231 272.611 46.4736 274.61 50.5624C277.657 56.7892 278.142 59.2509 277.602 65.7393C277.247 69.9993 276.307 75.0803 275.512 77.0323L274.067 80.5805L265.548 78.6406C259.761 77.3222 255.793 75.4807 253.18 72.9017C249.414 69.1877 249.381 69.0259 251.649 65.564C252.925 63.6174 253.366 62.0253 252.629 62.0253C251.893 62.0253 250.459 63.2696 249.441 64.7889C247.815 67.2208 247.286 67.3287 245.054 65.6881C242.596 63.8816 242.593 63.7063 244.961 60.0921C246.306 58.0403 247.854 53.0523 248.403 49.008C248.952 44.9637 250.416 40.1065 251.655 38.2151C253.527 35.3571 254.608 34.9163 258.051 35.6052C260.331 36.0609 264.171 37.9401 266.585 39.7816ZM144.462 59.1039C144.462 59.7227 143.579 60.2282 142.499 60.2282C141.419 60.2282 140.849 59.7227 141.231 59.1039C141.612 58.4865 142.495 57.981 143.193 57.981C143.892 57.981 144.462 58.4865 144.462 59.1039ZM135.025 62.8233C135.025 63.2628 133.812 65.165 132.329 67.0496C130.742 69.0677 129.633 72.5189 129.633 75.4402C129.633 80.1869 129.274 80.5738 121.413 84.3309C111.938 88.8605 112.463 88.0301 99.403 119.097C94.2479 131.361 90.7536 141.467 91.1917 142.848C91.611 144.17 93.0009 146.178 94.2802 147.309C97.8959 150.509 122.942 160.706 125.128 159.868C126.201 159.455 128.513 160.059 130.266 161.208C132.373 162.588 135.091 163.041 138.284 162.541C140.941 162.124 145.085 161.483 147.495 161.112L151.876 160.441L150.305 187.737C149.439 202.751 148.68 216.369 148.619 217.999C148.509 220.892 148.386 220.914 143.505 218.874C136.241 215.839 121.59 216.867 116.293 220.783C112.296 223.738 112.271 223.739 111.406 221.015C110.928 219.508 111.246 217.421 112.114 216.375C113.364 214.869 112.98 213.762 110.265 211.047C108.38 209.162 105.63 207.62 104.154 207.62C100.666 207.62 91.4182 194.788 88.4362 185.811C87.1757 182.017 86.5475 177.358 86.9937 175.127C87.4858 172.662 86.7269 168.342 84.9797 163.675C82.4884 157.014 81.4948 155.888 76.0647 153.56C70.1883 151.04 70.0414 150.842 72.2671 148.382C73.5411 146.976 74.4416 144.41 74.2704 142.683C74.0992 140.955 74.4187 138.48 74.9782 137.182C77.0178 132.461 74.7975 130.365 68.7768 131.327C60.0924 132.716 57.9436 134.362 58.3695 139.301C58.5731 141.658 59.5235 144.782 60.4834 146.245C63.2052 150.393 62.581 152.345 58.5205 152.378C51.9229 152.43 44.0177 156.989 41.5668 162.154C38.9933 167.579 38.5659 176.141 40.8308 176.896C41.8351 177.231 42.5118 183.926 42.8219 196.586C43.0807 207.137 43.9489 216.997 44.7524 218.498C45.5545 219.998 46.0236 223.169 45.7945 225.544L45.3766 229.864L35.7511 230.257C30.4571 230.473 23.4174 230.17 20.1091 229.583L14.0926 228.516L35.6945 145.944L57.2964 63.3734H68.4816C77.8711 63.3734 79.5442 63.6983 78.893 65.3955C78.4657 66.5077 77.2928 67.4177 76.2858 67.4177C73.7621 67.4177 71.3409 72.3611 72.3331 75.4887C73.9576 80.6088 82.8793 80.5239 84.5146 75.3715C85.0026 73.8319 84.4553 71.284 83.2353 69.4209C79.0669 63.0593 76.8978 63.4448 123.229 62.3138C129.718 62.1547 135.025 62.3852 135.025 62.8233ZM144.462 64.0002C144.462 65.0854 143.255 66.6196 141.782 67.4096C140.307 68.1982 138.697 70.494 138.204 72.5121C137.251 76.4081 135.507 78.1485 132.521 78.1822C130.165 78.2079 131.485 72.4973 135.241 66.4066C138.099 61.7705 144.462 60.1096 144.462 64.0002ZM150.985 65.4589C153.911 71.8772 151.825 83.5949 147.759 83.5949C144.893 83.5949 144.403 79.7514 147.158 78.8765C148.566 78.4303 150.085 76.9056 150.534 75.4887C151.426 72.6779 149.195 67.4177 147.111 67.4177C146.395 67.4177 145.81 66.2044 145.81 64.7215C145.81 60.9023 149.125 61.3755 150.985 65.4589ZM179.513 87.4289C179.513 101.402 179.118 119.298 178.634 127.198L177.755 141.563H172.567C168.544 141.563 167.369 141.033 167.331 139.204C167.304 137.906 166.145 128.124 164.755 117.466L162.227 98.0856L156.166 91.852L150.105 85.617L152.749 80.8987C155.307 76.3313 155.39 72.8478 153.119 65.0585C152.245 62.0549 152.367 62.0253 165.874 62.0253H179.513V87.4289ZM192.426 63.0566C193.227 63.6012 194.861 68.9006 196.056 74.8322C197.253 80.7639 200.686 97.4466 203.685 111.905C206.684 126.363 209.145 138.952 209.155 139.878C209.165 141.024 206.798 141.563 201.756 141.563C197.678 141.563 194.335 141.411 194.328 141.226C193.599 123.364 190.059 74.8403 189.444 74.2781C188.612 73.5165 189.368 96.4086 191.19 127.071L192.051 141.563H186.455H180.861L180.866 121.005C180.869 109.698 181.266 91.8021 181.749 81.2357L182.628 62.0253L186.8 62.0455C189.093 62.0576 191.627 62.5119 192.426 63.0566ZM242.85 68.0297C243.507 69.7593 244.456 73.3628 244.957 76.0361C245.847 80.78 245.766 80.8987 241.647 80.8987C233.426 80.8987 232.184 93.6571 240.248 95.2708C243.607 95.9421 244.146 96.5622 243.433 98.9362C238.411 115.641 230.233 117.212 226.625 102.168C222.392 84.5237 230.518 58.926 238.925 63.4246C240.426 64.2281 242.192 66.3001 242.85 68.0297ZM77.731 71.462C77.2403 73.0082 77.4883 74.1582 78.3147 74.1582C79.106 74.1582 79.7531 72.9085 79.7531 71.3824C79.7531 69.8564 80.3598 68.9815 81.1012 69.4398C84.8826 71.7774 80.7494 79.0181 76.5541 77.4071C74.385 76.5753 73.5208 71.4026 75.2599 69.6649C77.1122 67.8113 78.556 68.8615 77.731 71.462ZM143.505 71.462C143.11 72.9691 143.463 74.1582 144.304 74.1582C145.133 74.1582 145.81 72.9085 145.81 71.3824C145.81 69.8564 146.417 68.9815 147.158 69.4398C150.94 71.7774 146.806 79.0181 142.611 77.4071C139.331 76.1493 139.846 68.7658 143.212 68.7658C143.761 68.7658 143.892 69.9791 143.505 71.462ZM259.05 87.1633C259.05 95.7574 257.313 98.7731 249.596 103.57C245.371 106.197 242.856 107.156 243.311 105.968C247.028 96.2818 248.497 78.7875 246.227 71.2476C245.486 68.7873 246.794 69.5652 252.163 74.781C258.304 80.7463 259.05 82.089 259.05 87.1633ZM145.763 91.2925C148.013 98.4927 149.86 105.013 149.866 105.785C149.888 108.208 130.674 152.905 128.546 155.381C125.682 158.714 123.525 158.398 109.766 152.638C96.0314 146.887 93.2341 144.997 93.2341 141.467C93.2341 140.113 97.8891 128.009 103.579 114.572L113.923 90.1372L121.945 86.0889C130.33 81.8558 131.806 82.0715 132.551 87.6392C133.135 91.9949 138.269 93.0019 140.323 89.1625C141.429 87.0972 141.27 85.9877 139.632 84.3498C138.462 83.1796 136.946 82.5663 136.264 82.9882C135.583 83.4088 134.327 83.3225 133.474 82.7941C131.523 81.5889 135.806 78.2025 139.28 78.2025C141.124 78.2025 142.607 81.1966 145.763 91.2925ZM268.487 81.388L275.902 83.1109L276.254 89.083C276.446 92.367 276.086 95.8464 275.453 96.8143C274.819 97.7823 270.836 98.9335 266.601 99.3703L258.901 100.164L259.986 96.2616C260.583 94.1141 261.011 89.4753 260.936 85.954C260.861 82.4328 260.861 79.5762 260.936 79.6072C261.011 79.6395 264.409 80.4403 268.487 81.388ZM300.77 83.7337C303.19 85.7478 303.617 86.7562 302.377 87.5232C300.336 88.785 301.58 94.8919 304.344 97.1851C307.348 99.679 306.559 101.12 302.19 101.12C298.477 101.12 298.145 100.739 298.145 96.4692C298.145 93.9105 297.324 91.333 296.321 90.7398C293.755 89.2232 292.905 86.0295 294.33 83.2578C295.862 80.2799 296.693 80.3419 300.77 83.7337ZM240.157 86.6281C240.145 88.2957 239.547 90.5713 238.829 91.6835C237.857 93.1879 237.517 92.4101 237.501 88.6502C237.49 85.8705 238.087 83.5949 238.829 83.5949C239.57 83.5949 240.168 84.9605 240.157 86.6281ZM138.395 86.2911C139.847 88.6395 137.696 90.6441 135.594 88.8996C134.556 88.0382 134.04 86.7953 134.446 86.1387C135.43 84.5466 137.364 84.6221 138.395 86.2911ZM162.552 117.971C163.85 128.352 165.198 137.887 165.549 139.16C165.991 140.768 165.173 141.728 162.866 142.306C158.277 143.459 153.769 148.612 152.688 153.945C151.792 158.363 151.669 158.428 141.981 159.621C131.47 160.915 127.682 159.692 130.75 155.997C132.239 154.203 146.867 120.465 150.569 110.287C152.204 105.791 152.064 104.261 149.152 94.7841L145.922 84.2689L153.057 91.6835L160.193 99.098L162.552 117.971ZM283.055 90.6886C283.385 94.5644 282.866 95.8734 280.499 97.1406C277.762 98.6059 277.596 98.4806 278.382 95.5431C278.851 93.7919 279.244 90.6387 279.253 88.5383C279.28 82.9262 282.553 84.7771 283.055 90.6886ZM43.3166 101.748C44.6122 103.309 44.5529 104.942 43.0389 109.5C40.855 116.075 36.7825 117.74 32.4591 113.826C29.5459 111.19 28.9783 103.903 31.4911 101.39C33.7452 99.1358 41.339 99.3663 43.3166 101.748ZM120.87 100.794C112.046 102.892 106.106 113.362 109.328 121.138C114.692 134.089 131.279 135.723 138.212 123.984C141.139 119.031 140.991 113.535 137.789 108.284C134.156 102.325 127.262 99.2733 120.87 100.794ZM318.165 104.814L323.085 109.856L317.693 110.562C314.727 110.951 312.385 111.866 312.489 112.598C312.594 113.329 313.094 115.886 313.601 118.279C314.371 121.911 313.934 123.178 310.969 125.927C306.965 129.638 298.136 131.661 294.595 129.68C292.192 128.334 286.012 130.174 286.012 132.236C286.012 134.575 306.845 135.397 314.323 133.353C315.739 132.966 316.463 134.01 316.741 136.845L317.136 140.889H302.287C288.868 140.889 287.156 140.609 284.524 137.977L281.612 135.065L284.722 130.696C287.005 127.492 288.049 123.69 288.643 116.433C289.663 103.967 291.497 101.814 300.676 102.301C304.324 102.495 307.709 102.006 308.199 101.213C309.855 98.5332 313.222 99.7505 318.165 104.814ZM261.083 105.113C260.606 107.29 260.858 109.334 261.667 109.834C262.453 110.32 263.095 111.269 263.095 111.944C263.095 112.619 260.887 111.673 258.188 109.842C255.49 108.01 252.608 106.492 251.784 106.468C249.123 106.389 255.802 101.735 258.914 101.502C261.555 101.302 261.823 101.748 261.083 105.113ZM266.279 103.142C266.705 104.255 266.531 105.164 265.893 105.164C265.254 105.164 264.382 104.255 263.955 103.142C263.529 102.03 263.703 101.12 264.34 101.12C264.979 101.12 265.852 102.03 266.279 103.142ZM134.685 107.179C136.806 109.644 137.721 112.437 137.721 116.447C137.721 124.418 132.219 129.798 124.064 129.798C110.445 129.798 105.754 111.139 117.648 104.276C122.512 101.469 131.023 102.92 134.685 107.179ZM123.903 107.483C119.805 109.554 119.097 113.31 122.218 116.431C125.145 119.357 124.708 120.403 120.952 119.461C117.281 118.539 114.785 120.902 118.089 122.169C119.247 122.614 120.196 123.824 120.196 124.856C120.196 127.192 120.214 127.191 125.381 124.614C130.01 122.304 130.88 118.737 127.611 115.468C124.851 112.708 125.072 111.56 128.172 112.543C131.751 113.679 132.557 111.696 129.865 108.382C127.818 105.865 127.27 105.782 123.903 107.483ZM253.375 109.066C261.284 113.102 263.595 116.39 262.643 122.256C261.424 129.761 255.771 134.7 247.242 135.71C242.981 136.214 239.379 137.515 237.989 139.049C236.625 140.557 233.892 141.563 231.158 141.563C227.071 141.563 226.745 141.295 227.997 138.956C230.27 134.708 229.613 130.382 225.859 124.856C222.599 120.06 222.451 119.241 223.934 114.29L225.542 108.922L228.566 111.761C232.558 115.512 234.446 115.353 241.591 110.662C244.891 108.496 247.767 106.676 247.983 106.618C248.197 106.56 250.623 107.661 253.375 109.066ZM265.791 107.861C265.791 108.602 265.184 109.209 264.443 109.209C263.701 109.209 263.095 108.602 263.095 107.861C263.095 107.119 263.701 106.513 264.443 106.513C265.184 106.513 265.791 107.119 265.791 107.861ZM268.487 113.927C268.487 115.781 267.881 117.297 267.139 117.297C266.398 117.297 265.791 115.781 265.791 113.927C265.791 112.073 266.398 110.557 267.139 110.557C267.881 110.557 268.487 112.073 268.487 113.927ZM280.957 112.413C286.749 112.316 287.361 112.599 287.361 115.368C287.361 121.331 274.523 120.84 271.266 114.755C269.241 110.972 269.482 110.1 272.194 111.394C273.491 112.013 277.436 112.471 280.957 112.413ZM321.706 115.851C322.845 119.442 319.258 127.436 315.359 129.991C313.58 131.156 309.131 132.427 305.472 132.815L298.819 133.522L305.162 131.452C312.69 128.998 315.671 125.279 315.671 118.345C315.671 114.212 316.161 113.253 318.277 113.253C319.71 113.253 321.252 114.422 321.706 115.851ZM280.795 120.553C286.877 120.665 287.005 120.754 285.773 124.038C280.922 136.962 272.131 141.563 252.291 141.563C240.184 141.563 238.704 141.316 240.177 139.541C241.214 138.293 244.173 137.519 247.915 137.519C253.157 137.519 254.681 136.812 259.21 132.286C262.088 129.406 264.443 125.797 264.443 124.263C264.443 120.798 268.274 118.361 271.857 119.546C273.34 120.037 277.363 120.49 280.795 120.553ZM101.917 130.908C100.471 133.248 103.88 135.671 115.724 140.723C124.97 144.666 127.007 145.125 128.31 143.554C130.687 140.691 129.239 139.537 116.696 134.286C103.899 128.929 103.234 128.776 101.917 130.908ZM116.347 136.322C127.098 140.872 127.721 141.227 126.712 142.237C126.028 142.921 106.117 134.674 104.466 133.024C102.552 131.109 106.842 132.3 116.347 136.322ZM71.4582 139.878C72.1687 141.233 72.2024 143.541 71.5365 145.301C70.5038 148.039 70.0535 148.184 67.3155 146.65C65.6291 145.706 64.0532 144.838 63.8132 144.722C63.3495 144.497 69.1854 137.519 69.8379 137.519C70.0495 137.519 70.7774 138.58 71.4582 139.878ZM258.082 148.003C255.695 150.022 253.237 153.089 252.619 154.819L251.494 157.963L225.821 157.801C204.231 157.665 199.874 157.97 198.428 159.713C197.054 161.368 197.045 162.192 198.386 163.807C199.766 165.469 204.452 165.829 224.759 165.829C242.38 165.829 249.738 165.371 250.444 164.227C251.039 163.268 252.404 165.476 253.852 169.737L256.271 176.85L252.15 191.223C249.883 199.13 246.291 208.336 244.167 211.681C242.044 215.027 239.324 220.117 238.123 222.994C236.181 227.638 236.162 228.45 237.955 230.243C239.748 232.036 240.66 231.859 246.097 228.673C249.464 226.7 253.829 222.974 255.797 220.393C259.021 216.167 259.211 215.307 257.721 211.709C256.341 208.378 256.408 207.373 258.124 205.657C259.255 204.526 260.884 201.471 261.743 198.87C262.601 196.268 263.747 194.139 264.288 194.139C265.864 194.139 273.378 205.423 276.494 212.467C278.067 216.021 280.9 220.96 282.793 223.441C286.227 227.943 286.254 227.951 296.571 227.56C305.878 227.207 306.908 226.899 306.908 224.471C306.908 222.135 305.874 221.721 299.156 221.371L291.405 220.966V214.9C291.405 206.236 288.207 200.59 283.607 201.13C280.16 201.536 280.003 201.276 279.761 194.754C279.622 191.014 278.491 184.453 277.247 180.173L274.985 172.392L278.458 167.379C280.368 164.622 284.873 160.122 288.469 157.38C296.005 151.633 309.811 145.16 311.846 146.418C312.608 146.888 314.685 146.496 316.462 145.545C320.62 143.32 325.984 145.54 327.763 150.221C329.301 154.264 324.397 247.247 322.403 251.84C319.734 257.992 316.881 258.199 240.696 257.771L169.09 257.369L172.519 250.94C177.01 242.517 176.033 239.974 168.3 239.974C162.708 239.974 162.268 239.687 159.944 234.535C158.595 231.543 155.99 227.476 154.155 225.496L150.82 221.896L152.414 189.481C153.292 171.653 154.334 155.405 154.732 153.375C155.128 151.345 157.006 148.464 158.903 146.972C162.219 144.363 164.261 144.261 212.386 144.296L262.421 144.332L258.082 148.003ZM68.3589 154.01C65.2677 155.741 63.8428 154.254 64.6328 150.124L65.3284 146.486L67.8966 149.659C70.1789 152.476 70.2301 152.963 68.3589 154.01ZM171.629 158.9C170.629 159.552 170.03 161.227 170.298 162.62C170.712 164.764 172.031 165.155 178.857 165.155C186.566 165.155 186.927 165.004 186.927 161.785C186.927 158.685 186.384 158.386 180.187 158.064C176.479 157.871 172.628 158.247 171.629 158.9ZM294.116 159.745C290.901 163.618 293.516 165.829 301.308 165.829C309.569 165.829 313.248 163.34 310.278 159.763C308.023 157.045 296.367 157.033 294.116 159.745ZM186.253 161.785C186.253 162.526 182.88 163.133 178.759 163.133C174.107 163.133 171.58 162.622 172.098 161.785C172.556 161.043 175.928 160.437 179.592 160.437C183.256 160.437 186.253 161.043 186.253 161.785ZM249.614 161.785C249.614 162.635 240.402 163.133 224.674 163.133C208.946 163.133 199.734 162.635 199.734 161.785C199.734 160.934 208.946 160.437 224.674 160.437C240.402 160.437 249.614 160.934 249.614 161.785ZM308.93 161.785C308.93 162.526 305.897 163.133 302.19 163.133C298.482 163.133 295.449 162.526 295.449 161.785C295.449 161.043 298.482 160.437 302.19 160.437C305.897 160.437 308.93 161.043 308.93 161.785ZM53.4409 182.986C53.9666 186.49 55.548 191.617 56.9568 194.378C60.1464 200.629 70.8206 208.968 75.6333 208.968C79.5037 208.968 82.4493 211.137 82.4493 213.987C82.4493 215.382 81.755 215.316 79.2691 213.687C77.5193 212.541 75.1467 211.965 73.9941 212.407C71.2561 213.457 58.1835 207.011 51.5684 201.347C48.1523 198.423 46.1073 195.375 45.6206 192.482C45.2135 190.057 44.4842 185.495 43.9988 182.343L43.1171 176.614H47.8018C52.3516 176.614 52.512 176.794 53.4409 182.986ZM179.047 179.489C175.937 181.298 171.493 190.882 171.454 195.867C171.409 201.435 174.775 208.452 178.733 211.046C189.08 217.824 200.426 197.771 193.654 184.675C190.425 178.432 184.491 176.325 179.047 179.489ZM215.501 179.913C214.322 181.092 205.095 194.244 194.998 209.141C177.55 234.881 174.705 240.845 180.4 239.737C181.634 239.497 191.419 226.356 202.143 210.535C219.379 185.11 221.411 181.536 219.644 179.768C217.877 178.001 217.395 178.019 215.501 179.913ZM85.1455 181.79C85.1455 185.337 92.3997 199.312 97.3297 205.261C99.8776 208.336 102.695 210.316 104.522 210.316C108.236 210.316 110.793 212.705 109.813 215.26C109.235 216.764 108.659 216.582 107.145 214.421C106.083 212.905 103.861 211.664 102.207 211.664C98.7411 211.664 87.932 201.144 84.617 194.544C82.2295 189.79 81.6661 179.31 83.7974 179.31C84.5389 179.31 85.1455 180.426 85.1455 181.79ZM187.799 189.317C189.627 193.328 188.289 201.327 185.389 203.734C182.052 206.503 177.667 200.423 178.647 194.387C179.994 186.081 185.049 183.281 187.799 189.317ZM90.9396 211.418C83.4307 212.094 82.4493 211.182 82.4493 203.525V196.647L89.0591 203.818L95.6701 210.99L90.9396 211.418ZM278.498 201.779C278.973 203.015 278.83 204.557 278.18 205.207C276.673 206.714 273.344 202.836 274.517 200.939C275.801 198.863 277.518 199.225 278.498 201.779ZM286.046 207.034C287.743 211.499 287.754 223.797 286.06 223.797C283.647 223.797 281.963 218.96 283.717 217.065C285.011 215.666 284.863 215.48 282.979 216.141C280.322 217.077 279.686 214.962 282.305 213.905C283.233 213.532 282.691 213.177 281.101 213.119C277.162 212.973 275.714 208.941 279.267 208.012C280.752 207.624 281.968 206.466 281.968 205.44C281.968 202.314 284.65 203.361 286.046 207.034ZM209.176 208.755C196.415 221.516 205.923 247.494 219.798 237.776C228.717 231.529 228.868 211.042 220.03 206.312C215.867 204.084 213.261 204.67 209.176 208.755ZM253.638 207.658C252.077 210.574 249.614 210.09 249.614 206.866C249.614 205.797 250.849 204.924 252.357 204.924C254.696 204.924 254.885 205.327 253.638 207.658ZM250.328 211.73C250.932 212.708 251.752 212.688 252.984 211.664C255.845 209.29 256.91 212.638 254.476 216.352C251.724 220.554 243.891 226.493 241.105 226.493C239.394 226.493 239.166 225.832 240.064 223.46C240.793 221.535 242.104 220.594 243.655 220.884C245.76 221.278 245.848 221.039 244.295 219.168C242.726 217.278 242.823 217.112 245.042 217.898C247.086 218.622 247.269 218.453 245.97 217.049C244.843 215.831 244.755 214.534 245.68 212.806C247.168 210.025 249.011 209.599 250.328 211.73ZM218.56 215.62C220.589 219.412 220.27 225.445 217.857 228.889C214.88 233.14 212.135 232.603 210.779 227.505C208.339 218.335 214.763 208.525 218.56 215.62ZM77.3939 215.253C76.4678 215.628 74.9512 215.628 74.0237 215.253C73.0975 214.88 73.8552 214.574 75.7088 214.574C77.5625 214.574 78.3214 214.88 77.3939 215.253ZM100.312 215.347C97.1611 215.632 92.0033 215.632 88.8528 215.347C85.7023 215.064 88.2798 214.831 94.5822 214.831C100.885 214.831 103.462 215.064 100.312 215.347ZM69.2649 217.659C73.1851 219.297 74.6344 221.216 78.2891 229.598C80.6847 235.092 82.8281 241.263 83.0533 243.312C83.9511 251.491 80.7764 269.399 75.6158 285.261C70.2504 301.751 70.1169 301.987 66.1184 301.987C62.1348 301.987 62.0754 301.885 62.7697 296.258C63.1593 293.107 63.8523 281.429 64.3093 270.307C65.1788 249.162 66.6644 239.12 69.8405 232.897C70.8826 230.859 71.2574 229.19 70.675 229.19C68.6798 229.19 66.2222 234.629 64.1205 243.702C60.2798 260.278 47.4863 279.547 34.8412 287.801C31.1285 290.226 30.987 290.22 28.2786 287.51L25.5096 284.741L34.3855 266.74C43.9961 247.25 47.3987 236.293 47.3987 224.838C47.3987 220.806 47.8031 217.101 48.2979 216.608C49.952 214.954 64.5398 215.686 69.2649 217.659ZM80.4016 221.775C82.5895 232.315 82.4965 232.66 79.1371 226.493C75.2262 219.319 75.0644 218.405 77.7054 218.405C78.8027 218.405 80.016 219.921 80.4016 221.775ZM109.132 221.702C110.362 224.4 110.181 225.561 108.143 228.077C105.866 230.89 104.737 231.117 95.0608 230.721C89.237 230.481 84.3893 230.19 84.2881 230.074C84.1884 229.958 83.6801 227.286 83.1584 224.134L82.212 218.405H94.922C107.095 218.405 107.694 218.544 109.132 221.702ZM136.669 219.812C139.425 220.578 143.548 222.774 145.828 224.692C149.827 228.059 156.054 238.269 154.844 239.478C154.519 239.803 147.652 239.869 139.585 239.625C129.898 239.331 125.944 238.804 127.948 238.072C129.712 237.428 130.981 235.836 130.981 234.268C130.981 232.112 130.299 231.703 127.578 232.222C125.707 232.58 123.868 232.374 123.491 231.765C122.003 229.357 118.805 232.297 119.158 235.748C119.506 239.137 119.197 239.319 112.445 239.708C104.279 240.178 103.791 239.206 108.407 231.651C111.896 225.942 116.452 222.118 122.218 220.06C127.507 218.174 130.579 218.12 136.669 219.812ZM305.24 224.471C305.065 225.213 301.88 226.003 298.163 226.227C291.901 226.604 290.008 225.644 292.366 223.286C293.815 221.836 305.607 222.921 305.24 224.471ZM270.694 233.606C269.219 234.685 268.673 236.194 269.233 237.65C270.015 239.689 272.325 239.974 288.035 239.974C303.332 239.974 306.068 239.655 306.787 237.781C308.621 232.999 305.226 231.886 288.802 231.886C278.152 231.886 272.285 232.444 270.694 233.606ZM103.774 236.604C102.37 239.683 101.499 239.974 93.6911 239.974C85.4744 239.974 85.1455 239.845 85.1455 236.604C85.1455 233.309 85.372 233.234 95.228 233.234H105.309L103.774 236.604ZM304.549 236.267C304.142 237.489 299.599 237.952 288.035 237.952C276.471 237.952 271.928 237.489 271.52 236.267C271.09 234.978 274.973 234.582 288.035 234.582C301.096 234.582 304.979 234.978 304.549 236.267ZM102.7 247.726C102.749 258.307 108.174 267.21 118.101 273.003C119.797 273.992 117.887 274.351 110.914 274.351H101.418L94.4838 259.522C90.6714 251.366 87.2472 243.935 86.8778 243.008C86.3844 241.77 88.3917 241.323 94.438 241.323H102.671L102.7 247.726ZM118.32 244.791C119.398 249.088 124.04 251.015 129.524 249.442C136.282 247.505 136.861 252.312 130.176 254.853C126.699 256.175 126.319 257.133 128.134 259.998C129.06 261.461 129.893 261.5 132.329 260.196C134.714 258.919 135.589 258.927 136.394 260.23C137.752 262.427 140.623 260.565 140.268 257.717C140.114 256.486 140.455 253.805 141.026 251.761C141.751 249.164 141.399 247.03 139.861 244.683L137.659 241.323H146.453C151.417 241.323 155.247 241.91 155.247 242.671C155.247 243.412 154.706 244.019 154.044 244.019C152.664 244.019 150.712 250.719 151.782 251.788C152.173 252.179 153.074 251.046 153.784 249.27C155.04 246.13 155.077 246.153 155.105 250.085C155.121 252.31 153.926 256.253 152.448 258.848C150.446 262.364 149.992 262.707 150.667 260.196C151.165 258.342 151.858 256.068 152.205 255.141C152.555 254.214 152.278 253.455 151.593 253.455C150.907 253.455 149.292 256.8 148.003 260.888C145.247 269.635 141.712 272.47 132.454 273.36C117.3 274.816 104.019 261.962 104.019 245.84V241.323H110.734C116.823 241.323 117.53 241.646 118.32 244.791ZM128.622 242.215C127.696 242.59 126.179 242.59 125.252 242.215C124.325 241.842 125.083 241.536 126.937 241.536C128.79 241.536 129.549 241.842 128.622 242.215ZM173.404 242.603C173.84 243.307 172.511 246.937 170.451 250.672C167.607 255.827 165.941 257.466 163.528 257.481C161.181 257.494 160.565 256.943 161.169 255.367C161.619 254.194 161.987 250.554 161.987 247.278V241.323H167.3C170.223 241.323 172.969 241.898 173.404 242.603ZM164.683 260.967C164.683 261.39 163.109 264.424 161.185 267.708C157.841 273.414 157.41 273.677 151.411 273.672L145.136 273.668L149.33 271.109C151.638 269.703 154.864 266.671 156.5 264.374C159.013 260.843 164.683 258.483 164.683 260.967ZM268.592 267.484C266.691 269.774 267.703 272.329 270.509 272.329C273.428 272.329 274.397 269.573 272.238 267.414C270.523 265.699 270.067 265.707 268.592 267.484ZM255.846 278.393C245.714 284.957 231.816 290.743 215.175 295.325C200.943 299.244 197.279 300.923 205.126 299.931C220.03 298.047 252.803 284.451 263.769 275.605C270.295 270.34 265.876 271.895 255.846 278.393ZM265.314 278.378C259.278 283.71 242.792 291.992 227.37 297.443C221.438 299.538 217.602 301.453 218.843 301.7C222.026 302.328 247.542 292.132 257.115 286.407C265.043 281.664 274.378 273.624 271.832 273.734C271.104 273.765 268.172 275.854 265.314 278.378ZM141.913 291.657C145.656 299.693 148.505 306.482 148.242 306.746C147.979 307.009 140.853 307.334 132.406 307.468L117.05 307.712L111.092 295.077C107.817 288.126 104.589 281.056 103.922 279.365L102.706 276.291L118.906 276.668L135.106 277.047L141.913 291.657ZM20.8263 289.85C21.2132 291.332 22.6489 292.999 24.0173 293.557C25.7105 294.249 26.5072 295.969 26.5166 298.954C26.5315 304.218 26.1675 304.4 24.481 299.965C23.7759 298.111 22.3335 296.595 21.2765 296.595C20.2183 296.595 18.6869 294.684 17.8726 292.35C16.0231 287.046 16.0149 287.158 18.2568 287.158C19.2827 287.158 20.4394 288.37 20.8263 289.85ZM26.8685 289.602C27.1624 290.482 26.4412 291.202 25.267 291.202C24.0928 291.202 23.1329 290.242 23.1329 289.068C23.1329 286.688 26.0354 287.101 26.8685 289.602ZM22.4022 301.529C27.707 306.99 27.7636 308.957 22.5182 305.52C18.8244 303.101 13.6638 294.112 13.7488 290.245C13.7811 288.792 14.559 289.574 15.7063 292.213C16.7537 294.622 19.7667 298.815 22.4022 301.529ZM184.223 297.951C181.428 301.039 181.554 301.289 186.508 302.476C190.792 303.504 191.745 302.414 190.183 298.28C188.769 294.539 187.381 294.462 184.223 297.951ZM188.275 299.291C188.734 300.032 188.127 300.639 186.927 300.639C185.727 300.639 185.121 300.032 185.579 299.291C186.037 298.549 186.644 297.943 186.927 297.943C187.21 297.943 187.817 298.549 188.275 299.291ZM67.6202 305.582C67.6202 306.571 66.7102 307.379 65.5981 307.379C64.4859 307.379 63.5759 306.571 63.5759 305.582C63.5759 304.593 64.4859 303.784 65.5981 303.784C66.7102 303.784 67.6202 304.593 67.6202 305.582ZM67.848 309.101C69.1988 307.981 70.4741 308.3 73.0126 310.392L76.3829 313.172L72.6756 312.272C70.2908 311.693 68.9683 311.914 68.9683 312.892C68.9683 314.545 62.4381 313.443 60.3904 311.445C58.2105 309.318 60.8029 307.308 63.5288 309.011C65.3757 310.165 66.535 310.188 67.848 309.101ZM64.494 315.345C66.8437 316.018 69.157 316.179 69.6356 315.7C70.1142 315.221 72.534 314.821 75.0145 314.812C78.6746 314.797 79.2355 315.141 77.9939 316.637C76.2602 318.726 64.1017 318.038 59.9347 315.614C56.9109 313.853 58.8886 313.737 64.494 315.345Z" fill="black"/>
</g>
</svg>
