<svg width="343" height="320" viewBox="0 0 343 320" fill="none" xmlns="http://www.w3.org/2000/svg">
<mask id="mask0_414_3873" style="mask-type:alpha" maskUnits="userSpaceOnUse" x="0" y="0" width="343" height="320">
<rect width="343" height="320" fill="#D9D9D9"/>
</mask>
<g mask="url(#mask0_414_3873)">
<path fill-rule="evenodd" clip-rule="evenodd" d="M165.564 0.720293C153.149 2.79631 136.712 10.6964 128.248 18.6568C121.997 24.5356 124.021 24.967 130.987 19.2401C145.675 7.16608 158.998 2.52517 179.06 2.49368C188.094 2.47861 191.619 2.05273 190.214 1.14481C188.21 -0.150646 172.4 -0.421791 165.564 0.720293ZM170.357 7.57828C162.993 8.55466 151.291 12.2794 146.393 15.2059C139.038 19.6016 131.329 25.8639 131.329 27.4429C131.329 28.2248 133.949 26.7198 137.149 24.1015C148.677 14.6704 163.51 9.37767 178.519 9.3407C184.365 9.32564 186.188 8.92988 184.736 7.99184C182.691 6.67036 178.179 6.54027 170.357 7.57828ZM299.766 18.9471C299.766 19.7002 300.382 20.3165 301.135 20.3165C301.889 20.3165 302.505 19.7002 302.505 18.9471C302.505 18.1939 301.889 17.5777 301.135 17.5777C300.382 17.5777 299.766 18.1939 299.766 18.9471ZM296.771 22.6212C297.758 23.0169 298.94 22.9676 299.395 22.513C299.849 22.0584 299.042 21.7352 297.598 21.7941C296.003 21.8598 295.678 22.1843 296.771 22.6212ZM303.618 22.6212C304.605 23.0169 305.787 22.9676 306.242 22.513C306.697 22.0584 305.889 21.7352 304.445 21.7941C302.85 21.8598 302.525 22.1843 303.618 22.6212ZM194.986 25.827C192.999 29.0437 196.124 35.5511 201.948 40.3235C205.27 43.0459 207.704 45.7326 207.356 46.2955C206.523 47.6416 210.351 73.0632 212.31 79.2009C215.661 89.6988 220.072 90.9257 234.688 85.4248L243.62 82.063L243.596 91.9295C243.572 101.413 242.037 119.177 240.156 131.723C239.368 136.975 239.596 137.788 242.033 138.425C244.563 139.086 244.846 140.431 245.24 153.684C245.48 161.677 245.366 168.226 244.99 168.237C244.613 168.248 238.451 167.237 231.296 165.991L218.286 163.727L212.169 153.332C203.816 139.138 203.119 130.462 209.244 116.953C211.58 111.797 213.493 105.395 213.493 102.723C213.493 96.2377 208.913 87.1188 203.082 82C185.447 66.5147 146.703 95.427 147.231 123.678C147.357 130.378 148.447 134.091 153.051 143.49C156.167 149.853 158.717 156.103 158.717 157.38C158.717 160.734 154.92 161.764 153.939 158.676C153.494 157.272 148.072 151.529 141.887 145.911C135.704 140.294 129.263 133.232 127.574 130.219L124.504 124.74L129.802 121.235C136.616 116.725 142.284 105.722 142.284 97.0032C142.284 87.4502 136.767 77.5193 128.474 72.1457C123.463 68.8989 120.904 65.9861 118.521 60.8207C111.181 44.9014 93.0789 31.2717 79.2781 31.2717C67.7367 31.2717 57.0978 36.7658 51.7928 45.467C48.1187 51.4924 48.4692 54.3914 54.1632 65.0508C56.913 70.1971 59.2478 76.5552 59.3546 79.179C59.5326 83.6172 59.078 84.1677 52.8499 87.0531C44.4336 90.9531 43.6872 90.9299 43.6872 86.7641C43.6872 82.0753 49.2251 78.6148 55.0013 79.6939C59.1081 80.4607 59.2423 80.3745 56.8171 78.5217C52.5843 75.2871 45.2141 77.8972 42.0892 83.7364C40.6006 86.5176 42.993 97.0032 45.1155 97.0032C46.4712 97.0032 47.764 102.338 46.9341 104.502C46.563 105.467 43.0628 106.673 39.1531 107.179C23.6802 109.183 14.9174 117.225 12.8702 131.3C11.7746 138.832 15.5008 158.425 18.4368 160.574C20.1705 161.842 20.2417 164.53 18.9462 179.682C18.1177 189.38 17.7904 198.624 18.2177 200.223C18.6463 201.823 17.4029 216.381 15.4542 232.574C11.4679 265.696 11.5815 290.621 15.7322 293.73C17.6275 295.151 17.5727 295.872 15.2064 300.578C7.13372 316.631 8.16763 320.575 20.2841 319.935L27.9391 319.531L27.7679 311.315C27.4119 294.325 31.5105 258.278 34.7889 249.562C36.5143 244.971 39.249 236.398 40.8649 230.509C44.5719 216.993 45.8673 214.614 45.9057 221.253C45.9221 224.091 46.0974 245.948 46.2946 269.826L46.6534 313.24L54.4138 315.516C65.5087 318.77 71.6204 319.385 74.9864 317.583C79.9258 314.94 78.3469 311.4 68.3612 302.719C63.1027 298.15 59.3738 294.207 60.0749 293.961C62.9849 292.938 68.1078 259.306 69.0089 235.313C69.532 221.397 70.7275 208.517 71.8614 204.595C72.935 200.881 73.8758 192.562 73.9511 186.108C74.0264 179.655 74.4989 172.905 75.0014 171.11C75.8724 168.004 76.301 168.259 83.767 176.323L91.6164 184.801L91.637 237.788C91.6493 266.93 92.1108 291.449 92.664 292.273C93.9951 294.258 174.722 314.765 180.741 314.648C183.315 314.597 203.291 311.34 225.133 307.407L264.846 300.257L265.225 280.875C265.576 262.944 265.807 261.429 268.313 260.633C269.805 260.16 272.837 258.248 275.052 256.383C278.785 253.243 279.022 252.494 278.277 246.207C277.573 240.258 277.782 239.421 279.973 239.421C281.348 239.421 283.767 240.637 285.349 242.124C290.313 246.787 294.497 246.276 297.575 240.633C300.093 236.014 300.151 235.025 298.431 225.912C296.66 216.525 296.436 216.141 292.7 216.141C288.919 216.141 288.811 215.943 288.834 208.952C288.848 204.999 289.427 196.217 290.121 189.438C290.815 182.659 291.55 166.792 291.752 154.176C292.082 133.568 292.357 131.238 294.468 131.238C295.971 131.238 297.413 133.083 298.479 136.374C301.165 144.665 310.802 161.365 312.899 161.365C313.961 161.365 314.829 160.713 314.829 159.918C314.829 159.107 316.167 159.408 317.874 160.602C321.676 163.267 325.785 163.362 325.785 160.786C325.785 158.205 319.447 150.756 316.438 149.801C314.523 149.193 314.004 147.211 313.775 139.618C313.496 130.343 313.557 130.161 317.568 128.499C319.811 127.57 323.769 124.461 326.364 121.589C336.985 109.833 336.35 90.7299 324.951 79.0503C320.222 74.2053 313.822 70.8023 300.778 66.1998C292.911 63.424 291.695 61.4082 290.944 49.9066C290.053 36.2701 287.072 32.6411 276.761 32.6411C268.724 32.6411 264.678 36.5097 262.769 46.0202C259.818 60.7221 260.679 59.5924 251.815 60.3962C246.291 60.8974 241.161 62.5572 235.392 65.7123C227.115 70.2368 226.972 70.2628 224.977 67.561C223.865 66.0546 221.67 60.5085 220.101 55.2363C218.53 49.9641 216.71 45.0657 216.054 44.3495C215.4 43.6333 214.863 42.1968 214.863 41.1561C214.863 40.1153 212.625 36.533 209.891 33.1957C206.431 28.9739 204.434 27.5278 203.328 28.4453C202.249 29.3409 201.207 28.9095 200.073 27.0937C198.236 24.1508 196.317 23.6729 194.986 25.827ZM299.766 26.4788C299.766 27.6086 300.382 28.5329 301.135 28.5329C301.889 28.5329 302.505 27.6086 302.505 26.4788C302.505 25.349 301.889 24.4247 301.135 24.4247C300.382 24.4247 299.766 25.349 299.766 26.4788ZM205.522 35.3799C206.301 35.3799 206.585 34.4556 206.151 33.3258C204.837 29.9023 206.078 30.9882 210.088 36.774C214.694 43.4224 213.688 45.0616 207.156 41.5436C201.262 38.3693 197.055 33.2916 197.076 29.3751C197.089 26.8266 197.511 27.0129 200.599 30.9294C202.527 33.3765 204.743 35.3799 205.522 35.3799ZM92.4107 36.6562C102.381 41.0671 115.291 55.1898 118.157 64.8221C118.899 67.3158 118.331 67.561 111.799 67.561C107.853 67.561 103.24 68.0649 101.546 68.6798C98.9592 69.6192 98.2197 69.181 96.9324 65.9409C96.0889 63.8197 95.1235 62.8201 94.788 63.7198C94.4525 64.6195 94.8208 66.5586 95.6082 68.0279C96.8106 70.2738 96.3066 71.2597 92.4573 74.1957C78.4975 84.8442 78.7426 109.002 92.9269 120.401C97.8212 124.334 98.0211 124.816 97.4063 131.211C97.053 134.892 97.4569 139.893 98.3046 142.325C99.1523 144.757 99.5384 147.052 99.1632 147.427C98.0923 148.5 87.0741 144.886 84.538 142.63C82.6824 140.983 82.5195 139.831 83.6698 136.53C84.794 133.303 84.6612 132.119 83.0261 130.822C81.8923 129.921 80.2778 127.027 79.4411 124.391C76.705 115.774 72.961 111.077 67.4149 109.303C64.5323 108.382 61.7538 107.239 61.2389 106.766C60.7254 106.292 61.3046 101.75 62.5261 96.6704C64.2023 89.7097 65.443 87.2064 67.5697 86.5012C70.2701 85.6042 70.251 85.5303 67.1096 84.7511C64.7542 84.1677 63.3725 82.4012 62.2112 78.4888C61.3211 75.4912 58.6398 69.3412 56.2515 64.8221C50.9067 54.7063 50.7136 49.3301 55.4901 43.6525C64.3009 33.1807 78.4797 30.4939 92.4107 36.6562ZM279.293 40.8576C279.962 40.8576 280.137 41.8257 279.682 43.0103C279.228 44.1948 280.108 46.8569 281.638 48.9261L284.419 52.6892L280.289 54.2476C276.768 55.5759 276.255 56.3715 276.813 59.6294C277.174 61.7328 277.929 64.5305 278.494 65.8492C279.31 67.7595 278.835 68.2457 276.152 68.2457C272.742 68.2457 264.161 65.6999 264.161 64.6879C264.161 64.3853 265.368 62.931 266.843 61.4561C269.047 59.2514 269.382 57.5794 268.726 52.0415C268.046 46.3023 268.374 44.8617 270.944 42.2913C272.626 40.6097 274.87 39.6265 276.019 40.0674C277.153 40.5015 278.626 40.8576 279.293 40.8576ZM217.663 54.894C222.844 72.5292 224.842 73.7246 237.677 66.8763C243.911 63.55 247.032 62.768 254.084 62.768C260.448 62.768 262.792 63.2624 262.792 64.6017C262.792 68.7277 279.632 71.8198 280.927 67.9321C281.335 66.7092 282.581 66.942 285.491 68.7879C290.339 71.8623 293.531 75.5446 296.978 82.0397C300.553 88.7771 310.48 125.518 311.552 135.982C312.423 144.494 312.404 144.557 308.625 145.506C306.442 146.054 304.451 145.865 303.955 145.064C303.48 144.294 299.417 132.862 294.924 119.659C290.432 106.455 286.409 95.6474 285.983 95.642C284.796 95.6296 280.594 105.01 280.598 107.663C280.601 108.955 282.758 114.291 285.391 119.52C291.633 131.912 291.718 137.188 285.73 140.406C279.593 143.705 265.779 143.345 255.388 139.618C250.94 138.022 245.921 136.716 244.235 136.716C241.396 136.716 241.257 136.335 242.345 131.581C243.963 124.52 247.066 80.8195 246.024 79.7788C245.561 79.3159 241.095 80.5717 236.1 82.5696C230.48 84.8182 225.092 86.0424 221.967 85.7836C217.221 85.3879 216.777 84.9442 214.603 78.3902C213.329 74.5545 211.534 66.0258 210.612 59.4376C209.194 49.2986 209.233 47.2705 210.872 46.2338C214.208 44.1222 214.674 44.7152 217.663 54.894ZM29.9932 63.4527C29.9932 64.5825 29.0689 65.5068 27.9391 65.5068C26.8093 65.5068 25.885 66.1231 25.885 66.8763C25.885 67.6294 26.8093 68.2457 27.9391 68.2457C29.0689 68.2457 29.9932 69.17 29.9932 70.2998C29.9932 71.4295 30.6094 72.3539 31.3626 72.3539C32.1158 72.3539 32.732 71.4295 32.732 70.2998C32.732 69.17 33.6564 68.2457 34.7861 68.2457C35.9159 68.2457 36.8402 67.6294 36.8402 66.8763C36.8402 66.1231 35.9159 65.5068 34.7861 65.5068C33.6564 65.5068 32.732 64.5825 32.732 63.4527C32.732 62.323 32.1158 61.3986 31.3626 61.3986C30.6094 61.3986 29.9932 62.323 29.9932 63.4527ZM32.732 66.8763C32.732 67.6294 32.1158 68.2457 31.3626 68.2457C30.6094 68.2457 29.9932 67.6294 29.9932 66.8763C29.9932 66.1231 30.6094 65.5068 31.3626 65.5068C32.1158 65.5068 32.732 66.1231 32.732 66.8763ZM123.499 71.4775C143.084 79.7541 145.537 108.962 127.602 120.336C120.186 125.038 112.863 126.425 105.672 124.488C86.7427 119.392 78.1689 98.8094 88.2162 82.5861C95.322 71.1118 110.974 66.1847 123.499 71.4775ZM199.939 82.2834C202.648 84.0787 206.195 88.5128 208.428 92.8963C212.833 101.545 212.613 105.752 207.191 116.45C200.631 129.399 201.395 139.331 210.062 153.724C212.728 158.151 214.619 162.066 214.263 162.421C213.684 163 198.429 160.679 192.784 159.152C191.561 158.822 187.556 153.484 183.883 147.292C177.466 136.472 177.206 135.629 177.245 125.761C177.273 118.559 178.019 114.122 179.742 110.912C181.093 108.394 181.853 105.988 181.43 105.566C181.007 105.143 179.293 107.819 177.621 111.512C171.781 124.415 173.634 135.874 184.039 151.206C185.929 153.991 187.475 156.646 187.476 157.106C187.476 157.565 183.624 157.942 178.917 157.942C174.209 157.942 168.362 158.387 165.923 158.932C161.887 159.831 161.408 159.586 160.591 156.193C160.095 154.142 157.553 148.182 154.94 142.948C145.423 123.878 147.989 109.05 163.49 93.5495C176.677 80.3621 190.561 76.0704 199.939 82.2834ZM116.95 91.5255C114.013 97.5509 111.27 102.474 110.857 102.466C110.442 102.457 107.819 98.7601 105.027 94.2493C102.235 89.7385 99.4617 86.0671 98.8647 86.0917C98.2676 86.115 96.6668 86.9791 95.307 88.0103C92.9886 89.7672 93.3748 90.7655 101.469 103.96C106.218 111.701 110.736 118.239 111.51 118.486C113.17 119.019 130.242 83.5049 129.164 81.7617C128.76 81.1057 127.048 80.5703 125.36 80.5703C122.883 80.5703 121.263 82.6805 116.95 91.5255ZM60.5652 90.7094C61.5169 93.1921 60.0995 98.7793 58.1988 100.027C57.3868 100.559 55.3299 100.083 53.6291 98.9669C51.927 97.8522 50.5343 97.54 50.5343 98.2726C50.5343 99.0066 51.3189 100.098 52.2789 100.701C53.2388 101.303 55.0615 103.43 56.331 105.428C58.585 108.974 58.5604 109.079 55.2711 109.904C53.4183 110.369 50.3809 110.367 48.5212 109.9C45.4373 109.126 45.3292 108.859 47.3011 106.888C48.8253 105.363 49.2785 103.066 48.8335 99.1148C48.172 93.2551 49.4675 90.9545 54.092 89.7713C58.7082 88.5895 59.8134 88.7497 60.5652 90.7094ZM250.467 114.836C250.467 116.925 261.498 138.466 262.206 137.759C262.917 137.047 252.198 113.436 251.163 113.436C250.781 113.436 250.467 114.066 250.467 114.836ZM249.098 123.171C249.098 124.308 250.054 126.433 251.223 127.896C253.265 130.45 253.313 130.421 252.438 127.13C251.316 122.905 249.098 120.276 249.098 123.171ZM126.09 131.431C127.585 133.961 134.406 141.425 141.248 148.018C148.089 154.611 153.379 160.312 153.004 160.687C152.629 161.063 145.415 162.614 136.972 164.134L121.624 166.898L116.386 162.5L111.148 158.103L115.419 155.968C117.947 154.704 119.867 152.576 120.127 150.752C120.52 147.983 119.99 147.671 114.911 147.671C111.463 147.671 109.59 147.133 110.109 146.292C111.399 144.205 107.259 143.156 104.2 144.794C101.947 145.999 101.371 145.736 100.687 143.188C100.238 141.512 99.8616 137.058 99.8507 133.292L99.8315 126.445L111.602 126.638L123.372 126.832L126.09 131.431ZM76.553 131.092C76.553 132.575 73.1719 133.977 69.5937 133.977C66.963 133.977 66.1674 132.494 67.8805 130.782C69.2431 129.418 76.553 129.68 76.553 131.092ZM64.913 133.977C65.3786 134.73 68.4954 135.346 71.8408 135.346C75.1863 135.346 77.9224 134.73 77.9224 133.977C77.9224 133.224 78.8467 132.608 79.9765 132.608C82.6852 132.608 82.7098 132.45 77.6307 147.944L73.2322 161.365L68.3872 161.378C65.7237 161.383 60.294 161.779 56.3227 162.257C49.9797 163.018 49.2073 162.85 49.9673 160.867C50.4768 159.541 53.0937 158.25 56.3173 157.734C59.3341 157.251 63.4067 155.477 65.3677 153.79C68.3571 151.219 68.6488 150.383 67.1808 148.612C65.951 147.132 64.0215 146.729 60.7199 147.266C56.5706 147.938 56.0119 147.678 56.0119 145.068C56.0119 137.335 62.2126 129.609 64.913 133.977ZM27.2544 146.984C27.2544 151.414 27.516 151.651 33.3661 152.528C41.4853 153.746 49.4346 151.766 51.2779 148.067C52.7185 145.179 52.7664 145.175 54.4207 147.826C55.7777 149.998 57.0184 150.346 60.85 149.627C65.8483 148.689 67.0794 150.214 63.634 153.073C61.7442 154.641 45.8454 157.514 29.8905 159.171C20.0047 160.197 17.8616 158.614 16.7812 149.483L15.9418 142.393L20.5703 141.918C26.797 141.279 27.2544 141.625 27.2544 146.984ZM84.0628 144.897C84.5161 145.631 88.0327 147.164 91.878 148.307C98.4813 150.268 99.1153 150.231 103.31 147.638C107.413 145.102 107.737 145.077 107.558 147.31C107.402 149.258 108.456 149.725 113.012 149.725C119.277 149.725 119.838 152.379 114.04 154.583C111.196 155.664 80.8474 153.792 79.5081 152.452C79.2452 152.19 79.4465 150.083 79.9546 147.77C80.8817 143.551 82.5222 142.404 84.0628 144.897ZM312.091 148.745C312.091 149.336 313.935 150.908 316.189 152.241C320.165 154.588 323.91 159.588 322.645 160.854C322.301 161.197 320.085 159.849 317.72 157.86C315.355 155.868 312.616 154.55 311.633 154.926C310.572 155.333 309.241 154.002 308.349 151.641C307.021 148.122 307.148 147.671 309.471 147.671C310.912 147.671 312.091 148.155 312.091 148.745ZM98.5456 156.624C106.384 157.319 108.288 158.073 113.482 162.546L119.435 167.673L107.953 169.43C93.2446 171.682 91.1714 172.779 91.9259 177.92C92.2477 180.112 92.3532 181.906 92.1615 181.906C91.1741 181.906 75.8107 165.001 75.4711 163.54C75.252 162.602 75.6957 160.197 76.4557 158.196C77.7169 154.88 78.3551 154.615 83.7013 155.195C86.9248 155.544 93.6048 156.187 98.5456 156.624ZM215.548 165.431C233.624 168.541 250.511 171.526 253.073 172.066C256.713 172.83 249.146 174.52 218.571 179.767C183.371 185.809 178.534 186.351 170.773 185.12C138.977 180.075 100.961 172.963 103.256 172.486C123.591 168.266 177.87 158.928 179.943 159.293C181.449 159.56 197.471 162.321 215.548 165.431ZM123.384 179.107C125.211 179.154 125.797 180.697 126.123 186.306L126.536 193.446L134.753 195.148C146.801 197.643 146.393 197.824 146.393 190.014C146.393 183.157 146.446 183.069 150.158 183.807C152.229 184.218 157.93 185.205 162.825 186.001C167.721 186.796 173.112 187.752 174.808 188.126L177.889 188.805V250.932V313.058L136.464 302.46L95.0399 291.863L94.6825 232.959L94.3265 174.057L107.692 176.552C115.044 177.923 122.105 179.073 123.384 179.107ZM262.168 298.017C261.809 298.376 243.47 301.867 221.414 305.774L181.312 312.88L180.956 251.287C180.761 217.411 180.898 189.397 181.262 189.033C181.626 188.668 199.965 185.222 222.015 181.372L262.107 174.375L262.463 235.869C262.659 269.692 262.526 297.658 262.168 298.017ZM319.046 178.725C318.987 180.364 317.859 181.987 316.541 182.332C314.295 182.918 314.298 182.968 316.584 183.117C319.24 183.289 320.983 180.3 319.859 177.501C319.472 176.534 319.105 177.086 319.046 178.725ZM143.996 182.828C144.562 183.163 145.023 185.936 145.023 188.99V194.542L138.686 193.591C129.089 192.152 128.59 191.765 128.59 185.739V180.279L135.78 181.249C139.733 181.783 143.431 182.494 143.996 182.828ZM322.79 182.842C323.777 183.237 324.959 183.188 325.414 182.733C325.868 182.279 325.06 181.956 323.617 182.014C322.022 182.08 321.697 182.405 322.79 182.842ZM318.938 186.78C318.938 187.954 319.563 188.527 320.329 188.055C321.094 187.581 321.367 186.621 320.933 185.92C319.759 184.021 318.938 184.374 318.938 186.78ZM48.5075 202.895C51.5353 203.966 57.2361 205.286 61.1745 205.827C65.1143 206.369 68.3228 207.217 68.3064 207.711C67.2314 239.51 65.0554 265.758 62.4974 277.765L59.4354 292.143L53.6154 292.564L47.7955 292.986V250.374C47.7955 223.924 47.3038 208.067 46.5 208.564C45.7865 209.005 43.5448 214.742 41.5168 221.312C39.4887 227.883 35.82 239.421 33.3647 246.953C30.3903 256.077 28.6046 264.761 28.0158 272.972C26.6642 291.832 26.5286 292.226 21.2208 292.583C17.103 292.86 16.5689 292.467 15.7925 288.58C14.1341 280.288 14.9448 256.329 17.7343 231.205C21.7028 195.467 19.9513 199.161 32.465 200.132C38.2603 200.581 45.4798 201.824 48.5075 202.895ZM24.0596 204.045C22.6778 205.552 21.9041 207.139 22.3396 207.574C23.2612 208.496 28.6238 203.941 28.6238 202.235C28.6238 200.364 26.7532 201.107 24.0596 204.045ZM292.818 226.405C294.135 233.971 294.039 235.932 292.174 239.538C290.068 243.612 289.88 243.683 287.347 241.39C285.341 239.573 285.078 238.565 286.244 237.159C287.087 236.144 288.779 235.264 290.005 235.205C291.648 235.125 291.744 234.902 290.368 234.354C288.792 233.727 288.792 233.408 290.368 232.304C291.817 231.288 291.851 230.841 290.522 230.302C288.567 229.508 288.114 217.511 290.039 217.511C290.716 217.511 291.966 221.514 292.818 226.405ZM266.535 234.25C266.246 237.471 266.005 235.176 266.001 229.151C265.995 223.125 266.232 220.491 266.526 223.295C266.821 226.1 266.825 231.03 266.535 234.25ZM296.084 239.891C294.985 242.033 293.736 243.434 293.308 243.005C292.879 242.576 293.312 241.282 294.269 240.129C295.5 238.646 295.78 235.127 295.225 228.114L294.44 218.195L296.26 227.097C297.82 234.724 297.794 236.555 296.084 239.891ZM328.578 239.079C318.817 263.186 299.493 287.412 278.198 302.24C275.749 303.945 273.747 305.952 273.747 306.7C273.747 308.58 284.672 300.576 294.965 291.155C309.704 277.663 323.889 256.983 331.151 238.394C332.697 234.441 333.467 231.205 332.863 231.205C332.261 231.205 330.331 234.749 328.578 239.079ZM273.183 240.469C276.734 242.868 276.271 247.576 272.141 251.05C267.478 254.974 265.531 255.38 265.531 252.431C265.531 251.301 266.222 250.376 267.067 250.376C268.168 250.376 268.145 249.823 266.989 248.431C265.657 246.824 265.927 246.602 268.534 247.163C271.558 247.812 271.584 247.751 269.126 245.751C264.861 242.282 268.62 237.388 273.183 240.469ZM315.4 252.665C308.542 264.664 298.236 277.691 289.024 286.006C284.033 290.511 280.822 294.197 281.89 294.197C285.469 294.197 307.113 270.353 314.005 258.816C317.694 252.64 320.369 247.242 319.946 246.82C319.524 246.398 317.478 249.029 315.4 252.665ZM275.069 253.858C272.798 256.594 265.054 260.679 265.721 258.789C266.295 257.163 275.54 250.593 276.34 251.243C276.634 251.483 276.063 252.659 275.069 253.858ZM21.7768 254.467C21.7768 256.076 25.6768 257.297 26.5108 255.95C26.9025 255.316 25.9987 254.475 24.5005 254.083C23.0024 253.692 21.7768 253.864 21.7768 254.467ZM57.6607 267.152C55.2478 271.86 53.295 276.943 53.3224 278.449C53.3484 279.956 55.6298 276.566 58.3892 270.918C61.1485 265.269 63.6422 260.184 63.9311 259.62C64.2201 259.056 63.9147 258.593 63.2533 258.593C62.5919 258.593 60.0749 262.445 57.6607 267.152ZM24.5156 294.722C24.5156 295.011 23.2831 295.57 21.7768 295.964C20.2704 296.357 19.038 296.121 19.038 295.438C19.038 294.756 20.2704 294.197 21.7768 294.197C23.2831 294.197 24.5156 294.434 24.5156 294.722ZM55.7517 297.783C54.5329 299.001 52.8609 299.582 52.0352 299.071C49.3155 297.391 50.4699 295.567 54.2508 295.567C57.6757 295.567 57.7935 295.741 55.7517 297.783ZM61.9729 304.005C59.5463 306.686 61.2553 307.578 63.849 304.984C65.6456 303.188 72.8925 307.72 75.2411 312.108C76.4215 314.314 76.1134 314.973 73.4225 315.997C71.6395 316.675 68.0723 316.731 65.4937 316.124C61.1266 315.095 61.3046 315.01 68.075 314.878C72.0736 314.802 75.0151 314.204 74.6125 313.553C74.2099 312.901 72.4461 312.641 70.6946 312.976C68.9432 313.31 63.7559 312.612 59.167 311.423C49.1142 308.817 48.7431 308.799 49.9701 310.973C50.6931 312.253 50.5165 312.298 49.2703 311.151C48.1857 310.152 47.9283 307.894 48.5308 304.676C49.3169 300.486 49.8263 299.932 51.8776 301.031C53.677 301.993 54.926 301.632 56.7459 299.62C59.0424 297.083 59.3533 297.057 61.7223 299.201C64.0846 301.339 64.101 301.654 61.9729 304.005ZM24.024 299.353C24.8826 299.907 25.8069 303.596 26.0781 307.551L26.5697 314.74H19.3543C12.1772 314.739 12.143 314.718 13.0413 310.973C14.3286 305.607 17.3166 300.041 19.3516 299.222C21.8452 298.219 22.2807 298.232 24.024 299.353ZM16.9839 309.261C17.4495 310.014 19.0256 310.63 20.4881 310.63C21.9507 310.63 23.1462 310.014 23.1462 309.261C23.1462 308.508 21.5686 307.892 19.6419 307.892C17.6549 307.892 16.5032 308.484 16.9839 309.261ZM58.066 313.369C59.7928 314.111 60.0448 314.545 58.7507 314.545C57.6209 314.545 55.4641 314.017 53.9578 313.369C52.231 312.627 51.979 312.193 53.2731 312.193C54.4028 312.193 56.5597 312.721 58.066 313.369ZM20.7497 318.384C19.8089 318.765 18.2684 318.765 17.3262 318.384C16.3854 318.005 17.155 317.694 19.038 317.694C20.9209 317.694 21.6919 318.005 20.7497 318.384Z" fill="black"/>
</g>
</svg>
