<svg width="343" height="320" viewBox="0 0 343 320" fill="none" xmlns="http://www.w3.org/2000/svg">
<mask id="mask0_414_3823" style="mask-type:alpha" maskUnits="userSpaceOnUse" x="0" y="0" width="343" height="320">
<rect width="343" height="320" fill="#D9D9D9"/>
</mask>
<g mask="url(#mask0_414_3823)">
<path fill-rule="evenodd" clip-rule="evenodd" d="M99.1929 0.74313C98.4538 0.990391 96.1976 1.55613 94.1778 2.00093C85.0023 4.02337 74.878 19.1023 78.3464 25.5821C80.0637 28.7912 87.2115 32.3173 92.0949 32.3644C98.2751 32.4235 106.029 37.1335 107.805 41.9068C108.734 44.4022 110.302 48.3288 111.291 50.6321C112.851 54.2698 112.803 55.103 110.92 56.9857C109.378 58.5297 108.859 61.1165 109.117 65.9838C109.388 71.0984 109.031 72.7163 107.695 72.4207C106.714 72.2043 102.517 72.848 98.3705 73.8518C88.7515 76.1793 87.5125 75.4873 79.0357 63.0462C73.1619 54.4244 71.1556 52.5941 63.0753 48.4861C45.2913 39.4449 30.7405 43.307 23.5686 58.9718C16.8415 73.6651 19.7333 89.2721 31.3304 100.869C38.4325 107.971 46.8528 111.737 57.3829 112.517C73.6525 113.724 74.1792 114.279 67.014 122.65C64.4661 125.626 62.0096 129.76 61.5527 131.836C60.565 136.336 63.4179 142.49 68.2583 146.298C70.1209 147.763 71.6448 150.182 71.6448 151.672C71.6448 154.526 64.5978 161.341 61.6468 161.341C58.7764 161.341 53.2144 167.827 52.3409 172.193C51.88 174.495 52.3087 178.176 53.3206 180.595C55.1293 184.923 63.8412 193.592 66.3824 193.592C68.2059 193.592 66.4254 209.608 64.2525 212.771C62.7985 214.886 62.4262 214.924 60.9185 213.107C58.6246 210.341 56.4126 210.535 53.4979 213.755C51.5467 215.912 51.3465 217.073 52.4928 219.59C54.5313 224.063 52.6191 226.405 47.7303 225.428C44.1625 224.715 43.5013 225.103 41.9626 228.817C40.3729 232.655 40.4751 233.179 43.1681 234.967C47.1847 237.634 46.967 241.703 42.7528 242.761C40.0235 243.446 39.3933 244.431 39.3933 248.012C39.3933 251.986 39.8569 252.508 44.0966 253.303C49.3026 254.28 50.2137 256.995 46.6552 260.925C44.6866 263.101 44.7148 263.575 46.9912 266.706C48.5285 268.82 50.2379 269.806 51.4876 269.3C56.9381 267.089 58.8692 268.058 59.2951 273.213C59.5599 276.402 60.3944 278.252 61.5675 278.252C62.5888 278.252 63.7727 278.817 64.1987 279.507C65.6003 281.776 60.8486 291.219 56.7997 294.213C52.1205 297.672 51.5561 303.231 55.0084 311.86C57.4178 317.88 60.9602 320.498 64.9768 319.222C67.8418 318.313 67.921 317.903 67.6254 305.42C67.4265 297.023 67.4628 296.934 74.4211 289.294C78.2684 285.069 82.6949 281.285 84.2578 280.886C86.1297 280.409 87.2464 278.893 87.5313 276.439C88.0648 271.853 91.1032 270.485 94.3095 273.386C95.6332 274.584 97.4258 275.565 98.2912 275.565C100.224 275.565 100.436 303.059 98.5654 311.13C97.7403 314.69 97.8048 317.032 98.7616 318.185C100.808 320.651 122.164 320.584 123.113 318.108C124.142 315.43 122.684 313.877 115.991 310.518C112.665 308.851 109.749 307.315 109.511 307.107C109.273 306.898 109.966 304.099 111.052 300.889C112.138 297.677 114.433 286.886 116.153 276.908C118.904 260.947 119.26 254.702 119.126 224.924L118.972 191.083L122.276 192.338C124.092 193.029 126.705 194.197 128.082 194.935C131.826 196.938 134.418 193.52 136.262 184.151L137.841 176.123H156.988C172.611 176.123 176.45 175.741 177.856 174.048C179.605 171.938 188.391 112.957 188.497 102.596C188.542 98.3334 187.913 96.5878 185.957 95.541C184.377 94.6957 170.966 94.1501 151.741 94.1501H120.125L118.663 88.4389C117.86 85.2971 116.949 81.9725 116.638 81.048C116.023 79.211 117.712 78.9664 122.374 80.2148C124.74 80.8491 125.397 81.9953 125.397 85.4933C125.397 93.8813 129.255 91.2515 129.456 82.7277C129.489 81.2495 130.725 78.5901 132.2 76.819L134.882 73.5979L138.173 76.69C142.724 80.9646 152.171 81.185 156.532 77.1173C159.636 74.2227 159.694 74.2187 162.837 76.7813C167.584 80.6515 178.268 80.3707 181.343 76.2949L183.661 73.2216L186.976 76.2949C191.755 80.7227 202.129 80.6569 205.654 76.1766L208.163 72.9864L211.873 76.1766C216.95 80.5454 225.123 80.5494 229.485 76.1887L232.664 73.0093L235.359 75.7036C237.048 77.3914 240.479 78.6264 244.549 79.0121C253.047 79.8157 256.779 76.2909 257.259 67.0065C257.579 60.8317 257.97 60.3129 275.407 42.9106C285.21 33.129 292.924 24.6307 292.55 24.0273C292.176 23.4226 258.822 22.9281 218.428 22.9281H144.985L139.213 28.5923L133.443 34.2551L125.052 26.0269C117.411 18.5325 104.965 9.49 102.289 9.49C99.377 9.49 101.821 12.0432 106.919 14.325C110.059 15.7307 117.043 21.0683 122.438 26.1855L132.248 35.4887L123.822 43.991C119.187 48.6661 114.934 52.492 114.369 52.492C113.804 52.492 112.649 49.7371 111.801 46.3696C109.614 37.6912 104.293 32.8723 94.8161 30.9937C83.5442 28.7576 80.4508 26.9179 79.9804 22.1715C79.5249 17.5744 83.7095 10.5812 89.465 6.31726C97.407 0.432707 119.14 2.48202 131.048 10.2372C135.976 13.4462 136.019 13.551 135.227 20.5549C134.119 30.3688 136.043 27.8008 137.494 17.5287C138.291 11.8914 139.66 8.11259 141.688 5.95443L144.7 2.74944L221.371 3.09614L298.041 3.44285L299.583 6.80237C300.83 9.51956 299.432 23.467 292.277 79.7041L283.428 149.246H257.568C222.47 149.246 226.018 145.231 220.469 191.24L216.135 227.187H189.787C164.897 227.187 163.302 227.341 160.937 229.954C159.019 232.074 158.768 233.251 159.866 234.994C161.118 236.981 164.612 237.312 187.694 237.63C213.563 237.988 214.089 238.051 214.089 240.839C214.089 242.403 213.1 251.486 211.892 261.023L209.693 278.364L212.797 281.667C215.881 284.95 216.066 284.971 241.199 284.971C265.87 284.971 266.497 285.04 266.497 287.748C266.497 291.973 264.089 295.591 259.356 298.477L255.075 301.088L260.243 301.092C269.018 301.101 275.904 295.167 275.904 287.596C275.904 285.169 276.907 284.971 289.193 284.971C299.858 284.971 303.052 284.506 305.362 282.62C307.997 280.466 308.884 275.023 315.896 217.976L323.552 155.683L319.81 152.465C316.498 149.616 314.758 149.246 304.66 149.246H293.251L294.016 144.879C296.237 132.177 310.893 12.3684 310.561 9.62303C310.347 7.84786 308.465 5.12664 306.379 3.57588C302.642 0.796879 301.424 0.749849 223.901 0.377614L145.217 0L140.344 5.12261L135.472 10.2452L130.098 7.2203C122.125 2.73063 104.381 -0.986356 99.1929 0.74313ZM216.313 7.91639C213.575 10.94 213.506 12.7084 216.04 14.8115C220.433 18.4586 227.089 11.8027 223.442 7.40978C221.269 4.79069 218.995 4.95194 216.313 7.91639ZM222.152 10.8338C222.152 12.6251 221.255 13.5214 219.464 13.5214C216.874 13.5214 215.822 10.8916 217.673 9.04251C219.522 7.19208 222.152 8.24428 222.152 10.8338ZM174.344 41.8302L158.131 58.0432L147.156 58.2919L136.181 58.5391L152.607 42.0774L169.031 25.6157H179.795H190.559L174.344 41.8302ZM223.837 42.0774L207.421 58.5391L196.559 58.0983L185.697 57.6576L202.244 41.7012L218.792 25.7447L229.522 25.6802L240.253 25.6157L223.837 42.0774ZM273.216 42.4134L256.459 59.211H245.037H233.614L250.372 42.4134L267.129 25.6157H278.551H289.974L273.216 42.4134ZM70.4071 31.7744C70.4716 33.34 70.7901 33.6584 71.2188 32.5874C71.6071 31.6172 71.5588 30.4575 71.1126 30.0113C70.6665 29.5652 70.3493 30.358 70.4071 31.7744ZM290.108 33.856C289.719 35.6056 286.343 61.1636 282.606 90.6508C276.533 138.558 275.34 151.716 277.652 145.215C278.941 141.593 292.304 32.1614 291.55 31.4076C291.147 31.0044 290.498 32.1063 290.108 33.856ZM62.2381 35.5505C62.2381 36.8258 66.2601 37.4682 66.9777 36.3071C67.4144 35.6003 66.5262 35.0224 65.005 35.0224C63.4838 35.0224 62.2381 35.2603 62.2381 35.5505ZM73.6605 37.71C74.1174 38.4491 75.0594 39.0538 75.7555 39.0538C76.4516 39.0538 77.02 38.4491 77.02 37.71C77.02 36.9709 76.0766 36.3662 74.925 36.3662C73.7733 36.3662 73.2036 36.9709 73.6605 37.71ZM68.4882 41.0266C68.0716 42.111 68.3094 43.3567 69.0163 43.7935C69.7231 44.2302 70.301 43.3419 70.301 41.8208C70.301 38.5754 69.5538 38.2489 68.4882 41.0266ZM57.2687 47.7134C65.8677 50.7799 73.0719 56.7129 77.3022 64.2073C83.9823 76.0436 90.2619 78.9516 101.031 75.197C109.839 72.1264 114.211 76.0463 116.554 89.1108L117.457 94.1501H112.116C107.343 94.1501 102.647 96.659 102.503 99.2848C102.475 99.7874 101.354 107.913 100.013 117.343C97.1073 137.746 95.8347 139.84 86.3219 139.84C81.3216 139.84 78.9672 140.637 75.6063 143.464L71.2981 147.09L67.4399 142.772C62.0795 136.773 62.4235 132.244 68.8913 123.637C76.0256 114.141 75.0137 112.313 61.9613 111.124C48.0354 109.854 40.3716 106.958 33.67 100.431C25.1597 92.1425 22.5957 86.0227 22.5957 73.9929C22.5957 65.3831 23.1426 62.9844 26.3449 57.5353C32.5963 46.9017 44.4433 43.1377 57.2687 47.7134ZM157.649 66.602C157.649 74.2429 154.278 78.0244 147.467 78.0244C140.799 78.0244 134.804 72.0296 134.804 65.3616V60.5548H146.226H157.649V66.602ZM207.37 64.4989C207.37 74.044 202.467 78.9167 194.387 77.4009C187.758 76.1565 184.525 72.3965 184.525 65.9301V60.5548H195.947H207.37V64.4989ZM255.747 65.3469C255.747 74.771 250.525 78.9637 241.791 76.5516C236.022 74.9591 232.902 70.8901 232.902 64.9585V60.5548H244.325H255.747V65.3469ZM249.028 83.9224C249.028 84.949 247.993 85.7043 246.727 85.6021C245.424 85.496 244.191 86.5656 243.884 88.0694C243.584 89.5287 242.352 91.4544 241.144 92.3467C239.409 93.6301 239.295 94.3194 240.597 95.6404C241.872 96.9332 241.884 97.7461 240.648 99.2351C239.39 100.751 239.507 101.493 241.195 102.728C242.375 103.59 243.583 105.491 243.881 106.95C244.193 108.479 245.332 109.452 246.571 109.244C247.754 109.046 249.075 109.803 249.505 110.924C250.407 113.275 254.403 113.709 254.403 111.456C254.403 110.459 255.135 110.555 256.564 111.741C258.385 113.251 258.972 113.196 260.293 111.39C261.156 110.21 263.056 109.001 264.515 108.701C266.019 108.393 267.089 107.161 266.983 105.857C266.88 104.592 267.582 103.557 268.541 103.557C269.727 103.557 270.256 101.619 270.194 97.5096C270.132 93.4204 269.525 91.4625 268.316 91.4625C267.263 91.4625 266.661 90.2195 266.85 88.4389C267.105 86.0281 266.557 85.4798 264.146 85.7352C262.221 85.9394 261.122 85.328 261.122 84.0554C261.122 81.65 258.252 81.4323 256.016 83.6684C254.762 84.9222 254.403 84.9222 254.403 83.6684C254.403 82.7815 253.194 82.0558 251.715 82.0558C250.237 82.0558 249.028 82.8957 249.028 83.9224ZM256.912 85.1533C259.105 83.7961 259.609 83.9519 260.188 86.1665C260.675 88.0237 261.564 88.5209 263.247 87.8759C265.116 87.1583 265.426 87.4687 264.709 89.3379C264.064 91.0204 264.561 91.91 266.418 92.3964C268.649 92.9797 268.799 93.4836 267.431 95.807C266.157 97.9692 266.192 98.6653 267.599 99.1719C268.88 99.6342 268.617 100.342 266.648 101.721C265.09 102.812 264.251 104.484 264.687 105.625C265.229 107.037 264.824 107.377 263.299 106.793C261.994 106.291 260.823 106.805 260.327 108.096C259.71 109.705 258.905 109.902 257.038 108.904C255.34 107.995 254.271 108.057 253.626 109.101C252.985 110.137 252.288 109.906 251.429 108.374C250.646 106.974 249.239 106.423 247.696 106.912C245.721 107.54 245.363 107.146 245.932 104.972C246.394 103.207 245.869 101.947 244.443 101.4C242.813 100.775 242.615 100.103 243.684 98.8158C244.686 97.6091 244.697 96.8109 243.718 96.2061C241.571 94.8798 242.037 92.8063 244.482 92.8063C246.019 92.8063 246.441 91.9906 245.924 90.0125C245.387 87.9659 245.709 87.4163 247.122 87.9592C248.191 88.369 249.776 87.5399 250.674 86.1034C251.842 84.2328 252.578 83.9613 253.308 85.1331C254.095 86.3963 254.899 86.4017 256.912 85.1533ZM249.74 91.4182C242.717 99.1773 252.062 109.916 260.239 103.483C264.525 100.113 264.884 95.2238 261.122 91.4625C257.702 88.0425 252.812 88.0237 249.74 91.4182ZM260.855 96.2801C261.353 101.389 258.416 104.18 253.769 103.014C251.686 102.491 250.094 100.899 249.571 98.8158C248.404 94.1689 251.195 91.2314 256.305 91.7299C259.847 92.0753 260.509 92.7378 260.855 96.2801ZM186.135 104.901C185.91 108.966 183.794 125.898 181.431 142.527L177.134 172.763L157.31 173.435C146.408 173.805 137.487 173.653 137.489 173.099C137.492 172.017 141.917 171.826 161.194 172.08L173.472 172.243L174.87 163.768C175.638 159.107 176.652 152.814 177.121 149.784L177.974 144.273L155.047 143.319C142.438 142.795 131.381 142.823 130.477 143.382C129.571 143.941 126.396 144.348 123.419 144.286C118.717 144.19 118.591 144.255 122.46 144.786C126.472 145.337 126.844 145.756 126.206 149.002C125.818 150.984 125.106 155.475 124.625 158.981L123.751 165.356L119.767 162.005C117.576 160.161 114.319 158.285 112.528 157.835C108.375 156.793 108.366 154.9 112.506 153.325C115.414 152.22 117.93 146.762 117.239 143.057C116.568 139.453 117.815 138.609 124.365 138.23L131.395 137.824L133.017 128.417C133.909 123.244 134.676 117.347 134.722 115.315L134.804 111.62H122.144H109.485L108.753 115.315C108.35 117.347 107.643 121.205 107.182 123.889C106.601 127.275 105.348 129.221 103.085 130.253C100.104 131.61 99.8783 131.48 100.463 128.734C100.814 127.082 101.816 119.985 102.689 112.963C103.563 105.942 104.879 99.4326 105.612 98.4973C106.646 97.1817 115.914 96.878 146.744 97.1535L186.541 97.5096L186.135 104.901ZM126.294 101.765C125.8 102.257 125.397 103.467 125.397 104.453C125.397 107.15 166.455 107.06 167.491 104.36C167.889 103.324 167.852 102.115 167.41 101.673C166.304 100.565 127.405 100.653 126.294 101.765ZM156.641 103.211C151.283 103.465 142.513 103.465 137.156 103.211C131.798 102.956 136.181 102.746 146.898 102.746C157.615 102.746 161.999 102.956 156.641 103.211ZM145.554 112.963C145.554 113.778 151.404 114.307 160.416 114.307C169.981 114.307 174.981 113.829 174.446 112.963C173.979 112.207 167.489 111.62 159.585 111.62C151.127 111.62 145.554 112.153 145.554 112.963ZM132.955 115.315C132.579 116.609 131.881 120.69 131.408 124.386C129.961 135.675 129.868 135.808 123.5 135.808C119.482 135.808 117.028 135.009 115.35 133.156C114.029 131.696 111.924 130.176 110.672 129.779C108.668 129.143 108.55 128.089 109.691 121.01L110.986 112.963H122.313C132.467 112.963 133.57 113.207 132.955 115.315ZM190.572 114.307C190.028 115.187 200.174 115.651 220.01 115.651C255.518 115.651 253.929 114.931 251.748 130.019C251.021 135.05 250.451 140.982 250.483 143.199C250.541 147.124 250.576 147.146 251.83 144.012C252.537 142.242 253.254 135.32 253.423 128.628C253.72 116.867 253.62 116.404 250.372 114.732C246.194 112.582 191.877 112.196 190.572 114.307ZM143.539 121.026C143.004 121.892 148.004 122.37 157.569 122.37C166.581 122.37 172.431 121.841 172.431 121.026C172.431 120.216 166.858 119.683 158.4 119.683C150.496 119.683 144.006 120.27 143.539 121.026ZM164.368 129.089C164.368 129.828 165.843 130.433 167.648 130.433C169.453 130.433 171.302 129.828 171.759 129.089C172.244 128.306 170.877 127.745 168.479 127.745C166.218 127.745 164.368 128.35 164.368 129.089ZM143.144 136.804C148.101 137.061 156.567 137.063 161.957 136.807C167.348 136.551 163.293 136.34 152.945 136.339C142.598 136.336 138.188 136.546 143.144 136.804ZM114.081 148.632C113.624 150.448 112.377 151.934 111.309 151.934C110.24 151.934 108.731 153.121 107.955 154.572C107.152 156.07 105.71 156.89 104.613 156.468C101.781 155.382 107.688 146.574 110.563 147.596C111.701 148.001 112.214 147.868 111.704 147.302C111.194 146.736 111.497 145.489 112.376 144.532C114.371 142.361 115.172 144.285 114.081 148.632ZM150.93 148.046C150.93 150.081 150.329 150.648 148.794 150.058C147.613 149.605 145.149 150.428 143.275 151.902L139.89 154.564L137.556 151.681C136.004 149.762 134.429 149.103 132.851 149.707C130.65 150.553 130.635 150.852 132.643 153.916C135.395 158.117 135.431 157.933 131.318 160.628C127.993 162.805 127.863 162.797 128.518 160.447C128.894 159.091 129.593 155.109 130.07 151.598L130.938 145.215H140.933C150.203 145.215 150.93 145.421 150.93 148.046ZM175.036 148.239C174.991 149.902 174.222 155.495 173.33 160.669L171.706 170.075L161.989 170.471C154.734 170.765 152.273 170.425 152.272 169.127C152.271 168.17 152.967 162.398 153.819 156.301L155.368 145.215H165.244C174.613 145.215 175.114 145.369 175.036 148.239ZM319.384 154.958C321.043 157.617 320.395 165.093 314.008 217.109C310.015 249.629 306.167 277.606 305.456 279.278L304.166 282.32L259.609 281.965C219.222 281.645 214.917 281.397 213.6 279.309C211.691 276.282 225.593 159.477 228.399 154.958L230.276 151.934H273.888H317.5L319.384 154.958ZM148.883 159.661C147.465 170.096 147.098 170.747 142.633 170.747C139.46 170.747 138.731 170.273 139.363 168.621C139.812 167.452 140.179 165.867 140.179 165.098C140.179 164.268 141.022 164.399 142.251 165.419C145.689 168.272 147.803 164.937 145.135 160.866C143.091 157.746 143.134 157.453 145.944 155.492C147.577 154.352 149.102 153.387 149.332 153.348C149.562 153.31 149.36 156.15 148.883 159.661ZM112.236 160.051C118.12 161.686 125.02 169.383 126.19 175.621C126.702 178.351 126.163 181.638 124.697 184.727C122.366 189.64 120.844 190.634 119.35 188.217C118.893 187.478 117.896 186.873 117.134 186.873C116.219 186.873 116.067 190.69 116.687 198.126C117.33 205.849 117.157 209.67 116.136 210.3C115.317 210.806 114.637 212.848 114.627 214.836C114.581 222.71 113.197 222.684 97.9929 214.53C89.5981 210.027 83.7391 206.053 83.7391 204.864C83.7391 203.754 84.4338 198.635 85.2831 193.491C86.8554 183.972 86.3018 181.085 83.4475 183.94C81.1549 186.232 79.5168 185.868 75.2596 182.123L71.4822 178.799L75.1911 171.988C78.9255 165.125 83.4811 160.88 88.4424 159.638C93.354 158.408 107.185 158.649 112.236 160.051ZM139.011 162.349C136.696 166.924 134.804 174.355 134.796 178.906C134.786 184.996 132.342 193.592 130.621 193.592C129.868 193.592 128.078 192.965 126.644 192.197C124.213 190.895 124.176 190.534 126.096 186.822C127.228 184.633 128.648 182.842 129.25 182.842C130.588 182.842 133.46 173.63 133.46 169.334C133.46 167.62 134.774 164.817 136.382 163.106C139.874 159.389 140.617 159.176 139.011 162.349ZM130.772 168.251C130.772 169.748 130.122 170.754 129.328 170.489C128.534 170.225 127.929 169.57 127.984 169.034C128.039 168.498 128.085 167.116 128.085 165.965C128.085 164.813 128.69 164.243 129.429 164.7C130.168 165.157 130.772 166.755 130.772 168.251ZM243.252 169.995C242.117 171.132 240.653 177.375 239.709 185.113C238.823 192.364 237.771 200.497 237.369 203.187C236.798 207.006 237.259 208.699 239.473 210.914C242.146 213.587 243.682 213.749 266.348 213.749C297.314 213.749 295.653 214.89 298.784 191.469C302.123 166.492 303.967 168.06 271.265 168.06C250.357 168.06 244.804 168.443 243.252 169.995ZM297.381 171.39C298.688 172.966 298.555 176.919 296.733 190.539C295.471 199.979 293.823 208.459 293.069 209.382C292.062 210.618 284.994 211.062 266.29 211.062C244.139 211.062 240.774 210.784 240.047 208.891C238.822 205.696 243.033 173.786 244.992 171.425C247.452 168.462 294.924 168.429 297.381 171.39ZM255.768 176.192C243.971 181.548 242.723 182.687 244.382 186.581C244.923 187.85 245.628 191.308 245.948 194.264C246.269 197.22 246.969 201.756 247.504 204.343L248.477 209.046H268.574H288.67L291.358 198.74C292.836 193.072 294.498 187.982 295.053 187.429C295.608 186.877 296.044 185.165 296.024 183.625C295.994 181.429 293.75 179.86 285.609 176.344C271.277 170.155 269.095 170.143 255.768 176.192ZM130.772 174.107C130.772 175.216 130.168 176.123 129.429 176.123C128.69 176.123 128.085 175.216 128.085 174.107C128.085 172.998 128.69 172.091 129.429 172.091C130.168 172.091 130.772 172.998 130.772 174.107ZM277.248 174.779C278.357 175.495 278.659 176.081 277.92 176.081C277.181 176.081 275.669 175.495 274.56 174.779C273.452 174.063 273.149 173.477 273.888 173.477C274.627 173.477 276.139 174.063 277.248 174.779ZM276.094 177.437L281.951 180.095L269.857 180.09L257.763 180.084L263.138 177.54C269.959 174.312 269.22 174.318 276.094 177.437ZM154.895 194.936L153.183 208.374H148.324C139.98 208.374 134.666 214.417 139.104 218.856C141.637 221.389 168.935 221.045 171.087 218.453C172.409 216.86 176.247 216.437 189.392 216.437C199.585 216.437 206.026 215.917 206.026 215.093C206.026 214.247 197.083 213.749 181.884 213.749C159.885 213.749 157.627 213.532 156.43 211.296C155.249 209.088 155.986 198.75 158.296 185.193C158.642 183.161 158.404 181.498 157.767 181.498C157.129 181.498 155.837 187.545 154.895 194.936ZM291.022 182.757C293.055 182.804 294.717 183.446 294.717 184.185C294.717 185.033 285.535 185.529 269.857 185.529C255.301 185.529 244.996 185.008 244.996 184.27C244.996 182.258 254.934 181.932 291.022 182.757ZM73.8459 200.208C71.157 206.927 68.9571 213.08 68.9571 213.882C68.9571 214.685 67.7477 216.879 66.2695 218.758C64.2269 221.354 63.5819 221.636 63.5819 219.931C63.5819 218.696 64.4258 216.347 65.4565 214.71C66.4872 213.073 68.0299 207.501 68.8846 202.327C69.7392 197.153 71.0589 190.565 71.8182 187.686L73.1969 182.453L75.9665 185.223L78.736 187.991L73.8459 200.208ZM289.247 198.627C287.821 203.614 286.655 207.847 286.655 208.034C286.655 208.221 278.531 208.374 268.603 208.374C248.3 208.374 249.94 209.326 248.326 196.616L247.431 189.561H269.637H291.84L289.247 198.627ZM40.2896 191.801C37.2902 194.799 41.0851 199.9 44.6677 197.685C45.8207 196.973 45.3719 196.399 43.2218 195.838C40.1499 195.034 40.1432 194.994 42.773 193.006C44.9191 191.384 45.0252 190.981 43.3132 190.948C42.1427 190.923 40.7814 191.308 40.2896 191.801ZM251.98 198.39C252.237 203.269 253.036 206.361 254.138 206.724C255.471 207.163 255.793 205.45 255.482 199.545C255.226 194.666 254.426 191.574 253.324 191.211C251.991 190.771 251.67 192.485 251.98 198.39ZM259.352 191.778C258.848 192.283 258.435 195.972 258.435 199.975C258.435 209.336 261.605 209.092 262.211 199.682C262.611 193.485 261.293 189.838 259.352 191.778ZM263.81 199.751C263.81 209.62 266.993 209.151 267.575 199.197C267.9 193.638 267.564 192.248 265.895 192.248C264.26 192.248 263.81 193.865 263.81 199.751ZM270.514 194.6C270.506 195.894 270.124 199.22 269.666 201.991C269.013 205.944 269.267 207.03 270.849 207.03C272.135 207.03 273.167 205.204 273.698 201.991C274.975 194.259 274.738 192.248 272.545 192.248C271.436 192.248 270.522 193.306 270.514 194.6ZM275.885 196.616C275.876 199.017 275.502 202.343 275.057 204.007C274.482 206.153 274.828 207.03 276.251 207.03C277.421 207.03 278.605 205.282 279.096 202.831C280.496 195.83 280.098 192.248 277.92 192.248C276.545 192.248 275.899 193.638 275.885 196.616ZM281.939 199.053C281.425 202.796 281.377 206.233 281.836 206.69C283.403 208.258 285.09 205.013 286.024 198.631C286.79 193.407 286.589 192.248 284.917 192.248C283.483 192.248 282.598 194.272 281.939 199.053ZM82.3039 199.303C81.714 202.445 81.5406 206.309 81.9209 207.892C82.9193 212.043 79.9468 213.21 78.4445 209.257C77.7524 207.437 76.5792 205.574 75.8388 205.115C73.7034 203.796 76.9448 196.235 80.2116 194.916C81.7825 194.282 83.1371 193.724 83.2231 193.677C83.3077 193.631 82.8952 196.162 82.3039 199.303ZM76.4677 210.39C76.9313 212.238 78.2174 213.749 79.3247 213.749C80.6094 213.749 81.0434 214.519 80.5233 215.875C80.0745 217.044 79.7076 219.112 79.7076 220.471C79.7076 222.171 78.3437 223.237 75.3403 223.883C64.3331 226.253 58.2067 233.267 58.2067 243.496C58.2067 250.133 63.0242 258.654 67.5972 260.105C70.8465 261.136 70.9097 262.276 68.2288 271.306C66.4335 277.348 65.8314 278.113 63.7472 276.997C62.0674 276.098 61.5004 274.568 61.8726 271.94C62.566 267.054 58.2765 263.964 53.9871 266.259C51.7657 267.448 50.7311 267.322 49.0688 265.659C47.1579 263.749 47.1928 263.302 49.4396 260.819C52.7642 257.145 50.4341 251.376 45.6259 251.376C40.5114 251.376 40.0222 246.44 44.8868 243.923C49.5082 241.534 49.9852 237.576 45.9901 234.779C41.7033 231.777 43.1735 227.859 48.585 227.859C54.0315 227.859 56.5202 224.407 54.4118 219.779C53.291 217.317 53.4926 216.256 55.4142 214.517C58.4929 211.731 60.4871 213.81 61.1201 220.463C61.6146 225.657 66.2695 228.33 66.2695 223.419C66.2695 221.977 67.1725 220.048 68.2758 219.133C69.3791 218.217 70.9137 215.119 71.6864 212.25C73.2977 206.268 75.2435 205.512 76.4677 210.39ZM155.274 213.361C156.672 214.625 160.649 216.057 164.115 216.54C168.656 217.176 166.194 217.472 155.297 217.601C141.468 217.766 140.179 217.571 140.179 215.318C140.179 213.962 140.582 212.45 141.075 211.958C142.912 210.12 152.769 211.094 155.274 213.361ZM30.8023 218.563C29.2515 222.605 30.0336 245.36 32.0131 253.753C33.9603 262.015 40.3339 276.415 41.5192 275.231C41.8497 274.901 40.5477 271.196 38.626 266.998C33.6902 256.216 30.9878 239.663 32.0722 226.851C32.9228 216.8 32.5103 214.109 30.8023 218.563ZM78.3638 227.808C78.3638 231.032 72.7789 256.259 71.6663 258.059C69.8897 260.936 63.9461 255.778 61.4211 249.168C59.2213 243.407 59.2333 242.882 61.6885 236.999C63.4744 232.716 65.6756 230.09 68.9357 228.347C74.5568 225.342 78.3638 225.125 78.3638 227.808ZM128.147 229.129C127.26 230.198 126.733 232.465 126.973 234.169C127.391 237.114 128.02 237.285 139.849 237.653C151.986 238.029 152.322 237.958 153.82 234.668C156.482 228.826 153.643 227.187 140.851 227.187C132.818 227.187 129.313 227.724 128.147 229.129ZM233.363 229.268C232.913 230.439 233.121 231.975 233.827 232.681C234.582 233.436 246.917 233.812 263.904 233.597C291.684 233.248 292.702 233.139 292.702 230.547C292.702 227.952 291.685 227.847 263.442 227.497C237.745 227.179 234.082 227.394 233.363 229.268ZM25.5157 233.235C23.4866 244.047 30.5604 272.877 35.2423 272.877C35.9975 272.877 35.4922 270.911 34.1202 268.51C30.0404 261.366 28.366 254.44 27.42 240.78C26.6513 229.683 26.3825 228.617 25.5157 233.235ZM150.725 229.721C151.723 230.352 152.319 232.006 152.052 233.396C151.622 235.629 150.256 235.922 140.273 235.922C128.462 235.922 126.122 234.717 130.137 230.703C132.513 228.327 147.405 227.616 150.725 229.721ZM215.433 232.563V236.594H189.187C166.998 236.594 162.818 236.28 162.16 234.561C161.73 233.443 162.126 231.629 163.039 230.529C164.399 228.89 169.251 228.531 190.064 228.531H215.433V232.563ZM290.686 229.875C290.686 230.728 280.357 231.219 262.387 231.219C243.862 231.219 234.374 230.755 234.918 229.875C235.427 229.05 246.354 228.531 263.217 228.531C280.634 228.531 290.686 229.023 290.686 229.875ZM279.82 237.864C274.071 239.63 269.725 243.097 267.062 248.041L264.542 252.72H247.523C230.384 252.72 228.302 253.314 229.853 257.759C230.279 258.981 234.981 259.439 247.106 259.439H263.774L265.655 263.942C273.339 282.333 301.884 274.965 301.884 254.59C301.884 242.966 290.734 234.514 279.82 237.864ZM232.455 240.178C230.794 241.839 231.542 245.707 233.684 246.529C234.853 246.978 242.369 247.345 250.385 247.345C261.978 247.345 265.404 246.902 267.12 245.186C268.786 243.52 268.923 242.601 267.723 241.155C266.548 239.74 262.152 239.282 249.759 239.282C240.734 239.282 232.946 239.685 232.455 240.178ZM292.074 241.32C303.689 247.327 301.975 264.277 289.073 270.989C281.682 274.834 272.237 272.014 268.536 264.859C260.984 250.254 277.47 233.768 292.074 241.32ZM266.497 243.313C266.497 244.137 260.003 244.657 249.7 244.657C239.397 244.657 232.902 244.137 232.902 243.313C232.902 242.489 239.397 241.969 249.7 241.969C260.003 241.969 266.497 242.489 266.497 243.313ZM122.133 248.112C119.726 250.52 119.509 252.513 121.335 255.407C123.094 258.193 173.992 259.071 179.138 256.403C182.992 254.406 184.127 250.775 181.784 247.952C179.287 244.943 125.158 245.088 122.133 248.112ZM98.513 264.814C98.8314 275.121 98.8758 275.023 95.3698 271.729C93.3716 269.852 91.3719 269.094 89.9018 269.659C87.7154 270.498 87.7114 270.255 89.8467 265.33C91.091 262.46 93.096 257.134 94.3014 253.497L96.4945 246.884L97.3881 252.153C97.8813 255.051 98.3866 260.749 98.513 264.814ZM179.822 251.376V254.736L151.905 255.098C126.896 255.425 123.9 255.229 123.132 253.225C121.176 248.129 125.876 247.269 153.576 247.654L179.822 248.017V251.376ZM275.904 248.707C275.904 249.456 276.661 251.328 277.584 252.866C279.041 255.293 278.862 255.937 276.24 257.715C273.042 259.885 272.139 263.47 274.79 263.47C275.656 263.47 277.47 262.469 278.822 261.246C281.109 259.177 281.45 259.177 283.737 261.246C288.388 265.457 290.88 263.478 287.911 257.932C286.724 255.715 287.086 254.784 290.024 252.473C294.782 248.729 292.385 245.923 287.282 249.266C284.05 251.384 283.534 251.402 281.396 249.465C278.741 247.062 275.904 246.67 275.904 248.707ZM263.81 256.079C263.81 257.754 261.206 258.095 248.435 258.095C234.394 258.095 230.161 257.253 232.491 254.922C232.964 254.451 240.203 254.064 248.58 254.064C261.222 254.064 263.81 254.406 263.81 256.079ZM148.578 265.491C146.916 266.681 145.554 268.709 145.554 269.997C145.554 274.844 148.269 275.565 166.557 275.565C180.925 275.565 184.737 275.16 186.445 273.453C188.852 271.045 189.07 269.053 187.243 266.158C185.279 263.043 152.785 262.484 148.578 265.491ZM185.869 269.517C185.869 271.793 185.109 272.901 183.517 272.951C170.621 273.358 148.66 272.481 147.694 271.518C146.964 270.791 147.166 269.47 148.195 268.23C149.589 266.552 153.332 266.158 167.891 266.158H185.869V269.517ZM85.0829 277.58C85.0829 278.689 84.497 279.596 83.7807 279.596C83.0658 279.596 82.828 278.689 83.2526 277.58C83.6786 276.472 84.2645 275.565 84.5548 275.565C84.845 275.565 85.0829 276.472 85.0829 277.58ZM67.1027 290.954C67.5139 292.028 67.4413 293.569 66.9414 294.379C65.6272 296.504 62.1897 293.381 63.1331 290.92C64.0845 288.444 66.1459 288.461 67.1027 290.954ZM145.811 292.694C155.191 292.924 170.913 292.925 180.75 292.696C190.587 292.466 182.912 292.276 163.696 292.276C144.479 292.275 136.431 292.463 145.811 292.694ZM64.5306 297.971C66.2641 300.617 66.4469 301.71 65.2254 302.117C64.3116 302.422 63.9649 303.317 64.4527 304.107C64.9781 304.956 64.7067 305.151 63.7902 304.584C62.9369 304.057 62.2381 302.272 62.2381 300.615C62.2381 298.958 61.5124 296.878 60.6255 295.991C59.4067 294.772 59.3986 294.378 60.5946 294.378C61.464 294.378 63.2352 295.995 64.5306 297.971ZM58.2067 301.858C58.2067 306.006 60.5893 310.852 62.1534 309.884C62.7716 309.503 64.102 310.242 65.1098 311.526C66.7668 313.642 66.7184 313.689 64.5898 312.02C63.1882 310.92 62.2381 310.752 62.2381 311.604C62.2381 312.389 62.8428 313.406 63.5819 313.863C65.7441 315.199 65.1287 317.223 62.562 317.223C61.2612 317.223 59.4913 316.094 58.63 314.713C56.3804 311.112 53.9105 301.269 54.8659 299.722C56.3938 297.25 58.2067 298.408 58.2067 301.858ZM155.297 300.76C172.112 300.973 199.627 300.973 216.44 300.76C233.256 300.546 219.498 300.373 185.869 300.373C152.24 300.373 138.483 300.546 155.297 300.76ZM106.584 305.8C106.584 306.909 105.677 307.816 104.568 307.816C103.46 307.816 102.552 306.909 102.552 305.8C102.552 304.692 103.46 303.785 104.568 303.785C105.677 303.785 106.584 304.692 106.584 305.8ZM108.687 310.363C107.766 311.852 111.34 313.345 113.678 312.448C114.623 312.085 116.587 312.745 118.045 313.914C120.507 315.891 120.006 316 110.903 315.464C105.518 315.147 100.757 314.531 100.323 314.097C98.3853 312.159 101.395 309.16 105.278 309.16C107.561 309.16 109.095 309.701 108.687 310.363ZM120.022 317.813C121.131 318.056 117.805 318.315 112.631 318.391C107.457 318.464 102.481 318.053 101.573 317.477C100.057 316.513 115.371 316.793 120.022 317.813Z" fill="black"/>
</g>
</svg>
