<svg width="343" height="320" viewBox="0 0 343 320" fill="none" xmlns="http://www.w3.org/2000/svg">
<mask id="mask0_414_8043" style="mask-type:alpha" maskUnits="userSpaceOnUse" x="0" y="0" width="343" height="320">
<rect width="343" height="320" fill="#D9D9D9"/>
</mask>
<g mask="url(#mask0_414_8043)">
<path fill-rule="evenodd" clip-rule="evenodd" d="M284.124 2.35054C281.914 3.7425 273.474 12.6958 265.368 22.2453C255.229 34.1915 249.242 40.125 246.177 41.2665C243.727 42.1788 241.417 42.6196 241.043 42.2458C240.67 41.872 239.792 36.8441 239.093 31.0713C237.734 19.8632 235.244 13.3589 231.387 10.9501C229.727 9.91455 204.304 9.31704 147.81 8.98881C67.059 8.51991 66.5982 8.53197 62.8349 11.3306C60.0028 13.438 58.9538 15.4583 58.6564 19.3769C58.4393 22.256 60.398 41.5666 63.0104 62.2906C65.6229 83.0145 67.7611 100.344 67.7611 100.799C67.7611 101.255 66.3356 101.627 64.594 101.627C56.0413 101.627 51.5224 114.056 57.0434 122.393C58.5077 124.603 59.7094 127.824 59.7134 129.551C59.7228 132.688 49.2342 145.46 41.9261 151.208L38.325 154.041L33.6172 150.45C28.6053 146.627 27.6394 144.498 30.919 144.498C33.6185 144.498 33.5516 144.221 28.7822 135.77C25.386 129.752 23.9901 128.421 21.0789 128.421C17.7189 128.421 17.5259 128.774 17.5916 134.785C17.6425 139.379 18.7598 142.959 21.6107 147.657C29.5043 160.668 35.0762 167.932 37.5225 168.404C38.8957 168.669 42.344 167.58 45.1829 165.984C48.0217 164.389 50.3448 163.689 50.3448 164.431C50.3448 165.174 48.7385 170.112 46.7758 175.408C44.1714 182.433 43.574 185.615 44.5627 187.182C45.5969 188.821 44.6511 191.393 40.5582 198.062C33.4752 209.606 27.5724 222.181 27.571 225.729C27.5697 228.545 35.608 236.986 51.7877 251.159L59.2592 257.703L60.1609 269.632C60.6566 276.193 61.0625 286.233 61.0625 291.944V302.328L54.029 306.31C43.74 312.133 40.3747 315.184 41.3714 317.781C42.0882 319.65 44.4247 320 56.1672 320C73.2097 320 74.3296 319.23 71.9945 309.111C70.5141 302.7 70.683 301.745 75.392 289.804L80.3477 277.242L83.0968 281.249C85.0192 284.05 86.7086 285.106 88.7075 284.758C91.3721 284.293 91.632 284.996 92.5122 295.093C93.6429 308.058 95.7369 313.598 100.746 316.881C104.237 319.169 109.623 319.358 183.069 319.759C268.29 320.225 269.564 320.129 272.809 313.008C273.89 310.635 272.678 297.741 267.706 258.771C261.197 207.732 261.19 207.645 263.947 206.307C266.661 204.99 266.656 204.964 263.694 204.876C262.037 204.825 260.679 204.332 260.679 203.78C260.678 203.228 258.567 186.265 255.986 166.083C251.587 131.682 251.437 129.288 253.587 127.715C255.591 126.25 255.71 125.012 254.534 117.899C253.473 111.485 253.584 109.001 255.059 106.188C257.183 102.134 255.467 96.2683 252.156 96.2683C251.121 96.2683 249.972 95.1148 249.604 93.7041C248.903 91.0273 251.624 89.6247 257.589 89.5885C259.204 89.5778 270.143 94.0631 281.896 99.5559C307.3 111.428 308.735 111.857 313.986 109.142C323.009 104.475 327.492 85.8145 324.949 63.507C321.749 35.4293 310.485 10.6835 297.417 3.02576C290.806 -0.848684 289.322 -0.92371 284.124 2.35054ZM297.383 5.08222C314.569 15.7048 328.615 65.5849 321.836 91.9223C319.23 102.044 316.346 106.75 312.094 107.817C300.564 110.71 287.929 95.3171 280.046 68.7681C275.268 52.6728 273.991 28.1721 277.333 16.6774C281.17 3.47725 288.204 -0.590121 297.383 5.08222ZM284.537 12.8713C278.109 19.7574 275.657 33.9356 278.096 50.0992C282.506 79.3169 295.379 101.627 307.829 101.627C316.769 101.627 323.327 84.3676 321.445 65.7899C320.168 53.1886 318.777 55.7327 319.248 69.809C319.73 84.2471 317.072 93.8086 311.416 97.9737C308.073 100.436 307.658 100.455 303.221 98.3502C300.651 97.1297 296.637 93.4723 294.302 90.2208C289.318 83.2798 285.369 74.4283 287.001 73.8509C287.629 73.6285 290.555 72.0718 293.502 70.3931C298.771 67.3908 298.861 67.2126 298.83 59.7558C298.785 48.7755 295.547 44.8234 286.147 44.2781L279.063 43.8668L279.778 33.4305C280.851 17.78 286.868 8.79321 294.326 11.7017C298.42 13.2973 305.256 20.584 308.305 26.6033C309.69 29.3363 310.931 30.5528 311.279 29.5212C312.122 27.0213 304.016 15.5869 298.932 12.1036C293.186 8.16623 288.705 8.4047 284.537 12.8713ZM231.159 14.211C234.763 17.5174 235.335 19.1867 236.742 30.4925C238.213 42.3248 238.152 43.205 235.761 44.9681C233.39 46.7164 233.139 46.4498 232.111 41.0776C230.064 30.3853 237.366 31.3312 153.864 30.9467C94.8433 30.6747 78.5377 30.9601 77.4753 32.2864C76.5495 33.4412 77.9389 48.0735 81.8964 78.836C85.0688 103.511 87.4936 123.872 87.282 124.083C85.598 125.767 79.9484 113.35 78.8941 105.646C73.8487 68.7667 67.9915 17.9073 68.6533 16.731C72.3469 10.1798 67.7771 10.5268 150.339 10.5268H227.144L231.159 14.211ZM148.362 15.7222C145.98 17.232 146.878 22.607 149.818 24.4504C154.738 27.5344 159.626 20.8613 155.484 16.7176C153.07 14.3048 151.046 14.0221 148.362 15.7222ZM273.864 21.9157C272.056 31.011 273.471 51.9319 276.768 64.8668C279.552 75.7948 286.615 92.0978 291.593 99.0884L294.404 103.035L287.254 99.7971C256.206 85.7355 257.247 86.4174 252.825 77.2417C248.129 67.502 246.416 56.2337 248.469 48.6067C249.427 45.0498 253.973 38.5549 262.233 28.9425C269.018 21.0489 274.709 14.7322 274.882 14.905C275.055 15.0765 274.596 18.2315 273.864 21.9157ZM154.59 20.2544C154.893 21.8299 154.186 22.5842 152.404 22.5842C149.743 22.5842 147.612 19.5444 149.175 17.9796C150.711 16.4443 154.134 17.8818 154.59 20.2544ZM229.022 36.3162C229.465 37.9735 229.838 41.1941 229.847 43.473C229.863 47.1465 229.263 47.7949 224.53 49.2136C208.587 53.9897 189.675 67.995 189.675 75.0245C189.675 87.1422 197.595 91.3248 220.831 91.4761C234.299 91.5646 236.455 91.87 235.714 93.5889C233.732 98.1774 233.761 102.858 235.79 106.785C237.815 110.698 237.774 111.477 235.142 119.29C231.917 128.862 229.153 134.573 227.148 135.814C226.379 136.289 219.956 130.913 212.876 123.866C197.479 108.544 192.23 105.646 179.873 105.646C171.215 105.646 170.919 105.535 170.919 102.297C170.919 100.455 171.673 98.945 172.593 98.941C173.515 98.937 176.002 97.5464 178.121 95.8516C181.958 92.781 181.965 92.7502 179.697 88.3653C178.444 85.9431 177.777 83.6053 178.212 83.1699C178.648 82.7345 177.035 80.3016 174.627 77.7642C172.196 75.2027 170.909 72.9078 171.733 72.6036C172.551 72.3035 174.359 71.2144 175.752 70.1841C178.155 68.409 178.169 68.1129 176.049 64.5386C172.982 59.3727 167.764 57.5587 164.491 60.5221C162.905 61.957 159.726 62.7755 155.741 62.7755C150.515 62.7755 149.483 63.1895 149.483 65.2875C149.483 66.997 148.221 68.0513 145.537 68.5885C143.366 69.0226 140.893 70.6812 140.041 72.2727C138.755 74.6762 138.975 75.7654 141.333 78.6846C150.956 90.5986 152.167 92.7743 152.364 98.4788C152.474 101.685 152.625 105.061 152.699 105.981C152.772 106.903 151.024 107.843 148.814 108.072C140.245 108.959 134.384 111.34 129.167 116.053C122.372 122.193 113.642 134.931 109.857 144.233L106.966 151.334L106.899 143.874C106.806 133.481 103.573 128.279 95.7288 125.904L89.6292 124.055L84.6428 83.7031C81.9004 61.5082 79.3134 41.0896 78.8968 38.3258L78.1358 33.3019H153.176H228.214L229.022 36.3162ZM130.727 39.3306C130.727 40.4358 131.33 41.3401 132.067 41.3401C132.804 41.3401 133.407 40.4358 133.407 39.3306C133.407 38.2253 132.804 37.321 132.067 37.321C131.33 37.321 130.727 38.2253 130.727 39.3306ZM126.708 42.6799C126.708 43.4167 127.613 44.0196 128.718 44.0196C129.896 44.0196 130.727 45.24 130.727 46.9669C130.727 49.227 131.096 49.5459 132.303 48.3388C133.511 47.1304 133.306 46.1296 131.425 44.0517C128.781 41.1285 126.708 40.5256 126.708 42.6799ZM134.496 43.5949C135.462 43.9821 136.618 43.9338 137.063 43.489C137.508 43.0443 136.717 42.7281 135.305 42.7857C133.744 42.85 133.427 43.1675 134.496 43.5949ZM247.329 45.2709C243.445 52.5281 247.154 74.6226 253.827 83.9939L256.575 87.8536L238.866 89.1946C226.643 90.1204 220.609 90.1029 219.386 89.137C215.96 86.4348 212.146 76.959 211.511 69.5705C210.444 57.1595 211.153 56.3797 229.996 49.2364C249.473 41.8533 249.115 41.935 247.329 45.2709ZM296.656 55.7608C297.84 61.3099 296.846 68.1344 294.855 68.1344C294.458 68.1344 292.938 66.1744 291.478 63.7803C288.896 59.5455 287.752 48.2062 289.71 46.2489C291.494 44.4644 295.382 49.787 296.656 55.7608ZM101.759 49.1118C100.966 49.6263 100.029 50.9392 99.6783 52.0284C99.3273 53.1175 97.579 54.0218 95.7932 54.0379C93.4487 54.0594 92.5457 54.8123 92.5457 56.7468C92.5457 58.2205 91.49 59.859 90.2012 60.3882C87.5097 61.4921 87.0328 66.2936 89.5314 67.1349C90.8403 67.5757 90.8068 68.1826 89.3813 69.9095C87.1922 72.5621 88.272 76.1726 91.2542 76.1726C92.7319 76.1726 93.1512 76.9443 92.606 78.6632C91.6427 81.6989 94.7375 84.5713 97.7344 83.4205C99.2014 82.8578 99.9141 83.3026 99.9141 84.7789C99.9141 88.0318 104.015 89.0834 106.018 86.3451C107.623 84.1493 107.785 84.1479 109.007 86.3343C110.566 89.1182 114.651 87.9835 114.651 84.7669C114.651 83.2316 115.453 82.768 117.281 83.2463C120.469 84.0796 123.048 81.3466 121.899 78.3523C121.336 76.8854 121.781 76.1726 123.257 76.1726C126.286 76.1726 127.39 72.5822 125.184 69.9095C123.758 68.1826 123.725 67.5757 125.034 67.1349C127.765 66.2159 126.988 61.259 123.991 60.4739C122.148 59.9929 121.512 59.0163 122.013 57.4395C122.875 54.7185 119.403 51.1281 118.04 53.3319C116.635 55.6054 114.651 54.9436 114.651 52.2012C114.651 48.9042 111.286 47.6462 109.198 50.1621C107.766 51.8864 107.303 51.885 105.385 50.1501C104.185 49.0636 102.553 48.596 101.759 49.1118ZM105.039 52.3593C106.334 53.6548 107.234 53.6548 109.307 52.3593C112.87 50.134 113.311 50.2653 113.311 53.5543C113.311 55.868 113.937 56.2699 116.715 55.738C119.276 55.249 120.067 55.6255 119.911 57.2573C119.485 61.677 120.079 62.7755 122.897 62.7755C125.714 62.7755 125.724 62.8412 123.322 65.4965C121.036 68.0218 121.017 68.3755 123.063 70.4226C125.109 72.4683 125.055 72.7336 122.303 74.1215C120.271 75.1464 119.478 76.5839 119.779 78.6966C120.153 81.3091 119.781 81.64 117.341 80.8656C115.123 80.1609 114.295 80.5937 113.731 82.7506C112.874 86.0275 112.751 86.0597 109.307 83.9095C107.234 82.614 106.334 82.614 105.039 83.9095C102.707 86.2406 101.672 85.9552 100.835 82.7506C100.261 80.5602 99.456 80.1569 97.1262 80.8965C94.6705 81.6762 94.3061 81.4323 95.0457 79.5072C96.0076 76.9992 93.6255 73.0819 91.8169 74.1992C91.214 74.5717 90.3405 74.2595 89.8743 73.5053C89.4081 72.751 89.9695 71.773 91.1216 71.3309C93.9109 70.2605 93.7809 67.2622 90.8711 65.5434C88.7316 64.2787 88.7905 64.0844 91.5409 63.3101C94.5298 62.4701 95.0576 61.4438 94.6544 57.2573C94.4976 55.6255 95.2894 55.249 97.8496 55.738C100.628 56.2699 101.254 55.868 101.254 53.5543C101.254 50.3591 102.61 49.9304 105.039 52.3593ZM103.016 58.7363C96.4255 61.4572 95.1046 71.6243 100.765 76.0748C102.706 77.6021 105.639 78.8521 107.283 78.8521C112.348 78.8521 117.33 73.8951 117.33 68.8551C117.33 61.0352 110.001 55.8546 103.016 58.7363ZM209.182 62.2571C208.039 66.8081 210.663 79.6666 213.866 85.2157L216.379 89.5697H212.491C202.614 89.5697 197.713 83.6013 197.713 71.5747C197.713 66.1194 198.185 65.2312 202.713 62.1539C209.03 57.8615 210.281 57.8816 209.182 62.2571ZM113.311 62.7755C116.636 66.1007 116.719 69.6161 113.566 73.512C108.862 79.3196 98.5744 75.5269 98.5744 67.9857C98.5744 64.4019 103.326 60.0961 107.283 60.0961C109.125 60.0961 111.838 61.3018 113.311 62.7755ZM17.404 69.9684C17.0168 70.9772 16.8842 75.0473 17.1106 79.0115L17.5219 86.2205H36.9477H56.3735V77.5123V68.8042L43.3113 68.4211C34.9448 68.1746 30.2492 68.5363 30.2492 69.4258C30.2492 70.2859 35.0882 70.8138 42.9764 70.8138H55.7037V77.5123V84.2109H36.9477H18.1918V77.5123C18.1918 70.9625 18.2815 70.8138 22.2109 70.8138C24.4214 70.8138 26.23 70.2109 26.23 69.4741C26.23 67.4283 18.2065 67.8785 17.404 69.9684ZM198.431 84.7012C199.333 86.8957 199.12 87.0203 196.684 85.7167C192.684 83.5759 190.367 75.8431 192.54 71.8842C194.153 68.9476 194.306 69.1164 195.817 75.5028C196.69 79.187 197.864 83.3267 198.431 84.7012ZM172.005 77.5445L176.441 82.7077L173.68 85.4689C169.531 89.618 166.365 88.8651 162.103 82.7158L158.283 77.2029L161.4 74.6775C165.647 71.2385 166.873 71.5694 172.005 77.5445ZM29.2444 75.823C33.4819 76.0882 40.4135 76.0882 44.6511 75.823C48.8886 75.5577 45.4214 75.3393 36.9477 75.3393C28.474 75.3393 25.0069 75.5577 29.2444 75.823ZM22.8808 78.8521C22.3569 79.7001 25.7691 80.1918 32.1797 80.1918C38.0382 80.1918 42.3066 79.6264 42.3066 78.8521C42.3066 78.0871 38.3142 77.5123 33.0077 77.5123C27.8926 77.5123 23.3363 78.1152 22.8808 78.8521ZM44.986 78.8521C44.986 79.5889 46.4932 80.1918 48.3353 80.1918C50.1774 80.1918 51.6845 79.5889 51.6845 78.8521C51.6845 78.1152 50.1774 77.5123 48.3353 77.5123C46.4932 77.5123 44.986 78.1152 44.986 78.8521ZM158.67 84.0635C159.937 84.8674 160.038 85.493 159.005 86.132C157.305 87.1824 154.842 85.9981 154.842 84.1319C154.842 82.5738 156.278 82.5483 158.67 84.0635ZM247.26 93.9238C247.246 95.581 245.813 98.2872 244.074 99.9351L240.912 102.932L240.077 98.7628C238.664 91.6945 238.983 90.9094 243.263 90.9094C246.545 90.9094 247.278 91.4627 247.26 93.9238ZM168.885 102.892C170.305 107.365 167.363 111.005 162.327 111.005C159.865 111.005 157.252 110.252 156.521 109.33C155.181 107.641 153.225 94.2051 154.506 95.4846C154.884 95.8637 156.449 95.2957 157.98 94.2225C160.539 92.43 161.064 92.5961 164.405 96.2549C166.405 98.4453 168.422 101.432 168.885 102.892ZM240.577 110.303C242.068 117.552 243.068 123.704 242.798 123.975C242.528 124.244 241.385 124.112 240.258 123.679C238.756 123.103 238.206 120.863 238.192 115.275C238.183 111.084 237.744 104.943 237.217 101.627C235.509 90.8693 237.79 96.76 240.577 110.303ZM253.311 102.408C253.311 105.957 252.849 106.355 248.287 106.731C241.586 107.286 241.392 102.925 247.952 99.2116C251.792 97.0373 253.311 97.9429 253.311 102.408ZM252.17 116.276C253.996 124.925 253.411 127.082 249.244 127.082C246.525 127.082 245.941 126.11 244.619 119.378C243.786 115.142 242.884 110.988 242.613 110.149C242.308 109.199 243.732 108.693 246.377 108.809C250.408 108.986 250.712 109.377 252.17 116.276ZM64.4909 112.913C66.767 114.582 67.4087 114.541 69.6407 112.578C72.0937 110.42 72.158 110.496 71.3636 114.612C70.3561 119.832 73.7174 131.87 76.4799 132.929C79.6443 134.143 78.8244 137.27 74.3564 141.029C69.3539 145.239 65.6872 145.454 63.6562 141.658C62.4223 139.353 62.6259 138.153 64.7306 135.294C66.1574 133.357 67.7236 129.058 68.2112 125.742C69.0324 120.153 68.948 119.906 67.0537 122.363C64.4453 125.745 60.9929 123.884 59.4629 118.27C57.6208 111.509 59.6411 109.356 64.4909 112.913ZM302.252 127.082C302.252 128.187 302.836 129.996 303.55 131.101C304.705 132.887 304.848 132.887 304.848 131.101C304.848 129.996 304.264 128.187 303.55 127.082C302.395 125.296 302.252 125.296 302.252 127.082ZM308.909 128.421C308.909 129.158 309.512 129.761 310.249 129.761C310.986 129.761 311.588 129.158 311.588 128.421C311.588 127.685 310.986 127.082 310.249 127.082C309.512 127.082 308.909 127.685 308.909 128.421ZM311.631 133.189C311.607 133.969 312.474 135.778 313.555 137.209C314.638 138.638 315.542 139.171 315.565 138.39C315.589 137.61 314.722 135.802 313.641 134.371C312.558 132.942 311.654 132.408 311.631 133.189ZM29.8553 149.522C32.9808 152.654 36.7628 155.216 38.2606 155.216C39.82 155.216 44.3992 151.747 48.9716 147.104L56.9576 138.993L54.2823 145.04C52.6907 148.64 51.9324 152.389 52.412 154.299C53.3726 158.124 51.0201 160.832 43.3274 164.756C38.0892 167.428 37.8587 167.438 35.5303 165.048C34.2107 163.692 30.0322 157.504 26.2461 151.294C20.7078 142.211 19.5529 139.329 20.3447 136.557C21.2851 133.268 21.395 133.355 22.7521 138.469C23.6162 141.726 26.4028 146.061 29.8553 149.522ZM61.3465 137.811C60.5788 143.044 63.0145 145.838 68.3438 145.838C72.6403 145.838 77.6924 141.794 80.8742 135.809C82.226 133.267 82.3211 133.297 83.0204 136.478C83.8483 140.247 84.7513 165.936 84.0546 165.935C83.8068 165.933 79.8292 163.823 75.2166 161.243C67.1475 156.731 66.6344 156.622 61.6024 158.364C54.8315 160.708 54.7418 163.695 61.4283 164.122C65.651 164.393 67.5775 165.643 73.1279 171.715C76.7827 175.714 81.6069 179.746 83.8496 180.675C87.1158 182.029 87.7549 182.926 87.0704 185.201C85.6891 189.785 84.7848 190.063 78.46 187.843C73.8755 186.234 69.3888 185.912 59.5459 186.486C52.4481 186.9 46.3324 186.928 45.9546 186.55C45.5768 186.172 47.3077 180.023 49.8022 172.884C52.2967 165.746 54.3425 157.273 54.3505 154.058C54.3572 150.843 55.5161 146.02 56.9255 143.34C58.3335 140.661 59.8219 137.415 60.2332 136.125C61.3988 132.461 61.9989 133.369 61.3465 137.811ZM91.9951 140.701C92.8311 142.263 93.8091 150.841 94.1668 159.761C94.6826 172.592 94.416 176.512 92.886 178.523C89.8704 182.489 84.2797 180.205 75.8275 171.552C71.6261 167.25 66.4053 163.346 63.7419 162.512L59.0529 161.045L63.395 160.036C67.035 159.19 69.0392 159.817 75.7739 163.908C80.1923 166.592 84.5034 168.359 85.3528 167.834C86.4621 167.148 86.643 162.391 85.9959 150.931C85.109 135.245 85.1384 135.005 87.7844 136.421C89.2634 137.213 91.1591 139.139 91.9951 140.701ZM304.91 136.125C304.922 136.677 305.516 138.034 306.23 139.139C307.28 140.764 307.532 140.571 307.549 138.134C307.56 136.476 306.966 135.12 306.23 135.12C305.493 135.12 304.899 135.573 304.91 136.125ZM160.871 137.74C163.347 138.749 163.276 138.905 159.937 139.783C157.949 140.306 155.402 142.14 154.276 143.857C153.15 145.576 150.877 147.177 149.224 147.414C147.021 147.732 143.967 151.6 137.777 161.914C129.295 176.045 120.567 186.029 116.693 186.029C114.108 186.029 109.304 178.385 109.297 174.26C109.289 169.272 112.687 165.446 127.792 153.426C135.67 147.159 143.164 140.776 144.446 139.245C146.913 136.299 155.422 135.519 160.871 137.74ZM256.599 188.452C256.632 189.417 256.057 189.834 255.321 189.378C254.584 188.923 253.981 189.509 253.981 190.68C253.981 191.853 254.885 193.159 255.99 193.582C258.224 194.44 258.766 198.086 256.66 198.086C255.923 198.086 255.33 199.442 255.341 201.101C255.357 203.346 255.661 203.642 256.536 202.262C257.406 200.888 257.916 201.406 258.51 204.272C259.727 210.125 271.397 304.508 271.397 308.488C271.397 310.398 270.191 313.167 268.718 314.641C266.1 317.259 264.252 317.321 189.08 317.321H112.122L108.531 314.233C104.982 311.179 104.851 310.438 96.8811 247.867C89.033 186.27 88.887 184.54 91.352 182.71C93.6497 181.005 93.9792 181.166 94.8956 184.435C95.4502 186.416 99.2309 214.866 103.297 247.656C107.363 280.445 110.959 308.027 111.288 308.947C112.111 311.249 264.211 311.414 264.977 309.115C265.255 308.286 262.744 285.985 259.401 259.558C254.399 220.017 253.617 211.033 254.991 208.833C257.127 205.413 257.09 204.785 254.757 204.785C252.823 204.785 252.149 202.527 250.614 190.909C250.019 186.411 250.2 184.678 251.198 185.295C253.127 186.488 253.044 184.289 251.086 182.33C250.23 181.474 248.799 175.476 247.907 169C246.509 158.86 246.586 156.049 248.457 148.75L250.632 140.275L253.584 163.487C255.208 176.253 256.565 187.488 256.599 188.452ZM315.219 144.498C315.605 145.972 316.453 147.177 317.104 147.177C318.504 147.177 318.554 146.75 317.474 143.938C316.294 140.862 314.392 141.333 315.219 144.498ZM306.23 146.428C306.23 147.491 306.832 148.731 307.569 149.187C308.306 149.642 308.909 148.773 308.909 147.256C308.909 145.74 308.306 144.498 307.569 144.498C306.832 144.498 306.23 145.366 306.23 146.428ZM317.159 153.876C317.159 155.718 317.463 156.472 317.834 155.55C318.207 154.63 318.207 153.123 317.834 152.201C317.463 151.281 317.159 152.034 317.159 153.876ZM219.006 164.197C222.98 166.094 228.812 167.936 231.965 168.291C236.821 168.839 238.229 168.41 241.144 165.495L244.587 162.052L245.216 164.998C245.817 167.801 263.359 306.419 263.359 308.357C263.359 308.866 251.012 309.282 235.92 309.282C208.531 309.282 208.48 309.277 207.899 306.268C207.579 304.609 206.648 293.782 205.83 282.205C204.355 261.325 199.707 216.884 198.256 209.809C197.704 207.119 198.032 206.125 199.468 206.125C200.551 206.125 202.799 205.021 204.464 203.673L207.492 201.22L203.184 178.553C200.814 166.086 198.615 155.082 198.294 154.1C197.974 153.118 200.877 154.212 204.747 156.531C208.614 158.85 215.031 162.3 219.006 164.197ZM307.234 153.309C306.681 153.866 306.23 155.548 306.23 157.047C306.23 159.018 306.634 159.366 307.695 158.305C308.5 157.5 308.953 155.817 308.7 154.568C308.447 153.319 307.788 152.752 307.234 153.309ZM104.828 161.455C103.734 168.204 108.459 182.5 112.955 186.036C116.382 188.731 116.399 188.731 120.879 186.089C125.54 183.339 126.087 183.883 124.525 189.713C124.08 191.372 122.732 192.797 121.528 192.883C119.669 193.016 119.694 193.131 121.684 193.651C123.406 194.101 124.029 195.636 124.029 199.429C124.029 205.362 126.608 208.583 132.264 209.714C135.037 210.268 135.975 211.116 135.528 212.662C128.944 235.376 126.853 250.47 125.804 282.823L124.945 309.282H119.19C112.254 309.282 114.149 317.934 104.382 241.627C95.6525 173.421 95.4046 167.825 100.836 161.286C102.908 158.79 104.832 156.705 105.114 156.652C105.394 156.598 105.266 158.76 104.828 161.455ZM315.608 160.385C315.608 161.106 315.242 162.648 314.794 163.814C314.347 164.979 314.579 165.933 315.307 165.933C317.083 165.933 318.361 160.778 316.821 159.827C316.154 159.414 315.608 159.666 315.608 160.385ZM305.867 162.723C305.329 163.261 304.909 164.957 304.93 166.492C304.968 169.068 305.079 169.099 306.365 166.887C307.864 164.312 307.481 161.11 305.867 162.723ZM312.37 170.814C311.094 174.14 312.501 174.594 314.206 171.407C315.029 169.869 315.143 168.613 314.458 168.613C313.775 168.613 312.834 169.603 312.37 170.814ZM307.814 178.281C305.939 180.157 305.745 182.01 307.426 182.01C308.653 182.01 310.675 177.969 309.856 177.152C309.606 176.9 308.687 177.409 307.814 178.281ZM231.876 179.33C230.828 181.026 232.602 181.026 235.225 179.33C236.957 178.212 236.921 178.029 234.969 178.011C233.723 178 232.331 178.594 231.876 179.33ZM241.923 179.33C244.547 181.026 246.32 181.026 245.273 179.33C244.817 178.594 243.425 178 242.179 178.011C240.227 178.029 240.191 178.212 241.923 179.33ZM227.898 185.082C227.325 186.403 227.232 187.86 227.69 188.32C229.051 189.68 230.149 187.769 229.522 185.129C228.967 182.788 228.895 182.787 227.898 185.082ZM302.456 184.98C300.58 186.856 300.386 188.708 302.067 188.708C303.294 188.708 305.316 184.668 304.497 183.851C304.247 183.599 303.328 184.108 302.456 184.98ZM228.568 192.727C228.568 193.833 229.152 195.641 229.866 196.747C231.021 198.532 231.164 198.532 231.164 196.747C231.164 195.641 230.58 193.833 229.866 192.727C228.711 190.942 228.568 190.942 228.568 192.727ZM295.551 192.675C294.467 193.361 293.908 194.249 294.309 194.65C294.709 195.052 296.199 194.5 297.619 193.425C300.443 191.289 298.727 190.666 295.551 192.675ZM111.972 194.067C111.972 195.746 113.393 195.746 115.991 194.067C117.616 193.017 117.423 192.765 114.986 192.748C113.329 192.737 111.972 193.33 111.972 194.067ZM102.594 195.281C102.594 195.949 103.799 196.18 105.273 195.795C106.747 195.41 107.952 194.863 107.952 194.58C107.952 194.299 106.747 194.067 105.273 194.067C103.799 194.067 102.594 194.614 102.594 195.281ZM195.315 203.445C195.851 207.498 196.577 212.803 196.928 215.235C197.503 219.214 197.29 219.567 194.792 218.775C192.937 218.186 192.322 218.386 192.936 219.378C193.439 220.194 194.644 220.861 195.611 220.861C196.609 220.861 197.717 223.036 198.17 225.885C199.094 231.701 203.864 280.46 205.147 297.225L206.018 308.612L194.667 308.184L183.315 307.755L180.369 292.777C177.039 275.838 173.448 260.826 169.365 246.767C166.076 235.437 167.014 227.762 171.958 225.568C173.597 224.84 174.938 223.785 174.938 223.223C174.938 221.512 172.711 222.074 169.685 224.546C166.274 227.331 164.281 235.056 156.057 277.368L150.153 307.748L139.098 308.181L128.041 308.612L128.045 288.415C128.049 262.488 130.075 242.688 134.538 224.957L138.096 210.818L144.232 209.955C147.605 209.479 152.73 207.928 155.619 206.506C158.508 205.085 162.077 204.148 163.55 204.426C165.75 204.838 165.871 204.68 164.22 203.538C163.115 202.773 162.512 202.135 162.881 202.12C163.249 202.105 167.77 200.588 172.928 198.747C178.819 196.645 184.544 195.526 188.323 195.739L194.34 196.077L195.315 203.445ZM202.804 198.354C205.163 200.713 204.784 202.052 201.397 203.322C198.386 204.45 196.714 202.789 196.467 198.421C196.348 196.287 200.691 196.242 202.804 198.354ZM287.512 198.034C286.429 198.72 285.87 199.608 286.271 200.009C286.671 200.411 288.161 199.859 289.581 198.784C292.405 196.647 290.689 196.024 287.512 198.034ZM233.885 200.576C233.885 201.953 237.943 203.852 238.881 202.916C239.207 202.589 238.216 201.65 236.68 200.827C235.142 200.005 233.885 199.891 233.885 200.576ZM278.766 202.105C278.31 202.842 278.842 203.445 279.947 203.445C281.052 203.445 282.329 202.842 282.785 202.105C283.24 201.369 282.708 200.766 281.603 200.766C280.498 200.766 279.221 201.369 278.766 202.105ZM241.923 204.785C241.923 205.522 243.165 206.125 244.682 206.125C246.199 206.125 247.068 205.522 246.612 204.785C246.157 204.048 244.916 203.445 243.854 203.445C242.792 203.445 241.923 204.048 241.923 204.785ZM268.718 204.785C268.718 206.464 270.139 206.464 272.737 204.785C274.362 203.735 274.169 203.483 271.732 203.465C270.075 203.455 268.718 204.048 268.718 204.785ZM185.656 206.103C185.656 208.269 193.391 216.251 194.458 215.185C194.999 214.644 193.844 212.942 191.889 211.404C189.935 209.868 188.335 207.75 188.335 206.697C188.335 205.645 187.732 204.785 186.995 204.785C186.258 204.785 185.656 205.378 185.656 206.103ZM305.694 206.659C306.089 207.689 305.769 208.931 304.981 209.418C304.195 209.904 303.569 211.02 303.593 211.897C303.651 214.046 307.569 208.765 307.569 206.539C307.569 205.574 306.985 204.785 306.271 204.785C305.558 204.785 305.297 205.628 305.694 206.659ZM168.909 207.464C169.365 208.201 170.757 208.795 172.003 208.784C173.955 208.765 173.991 208.583 172.258 207.464C169.635 205.768 167.862 205.768 168.909 207.464ZM309.579 207.464C309.123 208.201 309.691 208.804 310.84 208.804C311.988 208.804 312.928 208.201 312.928 207.464C312.928 206.727 312.361 206.125 311.668 206.125C310.974 206.125 310.034 206.727 309.579 207.464ZM149.001 213.394C147.83 215.181 144.746 217.413 142.149 218.352C139.551 219.291 137.426 220.583 137.426 221.22C137.426 222.796 142.726 221.156 146.67 218.361C150.502 215.647 154.392 210.144 152.48 210.144C151.738 210.144 150.173 211.607 149.001 213.394ZM177.968 212.408C179.214 213.654 180.683 214.224 181.231 213.675C181.78 213.126 181.342 212.117 180.258 211.431C176.996 209.368 175.548 209.987 177.968 212.408ZM308.424 212.153C308.849 213.259 309.716 214.163 310.351 214.163C310.984 214.163 311.157 213.259 310.734 212.153C310.309 211.048 309.442 210.144 308.807 210.144C308.174 210.144 308.001 211.048 308.424 212.153ZM186.007 216.427C187.253 217.673 188.721 218.244 189.269 217.694C189.818 217.145 189.38 216.136 188.296 215.45C185.034 213.387 183.586 214.006 186.007 216.427ZM245.943 216.172C245.013 217.294 244.867 218.182 245.614 218.182C246.351 218.182 247.704 217.278 248.622 216.172C249.552 215.051 249.698 214.163 248.95 214.163C248.213 214.163 246.86 215.067 245.943 216.172ZM59.4683 229.468L59.0529 234.056L55.2629 230.781L51.4728 227.506L55.2629 221.487L59.0529 215.468L59.4683 220.174C59.6973 222.762 59.6973 226.945 59.4683 229.468ZM85.2416 237.623C87.002 252.475 86.5987 254.271 81.4931 254.334C79.5907 254.357 79.2424 241.192 80.7295 225.55C81.8133 214.156 82.7604 216.692 85.2416 237.623ZM237.943 220.809C236.859 221.495 236.421 222.504 236.971 223.053C237.518 223.602 238.987 223.032 240.233 221.786C242.654 219.365 241.205 218.746 237.943 220.809ZM201.732 222.011C201.732 223.388 205.79 225.288 206.728 224.351C207.053 224.024 206.063 223.085 204.527 222.263C202.989 221.44 201.732 221.326 201.732 222.011ZM209.77 224.881C209.77 225.617 211.012 226.22 212.529 226.22C214.045 226.22 214.915 225.617 214.459 224.881C214.004 224.144 212.763 223.541 211.701 223.541C210.639 223.541 209.77 224.144 209.77 224.881ZM228.526 224.881C228.526 226.559 229.948 226.559 232.546 224.881C234.171 223.83 233.978 223.578 231.541 223.561C229.883 223.55 228.526 224.144 228.526 224.881ZM220.153 225.767C221.075 226.14 222.582 226.14 223.502 225.767C224.424 225.396 223.67 225.092 221.828 225.092C219.986 225.092 219.233 225.396 220.153 225.767ZM282.407 231.244C281.878 232.534 280.239 233.589 278.766 233.589C276.785 233.589 276.169 234.375 276.405 236.603C276.603 238.472 275.996 239.617 274.809 239.617C271.948 239.617 270.939 242.14 272.871 244.467C274.202 246.072 274.219 246.741 272.94 247.53C270.852 248.82 272.403 253.014 274.969 253.014C276.039 253.014 276.526 253.644 276.05 254.413C274.82 256.403 277.923 259.696 280.203 258.821C281.37 258.372 282.115 258.925 282.115 260.24C282.115 262.76 286.222 263.108 288.545 260.785C289.795 259.535 290.153 259.535 290.153 260.785C290.153 261.669 291.359 262.392 292.832 262.392C294.4 262.392 295.512 261.499 295.512 260.24C295.512 258.925 296.257 258.372 297.424 258.821C299.444 259.595 303.159 256.196 301.788 254.826C301.346 254.384 302.296 252.96 303.899 251.661C306.231 249.774 306.494 248.918 305.213 247.376C303.972 245.879 303.982 245.074 305.257 243.777C306.558 242.455 306.285 241.603 303.943 239.688C302.315 238.358 301.346 236.908 301.788 236.466C303.092 235.164 299.494 231.678 297.597 232.406C296.64 232.773 295.497 232.134 295.056 230.986C294.097 228.486 290.69 228.228 289.594 230.574C288.97 231.914 288.657 231.914 288.032 230.574C286.89 228.128 283.52 228.529 282.407 231.244ZM296.897 235.198C298.503 234.778 299.518 235.123 299.404 236.05C298.984 239.482 299.626 240.957 301.541 240.957C303.972 240.957 304.215 243.173 301.876 244.02C300.537 244.505 300.54 245.2 301.886 247.48C303.302 249.877 303.249 250.335 301.551 250.335C300.311 250.335 299.531 251.578 299.531 253.558C299.531 256.044 298.959 256.633 297.036 256.131C295.276 255.67 294.263 256.397 293.596 258.6C293.033 260.465 292.373 261.047 291.96 260.048C291.581 259.128 290.114 258.373 288.702 258.373C287.289 258.373 286.095 259.128 286.05 260.048C286.003 260.97 285.393 260.297 284.696 258.556C283.776 256.259 282.687 255.583 280.73 256.094C279.123 256.514 278.109 256.169 278.223 255.242C278.644 251.806 277.999 250.335 276.075 250.335C274.378 250.335 274.324 249.877 275.74 247.48C277.087 245.2 277.09 244.505 275.751 244.02C273.192 243.093 273.754 241.354 276.877 240.538C278.952 239.995 279.457 239.118 278.831 237.143C278.139 234.963 278.479 234.61 280.704 235.191C282.463 235.652 283.72 235.128 284.265 233.707C284.958 231.899 285.469 231.811 287.155 233.211C288.842 234.61 289.46 234.501 290.662 232.597C292.006 230.466 292.202 230.505 293.159 233.094C293.894 235.077 294.992 235.696 296.897 235.198ZM282.213 240.468C279.004 244.546 278.881 245.438 280.976 249.419C283.01 253.284 284.715 254.309 289.148 254.334C296.947 254.377 300.784 245.584 295.46 239.871C291.629 235.759 285.705 236.027 282.213 240.468ZM292.534 240.364C297.795 244.048 295.158 253.014 288.813 253.014C282.468 253.014 279.832 244.048 285.093 240.364C286.73 239.217 288.405 238.278 288.813 238.278C289.222 238.278 290.897 239.217 292.534 240.364ZM169.408 254.019C170.947 259.729 174.031 273.144 176.259 283.828C178.487 294.512 180.62 304.609 180.999 306.268C181.681 309.254 181.551 309.282 166.78 309.282C152.017 309.282 151.879 309.253 152.537 306.268C152.901 304.609 155.814 289.84 159.006 273.445C162.2 257.05 165.216 243.636 165.71 243.636C166.203 243.636 167.867 248.309 169.408 254.019ZM88.9151 268.97C89.1281 275.905 88.8213 282.059 88.2332 282.647C87.6451 283.236 85.665 281.53 83.8336 278.857C81.5092 275.465 81.0068 273.831 82.171 273.442C83.0873 273.137 83.8376 272.298 83.8376 271.58C83.8376 270.861 83.3312 270.585 82.7136 270.968C82.0946 271.35 81.4864 268.957 81.3618 265.651C81.2358 262.346 81.0684 259.204 80.9867 258.672C80.6049 256.14 81.4395 255.548 84.8424 255.94L88.5266 256.364L88.9151 268.97ZM85.9905 267.97C85.4077 274.954 85.5806 279.408 86.4675 280.295C87.4267 281.254 87.8567 277.869 87.8567 269.359C87.8567 262.58 87.6423 257.034 87.3798 257.034C87.1172 257.034 86.4916 261.954 85.9905 267.97ZM237.904 287.847C234.589 291.163 234.573 292.105 237.764 296.045C239.947 298.74 240.84 298.993 244.127 297.843C248.665 296.256 249.963 290.719 246.59 287.346C243.696 284.452 241.153 284.598 237.904 287.847ZM245.802 289.686C248.05 292.395 246.14 295.885 242.408 295.885C238.944 295.885 237.123 293.155 238.389 289.857C239.354 287.342 243.771 287.24 245.802 289.686ZM69.1008 301.165C69.1008 304.205 67.0631 305.796 64.452 304.794C61.7592 303.76 63.5316 298.565 66.5781 298.565C68.1817 298.565 69.1008 299.512 69.1008 301.165ZM62.9207 306.228C63.4512 306.758 65.2089 307.21 66.8273 307.233C69.2521 307.266 69.8443 308.157 70.1859 312.297L70.6026 317.321H57.1238C49.7111 317.321 43.6463 316.777 43.6463 316.112C43.6463 314.306 52.2834 309.171 52.8005 310.669C53.6151 313.027 55.634 312.006 54.8825 309.617C54.2474 307.6 54.439 307.633 56.2503 309.854C57.4078 311.274 58.7489 312.042 59.2298 311.561C59.7108 311.08 59.4214 309.864 58.5854 308.856C56.2811 306.08 60.323 303.63 62.9207 306.228ZM50.6797 315.626C54.1791 315.902 59.9077 315.902 63.407 315.626C66.9063 315.35 64.0434 315.123 57.0434 315.123C50.0434 315.123 47.1804 315.35 50.6797 315.626Z" fill="black"/>
</g>
</svg>
