<svg width="343" height="320" viewBox="0 0 343 320" fill="none" xmlns="http://www.w3.org/2000/svg">
<mask id="mask0_414_8214" style="mask-type:alpha" maskUnits="userSpaceOnUse" x="0" y="0" width="343" height="320">
<rect width="343" height="320" fill="#D9D9D9"/>
</mask>
<g mask="url(#mask0_414_8214)">
<path fill-rule="evenodd" clip-rule="evenodd" d="M262.644 3.4586C261.921 5.36057 260.953 8.41947 260.492 10.2562L259.653 13.5951H212.504H165.355L165.409 9.85648L165.462 6.11782H143.03H120.598L120.168 9.85648L119.737 13.5951H91.4446C59.2785 13.5951 60.3457 13.2281 58.9345 24.7853L58.0604 31.9486L42.7658 32.3333C34.3545 32.5441 27.4482 33.1558 27.421 33.6929C27.3925 34.2285 25.9568 45.2705 24.2302 58.2307C21.5207 78.5691 21.3548 82.0576 23.0189 83.7216C25.2349 85.939 37.7343 86.3822 39.0272 84.2899C39.5533 83.4389 36.7173 82.9304 31.456 82.9304H23.0447L23.8128 77.8322C24.2356 75.0289 25.6631 64.0168 26.9873 53.361L29.3923 33.9879H63.8057H98.2177L97.5434 37.0468C96.4558 41.9764 94.0875 61.0626 94.0875 64.9019C94.0875 72.1495 95.742 66.3783 97.5597 52.7913C100.586 30.1772 102.76 32.6284 79.6848 32.6284H59.8441L60.8066 25.4909C61.3368 21.5646 62.0424 17.8939 62.3741 17.3338C62.7072 16.7737 75.5329 16.3142 90.8777 16.3142H118.775L117.831 25.4909C116.793 35.5935 116.81 35.3175 117.039 37.7265C117.229 39.7481 160.05 40.2253 161.288 38.22C161.699 37.5566 162.727 32.3565 163.574 26.6642L165.113 16.3142H211.778H258.442L255.796 24.005C252.531 33.4984 252.474 36.3276 255.53 37.2113C262.797 39.309 301.206 46.3336 302.564 45.8129C303.447 45.4731 306.27 38.6972 308.838 30.7549C313.648 15.871 315.752 13.5163 319.84 18.4418C321.268 20.163 321.298 23.1947 319.993 34.3169C319.105 41.8771 318.141 48.3022 317.849 48.5945C317.558 48.8854 306.093 50.3524 292.373 51.8519C278.651 53.3528 267.022 54.9937 266.527 55.4995C264.993 57.0697 263.766 99.749 265.193 101.847C266.318 103.499 269.605 103.441 288.543 101.446C300.665 100.169 310.798 99.3398 311.062 99.6021C311.324 99.8659 309.885 113.046 307.862 128.893L304.182 157.704H277.986C263.58 157.704 251.791 157.965 251.791 158.286C251.791 159.86 248.924 180.529 248.335 183.195L247.661 186.254H164.933H82.204L78.5591 175.986C76.5552 170.339 74.6138 164.936 74.2468 163.979C73.5221 162.092 76.9182 162.066 89.6147 163.864C96.3729 164.821 96.7726 164.703 98.3292 161.289C100.359 156.834 98.3822 146.924 93.2772 135.951C90.3502 129.66 89.9396 127.327 90.6928 121.239C91.5071 114.666 91.3291 113.934 88.7596 113.263C87.2029 112.856 85.9304 112.054 85.9304 111.48C85.9304 109.548 77.8441 110.826 75.5492 113.121C73.4229 115.247 73.4242 115.623 75.556 118.876C77.4715 121.799 77.5178 122.356 75.8456 122.356C71.8187 122.356 72.304 125.149 76.7904 127.796C80.4937 129.981 81.8179 131.997 83.486 137.993C84.6307 142.105 85.3336 145.468 85.0481 145.468C84.7626 145.468 81.2184 143.27 77.1711 140.582C67.8217 134.376 66.3711 128.999 71.0179 117.787C73.9463 110.72 73.9585 110.461 71.5182 107.61C70.1396 106 68.2812 104.683 67.388 104.683C66.4948 104.683 65.4453 103.919 65.0564 102.983C64.5276 101.715 63.8968 101.83 62.5644 103.443C61.5829 104.63 59.9324 105.316 58.8965 104.967C57.4173 104.469 57.2107 105.388 57.934 109.245C58.6763 113.204 58.475 114.012 56.8966 113.407C53.6365 112.156 53.1702 115.024 56.0401 118.672C57.6906 120.771 58.7401 124.177 58.7401 127.434C58.7401 132.58 58.6015 132.742 54.6616 132.163C50.5626 131.562 48.9067 127.631 51.9575 125.746C53.8391 124.583 53.1172 117.098 50.9515 115.3C49.6055 114.183 49.5621 113.39 50.7666 111.94C51.963 110.497 51.9548 109.189 50.7339 106.511C49.3024 103.368 48.5764 103.074 44.0764 103.818C41.3003 104.278 37.6513 104.66 35.9683 104.668C34.1628 104.676 32.9093 105.517 32.9093 106.722C32.9093 107.844 31.7225 108.761 30.2705 108.761C23.4838 108.761 25.3831 116.608 33.5945 122.506C41.1263 127.915 41.4226 131.245 34.9486 137.719C28.9736 143.694 28.9165 146.936 34.5693 159.515C38.0334 167.226 38.8939 170.856 38.6914 176.906C38.4874 182.995 38.9796 185.045 41.11 186.973C42.5823 188.305 43.7855 190.217 43.7855 191.223C43.7855 192.229 44.245 193.051 44.8078 193.051C46.4828 193.051 45.6969 213.762 43.8004 219.598C42.8338 222.569 39.1114 230.812 35.5278 237.915C31.9427 245.019 27.7989 254.596 26.3171 259.2C22.6572 270.573 18.9267 289.325 19.8471 291.725C20.2604 292.801 18.6644 296.427 16.2988 299.783L12 305.881L15.9208 309.975C18.077 312.226 22.8979 315.591 26.6325 317.452C32.5885 320.42 33.7672 320.608 36.2252 318.979C40.5933 316.083 40.3228 313.02 35.1974 307.347C29.2835 300.801 27.9471 296.911 30.5764 293.897C31.6722 292.642 36.6127 283.663 41.5572 273.942C46.5018 264.222 52.6916 252.598 55.3114 248.111L60.0752 239.954L59.4104 247.432C59.0447 251.544 57.7871 264.912 56.6139 277.137C55.4406 289.363 54.7812 299.666 55.1469 300.033C55.514 300.398 54.9158 303.244 53.8173 306.353C51.3797 313.257 52.2607 317.531 56.346 318.625C62.5794 320.295 82.809 319.57 84.4282 317.619C87.7073 313.669 83.3854 310.012 70.6359 305.947C65.3283 304.254 64.6037 303.29 66.9067 300.987C68.4335 299.46 75.9257 274.131 81.4576 251.801C85.6979 234.679 86.2717 215.142 82.9327 201.52C81.7703 196.779 81.3788 192.664 82.049 192.249C82.7124 191.84 82.915 190.953 82.499 190.279C82.0599 189.568 97.7147 188.896 119.864 188.675L157.986 188.293V200.112C157.985 214.696 156.332 217.07 141.802 223.362C130.751 228.146 127.855 231.033 130.274 234.856C131.626 236.995 134.578 237.235 159.497 237.235H187.214L204.535 229.914C214.061 225.887 222.626 221.668 223.568 220.536C224.606 219.29 225.549 212.62 225.96 203.596L226.64 188.712L237.087 188.502L247.533 188.293L247.283 197.809L247.033 207.326L279.815 207.689C305.009 207.969 312.915 207.655 313.967 206.329C314.722 205.382 316.054 198.489 316.928 191.012C319.458 169.372 319.249 169.939 324.747 169.939C327.367 169.939 329.303 169.48 329.05 168.92C327.02 164.432 320.289 152.252 318.202 149.294C315.669 145.702 315.678 145.255 318.665 121.764C321.545 99.1154 321.854 97.8851 324.646 97.8851C326.266 97.8851 328.203 97.121 328.951 96.1857C329.698 95.2517 330.742 84.2981 331.271 71.8463C332.08 52.8185 331.92 49.0228 330.268 48.0548C328.585 47.0678 328.543 45.053 329.976 33.9879C332.149 17.2019 330.248 13.5951 319.219 13.5951C315.506 13.5951 314.593 13.1316 315.196 11.5559C315.627 10.4343 315.712 9.5166 315.384 9.5166C315.058 9.5166 304.182 7.37537 291.217 4.7583C278.253 2.14124 266.815 0 265.802 0C264.788 0 263.367 1.55664 262.644 3.4586ZM312.969 12.3444C312.969 12.9358 310.491 20.4022 307.463 28.9359L301.956 44.4521L278.574 39.7631C265.713 37.1841 255.046 34.9409 254.868 34.7764C254.691 34.6119 257.008 27.121 260.016 18.1291L265.484 1.78233L289.227 6.52567C302.285 9.13458 312.969 11.753 312.969 12.3444ZM273.028 16.2788C276.496 21.4926 280.374 26.0891 281.646 26.4929C284.08 27.2651 308.393 16.722 307.118 15.4482C306.712 15.0417 301.514 16.9056 295.568 19.5906C289.623 22.2743 283.911 24.4713 282.878 24.4713C281.845 24.4713 278.303 20.4947 275.006 15.6344C271.711 10.7742 268.498 6.79757 267.869 6.79757C267.239 6.79757 269.561 11.0637 273.028 16.2788ZM163.321 11.216C163.264 12.8977 162.5 19.3867 161.621 25.635L160.024 36.9965L139.679 36.7858C128.49 36.6702 119.153 36.3942 118.931 36.1726C118.496 35.7376 120.904 16.2489 122.015 11.216C122.678 8.21011 123.041 8.15709 143.056 8.15709C163.302 8.15709 163.423 8.17476 163.321 11.216ZM131.474 19.0332C135.157 22.7719 139.033 25.8308 140.087 25.8308C142.414 25.8308 159.809 13.606 158.849 12.6462C158.475 12.2723 154.169 14.8214 149.28 18.3099L140.39 24.6534L133.751 18.4445C124.81 10.0808 123.093 10.524 131.474 19.0332ZM265.736 26.8722C259.368 30.9752 257.678 34.1238 263.777 30.5211C269.515 27.1305 274.403 23.1729 272.864 23.1634C272.116 23.1593 268.909 24.8275 265.736 26.8722ZM124.677 28.5498C122.527 30.793 121.381 32.6284 122.129 32.6284C122.877 32.6284 125.246 30.793 127.396 28.5498C129.545 26.3066 130.691 24.4713 129.943 24.4713C129.196 24.4713 126.826 26.3066 124.677 28.5498ZM149.828 25.3563C149.828 26.104 151.357 28.1528 153.226 29.9093C155.096 31.6658 156.625 32.491 156.625 31.7433C156.625 30.9956 155.096 28.9468 153.226 27.1903C151.357 25.4338 149.828 24.6086 149.828 25.3563ZM293.118 30.929C295.687 35.8042 299.276 40.4265 299.331 38.9311C299.403 36.9938 293.524 27.1903 292.291 27.1903C291.662 27.1903 292.034 28.872 293.118 30.929ZM174.761 38.0365L162.309 47.4688L151.017 47.8658L139.726 48.2628L138.741 53.0211C138.198 55.6381 137.403 59.975 136.973 62.6587C136.446 65.9446 135.112 68.1158 132.885 69.3081C131.066 70.2815 129.276 71.8667 128.906 72.8319C127.506 76.4809 117.059 156.736 117.75 158.537C118.352 160.105 128.44 160.423 177.684 160.423H236.895L238.158 157.364C239.371 154.427 249.132 81.1848 249.091 75.3239C249.08 73.7578 247.948 71.4588 246.573 70.2149C244.379 68.2286 244.227 66.9507 245.323 59.7113C247.173 47.4933 247.278 47.583 231.204 47.583H217.329L204.888 38.0664C198.046 32.8323 191.27 28.562 189.83 28.577C188.392 28.592 181.61 32.8486 174.761 38.0365ZM203.528 39.4259L214.084 47.583H189.886C176.577 47.583 166.098 47.1738 166.599 46.6735C170.851 42.4209 187.815 31.3191 190.094 31.296C191.678 31.2811 197.723 34.9395 203.528 39.4259ZM73.6948 52.4039C67.3391 57.1839 60.8569 61.1143 59.2907 61.1374C57.7246 61.1591 55.2774 59.8866 53.8527 58.3082C49.4438 53.4208 38.3474 44.5404 38.3474 45.8986C38.3474 48.4558 57.764 64.1147 60.1595 63.488C63.1423 62.7076 87.1513 45.8891 87.2301 44.5241C87.347 42.5175 85.0875 43.8321 73.6948 52.4039ZM243.834 49.5951C244.193 49.954 243.61 56.5436 242.537 64.2384L240.587 78.2292L232.254 83.8576C227.671 86.9519 214.882 95.6568 203.834 103.202C192.787 110.746 182.831 116.918 181.712 116.918C180.138 116.918 157.52 97.745 139.123 80.8164C137.559 79.378 137.531 76.8167 138.95 65.0406C139.883 57.3076 140.912 50.5223 141.238 49.9622C141.876 48.8664 242.744 48.5061 243.834 49.5951ZM329.284 72.0964C329.284 88.7587 328.866 94.0526 327.511 94.5719C324.759 95.6283 268.914 101.644 267.766 101.008C266.874 100.514 266.205 57.222 267.086 57.0235C269.325 56.5178 321.605 50.5835 324.865 50.4638L329.284 50.3021V72.0964ZM184.817 57.0534C183.172 59.4013 181.06 59.7724 167.406 60.1123L151.867 60.4984V63.8972C151.867 67.2498 152.038 67.3014 164.463 67.6875C176.503 68.0614 176.996 68.196 175.631 70.7464C174.375 73.093 172.734 73.4138 161.972 73.4138C151.878 73.4138 149.592 73.804 148.884 75.6502C147.417 79.4718 152.354 81.7911 160.948 81.3167L168.67 80.8911L165.915 85.3436C160.969 93.3361 162.115 93.8065 186.535 93.8065C204.43 93.8065 208.51 93.4476 209.134 91.8203C209.552 90.7286 207.392 85.3 204.333 79.7573C201.273 74.2146 198.77 69.2972 198.77 68.8282C198.77 68.3591 204.507 67.9757 211.52 67.9757C224.783 67.9757 228.594 66.4585 226.835 61.8756C226.192 60.198 223.04 59.8187 209.737 59.8187C194.819 59.8187 193.304 59.5862 191.973 57.0996C190.124 53.6451 187.217 53.6261 184.817 57.0534ZM107.683 62.5377L103.321 69.3353H74.259C40.664 69.3353 44.9356 66.8188 42.3484 88.1265C41.5028 95.0981 41.1439 101.134 41.5518 101.542C42.5225 102.513 43.4048 98.3759 45.2252 84.328C46.045 77.994 47.0116 72.3344 47.3705 71.7525C48.1617 70.4732 69.4517 70.3834 87.57 71.5825C99.686 72.3847 100.659 72.6552 99.4658 74.8848C97.0336 79.4297 98.007 80.2114 106.095 80.2114H114.023L111.574 98.225C110.228 108.132 109.106 117.004 109.083 117.938C109.056 119.062 106.77 119.637 102.325 119.637C98.6296 119.637 95.2295 120.249 94.7673 120.997C94.2452 121.841 96.8025 122.356 101.513 122.356C108.099 122.356 109.269 121.953 110.373 119.297C111.364 116.914 115.84 85.7052 115.84 81.1726C115.84 80.6437 117.981 80.2114 120.598 80.2114C123.921 80.2114 125.356 79.5969 125.356 78.1721C125.356 75.7155 114.351 55.7401 112.997 55.7401C112.474 55.7401 110.082 58.799 107.683 62.5377ZM320.452 58.4496C318.972 60.8464 298.041 78.8519 296.736 78.8519C296.041 78.8519 290.233 74.8535 283.828 69.9674C277.424 65.08 272.184 61.6159 272.184 62.2699C272.184 64.4451 293.751 80.2114 296.726 80.2114C299.431 80.2114 323.477 60.5433 323.737 58.1193C323.896 56.6252 321.426 56.8739 320.452 58.4496ZM180.646 63.2174C180.093 64.8883 152.547 65.8236 152.547 64.1718C152.547 62.0184 153.579 61.8579 167.388 61.8579C175.921 61.8579 180.927 62.3718 180.646 63.2174ZM224.358 63.8455C224.708 64.9005 220.473 65.235 210.225 64.9644C202.034 64.7469 195.394 63.9788 195.142 63.2174C194.856 62.3582 200.052 61.9463 209.274 62.0999C218.527 62.2522 224.039 62.8912 224.358 63.8455ZM111.757 70.3155C110.423 72.4064 110.317 72.2732 110.97 69.3353C111.385 67.4659 111.816 65.0188 111.928 63.8972C112.04 62.7756 112.395 63.2174 112.716 64.8774C113.036 66.5387 112.605 68.9859 111.757 70.3155ZM189.954 66.9561C189.562 68.6378 188.768 72.4173 188.188 75.3525C186.484 83.9868 183.51 83.3464 184.54 74.568C185.669 64.9603 186.068 63.8972 188.558 63.8972C190.048 63.8972 190.457 64.7931 189.954 66.9561ZM135.732 74.1153C135.296 75.2546 134.068 75.7386 132.827 75.2627C130.906 74.5259 130.933 74.1534 133.08 71.7824C135.551 69.0525 137.139 70.4487 135.732 74.1153ZM247.713 74.7135C247.713 75.2451 246.795 75.6801 245.673 75.6801C244.552 75.6801 243.634 74.4837 243.634 73.0209C243.634 70.8117 243.979 70.6486 245.673 72.0543C246.795 72.9856 247.713 74.1819 247.713 74.7135ZM171.58 76.8126C169.711 79.0653 151.935 79.8022 150.624 77.6813C149.214 75.4014 151.768 74.7733 162.456 74.7733C171.917 74.7733 173.06 75.0289 171.58 76.8126ZM155.839 98.225C172.832 113.439 179.112 118.278 181.861 118.278C184.306 118.278 195.192 111.611 215.347 97.7654C231.771 86.4842 245.555 77.6011 245.979 78.0253C246.765 78.8111 237.05 156.189 235.931 158.044C235.594 158.604 209.388 159.063 177.698 159.063C146.007 159.063 119.845 158.604 119.558 158.044C119.271 157.483 121.495 139.107 124.498 117.209C128.55 87.6833 130.411 77.4951 131.701 77.7833C132.658 77.9967 143.521 87.1966 155.839 98.225ZM314.621 83.7325C318.147 87.3312 321.413 89.8952 321.88 89.4275C322.763 88.5452 312.431 78.5405 309.746 77.68C308.902 77.4094 311.096 80.1325 314.621 83.7325ZM279.453 85.3028C273.036 92.9772 271.636 95.166 273.141 95.166C274.575 95.166 286.267 80.2454 285.462 79.4419C285.131 79.1088 282.425 81.7463 279.453 85.3028ZM63.7717 91.2207C72.9838 100.282 75.4391 102.025 77.8971 101.244C81.6344 100.059 101.385 85.988 102.081 84.0153C102.744 82.1378 101.211 83.0813 89.0614 92.0351C83.6804 95.9994 78.1581 99.2446 76.7891 99.2446C75.4214 99.2446 70.0513 94.9621 64.8579 89.728C59.6646 84.4939 54.7867 80.2209 54.0185 80.2318C53.2504 80.2427 57.6403 85.1886 63.7717 91.2207ZM186.535 87.009C186.535 87.7567 185.923 88.3685 185.175 88.3685C184.427 88.3685 183.816 87.7567 183.816 87.009C183.816 86.2612 184.427 85.6494 185.175 85.6494C185.923 85.6494 186.535 86.2612 186.535 87.009ZM65.1122 112.84C65.6995 114.337 66.1875 113.975 66.9489 111.48C67.9685 108.136 67.9875 108.132 68.1208 111.221C68.1996 113.046 68.8549 113.99 69.6856 113.476C70.4727 112.991 70.0935 114.943 68.8454 117.814C67.5974 120.687 66.6729 125.585 66.7925 128.701C66.9883 133.783 66.7246 134.293 64.2353 133.642C62.0138 133.06 61.4592 131.809 61.4592 127.384C61.4592 123.604 60.4966 120.748 58.4207 118.365C56.7498 116.448 56.2604 115.644 57.333 116.578C60.604 119.428 61.8412 118.498 60.9507 113.859C60.3484 110.718 60.4898 110.03 61.4401 111.48C62.4611 113.038 62.8255 112.395 62.9832 108.761C63.1395 105.138 63.3231 104.813 63.7499 107.402C64.0585 109.271 64.6717 111.718 65.1122 112.84ZM48.8605 115.899C51.3226 119.046 51.8379 123.841 49.7972 124.624C47.2767 125.592 47.3365 129.155 49.9346 132.865C51.8338 135.576 51.7848 135.941 49.3445 137.246C47.8803 138.03 45.4971 138.671 44.0465 138.671C41.8468 138.671 41.4104 137.709 41.4213 132.893C41.428 129.714 41.163 125.126 40.8326 122.696C40.4125 119.613 40.7809 118.278 42.0507 118.278C43.0513 118.278 44.2232 117.36 44.6528 116.239C45.6072 113.753 47.0891 113.634 48.8605 115.899ZM84.6987 117.538C85.6381 115.137 85.7482 115.117 85.8353 117.338C85.8896 118.765 86.5572 119.41 87.4232 118.876C88.4333 118.251 88.7718 119.651 88.4713 123.214C88.1723 126.764 89.4557 132.108 92.4167 139.647C96.7875 150.772 98.0927 160.827 95.3831 162.501C93.2011 163.85 80.4924 160.382 80.4924 158.438C80.4924 157.494 82.0898 154.37 84.0407 151.495C87.4775 146.431 87.5333 146.03 85.7945 138.783C84.8075 134.668 82.9422 130.244 81.6507 128.953C80.1334 127.436 79.8493 126.423 80.8472 126.09C81.826 125.763 81.2156 123.863 79.1831 120.907C77.4185 118.339 76.8067 117.004 77.825 117.938C80.4516 120.348 81.8927 120.042 81.0267 117.258C80.4421 115.379 80.6419 115.438 81.9729 117.538C83.6464 120.177 83.6668 120.177 84.6987 117.538ZM145.806 130.524C137.986 137.934 131.913 144.321 132.31 144.719C132.709 145.116 139.718 139.054 147.889 131.248C156.058 123.44 162.131 117.053 161.384 117.054C160.636 117.054 153.626 123.116 145.806 130.524ZM200.264 117.598C200.263 119.458 225.645 146.238 226.551 145.332C226.948 144.934 221.197 138.225 213.77 130.424C206.343 122.621 200.264 116.85 200.264 117.598ZM71.7058 139.308C74.7253 141.077 78.6054 143.667 80.3279 145.062L83.4615 147.6L80.3129 154.082C77.6292 159.604 76.7048 160.45 74.0687 159.788C72.3679 159.361 70.9758 159.387 70.9758 159.845C70.9758 160.304 73.1687 167.097 75.8483 174.938C78.5279 182.781 80.3714 189.546 79.9445 189.973C79.5189 190.399 71.5141 191.043 62.158 191.403L45.145 192.059V188.762C45.145 183.521 41.3574 170.377 36.958 160.356C32.2473 149.621 31.7714 142.84 35.4938 139.473C37.185 137.942 38.3868 137.635 38.9728 138.582C40.5607 141.152 50.3546 140.288 52.9622 137.348C56.0143 133.905 63.8927 134.729 71.7058 139.308ZM315.814 159.18L314.502 162.462L314.415 158.95C314.368 157.019 314.775 154.992 315.32 154.446C316.935 152.833 317.227 155.643 315.814 159.18ZM304.924 163.642C303.367 166.16 302.093 168.607 302.093 169.08C302.093 169.553 305.458 169.939 309.571 169.939C315.905 169.939 317.048 170.319 317.048 172.422C317.048 176.537 312.983 204.164 312.189 205.45C311.263 206.947 249.48 207.047 248.557 205.553C247.914 204.513 252.671 164.318 253.858 160.763C254.286 159.481 260.967 159.063 281.089 159.063H307.753L304.924 163.642ZM261.308 169.723C261.308 171.854 279.368 187.613 281.808 187.613C284.357 187.613 304.014 174.127 302.977 173.089C302.592 172.705 298.334 175.203 293.516 178.642C288.697 182.08 283.6 184.894 282.189 184.894C280.778 184.894 275.503 181.174 270.466 176.628C265.429 172.083 261.308 168.975 261.308 169.723ZM41.995 183.79C41.5613 184.874 41.2391 184.551 41.1739 182.968C41.1154 181.535 41.4362 180.733 41.8876 181.184C42.3389 181.635 42.3879 182.809 41.995 183.79ZM295.239 187.273C297.82 191.669 307.525 201.906 307.527 200.239C307.53 199.332 304.931 195.553 301.753 191.842C296.014 185.139 292.563 182.719 295.239 187.273ZM260.597 193.082C256.932 196.803 254.547 199.849 255.297 199.849C257.065 199.849 268.83 187.884 267.938 186.993C267.566 186.621 264.262 189.361 260.597 193.082ZM217.803 200.93C217.803 216.515 216.974 217.569 199.03 224.75L186.374 229.815L159.696 229.447L133.02 229.078L142.444 225.232C147.627 223.118 153.55 219.791 155.606 217.841C159.153 214.476 159.344 213.659 159.344 201.861C159.344 195.021 159.6 189.171 159.911 188.86C160.222 188.548 173.376 188.293 189.141 188.293H217.803V200.93ZM108.531 241.366C108.066 242.577 108.615 243.796 109.836 244.265C112.374 245.239 115.153 242.823 113.874 240.752C112.54 238.594 109.458 238.947 108.531 241.366ZM286.222 247.267C272.633 249.226 261.06 251.29 260.504 251.85C259.044 253.325 260.124 253.226 288.171 249.332C302.184 247.385 314.231 245.244 314.941 244.574C316.662 242.948 315.24 243.081 286.222 247.267ZM183.285 247.555C166.06 250.034 160.473 251.509 168.294 251.512C175.607 251.516 204.208 247.009 204.208 245.855C204.208 244.488 205.126 244.414 183.285 247.555ZM203.1 250.182C195.265 251.324 192.143 252.87 197.674 252.87C204.162 252.87 213.725 251.14 213.725 249.966C213.725 248.669 213.456 248.674 203.1 250.182ZM309.142 251.542C305.167 252.121 301.497 253.037 300.985 253.577C299.841 254.785 319.679 253.07 324.856 251.512C328.106 250.534 327.792 250.391 322.486 250.438C319.121 250.466 313.116 250.964 309.142 251.542ZM120.19 254.501C117.993 256.698 118.136 258.984 120.598 261.027C122.225 262.377 123.049 262.377 124.677 261.027C127.347 258.811 127.286 254.739 124.565 253.695C121.827 252.644 122.096 252.595 120.19 254.501ZM175.658 255.582C172.294 256.141 164.188 257.352 157.645 258.274L145.749 259.949V273.131C145.749 280.381 146.379 286.943 147.147 287.711C148.45 289.015 177.902 285.656 183.288 283.588C184.883 282.976 185.195 280.116 184.883 268.979C184.664 261.16 183.904 255.007 183.136 254.848C182.388 254.693 179.023 255.023 175.658 255.582ZM124.618 256.855C125.624 258.482 123.067 260.093 121.256 258.974C119.735 258.035 120.734 255.589 122.637 255.589C123.297 255.589 124.189 256.158 124.618 256.855ZM182.456 269.59V282.233L165.892 284.522C156.782 285.781 149.175 286.658 148.989 286.473C148.804 286.287 148.518 280.638 148.355 273.921L148.059 261.707L162.879 259.495C171.029 258.279 178.769 257.208 180.077 257.116C182.184 256.967 182.456 258.393 182.456 269.59ZM259.269 260.838C246.557 262.811 235.381 264.927 234.432 265.542C233.107 266.398 232.908 270.817 233.574 284.575C234.051 294.429 234.865 302.958 235.382 303.527C236.729 305.007 284.826 297.86 286.459 295.936C287.268 294.983 287.651 286.765 287.405 275.642C287.038 259.064 286.731 256.966 284.686 257.099C283.418 257.182 271.98 258.864 259.269 260.838ZM171.909 266.783L164.891 273.801L158.836 269.453C155.506 267.062 151.966 265.105 150.97 265.105C149.972 265.105 152.169 267.247 155.849 269.864C159.53 272.481 163.527 274.622 164.733 274.622C167.05 274.622 180.723 261.558 179.59 260.427C179.226 260.063 175.77 262.923 171.909 266.783ZM285.779 277.315C285.779 294.512 285.7 294.981 282.72 295.633C277.814 296.71 240.952 301.812 238.087 301.812C235.647 301.812 235.477 300.659 235.477 284.139C235.477 274.418 235.935 266.42 236.497 266.364C237.058 266.309 246.693 264.85 257.909 263.121C269.125 261.393 279.984 259.908 282.04 259.822L285.779 259.667V277.315ZM270.145 274.077C264.911 278.85 259.986 282.76 259.201 282.767C258.416 282.774 253.926 279.979 249.222 276.557C244.519 273.135 240.373 270.633 240.007 270.998C239.315 271.691 251.647 281.178 256.812 283.925C259.453 285.33 260.692 284.757 267.688 278.9C276.33 271.665 281.087 266.74 280.22 265.924C279.913 265.636 275.379 269.305 270.145 274.077ZM171.58 272.648C171.58 273.804 178.901 279.969 180.331 280.017C181.031 280.041 179.847 278.225 177.698 275.982C174.085 272.212 171.58 270.847 171.58 272.648ZM154.117 277.646C152.592 280.056 151.598 282.284 151.91 282.596C152.752 283.438 157.887 276.937 157.94 274.962C158.011 272.29 157.105 272.925 154.117 277.646ZM273.543 286.178C276.08 288.795 278.954 290.936 279.932 290.936C280.909 290.936 279.338 288.795 276.442 286.178C273.545 283.561 270.669 281.42 270.054 281.42C269.436 281.42 271.007 283.561 273.543 286.178ZM244.567 289.768C242.464 292.808 241.093 295.646 241.523 296.075C242.344 296.898 244.678 294.103 248.369 287.877C251.793 282.103 248.864 283.559 244.567 289.768ZM185.992 287C176.757 288.348 174.45 289.583 181.209 289.562C188.196 289.539 196.051 288.015 196.051 286.68C196.051 286.03 195.593 285.573 195.032 285.664C194.47 285.755 190.402 286.356 185.992 287ZM27.0349 295.646C26.317 297.804 22.0332 298.181 22.0332 296.086C22.0332 295.069 23.2636 294.238 24.7686 294.238C26.2722 294.238 27.2932 294.872 27.0349 295.646ZM26.1499 299.75C26.8867 299.294 27.8819 299.939 28.3591 301.184C28.8363 302.428 28.5059 303.892 27.6236 304.438C26.7412 304.983 26.4068 306.439 26.8813 307.675C27.5216 309.343 28.3577 309.59 30.1387 308.637C31.9563 307.665 33.2696 308.138 35.5835 310.602C39.431 314.698 38.2523 317.18 33.3458 315.315C30.4283 314.206 22.9958 309.106 17.4884 304.435C16.8589 303.901 17.037 302.167 17.8854 300.582C19.147 298.225 19.9192 297.962 22.1189 299.139C23.598 299.931 25.4116 300.205 26.1499 299.75ZM289.574 302.381C283.062 303.252 277.301 304.399 276.772 304.928C275.473 306.228 277.456 306.151 291.465 304.353C298.058 303.508 303.453 302.284 303.453 301.634C303.453 300.984 302.995 300.53 302.433 300.624C301.872 300.718 296.086 301.508 289.574 302.381ZM62.8187 303.852C62.8187 304.984 61.6101 305.891 60.0996 305.891C58.5892 305.891 57.3806 304.984 57.3806 303.852C57.3806 302.719 58.5892 301.812 60.0996 301.812C61.6101 301.812 62.8187 302.719 62.8187 303.852ZM24.0725 311.799C31.8149 317.625 32.8128 318.737 28.151 316.341C25.9078 315.189 21.9313 312.324 19.3142 309.975C13.7347 304.968 16.3029 305.952 24.0725 311.799ZM67.5008 306.73C69.1921 307.378 69.3335 307.993 68.1249 309.449C66.1808 311.793 68.4498 311.946 70.7841 309.63C72.1586 308.266 72.2959 308.467 71.4815 310.649C70.5734 313.081 70.712 313.168 72.8002 311.469C74.7933 309.848 75.677 309.846 78.8338 311.454C82.5072 313.326 82.4854 313.342 75.7341 313.795C71.9954 314.045 65.724 313.855 61.799 313.371C55.9966 312.657 54.6616 312.009 54.6616 309.906C54.6616 307.781 55.3604 307.458 58.5756 308.101C60.8012 308.546 62.888 308.239 63.4141 307.388C64.4909 305.643 64.6173 305.623 67.5008 306.73ZM78.2682 316.819C75.1753 317.43 68.4457 317.444 63.3136 316.849C54.3285 315.804 54.5365 315.764 68.9365 315.735C80.3102 315.712 82.5453 315.972 78.2682 316.819Z" fill="black"/>
</g>
</svg>
