<svg width="343" height="320" viewBox="0 0 343 320" fill="none" xmlns="http://www.w3.org/2000/svg">
<mask id="mask0_414_150" style="mask-type:alpha" maskUnits="userSpaceOnUse" x="0" y="0" width="343" height="320">
<rect width="343" height="320" fill="#D9D9D9"/>
</mask>
<g mask="url(#mask0_414_150)">
<path fill-rule="evenodd" clip-rule="evenodd" d="M121.425 3.82242C117.523 7.30973 117.026 8.71146 115.744 19.86L114.339 32.0751L102.256 44.361C90.1909 56.6265 90.1719 56.6579 90.1719 63.6965C90.1719 72.8957 93.884 77.5531 102.094 78.6552C105.276 79.0815 107.881 79.8349 107.881 80.3293C107.881 80.8238 106.93 88.4768 105.768 97.3354C104.606 106.195 103.979 113.767 104.374 114.162C105.551 115.339 106.261 111.917 108.359 94.9556C109.992 81.761 110.89 78.3282 113.294 76.0874C114.911 74.5821 116.415 73.5645 116.637 73.8261C116.859 74.089 115.44 86.9144 113.482 102.325L109.924 130.348L106.797 126.555C104.817 124.155 101.818 122.463 98.6232 121.945C90.4947 120.628 87.5809 118.913 86.6124 114.877C86.1124 112.791 84.7243 109.245 83.5283 106.998C82.3309 104.75 81.3446 100.229 81.3351 96.9499C81.3133 89.4277 78.1624 86.7264 73.9055 90.5788C72.3621 91.9751 71.1006 93.874 71.1006 94.8017C71.1006 95.728 69.4142 96.9036 67.3545 97.4158C57.8965 99.7629 53.7554 109.583 58.6935 117.951C63.7242 126.478 62.7052 130.447 52.9857 140.202C41.6179 151.608 41.2106 151.786 35.9606 147.678C31.2023 143.954 30.3781 141.735 33.7524 141.735C36.2208 141.735 36.2984 141.999 31.0388 132.526C27.8376 126.76 26.395 125.388 23.5302 125.388C20.19 125.388 19.9857 125.775 20.0007 132.079C20.017 138.98 23.5711 146.203 33.7033 159.935C38.7436 166.766 41.3196 167.417 48.143 163.582C51.0296 161.96 53.3917 161.249 53.3917 162.003C53.3917 162.758 51.7583 167.779 49.7627 173.164C47.1227 180.286 46.5083 183.546 47.5068 185.127C48.5462 186.775 47.7547 189.058 44.2375 194.558C37.6892 204.794 30.2337 220.76 30.2337 224.547C30.2337 227.679 37.6484 235.387 55.5494 250.857L62.475 256.843L63.4912 279.317C64.4107 299.688 64.2895 301.921 62.1889 303.156C49.1265 310.846 43.7144 315.038 44.1189 317.153C44.5058 319.176 46.5941 319.56 58.9945 319.89C76.852 320.367 77.6857 319.771 75.2895 308.248C73.7761 300.971 73.8905 299.967 76.9596 293.623C78.7714 289.877 81.0163 284.465 81.9494 281.596L83.6441 276.379L87.0605 281.408C89.7319 285.338 90.3054 287.501 89.6883 291.306C89.2455 294.036 89.5507 296.961 90.383 297.965C92.5081 300.524 239.006 300.609 241.032 298.05C241.774 297.115 243.713 285.647 245.341 272.567C246.967 259.488 248.473 248.614 248.685 248.403C248.898 248.19 250.215 248.854 251.613 249.875C254.09 251.687 254.081 252.334 251.221 275.403C248.497 297.394 248.039 299.29 244.758 302.137L241.227 305.202H164.548C91.9932 305.202 87.7485 305.069 85.6152 302.711C84.3756 301.34 83.3607 298.275 83.3607 295.9C83.3607 293.524 82.7477 291.58 81.9985 291.58C80.1785 291.58 80.2657 297.45 82.1483 301.583C82.9806 303.408 85.1548 305.582 86.9802 306.415C90.8353 308.171 233.171 308.41 245.352 306.68C255.316 305.265 258.429 301.585 259.7 289.719C260.224 284.814 261.069 279.258 261.574 277.375L262.494 273.95L264.814 277.997C266.755 281.381 266.811 282.044 265.154 282.044C263.55 282.044 263.175 284.743 263.175 296.326C263.175 309.995 263.337 310.789 266.935 314.815C270.137 318.399 271.925 319.135 278.996 319.777C288.943 320.678 296.122 318.62 299.934 313.775C302.286 310.785 302.68 308.258 302.68 296.164C302.68 284.75 302.302 282.044 300.709 282.044C299.222 282.044 299.807 279.779 303.086 272.849C308.938 260.475 309.555 246.419 305.102 226.874C301.202 209.753 299.201 209.095 294.743 223.468C293.001 229.088 291.24 234.605 290.83 235.728C290.334 237.085 289.115 235.711 287.202 231.642C284.874 226.687 284.318 222.896 284.306 211.868C284.291 199.935 284.788 196.983 288.269 188.33C293.485 175.359 291.763 173.074 283.438 181.92C280.161 185.404 276.056 190.507 274.32 193.261L271.16 198.267L271.96 192.818C274.882 172.887 294.506 14.2135 294.506 10.5137C294.506 7.58762 293.471 4.99666 291.64 3.33883C288.898 0.856843 285.221 0.727434 207.238 0.371892L125.703 0L121.425 3.82242ZM279.58 2.81845C281.012 3.58539 282.793 5.34811 283.535 6.73623C284.501 8.54254 280.835 41.4227 270.665 122.154C262.843 184.246 256.09 237.04 255.661 239.475C255.092 242.692 254.152 243.902 252.216 243.902C250.614 243.902 249.553 242.976 249.553 241.578C249.553 240.3 255.683 190.682 263.175 131.315C270.667 71.9489 276.797 23.0353 276.797 22.6171C276.797 22.2003 242.652 21.8583 200.918 21.8583H125.038L120.789 25.9777L116.539 30.0957L117.722 20.1937C118.997 9.52199 121.295 4.69969 126.009 2.80074C130.336 1.05709 276.323 1.0748 279.58 2.81845ZM198.635 7.26477C195.701 9.41165 196.107 13.4438 199.472 15.5635C202.917 17.7335 208.648 12.0026 206.478 8.55753C204.526 5.45846 201.736 4.99802 198.635 7.26477ZM99.416 11.6375C79.5056 18.5985 61.7816 30.9907 51.2284 45.3241C47.9236 49.8154 45.2183 54.0356 45.2183 54.7017C45.2183 57.4371 47.4878 55.6021 50.0174 50.8207C54.1 43.1023 68.1814 29.7089 78.721 23.5189C83.8947 20.4811 92.88 16.3331 98.6858 14.3007C104.492 12.2696 109.243 10.0737 109.243 9.42118C109.243 8.77004 109.089 8.281 108.903 8.33685C108.716 8.3927 104.447 9.87753 99.416 11.6375ZM204.343 10.605C203.659 14.1549 199.15 14.5513 199.15 11.0599C199.15 9.11059 200.025 8.23604 201.974 8.23604C203.924 8.23604 204.658 8.97028 204.343 10.605ZM86.7663 25.6345C77.3328 30.6393 58.3134 47.6971 54.901 54.2113C52.3169 59.1453 55.5998 57.7531 58.8133 52.5521C63.5757 44.846 78.4799 32.1895 88.6707 27.1956C93.8976 24.6346 98.2131 22.079 98.2594 21.5178C98.4066 19.7687 96.6057 20.4144 86.7663 25.6345ZM156.921 40.2485L139.934 57.2763H129.036H118.138L135.125 40.2485L152.112 23.2206H163.01H173.908L156.921 40.2485ZM206.643 40.2934L188.934 57.2327L178.056 57.2545L167.179 57.2763L184.166 40.2485L201.153 23.2206L212.752 23.2873L224.352 23.3541L206.643 40.2934ZM256.364 40.2485L239.377 57.2763H228.479H217.581L234.568 40.2485L251.555 23.2206H262.453H273.351L256.364 40.2485ZM257.774 157.556C248.763 229.395 241.054 290.166 240.642 292.602L239.893 297.029H165.571H91.248L92.0518 291.239C92.4945 288.056 93.4617 279.933 94.2027 273.19C97.6342 241.977 109.274 154.173 110.545 149.918C111.327 147.299 111.968 142.143 111.968 138.458C111.968 131.694 118.483 77.5518 119.408 76.6268C119.683 76.3516 121.146 76.7889 122.66 77.5994C127.658 80.2749 134.967 79.384 138.398 75.6814C141.513 72.3194 141.562 72.314 143.969 74.9731C148.776 80.2858 162.182 79.6292 164.351 73.9759C165.037 72.1887 165.717 72.3698 168.646 75.1215C173.493 79.6755 184.622 79.8076 188.228 75.3531C190.356 72.7267 190.914 72.5864 192.354 74.3219C193.27 75.4253 196.473 76.9892 199.474 77.797C205.489 79.4167 211.875 77.7098 213.999 73.916C215.003 72.1205 215.567 72.2186 218.171 74.6461C223.677 79.7749 234.091 79.8035 238.328 74.6992C239.209 73.6353 240.262 69.4383 240.667 65.3707C241.397 58.0446 241.555 57.8226 257.33 42.0057C266.09 33.2234 273.46 26.2393 273.707 26.4872C273.954 26.7338 266.784 85.7156 257.774 157.556ZM189.237 66.4932C188.405 73.8724 185.745 76.3475 178.641 76.3475C171.039 76.3475 166.458 72.0851 166.454 65.0097L166.45 59.3197L178.198 59.7651L189.946 60.2106L189.237 66.4932ZM139.192 65.7903C139.166 72.7499 138.263 74.3778 133.397 76.2277C125.113 79.3772 116.124 72.8997 116.075 63.7469L116.054 60.0008H127.633H139.212L139.192 65.7903ZM238.655 65.4497C238.655 69.0828 237.746 71.8072 235.93 73.6231C229.384 80.17 215.497 74.0699 215.497 64.6474V60.0008H227.076H238.655V65.4497ZM39.7898 63.7469C39.8021 65.0587 40.3769 67.0258 41.0689 68.1197C42.1465 69.8225 42.7322 69.7435 45.1352 67.568C49.2055 63.8845 48.6851 61.363 43.856 61.363C40.8646 61.363 39.7748 62.0019 39.7898 63.7469ZM45.2183 64.0071C45.2183 66.2902 42.8017 66.8569 41.9979 64.7604C41.5239 63.5249 42.0021 62.7252 43.2172 62.7252C44.3178 62.7252 45.2183 63.3015 45.2183 64.0071ZM304.78 71.9203C304.167 73.5168 304.794 74.9213 306.678 76.1732C308.225 77.2017 309.491 79.4807 309.491 81.2379C309.491 83.1274 310.744 85.1476 312.556 86.1801C314.241 87.1405 315.688 88.5395 315.769 89.2887C316.117 92.4872 318.074 96.781 319.186 96.781C320.834 96.781 320.709 93.0539 319.027 92.0132C318.277 91.55 317.664 89.9235 317.664 88.3992C317.664 86.7741 316.538 85.3342 314.94 84.916C312.985 84.4038 312.215 83.0579 312.215 80.1482C312.215 77.1853 311.451 75.8926 309.381 75.3518C307.427 74.8409 306.753 73.822 307.211 72.0729C308.051 68.8594 306.005 68.73 304.78 71.9203ZM93.0543 83.2268C92.8895 85.4282 95.3715 88.6076 97.2555 88.6076C97.8549 88.6076 98.3452 87.9946 98.3452 87.2454C98.3452 86.4962 97.4707 85.8832 96.4013 85.8832C95.3334 85.8832 94.1782 84.8111 93.8349 83.4993C93.3568 81.6684 93.1756 81.6058 93.0543 83.2268ZM87.4474 87.2454C87.4474 87.9946 88.3669 88.6076 89.4908 88.6076C90.6146 88.6076 91.5341 87.9946 91.5341 87.2454C91.5341 86.4962 90.6146 85.8832 89.4908 85.8832C88.3669 85.8832 87.4474 86.4962 87.4474 87.2454ZM310.964 97.725C313.903 103.574 317.284 112.038 318.476 116.533C321.804 129.079 322.489 156.248 319.858 171.363C317.374 185.632 317.19 188.345 318.912 185.326C324.218 176.025 325.192 134.196 320.513 116.593C317.483 105.195 309.782 88.4782 307.16 87.6037C306.312 87.3203 308.022 91.8756 310.964 97.725ZM93.004 90.764C93.0693 92.351 93.3922 92.6739 93.8268 91.5882C94.2204 90.6046 94.1714 89.4291 93.7191 88.9768C93.2669 88.5245 92.9454 89.3282 93.004 90.764ZM306.096 105.295C313.563 121.643 316.327 142.579 313.698 162.849C312.284 173.739 308.619 189.861 306.032 196.564C305.527 197.876 305.703 198.948 306.422 198.948C307.933 198.948 312.786 182.967 314.877 171.112C317.252 157.648 316.66 132.67 313.692 121.065C310.884 110.091 305.816 98.1432 303.967 98.1432C303.342 98.1432 304.301 101.362 306.096 105.295ZM139.965 107.195C139.468 109.176 139.594 111.33 140.245 111.981C140.894 112.631 163.106 113.002 189.602 112.805L237.779 112.447L238.757 108.786C239.295 106.774 239.391 104.781 238.968 104.359C238.546 103.937 216.301 103.592 189.536 103.592H140.87L139.965 107.195ZM237.293 108.36C237.293 110.138 231.086 110.403 189.615 110.403C148.143 110.403 141.937 110.138 141.937 108.36C141.937 106.582 148.143 106.317 189.615 106.317C231.086 106.317 237.293 106.582 237.293 108.36ZM67.7754 109.619C70.0899 111.316 70.7424 111.274 73.0119 109.278C75.5061 107.084 75.5715 107.161 74.7637 111.346C73.7393 116.655 77.1571 128.894 79.966 129.972C83.1836 131.206 82.3499 134.385 77.8069 138.208C73.2503 142.042 69.842 142.655 67.2864 140.1C64.9502 137.764 65.2635 134.846 68.2018 131.605C69.6036 130.059 71.0843 126.14 71.4916 122.898C72.2095 117.178 72.155 117.071 69.6485 119.34C66.435 122.247 63.5266 120.322 62.2325 114.429C60.8253 108.022 63.0117 106.125 67.7754 109.619ZM138.553 123.004C138.238 123.941 137.797 125.933 137.575 127.431C137.176 130.108 138.042 130.162 186.397 130.513L235.627 130.871L236.501 127.385C236.982 125.468 237.015 123.316 236.573 122.601C235.268 120.491 139.267 120.886 138.553 123.004ZM234.568 126.069C234.568 127.847 228.362 128.112 186.89 128.112C145.418 128.112 139.212 127.847 139.212 126.069C139.212 124.291 145.418 124.026 186.89 124.026C228.362 124.026 234.568 124.291 234.568 126.069ZM32.5577 146.843C35.7358 150.028 39.5214 152.632 40.9708 152.632C42.4202 152.632 47.4074 148.802 52.0526 144.118L60.4998 135.605L57.5206 141.333C55.8832 144.484 54.6585 148.468 54.7988 150.187C55.3219 156.571 54.6 157.733 47.8024 161.432C41.0199 165.123 40.7883 165.154 38.369 162.671C34.4185 158.615 22.0604 137.687 22.0604 135.05C22.0604 130.231 24.1391 130.692 25.4428 135.803C26.2492 138.971 29.0731 143.35 32.5577 146.843ZM64.5783 134.936C63.8209 140.094 66.2443 143.097 71.1633 143.097C75.4448 143.097 82.7559 137.614 84.0936 133.399C84.5758 131.876 85.34 131 85.7896 131.45C86.6437 132.304 88.4732 163.534 87.6681 163.532C87.4161 163.53 83.3716 161.385 78.6815 158.761C70.4767 154.173 69.955 154.063 64.8385 155.834C58.1091 158.163 57.9456 160.98 64.5034 161.569C68.4607 161.923 70.8364 163.458 76.0401 169.021C79.6446 172.875 84.2993 176.91 86.3835 177.988C88.9404 179.31 90.1719 181.017 90.1719 183.238C90.1719 187.811 88.8451 188.219 81.9072 185.784C77.3124 184.171 72.7026 183.848 62.6303 184.435C55.3492 184.86 49.0925 184.721 48.726 184.129C48.3596 183.536 49.9439 178.199 52.2474 172.269C54.5509 166.339 56.7673 157.823 57.1732 153.344C57.7603 146.889 63.2242 130.837 64.8344 130.837C65.0251 130.837 64.9093 132.681 64.5783 134.936ZM95.9055 138.753C98.0115 143.839 98.1382 175.161 96.0608 177.249C93.2015 180.124 87.0701 177.195 79.3026 169.243C75.0307 164.869 69.7221 160.9 67.014 160.051L62.2461 158.559L66.6611 157.534C70.3623 156.674 72.4002 157.312 79.2481 161.471C83.7408 164.201 88.1108 166.005 88.9595 165.481C90.0561 164.803 90.2209 159.839 89.5289 148.249L88.5563 131.967L91.4728 133.529C93.0761 134.387 95.0718 136.738 95.9055 138.753ZM290.42 138.638C290.42 140.251 289.364 141.811 288.036 142.158C286.025 142.684 285.998 142.805 287.87 142.939C291.158 143.173 293.993 139.314 291.997 137.318C290.803 136.124 290.42 136.444 290.42 138.638ZM294.252 142.665C295.234 143.059 296.409 143.01 296.862 142.557C297.314 142.105 296.51 141.784 295.074 141.842C293.487 141.908 293.165 142.23 294.252 142.665ZM290.42 146.583C290.42 147.75 291.033 148.328 291.782 147.865C292.531 147.401 293.144 146.447 293.144 145.741C293.144 145.035 292.531 144.459 291.782 144.459C291.033 144.459 290.42 145.415 290.42 146.583ZM137.414 148.074C136.905 148.583 136.488 150.793 136.488 152.987C136.488 155.821 137.271 157.18 139.197 157.682C140.687 158.072 141.595 158.896 141.213 159.512C140.502 160.661 142.804 190.369 144.032 195.883L144.713 198.948L177.721 198.928C195.875 198.916 211.451 198.448 212.333 197.887C213.214 197.326 216.585 188.181 219.825 177.564C224.225 163.142 226.34 158.092 228.192 157.592C230.081 157.084 230.566 155.849 230.235 152.395L229.8 147.865L184.07 147.506C158.918 147.309 137.923 147.565 137.414 148.074ZM228.874 152.973C228.634 154.659 227.979 155.884 227.417 155.697C226.854 155.511 206.779 155.357 182.804 155.357C140.121 155.357 139.212 155.3 139.212 152.632C139.212 149.962 140.121 149.908 184.261 149.908H229.309L228.874 152.973ZM100.333 206.498C96.9926 232.689 94.2586 254.347 94.2586 254.625C94.2586 254.905 93.3976 254.418 92.346 253.545C91.2562 252.642 88.9105 252.339 86.8971 252.845L83.3607 253.733V241.996C83.3607 226.666 88.401 190.76 90.947 187.946C92.0191 186.762 92.8963 185.103 92.8963 184.259C92.8963 183.416 94.3798 181.242 96.1929 179.429C98.3153 177.307 99.8341 173.766 100.457 169.491C100.989 165.838 102.418 161.856 103.632 160.641C104.844 159.426 105.966 158.532 106.122 158.655C106.278 158.777 103.673 180.306 100.333 206.498ZM222.263 161.864C222.239 163.154 219.909 171.261 217.085 179.877L211.951 195.543L179.504 196.224C147.985 196.886 147.026 196.827 146.033 194.18C145.47 192.682 144.578 184.406 144.051 175.79L143.09 160.125L182.7 159.821C219.413 159.538 222.305 159.687 222.263 161.864ZM154.371 165.928C153.665 167.246 152.897 173.837 152.666 180.572C152.242 192.798 152.247 192.818 155.603 192.818C158.902 192.818 158.977 192.57 159.646 179.463C160.274 167.148 159.603 163.53 156.696 163.53C156.124 163.53 155.077 164.609 154.371 165.928ZM166.019 164.497C165.165 165.88 162.37 185.634 162.37 190.287C162.37 193.027 162.961 193.604 165.402 193.254C168.807 192.765 169.929 188.542 170.753 173.109C171.147 165.762 170.85 164.221 168.967 163.838C167.726 163.586 166.4 163.883 166.019 164.497ZM175.182 165.421C173.535 169.712 170.898 191.543 171.897 192.606C172.491 193.238 174.117 193.537 175.507 193.273C177.612 192.871 178.314 190.622 179.692 179.863C180.604 172.753 181.082 166.17 180.756 165.233C179.958 162.936 176.085 163.067 175.182 165.421ZM186.339 164.683C185.256 166.436 181.441 186.563 181.441 190.53C181.441 193.027 182.083 193.597 184.506 193.254C187.07 192.889 187.84 191.482 189.213 184.645C191.952 171.01 192.012 164.379 189.401 163.842C188.16 163.587 186.781 163.966 186.339 164.683ZM195.645 165.055C194.276 167.27 189.79 191.271 190.521 192.478C191.909 194.776 196.403 193.378 197.091 190.434C199.415 180.489 201.707 165.722 201.082 164.713C200.048 163.038 196.762 163.246 195.645 165.055ZM206.643 165.233C204.802 170.502 200.513 188.422 200.513 190.844C200.513 192.997 201.24 193.582 203.499 193.254C206.05 192.882 206.953 190.952 209.695 180.009C211.461 172.965 212.587 166.375 212.2 165.365C211.314 163.055 207.437 162.962 206.643 165.233ZM157.654 178.855C156.683 191.333 156.256 193.288 154.816 191.848C153.531 190.564 155.883 166.255 157.292 166.255C158.149 166.255 158.279 170.824 157.654 178.855ZM168.587 176.131C167.454 187.969 166.498 192.322 165.205 191.524C164.676 191.197 164.787 186.145 165.45 180.295C166.784 168.543 167.301 166.255 168.634 166.255C169.128 166.255 169.108 170.698 168.587 176.131ZM178.092 175.45C177.573 180.508 176.822 186.023 176.423 187.71C175.37 192.156 172.78 191.515 173.675 187.029C174.085 184.969 174.855 179.452 175.383 174.769C175.912 170.087 176.95 166.255 177.69 166.255C178.534 166.255 178.684 169.67 178.092 175.45ZM189.532 168.639C189.305 175.055 186.01 189.933 184.719 190.363C183.734 190.692 183.914 186.835 185.273 178.553C186.382 171.789 187.814 166.255 188.453 166.255C189.092 166.255 189.577 167.327 189.532 168.639ZM198.57 171.363C196.119 185.548 194.742 190.775 193.457 190.775C192.677 190.775 192.38 189.402 192.794 187.71C193.207 186.023 194.299 180.508 195.22 175.45C196.142 170.392 197.472 166.255 198.175 166.255C198.901 166.255 199.073 168.462 198.57 171.363ZM208.127 178.082C206.493 184.586 204.471 190.136 203.635 190.415C202.658 190.741 203.065 187.123 204.774 180.291C208.149 166.796 208.345 166.255 209.851 166.255C210.538 166.255 209.763 171.577 208.127 178.082ZM286.336 187.362C279.285 203.811 279.555 218.383 287.255 237.091C291.219 246.718 292.132 259.162 289.981 274.211C289.082 280.505 288.368 282.044 286.353 282.044C284.493 282.044 282.884 279.498 280.112 272.168C278.056 266.736 274.691 259.1 272.634 255.2C261.422 233.947 265.408 205.731 282.428 185.879C285.7 182.063 288.549 179.362 288.759 179.877C288.97 180.393 287.881 183.761 286.336 187.362ZM279.417 193.977C272.817 208.082 272.504 219.804 278.195 239.754C281.366 250.871 282.688 258.411 282.787 265.971C282.865 271.809 283.387 276.587 283.949 276.59C286.073 276.601 284.901 256.403 282.205 246.534C276.12 224.25 275.261 218.319 276.846 209.575C277.668 205.048 279.839 197.952 281.673 193.807C286.45 183.005 284.482 183.153 279.417 193.977ZM133.247 210.941C132.875 211.543 131.251 220.209 129.638 230.196C127.218 245.192 127.026 248.559 128.532 249.514C130.957 251.051 215.125 251.054 216.076 249.517C217.418 247.346 222.477 213.614 221.747 211.711C221.163 210.187 213.078 209.846 177.477 209.846C153.524 209.846 133.619 210.339 133.247 210.941ZM62.6684 228.133L62.2461 232.798L58.3924 229.468L54.5387 226.138L58.3924 220.018L62.2461 213.897L62.6684 218.683C62.9014 221.315 62.9014 225.568 62.6684 228.133ZM303.113 227.555C306.919 244.661 307.292 252 304.84 261.57C302.196 271.89 297.375 281.167 294.351 281.749C292.434 282.118 292.231 279.564 292.557 259.208C292.861 240.197 293.449 234.443 295.983 225.724C297.665 219.935 299.446 215.679 299.94 216.268C300.435 216.857 301.862 221.936 303.113 227.555ZM298.585 232.436C298.581 238.368 298.274 248.431 297.904 254.8C297.398 263.48 297.565 265.357 298.565 262.3C300.139 257.483 300.987 224.045 299.568 222.628C299.032 222.091 298.589 226.505 298.585 232.436ZM151.129 226.193C151.572 227.837 151.427 227.877 150.391 226.4C149.682 225.389 147.949 224.782 146.541 225.049C143.481 225.63 142.3 232.203 144.729 235.129C146.939 237.792 145.387 237.622 142.668 234.904C140.439 232.674 140.859 228.635 143.687 225.106C145.512 222.827 150.414 223.543 151.129 226.193ZM155.878 229.939C155.545 233.124 154.713 235.728 154.028 235.728C153.343 235.728 153.157 234.042 153.616 231.982C155.902 221.71 156.826 220.876 155.878 229.939ZM172.994 228.306C173.467 233.137 169.501 237.651 165.973 236.297C163.287 235.265 162.907 227.563 165.419 225.051C168.473 221.997 172.547 223.748 172.994 228.306ZM184.726 224.634C185.122 225.275 183.931 225.51 182.082 225.156C177.912 224.359 177.316 228.233 181.441 229.312C184.645 230.15 185.129 235.068 182.122 236.222C179.595 237.19 175.992 235.916 175.992 234.054C175.992 233.274 176.908 233.43 178.093 234.414C179.738 235.78 180.552 235.799 181.839 234.508C183.125 233.217 182.769 232.316 180.207 230.38C178.097 228.787 177.232 227.114 177.781 225.686C178.673 223.361 183.487 222.631 184.726 224.634ZM194.494 224.651C189.542 225.723 188.188 228.848 192.567 229.103L195.745 229.288L192.68 229.879C190.763 230.248 189.615 231.455 189.615 233.099C189.615 234.545 188.989 235.728 188.227 235.728C186.96 235.728 187.217 232.99 189.151 225.852C189.609 224.167 191.071 223.516 194.133 223.629L198.469 223.791L194.494 224.651ZM207.431 225.641C208.934 227.452 208.905 228.401 207.258 231.322C206.17 233.251 204.361 235.102 203.237 235.436C201.567 235.93 201.594 235.701 203.387 234.182C207.884 230.371 207.347 223.485 202.693 225.271C200.864 225.972 199.707 230.631 200.352 234.707C200.44 235.268 199.915 235.728 199.184 235.728C198.011 235.728 198.394 230.117 199.906 225.171C200.642 222.765 205.286 223.056 207.431 225.641ZM165.921 226.986C163.691 232.796 166.205 237.401 169.922 234.317C172.957 231.797 172.521 224.831 169.327 224.831C167.909 224.831 166.376 225.801 165.921 226.986ZM269.229 230.988C271.407 236.203 275.435 242.474 275.435 240.652C275.435 238.529 269.324 226.193 268.273 226.193C267.696 226.193 268.127 228.351 269.229 230.988ZM266.278 252.18C269.655 254.964 272.502 259.568 275.972 267.857C278.673 274.311 280.884 280.144 280.884 280.818C280.884 281.493 278.474 282.044 275.528 282.044C268.916 282.044 265.157 277.511 263.196 267.17C261.57 258.599 258.813 253.128 254.348 249.615C252.46 248.13 250.915 246.609 250.915 246.234C250.915 244.398 262.076 248.717 266.278 252.18ZM267.677 248.066C268.275 250.356 268.059 250.577 266.488 249.274C265.432 248.397 264.904 247.136 265.314 246.472C266.425 244.674 266.868 244.973 267.677 248.066ZM259.336 252.073C265.227 256.929 271.348 268.521 271.348 274.819C271.348 277.294 272.04 279.32 272.885 279.32C274.904 279.32 273.371 269.546 270.355 263.188C267.632 257.449 258.861 247.989 256.264 247.989C255.229 247.989 256.611 249.826 259.336 252.073ZM92.6103 268.299C92.8269 275.35 92.5149 281.608 91.9169 282.206C91.3189 282.804 89.3055 281.07 87.4433 278.353C85.0799 274.903 84.569 273.242 85.7528 272.846C86.6846 272.536 87.4474 271.683 87.4474 270.953C87.4474 270.221 86.9338 269.941 86.3058 270.329C85.6792 270.716 85.0676 268.553 84.9491 265.519C84.8305 262.487 84.3878 259.446 83.9669 258.764C82.5747 256.512 84.9218 254.636 88.5971 255.063C92.1948 255.478 92.2179 255.554 92.6103 268.299ZM89.7182 257.071C88.2647 258.524 88.6707 279.073 90.1719 280.001C91.0423 280.539 91.5341 276.383 91.5341 268.502C91.5341 256.15 91.4115 255.377 89.7182 257.071ZM72.4629 299.642C72.4629 302.393 70.7097 305.202 68.9919 305.202C66.5467 305.202 65.461 303.198 66.4745 300.557C67.3491 298.277 72.4629 297.495 72.4629 299.642ZM66.2961 306.504C66.7388 307.221 68.0629 307.439 69.2385 306.988C71.8812 305.973 73.776 308.766 73.8047 313.716L73.8251 317.462H59.3555C47.9277 317.462 45.1842 317.104 46.3094 315.759C48.6416 312.971 56.1161 309.019 56.1161 310.573C56.1161 311.366 56.71 312.013 57.4361 312.013C58.1608 312.013 58.4183 310.94 58.0055 309.629C57.2917 307.359 57.3489 307.359 59.2206 309.629C61.8184 312.783 63.3795 312.681 61.6604 309.467C60.9112 308.068 60.6864 306.536 61.1591 306.062C62.4478 304.773 65.382 305.026 66.2961 306.504ZM53.7322 315.739C57.2917 316.02 63.1139 316.02 66.6734 315.739C70.2329 315.458 67.3205 315.228 60.2028 315.228C53.0852 315.228 50.1727 315.458 53.7322 315.739Z" fill="black"/>
</g>
</svg>
