<svg width="343" height="320" viewBox="0 0 343 320" fill="none" xmlns="http://www.w3.org/2000/svg">
<mask id="mask0_414_4507" style="mask-type:alpha" maskUnits="userSpaceOnUse" x="0" y="0" width="343" height="320">
<rect width="343" height="320" fill="#D9D9D9"/>
</mask>
<g mask="url(#mask0_414_4507)">
<path fill-rule="evenodd" clip-rule="evenodd" d="M144.545 0.607048C141.962 1.30354 139.782 2.67291 137.85 4.81092C134.692 8.30736 134.601 8.68075 132.055 28.8444C130.763 39.0776 129.705 47.5146 129.703 47.5942C129.702 47.6733 128.57 46.7259 127.187 45.4885C124.426 43.0178 118.295 39.785 114.179 38.6303C111.965 38.0094 108.708 37.8674 93.3021 37.72C76.8985 37.563 75.0482 37.6151 75.0482 38.2346C75.0482 38.8507 76.8666 38.9241 92.1181 38.9241C111.246 38.9241 113.547 39.1668 119.095 41.7665C122.565 43.3921 125.072 45.05 127.686 47.4451L129.388 49.0046L129.118 51.725C128.97 53.2212 126.483 73.1366 123.591 95.9813C120.699 118.826 118.003 140.272 117.601 143.638C117.198 147.005 116.815 149.831 116.749 149.919C116.509 150.238 114.318 147.484 111.578 143.42C108.118 138.287 102.471 126.858 98.4443 116.835C95.3225 109.067 95.3033 108.942 97.1121 108.309C97.3604 108.222 97.2161 107.009 96.7592 105.35C94.5784 97.4302 89.4795 90.92 83.0568 87.8547C81.0569 86.8998 79.4204 86 79.4204 85.8544C79.4204 85.7088 79.6416 84.851 79.9123 83.9481C80.3867 82.3645 80.4619 82.3147 82.0542 82.528C83.4494 82.7152 83.8118 82.5857 84.3982 81.6912C84.7794 81.1093 85.2206 79.9869 85.3788 79.1973C85.5367 78.4077 85.9074 77.6688 86.203 77.5551C86.5952 77.4047 86.6813 76.3151 86.5226 73.5261C86.3088 69.7756 86.3263 69.6886 87.4534 68.9502C89.0449 67.9074 88.9995 65.8372 87.335 63.5391C85.7089 61.2949 83.3007 60.3181 78.6553 60.0195C75.9384 59.8446 75.0482 59.6339 75.0482 59.1661C75.0482 57.8553 72.7585 53.7891 71.299 52.5076C69.259 50.7168 67.5114 50.7172 65.8373 52.5094C63.656 54.8446 63.5826 59.0821 65.6952 60.744C66.3043 61.2232 67.6723 61.7457 68.7352 61.9048C70.5483 62.1768 70.6524 62.2664 70.4141 63.3481C69.1344 69.1622 65.7048 72.2875 60.5426 72.3443C58.2953 72.3688 57.8204 72.1965 55.5145 70.5176C37.4569 57.3695 34.058 56.9157 29.9669 67.1055C28.0007 72.0028 24.5515 74.3568 20.6493 73.464C19.6682 73.2393 17.7392 72.656 16.3624 72.1672C14.9856 71.6784 13.2542 71.2784 12.5149 71.2784C9.69741 71.2784 7.16022 73.4855 5.22728 77.618C4.13904 79.9441 4 80.7372 4 84.6136C4 88.3675 4.13685 89.2061 4.96888 90.5436C6.37848 92.8097 7.75965 93.3934 11.1765 93.1673C17.6832 92.7362 19.8361 92.877 21.1298 93.8179C23.0772 95.2345 24.2402 98.1114 24.9651 103.306C26.0149 110.827 26.954 111.94 32.2496 111.94C36.405 111.94 37.1246 112.446 38.4455 116.297C39.535 119.474 41.1458 120.933 44.0804 121.403C45.0012 121.55 45.7545 121.737 45.7545 121.817C45.7545 121.898 45.1306 125.66 44.3685 130.178C43.533 135.129 42.9685 140.054 42.9475 142.576C42.9152 146.457 42.9969 146.872 44.0716 148.284C44.7091 149.121 46.0339 150.168 47.0154 150.611C48.6165 151.333 48.7682 151.533 48.4889 152.555C48.3175 153.181 48.1771 156.646 48.1762 160.253C48.1749 165.748 48.3315 167.342 49.1434 170.09C50.6238 175.101 53.8903 183.929 59.2711 197.464L64.1575 209.754L63.0408 214.734C61.3969 222.069 58.9769 229.145 56.2534 234.58C54.1281 238.821 53.6983 239.406 52.621 239.53C50.8258 239.736 48.7241 242.775 48.8806 244.94C48.9689 246.165 48.7376 246.848 47.9506 247.686C47.2428 248.439 46.7592 248.658 46.4597 248.358C44.762 246.66 37.9466 250.364 37.1854 253.397C36.6896 255.372 37.5981 257.823 41.4094 264.791C47.9594 276.766 49.3038 278.521 51.9307 278.521C53.6389 278.521 55.6785 277.439 56.0243 276.35C56.1756 275.873 55.5692 270.446 54.6764 264.292L53.0534 253.101L53.958 252.196L54.8626 251.292L56.0514 252.227C57.5341 253.393 58.1689 253.397 60.0218 252.251C61.0502 251.616 61.4944 251.016 61.4944 250.263C61.4944 249.473 62.5538 248.176 65.4543 245.416C67.6321 243.343 70.5776 240.085 71.9995 238.174C74.4741 234.85 74.6049 234.745 75.039 235.733C82.4844 252.684 84.9377 258.877 84.3877 259.334C83.414 260.141 83.7205 261.56 85.3478 263.778C86.4002 265.212 87.2939 265.951 88.1945 266.131C89.1529 266.323 89.814 266.917 90.6434 268.332C91.6359 270.026 91.7093 270.402 91.224 271.309C90.9184 271.88 90.7798 272.905 90.9162 273.587C91.3421 275.715 92.9659 279.698 94.0734 281.33L95.1341 282.893L68.1489 282.894C41.9931 282.896 41.12 282.923 39.7388 283.765C37.6218 285.056 36.5764 287.061 36.5746 289.837C36.5729 292.024 36.704 292.32 38.4385 294.055C40.0418 295.658 40.6421 295.961 42.7014 296.205C44.02 296.362 57.0676 296.431 71.6965 296.359L98.2943 296.228L98.0215 298.633C97.8711 299.955 97.6433 301.574 97.5147 302.23L97.2813 303.423L59.4176 303.437C24.249 303.45 21.4612 303.505 20.2554 304.212C16.1075 306.641 15.9322 312.032 19.9139 314.692L21.3996 315.684H60.0708H98.7425L100.663 317.375C101.72 318.305 103.422 319.297 104.447 319.58C105.852 319.968 126.457 320.062 188.288 319.964C265.251 319.842 270.387 319.787 272.234 319.066C275.462 317.806 278.352 315.309 279.94 312.405C281.362 309.805 281.402 309.565 284.456 285.492C286.151 272.132 287.537 260.863 287.537 260.45C287.537 260.032 288.07 259.497 288.739 259.244C291.699 258.126 293.61 254.732 292.824 251.991C292.28 250.094 291.106 248.434 290.078 248.108C289.307 247.863 289.233 247.581 289.478 245.795C289.631 244.677 289.868 242.931 290.006 241.916L290.256 240.071L309.851 239.949C328.862 239.83 329.483 239.799 330.654 238.925C332.886 237.257 333.664 235.797 333.664 233.268C333.664 230.74 332.886 229.279 330.654 227.612C329.485 226.738 328.853 226.706 310.632 226.587L291.817 226.464L292.068 225.057C292.206 224.283 293.318 215.681 294.538 205.942C295.758 196.203 297.042 186.07 297.39 183.425C297.738 180.78 298.025 178.271 298.027 177.851C298.03 177.148 298.739 177.086 306.775 177.086C314.256 177.086 315.519 176.991 315.519 176.43C315.519 175.869 314.28 175.774 306.993 175.774C300.79 175.774 298.467 175.635 298.467 175.264C298.467 174.812 302.298 144.318 305.899 116.093C306.605 110.563 308.277 97.282 309.615 86.5811C310.953 75.8801 312.144 66.6823 312.261 66.141C312.473 65.1665 312.546 65.1573 320.14 65.1573C326.339 65.1573 328.072 65.0218 329.204 64.4486C331.076 63.5007 332.095 62.565 332.855 61.096C333.674 59.5119 339.701 13.5711 339.428 10.998C339.28 9.60722 338.852 8.71442 337.857 7.71887L336.491 6.35124L327.16 6.13263L317.83 5.91402L316.655 4.51535C315.2 2.78527 311.76 1.12078 308.334 0.489437C304.403 -0.234599 147.248 -0.121797 144.545 0.607048ZM302.543 1.79192C304.139 2.23526 307.649 4.94646 307.649 5.73607C307.649 5.94332 295.878 6.1663 281.491 6.23188L255.333 6.35124L253.727 7.57633C251.39 9.35888 250.834 10.8 250.052 17.0964L249.351 22.747H196.987C164.767 22.747 144.201 22.9079 143.524 23.1645C142.92 23.3945 142.136 24.0337 141.781 24.5855C141.377 25.216 140.503 30.5841 139.43 39.0304C138.491 46.4229 137.599 52.5955 137.448 52.7464C137.126 53.0677 133.834 51.2074 132.014 49.6758L130.753 48.6146L133.073 30.1063C134.348 19.9265 135.712 10.7125 136.102 9.63039C137.036 7.04292 141.117 2.99602 143.72 2.07698C145.451 1.46575 153.989 1.3888 223.266 1.36038C276.73 1.33808 301.392 1.47231 302.543 1.79192ZM220.824 6.75392C217.967 7.99781 216.586 11.1628 217.791 13.7031C218.6 15.4074 220 16.1887 222.245 16.1887C223.475 16.1887 224.165 15.8293 225.503 14.4914C226.93 13.0643 227.201 12.5042 227.201 10.9779C227.201 8.74152 226.256 7.22043 224.483 6.60264C222.799 6.01545 222.491 6.02814 220.824 6.75392ZM334.424 7.29345C336.257 7.58595 338.058 9.1337 338.351 10.6675C338.457 11.2258 338.25 13.9755 337.889 16.7776L337.233 21.8725H294.022H250.811L250.818 20.6702C250.832 18.6564 252.016 11.5192 252.48 10.6579C253.247 9.23602 255.081 7.79319 256.575 7.43817C258.253 7.03898 331.974 6.90214 334.424 7.29345ZM224.867 8.09007C226.171 9.00342 226.483 10.699 225.663 12.426C223.898 16.145 218.456 15.6518 218.456 11.7728C218.456 10.8144 218.892 9.98191 219.943 8.93083C221.583 7.29039 223.306 6.99614 224.867 8.09007ZM43.3008 23.5961C41.5563 24.3323 40.4025 26.2981 40.6456 28.12C40.914 30.1342 41.5847 30.9999 43.4927 31.7974C44.7843 32.3374 45.1275 32.3177 46.5533 31.6208C48.4836 30.6768 49.4376 28.8991 49.0686 26.9334C48.5855 24.3577 45.5958 22.6276 43.3008 23.5961ZM249.062 24.342C249.062 24.8942 245.522 52.2733 245.334 53.1783C245.149 54.0685 244.995 54.0384 240.434 52.2143C231.808 48.7637 225.474 47.5749 215.833 47.5972C203.336 47.6265 191.844 50.6525 180.684 56.8527C160.608 68.0075 146.347 86.9934 141.443 109.098C140.144 114.95 139.846 126.821 140.839 133.145C144.165 154.331 158.206 171.612 178.213 179.144C184.989 181.695 197.273 183.585 203.322 183.008C204.792 182.868 207.176 182.641 208.619 182.504C219.175 181.5 231.694 176.718 242.104 169.714C277.891 145.637 287.508 97.6003 262.445 68.1085L259.938 65.1573H276.854H293.77L293.513 66.7969C293.289 68.2318 290.323 91.6926 282.28 155.662C281.085 165.16 280.008 173.531 279.885 174.262C279.668 175.555 279.553 175.613 275.878 176.307C270.883 177.25 266.607 179.409 262.58 183.02C256.192 188.748 253.238 189.851 243.413 190.18C237.93 190.364 236.188 190.561 236.038 191.012C235.877 191.499 237.148 191.569 243.217 191.407C249.418 191.241 251.025 191.054 253.313 190.233C256.663 189.03 260.202 186.756 263.905 183.428C267.307 180.371 271.772 178.171 276.046 177.447C277.782 177.153 279.282 177 279.38 177.108C279.478 177.216 277.819 190.978 275.694 207.691C273.568 224.404 271.822 238.225 271.813 238.406C271.805 238.586 258.838 238.734 243 238.734C214.458 238.734 214.192 238.725 213.041 237.821C209.958 235.395 209.843 231.548 212.773 228.895C213.709 228.048 214.523 228.015 239.999 227.803C260.715 227.631 266.298 227.467 266.445 227.028C266.594 226.581 261.438 226.495 240.17 226.591C214.276 226.707 213.684 226.729 212.476 227.607C210.662 228.926 209.111 232.259 209.456 234.097C209.849 236.193 211.442 238.387 213.218 239.279C214.62 239.984 216.976 240.044 243.167 240.044L271.594 240.045L271.18 243.543L270.765 247.041L232.915 247.042C197.744 247.042 194.959 247.096 193.566 247.807C191.264 248.98 190.256 250.654 190.256 253.303C190.256 254.944 190.524 255.942 191.231 256.934C193.317 259.859 191.28 259.72 232.205 259.72H269.214L268.974 261.141C268.842 261.923 267.452 272.793 265.883 285.297C264.315 297.802 262.93 308.361 262.806 308.761C262.681 309.162 261.964 309.704 261.212 309.967C260.25 310.302 241.75 310.441 198.763 310.434L137.68 310.426L137.391 308.615C137.185 307.329 136.615 306.319 135.42 305.124C133.874 303.578 133.543 303.442 131.316 303.442C129.34 303.442 128.642 303.653 127.532 304.587C125.935 305.932 124.891 307.781 124.891 309.268C124.891 310.259 124.737 310.328 122.534 310.328H120.176L119.91 308.668C119.614 306.817 117.841 304.44 116.327 303.864C115.781 303.657 113.528 303.451 111.319 303.406L107.303 303.325L107.598 300.651C107.761 299.18 107.989 297.583 108.105 297.102C108.315 296.237 108.679 296.228 142.509 296.228H176.702L178.31 295.228C180.423 293.914 181.934 290.879 181.575 288.668C181.264 286.747 180.189 285.206 178.236 283.876C176.811 282.906 176.597 282.893 162.607 282.893H148.423L149.555 281.547C152.218 278.383 149.71 273.099 145.546 273.099C143.291 273.099 141.943 274.826 141.943 277.714C141.943 279.639 142.132 280.108 143.429 281.406L144.916 282.893H127.471H110.026L110.035 281.909C110.039 281.368 110.215 279.745 110.425 278.302C110.792 275.784 110.949 275.535 114.335 272.102C119.409 266.959 119.53 265.197 114.907 263.777L112.373 262.999L114.451 246.603C115.593 237.586 116.59 229.737 116.665 229.162C116.757 228.463 120.209 235.411 127.091 250.148L137.379 272.181L166.806 272.293C190.281 272.383 196.196 272.294 196.051 271.856C195.916 271.452 193.747 271.248 187.882 271.088L179.897 270.869L171.39 252.725C166.711 242.745 162.608 233.941 162.273 233.159L161.662 231.738H175.153H188.644L198.741 212.985C205.874 199.737 208.837 193.823 208.837 192.839C208.837 191.883 208.437 191.046 207.559 190.168L206.281 188.89L174.331 188.836C156.758 188.806 142.157 188.757 141.883 188.727C141.611 188.696 138.44 182.376 134.839 174.681C129.024 162.257 128.34 160.557 128.732 159.506C129.249 158.119 128.39 155.109 127.074 153.694C126.279 152.84 126.329 152.281 129.248 129.21C130.891 116.225 133.659 94.2871 135.399 80.46C137.139 66.6329 138.615 55.2569 138.68 55.1799C138.745 55.103 140.145 55.4829 141.791 56.0246C144.409 56.886 145.923 57.0316 153.857 57.1863C159.353 57.2939 162.929 57.2016 162.929 56.9529C162.929 56.7198 159.377 56.4326 154.732 56.29C148.453 56.0972 145.718 55.8244 143.052 55.1266C141.137 54.6251 139.396 54.0406 139.183 53.8281C138.959 53.6038 139.539 47.6152 140.563 39.5773C141.925 28.889 142.502 25.5238 143.079 24.8859C143.805 24.0831 145.383 24.0586 196.444 24.0586C225.384 24.0586 249.062 24.1863 249.062 24.342ZM46.9289 25.4464C48.359 26.7904 48.2943 28.9634 46.7885 30.1478C46.155 30.6462 45.2963 31.0542 44.88 31.0542C44.4638 31.0542 43.6051 30.6462 42.9716 30.1478C41.5143 29.0018 41.4251 26.9395 42.77 25.5076C43.9636 24.2375 45.6159 24.2134 46.9289 25.4464ZM57.1222 27.7781C57.1222 28.3596 60.6873 28.4238 87.582 28.3246C111.48 28.2363 118.081 28.0946 118.224 27.6657C118.368 27.232 112.083 27.1192 87.7639 27.1192C60.7568 27.1192 57.1222 27.1974 57.1222 27.7781ZM335.621 34.0098C335.615 34.4282 334.855 40.4211 333.931 47.327C332.14 60.7147 331.931 61.4326 329.377 62.9904C328.019 63.8181 326.86 63.8426 288.4 63.8439C244.601 63.8456 247.447 64.0341 246.223 61.0557C245.739 59.8787 245.893 57.9563 247.345 47.0127C248.27 40.039 249.035 34.0893 249.044 33.7911C249.058 33.3635 258.203 33.249 292.346 33.249C333.189 33.249 335.631 33.2918 335.621 34.0098ZM307.615 38.8904C306.549 39.9568 306.337 40.5248 306.337 42.3204C306.337 45.903 306.389 45.9196 317.432 45.9196H326.928L328.001 44.7627C328.858 43.8376 329.073 43.1424 329.073 41.2899C329.073 37.6702 328.899 37.6124 318.012 37.6124H308.893L307.615 38.8904ZM327.734 39.5467C328.297 40.2253 327.964 43.1162 327.213 44.0614C326.89 44.4685 324.35 44.608 317.244 44.608C308.172 44.608 307.695 44.5664 307.438 43.7549C307.092 42.668 307.932 39.4977 308.641 39.2109C308.937 39.0911 313.238 38.9774 318.198 38.9586C325.499 38.9307 327.315 39.0426 327.734 39.5467ZM224.227 49.1913C230.6 50.0273 235.106 51.2183 240.536 53.5032L244.908 55.3426L244.762 58.0131C244.587 61.1913 245.375 63.0398 247.444 64.3003C248.6 65.006 249.653 65.1542 253.506 65.1555L258.17 65.1573L260.65 67.8899C274.786 83.4632 279.033 106.82 271.774 129.069C268.149 140.177 261.681 150.51 252.793 159.388C241.751 170.418 228.255 177.65 213.103 180.658C206.185 182.032 194.472 182.028 187.987 180.65C169.529 176.727 155.355 165.969 147.293 149.759C138.592 132.266 139.306 110.408 149.213 90.9747C159.386 71.02 178.57 55.6626 199.554 50.6761C208.353 48.5854 216.069 48.121 224.227 49.1913ZM134.729 52.9121C135.931 53.6304 137.048 54.2692 137.211 54.3317C137.374 54.3942 135.476 70.5084 132.993 90.1413C130.511 109.774 127.732 131.767 126.819 139.015C125.384 150.411 125.067 152.152 124.479 151.893C124.105 151.728 122.47 151.502 120.847 151.392C119.05 151.269 117.896 150.996 117.897 150.694C117.898 150.42 118.38 146.458 118.969 141.889C119.557 137.32 122.31 115.481 125.085 93.358C127.861 71.2346 130.244 52.4784 130.38 51.6769C130.62 50.2687 130.66 50.2433 131.586 50.9131C132.112 51.2939 133.526 52.1933 134.729 52.9121ZM302.203 66.5783C301.96 68.0171 300.531 79.3219 293.012 139.266C290.72 157.542 288.729 173.233 288.589 174.134L288.334 175.774H284.657C282.634 175.774 280.979 175.669 280.979 175.54C280.979 175.411 283.033 159.032 285.543 139.141C288.054 119.251 291.11 94.9101 292.335 85.0508C293.561 75.1915 294.658 66.6823 294.775 66.141C294.974 65.2141 295.202 65.1573 298.714 65.1573H302.442L302.203 66.5783ZM84.319 69.2016C84.8083 69.5868 85.071 70.7432 85.2105 73.1221C85.3194 74.9781 85.2866 76.5521 85.1375 76.6199C84.9884 76.6881 84.5612 77.7274 84.1878 78.9297L83.5093 81.1158L81.5199 81.0152L79.5306 80.9147L78.7829 83.58C78.3715 85.046 78.1992 86.3839 78.3999 86.5539C78.6006 86.7236 79.6307 87.5281 80.6892 88.3413L82.6139 89.8204L81.345 90.1798C79.3898 90.7338 73.3076 90.6804 71.1132 90.0893C67.8446 89.2096 64.8439 87.7904 65.5002 87.435C65.822 87.2605 67.4882 86.8849 69.2034 86.6003L72.3213 86.0822L74.1021 81.4765C75.7661 77.1738 75.8391 76.8035 75.2109 75.8451C74.3696 74.5615 74.5869 73.2476 75.6402 73.2467C76.1793 73.2463 76.634 72.6797 77.0393 71.5027C77.3694 70.5443 77.9798 69.5111 78.3951 69.2073C79.3684 68.4955 83.4179 68.4915 84.319 69.2016ZM172.811 70.9505C172.463 71.4917 168.819 77.5415 164.712 84.395L157.246 96.8557L164.992 96.9755C169.252 97.0415 172.941 97.0162 173.189 96.9196C173.438 96.8229 176.199 91.0202 179.325 84.0246L185.009 71.305L189.928 71.2919C192.633 71.2845 194.846 71.3947 194.846 71.5372C194.846 71.6793 193.285 76.9552 191.377 83.2613C189.469 89.5673 187.776 95.2551 187.613 95.9004L187.319 97.0743H195.398H203.477L204.248 91.937C204.671 89.1117 205.541 83.3566 206.181 79.1483L207.344 71.497L212.244 71.3732L217.145 71.2495V84.1619V97.0743H225.233C232.645 97.0743 233.322 97.0105 233.321 96.3092C233.321 95.8886 232.534 90.2786 231.572 83.8436C230.611 77.4082 229.824 71.9486 229.824 71.7108C229.824 71.4511 231.79 71.2797 234.743 71.2819L239.661 71.2858L242.476 80.7914C244.025 86.0197 245.754 91.8224 246.319 93.6859L247.346 97.0743H255.465C261.783 97.0743 263.536 96.9532 263.368 96.5278C262.446 94.1865 251.901 70.9408 251.567 70.5132C251.232 70.0834 242.852 69.9667 212.292 69.9667H173.443L172.811 70.9505ZM64.1623 88.3619C66.6877 90.1597 70.7608 91.4858 74.4833 91.7214C78.1061 91.951 83.0786 91.2785 84.1245 90.4181C84.5223 90.0906 85.1712 90.3092 86.4649 91.206C89.8315 93.539 93.0319 98.2754 94.978 103.805L96.193 107.257L95.2871 107.958C94.7891 108.345 93.7481 109.008 92.9733 109.433L91.5651 110.206L91.8401 120.582C91.9913 126.289 92.2301 133.243 92.3708 136.035L92.6262 141.112L90.7234 142.026C87.8286 143.416 82.3568 143.937 76.3848 143.392C70.5903 142.863 70.8806 143.061 68.1069 137.736C65.7044 133.122 63.3806 126.689 61.6584 119.879C59.8644 112.788 59.8426 112.377 61.2574 112.377C62.2154 112.377 62.4309 112.034 63.2485 109.207C63.7526 107.464 64.3538 105.459 64.5842 104.753C64.8544 103.926 64.8518 103.317 64.5768 103.042C64.0902 102.556 63.7955 103.215 62.3968 107.911L61.4572 111.065H52.513C42.1251 111.065 42.9265 111.629 44.685 105.561C47.5436 95.6967 53.7508 88.6399 60.0896 88.0475C61.2015 87.9439 62.2023 87.7681 62.3129 87.6571C62.6355 87.3348 62.8174 87.4043 64.1623 88.3619ZM156.61 99.9311C156.011 103.929 157.992 106.648 162.188 107.587L164.518 108.108L164.218 110.352C164.053 111.586 162.87 121.691 161.589 132.807C159.342 152.308 159.286 153.073 159.996 154.562C160.401 155.41 161.374 156.496 162.159 156.975C163.555 157.826 164.427 157.845 203.28 157.846C241.963 157.848 243.019 157.826 244.67 156.983C246.286 156.159 247.735 154.556 248.311 152.954C248.458 152.547 249.678 142.709 251.023 131.093C252.367 119.477 253.558 109.546 253.668 109.025C253.825 108.285 254.373 107.97 256.166 107.587C260.66 106.627 263.457 103.568 263.48 99.5883L263.49 97.9488H210.199H156.908L156.61 99.9311ZM186.767 100.463C186.287 103.02 185.21 104.438 182.855 105.611C180.162 106.953 178.114 106.981 175.592 105.709C173.412 104.61 172.595 102.985 172.902 100.355L173.081 98.8232H180.078H187.074L186.767 100.463ZM216.937 100.447C216.427 103.169 215.544 104.355 213.136 105.555C210.332 106.952 208.308 106.994 205.76 105.709C203.58 104.61 202.764 102.985 203.071 100.355L203.249 98.8232H210.246H217.242L216.937 100.447ZM247.11 100.463C246.466 103.978 244.153 106.059 240.317 106.574C238.108 106.87 234.959 105.725 234.013 104.281C233.614 103.672 233.322 102.296 233.322 101.025V98.8232H240.366H247.41L247.11 100.463ZM174.894 106.73C178.162 108.567 182.727 107.879 185.701 105.102L186.83 104.047L188.401 105.528C190.453 107.464 193.162 108.169 196.113 107.537C198.311 107.065 201.842 104.906 201.842 104.034C201.842 103.776 202.357 104.178 202.987 104.926C206.114 108.643 211.993 108.722 215.869 105.102L216.998 104.047L218.592 105.55C220.7 107.538 223.614 108.206 226.697 107.405C228.91 106.832 232.01 104.852 232.01 104.014C232.01 103.767 232.526 104.178 233.155 104.926C236.282 108.643 242.161 108.722 246.037 105.102L247.166 104.047L248.801 105.589C249.7 106.437 250.668 107.133 250.951 107.137C252.66 107.159 252.656 107.259 249.954 130.298C248.076 146.31 247.126 153.041 246.638 153.785C246.261 154.359 245.325 155.212 244.557 155.681C243.199 156.509 242.036 156.533 203.229 156.534L163.299 156.536L162.021 155.258C161.061 154.298 160.741 153.564 160.732 152.307C160.727 151.387 161.846 140.964 163.221 129.144L165.721 107.655L167.354 107.166C168.252 106.897 169.64 106.041 170.439 105.264L171.892 103.851L172.518 104.799C172.863 105.321 173.932 106.189 174.894 106.73ZM97.5082 117.735C103.298 132.269 109.959 144.562 114.842 149.726C116.988 151.995 117.09 152.045 120.115 152.326C126.191 152.891 128.561 155.41 126.173 158.764C124.949 160.484 124.202 160.362 123.133 158.268C122.06 156.163 120.94 155.662 117.313 155.662C115.098 155.662 114.282 155.448 112.86 154.492C107.046 150.586 99.0944 142.802 95.504 137.5L93.4425 134.457L93.143 123.028C92.9786 116.742 92.9655 111.282 93.1137 110.895C93.7651 109.198 94.6671 110.602 97.5082 117.735ZM175.252 111.284C174.884 111.871 171.279 142.675 171.529 143.092C171.637 143.272 186.642 143.42 204.875 143.42C230.877 143.42 238.115 143.302 238.447 142.873C238.99 142.173 242.59 111.322 242.147 111.169C241.059 110.793 175.488 110.906 175.252 111.284ZM240.988 113.798C240.744 115.56 237.694 141.629 237.694 141.954C237.694 142.039 223.027 142.108 205.101 142.108H172.508L172.745 140.687C173.022 139.015 176.046 113.126 176.046 112.421C176.046 112.075 185.221 111.94 208.645 111.94H241.245L240.988 113.798ZM59.7018 117.05C63.3521 134.447 71.0122 147.95 79.6408 152.198C82.3218 153.517 82.8521 153.624 86.3425 153.543C89.4568 153.472 90.3819 153.61 91.5318 154.321C94.0445 155.873 95.3225 159.634 93.9239 161.361L93.087 162.395L92.3752 161.018C91.2306 158.805 88.8792 157.287 86.2581 157.07C84.5499 156.928 83.8341 157.052 83.4092 157.564C82.8998 158.178 82.4818 158.117 79.326 156.965C63.8995 151.335 53.6209 137.989 50.3361 119.325C49.9811 117.307 49.6903 114.919 49.6899 114.017L49.6895 112.377H54.2055H58.7211L59.7018 117.05ZM49.031 118.777C50.1713 125.828 52.5218 132.799 55.4664 137.864C56.1367 139.017 56.685 140.025 56.685 140.105C56.685 140.185 56.0558 140.376 55.2868 140.53C53.1815 140.951 49.9295 144.549 49.0057 147.48C48.1456 150.208 47.5427 150.324 45.4707 148.16C44.2653 146.901 44.2247 146.711 44.2334 142.406C44.24 139.213 44.7926 134.656 46.1886 126.283C47.259 119.864 48.1942 114.671 48.2672 114.744C48.3406 114.817 48.6843 116.632 49.031 118.777ZM95.7152 139.733C99.4853 144.864 106.305 151.423 111.449 154.865L113.09 155.964L107.514 156.248C104.447 156.405 100.357 156.534 98.4246 156.534C95.0357 156.536 94.8857 156.492 94.1849 155.306C93.5264 154.191 91.7286 153.003 89.859 152.445C89.309 152.281 89.0777 151.387 88.8364 148.486C88.6645 146.424 88.5496 144.589 88.581 144.406C88.6121 144.225 89.3676 143.823 90.2595 143.515C92.9121 142.598 93.599 141.618 93.4582 138.951C93.3909 137.682 93.4329 136.741 93.5509 136.861C93.6694 136.982 94.6431 138.274 95.7152 139.733ZM312.896 146.185C312.896 146.889 314.717 148.666 315.438 148.666C316.277 148.666 316.04 148.035 314.73 146.781C313.367 145.475 312.896 145.322 312.896 146.185ZM320.593 146.869C319.831 147.665 319.557 148.241 319.855 148.425C320.114 148.585 320.813 148.164 321.407 147.489C323.299 145.338 322.583 144.792 320.593 146.869ZM313.846 153.613C312.89 154.631 312.591 155.662 313.251 155.662C313.677 155.662 315.956 153.339 315.956 152.905C315.956 152.248 314.748 152.654 313.846 153.613ZM319.454 152.905C319.454 153.339 321.734 155.662 322.159 155.662C322.861 155.662 322.495 154.484 321.503 153.552C320.518 152.627 319.454 152.291 319.454 152.905ZM121.804 158.369C122.167 159.017 122.37 159.637 122.256 159.747C122.142 159.857 116.097 160.092 108.823 160.268L95.5975 160.588V159.218C95.5975 157.906 95.6767 157.846 97.4557 157.792C98.4775 157.761 102.954 157.596 107.402 157.425C120.325 156.927 121.023 156.973 121.804 158.369ZM89.5788 159.584L91.0067 160.883L87.8522 160.896C85.2245 160.906 84.6255 160.774 84.2657 160.101C83.1092 157.94 87.321 157.53 89.5788 159.584ZM124.015 161.236C124.014 161.417 123.228 167.663 122.268 175.118C121.308 182.573 120.522 188.703 120.521 188.741C120.518 188.852 113.086 188.822 113.086 188.712C113.086 188.344 116.19 163.906 116.378 162.793C116.578 161.614 116.831 161.372 118.02 161.224C120.627 160.899 124.017 160.906 124.015 161.236ZM132.577 172.622C135.538 178.944 138.455 185.197 139.059 186.518L140.159 188.919L130.995 188.873C124.285 188.839 121.831 188.688 121.831 188.312C121.832 187.632 124.806 164.165 125.128 162.302C125.328 161.145 125.56 160.881 126.286 160.991C127.007 161.099 128.299 163.488 132.577 172.622ZM115.272 161.616C115.272 162.264 112.178 186.6 111.963 187.644L111.724 188.803L105.915 188.865C101.626 188.911 99.992 188.779 99.6685 188.362C99.4271 188.051 97.255 183.545 94.8407 178.349C91.0194 170.121 90.4108 168.49 90.1332 165.726C89.8848 163.254 89.946 162.468 90.4104 162.174C91.3049 161.607 91.576 161.696 91.8812 162.657C92.2318 163.762 92.9952 163.767 94.3856 162.673C95.2875 161.963 96.3071 161.789 100.238 161.673C110.287 161.374 115.272 161.356 115.272 161.616ZM303.823 164.515C303.961 164.93 306.766 165.09 315.446 165.179C325.431 165.28 326.887 165.211 326.887 164.632C326.887 164.056 325.36 163.969 315.264 163.969C306.16 163.969 303.681 164.087 303.823 164.515ZM78.3462 185.019C81.3673 195.367 83.7716 204.037 83.689 204.286C83.532 204.757 71.9343 165.393 72.0034 164.625C72.0826 163.75 72.9509 166.542 78.3462 185.019ZM100.723 193.734L109.021 211.474L105.824 236.581C104.066 250.389 102.62 261.818 102.61 261.978C102.601 262.138 101.314 262.335 99.7502 262.415C97.3141 262.541 96.9074 262.456 96.9083 261.823C96.9088 261.416 97.1059 260.962 97.3464 260.813C98.4994 260.1 97.4719 255.21 95.8817 253.838C94.9605 253.044 94.3388 250.532 90.3417 231.462L85.8397 209.981L87.0119 204.573C88.7975 196.337 89.4397 191.292 90.0016 181.082L90.5157 171.744L91.4715 173.868C91.9966 175.037 96.1602 183.976 100.723 193.734ZM287.911 179.6C287.713 180.982 286.165 193.23 284.47 206.816C282.776 220.403 281.169 233.142 280.899 235.126L280.409 238.734H276.759C274.751 238.734 273.104 238.586 273.098 238.406C273.093 238.225 274.811 224.354 276.918 207.582L280.748 177.086H284.509H288.271L287.911 179.6ZM223.232 187.982C222.23 188.985 221.954 189.652 221.954 191.077C221.954 194.533 225.291 196.459 228.449 194.826C229.631 194.214 230.698 192.53 230.698 191.275C230.698 190.149 229.793 190.599 229.318 191.96C228.783 193.494 227.787 194.137 225.949 194.137C224.499 194.137 222.828 192.449 222.828 190.984C222.828 189.965 225.103 187.579 226.074 187.579C226.453 187.579 226.763 187.382 226.763 187.142C226.763 186.201 224.467 186.748 223.232 187.982ZM206.374 190.671C207.156 191.286 207.526 191.994 207.526 192.876C207.526 193.734 204.227 200.317 197.798 212.29L188.07 230.404L153.925 230.415L119.78 230.426L110.258 210.642C105.021 199.761 100.641 190.612 100.525 190.311C100.356 189.876 110.983 189.765 152.768 189.765C205.172 189.765 205.223 189.766 206.374 190.671ZM185.878 191.186C185.769 191.487 183.15 199.897 180.058 209.877C176.965 219.857 174.292 228.465 174.118 229.005C173.885 229.729 173.974 229.989 174.457 229.989C174.817 229.989 175.215 229.645 175.34 229.224C175.465 228.803 178.135 220.178 181.272 210.058C184.41 199.937 186.976 191.428 186.976 191.148C186.976 190.467 186.126 190.497 185.878 191.186ZM113.485 244.543C111.609 259.781 111.067 263.208 110.568 263.016C110.23 262.886 108.839 262.778 107.476 262.774C106.113 262.77 104.731 262.598 104.406 262.392C103.918 262.083 104.323 257.955 106.713 238.898C108.308 226.183 109.715 215.313 109.841 214.742C110.021 213.922 110.669 214.976 112.929 219.77L115.788 225.836L113.485 244.543ZM330.719 229.3C332.236 230.69 332.352 230.972 332.352 233.268C332.352 235.565 332.236 235.847 330.719 237.237L329.086 238.734H309.842H290.598V237.779C290.598 236.583 291.484 229.087 291.712 228.35C291.844 227.924 295.984 227.803 310.484 227.803H329.086L330.719 229.3ZM169.512 251.413C174.527 262.114 178.639 270.968 178.65 271.088C178.661 271.208 169.554 271.253 158.412 271.189L138.155 271.071L129.119 251.7C124.148 241.046 120.082 232.194 120.082 232.03C120.082 231.864 129.152 231.78 140.237 231.843L160.393 231.957L169.512 251.413ZM279.88 243.215C279.709 244.958 279.48 246.532 279.373 246.713C279.266 246.893 277.496 247.041 275.441 247.041C272.517 247.041 271.752 246.915 271.926 246.461C272.048 246.142 272.289 244.568 272.461 242.963L272.773 240.045H276.483H280.193L279.88 243.215ZM56.685 245.362L60.7607 250.242L59.7674 251.046C59.2213 251.488 58.4111 251.85 57.9669 251.85C57.0522 251.85 49.6895 245.428 49.6895 244.631C49.6895 244.148 52.141 240.482 52.4636 240.482C52.5436 240.482 54.4434 242.678 56.685 245.362ZM53.2887 251.557C52.8724 252.025 51.8725 252.687 51.0667 253.028C49.4367 253.717 48.9833 253.404 47.8969 250.842C47.4146 249.704 47.4846 249.524 48.8609 248.361L50.3453 247.107L52.1956 248.906C53.9755 250.637 54.0175 250.738 53.2887 251.557ZM301.196 247.913C294.343 252.091 299.726 262.363 306.939 258.872C309.343 257.708 310.966 254.878 310.536 252.601C309.676 248.049 304.902 245.653 301.196 247.913ZM289.3 249.016C290.679 249.729 291.909 251.68 291.909 253.154C291.909 254.849 290.679 257.032 289.331 257.729C288.134 258.349 283.113 258.408 240.948 258.305L193.9 258.19L192.624 256.762C191.608 255.625 191.349 254.926 191.349 253.33C191.349 251.633 191.577 251.097 192.835 249.839L194.322 248.352H241.17C282.189 248.352 288.177 248.435 289.3 249.016ZM307.117 249.035C310.187 251.185 310.002 256.084 306.789 257.745C304.569 258.893 302.516 258.61 300.828 256.922C299.56 255.653 299.342 255.135 299.342 253.38C299.342 251.626 299.56 251.108 300.828 249.839C302.066 248.601 302.635 248.352 304.229 248.352C305.282 248.352 306.581 248.659 307.117 249.035ZM47.1099 251.873C48.1172 253.568 49.1591 254.874 49.4249 254.775C51.5726 253.97 51.8476 253.992 52.0758 254.995C52.4842 256.789 54.9361 274.118 54.9361 275.209C54.9361 276.252 54.9147 276.257 53.5151 275.585C50.4139 274.094 49.4665 272.633 44.8215 262.178C42.3516 256.618 40.162 251.952 39.9561 251.808C39.3466 251.384 41.8011 249.983 45.1883 248.82C45.2377 248.804 46.1025 250.177 47.1099 251.873ZM43.7625 262.767C46.3482 268.537 48.8522 273.503 49.5356 274.216C50.1993 274.909 51.51 275.814 52.4483 276.228C54.0319 276.927 54.0805 276.999 53.1243 277.238C50.4485 277.905 48.9982 276.22 43.3152 265.841C38.9142 257.803 38.3506 256.583 38.3353 255.056C38.3218 253.655 38.7288 252.111 39.0318 252.414C39.1223 252.505 41.2511 257.164 43.7625 262.767ZM96.3439 257.084C96.6543 258.157 96.8099 259.336 96.6901 259.705C96.3286 260.815 89.0559 265.067 87.9939 264.789C86.913 264.505 84.9923 261.713 85.1878 260.71C85.3443 259.907 94.1923 254.849 95.142 255.02C95.4922 255.082 96.033 256.012 96.3439 257.084ZM277.717 260.704C277.597 261.245 276.22 272.017 274.657 284.642C273.094 297.266 271.511 308.613 271.139 309.857C270.337 312.537 267.296 316.139 264.632 317.564L262.834 318.526L183.916 318.626L104.998 318.725L103.06 317.732C99.6488 315.982 100.182 315.766 108.051 315.706C112.041 315.675 115.758 315.478 116.311 315.268C117.351 314.872 119.645 312.428 119.645 311.716C119.645 311.493 120.875 311.319 122.377 311.329C124.952 311.345 125.16 311.424 125.984 312.713C127.376 314.89 128.871 315.757 131.231 315.757C133.591 315.757 135.086 314.89 136.478 312.713L137.352 311.346L199.726 311.329L262.1 311.312L263.123 310.095C264.07 308.968 264.367 307.101 267.134 284.846C268.777 271.628 270.198 260.567 270.29 260.267C270.407 259.885 271.587 259.72 274.197 259.72C277.846 259.72 277.93 259.743 277.717 260.704ZM96.4519 264.469C97.2721 266.954 96.8196 268.175 94.7279 269.118C93.7586 269.555 92.8977 269.833 92.8151 269.735C92.7324 269.638 92.1374 268.643 91.4925 267.525L90.3198 265.493L92.8382 263.953C94.2229 263.106 95.4742 262.486 95.6181 262.575C95.7624 262.664 96.1375 263.516 96.4519 264.469ZM109.446 264.123C118.024 265.079 118.605 265.895 114.104 270.666C111.03 273.925 103.419 279.915 100.148 281.651C96.7955 283.429 94.9072 281.87 92.7928 275.582C91.5292 271.824 91.3521 272.215 95.2246 270.212L97.694 268.934L98.0005 266.295L98.3066 263.655H101.779C103.688 263.655 107.139 263.865 109.446 264.123ZM107.84 271.331C104.112 274.071 100.128 277.19 98.986 278.26C96.938 280.18 96.2429 282.018 97.565 282.018C97.9257 282.018 98.2209 281.64 98.2209 281.177C98.2209 280.136 100.908 277.848 109.266 271.776C112.816 269.196 115.608 266.904 115.47 266.682C115.333 266.46 115.085 266.294 114.919 266.313C114.753 266.333 111.567 268.59 107.84 271.331ZM184.072 273.261C182.549 273.891 181.73 275.474 181.73 277.787C181.73 279.629 181.932 280.122 183.216 281.406C184.413 282.602 185.045 282.893 186.457 282.893C187.878 282.893 188.425 282.638 189.342 281.547C190.622 280.027 190.781 278.352 189.855 276.136C188.888 273.821 186.085 272.428 184.072 273.261ZM109.105 279.067C108.925 280.33 108.764 281.707 108.746 282.128C108.718 282.794 108.234 282.893 104.998 282.893C101.545 282.893 100.246 282.422 102.047 281.823C102.467 281.683 104.189 280.506 105.872 279.209C107.555 277.911 109.045 276.832 109.182 276.811C109.32 276.789 109.285 277.804 109.105 279.067ZM146.752 278.12C146.752 279.185 145.73 279.035 145.518 277.938C145.434 277.506 145.657 277.209 146.064 277.209C146.47 277.209 146.752 277.583 146.752 278.12ZM186.539 278.083C186.539 278.564 186.354 278.958 186.128 278.958C185.541 278.958 185.127 278.162 185.446 277.646C185.903 276.907 186.539 277.161 186.539 278.083ZM193.972 284.284C190.009 286.954 190.065 291.847 194.092 294.853C195.679 296.038 198.645 295.997 200.642 294.764C205.743 291.611 203.814 283.919 197.801 283.437C195.917 283.285 195.226 283.438 193.972 284.284ZM177.964 284.84C180.36 286.463 181.071 289.904 179.532 292.428C177.775 295.311 182.367 295.135 108.831 295.135C44.9644 295.135 41.959 295.1 40.535 294.336C38.8792 293.448 37.4473 291.165 37.4473 289.413C37.4473 287.811 39.1494 285.44 40.9538 284.53C42.3879 283.806 46.3342 283.769 109.589 283.874C175.362 283.984 176.727 284.003 177.964 284.84ZM200.347 285.361C202.259 286.613 202.834 289.734 201.594 292.13C200.937 293.402 198.73 294.698 197.222 294.698C195.889 294.698 193.718 293.376 192.969 292.109C190.201 287.423 195.749 282.348 200.347 285.361ZM106.768 298.195C106.623 299.278 106.397 300.883 106.266 301.763L106.027 303.362H102.299H98.5706L98.8448 301.325C98.9956 300.205 99.2208 298.6 99.3454 297.758L99.5723 296.228H103.302H107.032L106.768 298.195ZM117.274 306.168C119.366 308.452 119.366 310.675 117.274 312.958L115.777 314.591H68.5319H21.2868L19.8575 313.162C18.6311 311.935 18.4283 311.427 18.4283 309.583C18.4283 307.81 18.649 307.204 19.6909 306.117C20.3852 305.392 21.369 304.716 21.877 304.614C22.3847 304.513 43.7201 304.453 69.2887 304.482L115.777 304.535L117.274 306.168ZM133.37 304.979C137.164 306.779 137.164 312.347 133.37 314.147C131.596 314.989 130.848 314.98 128.982 314.095C125.315 312.355 125.273 306.841 128.913 305.048C130.721 304.156 131.607 304.143 133.37 304.979Z" fill="black"/>
</g>
</svg>
