<svg width="18" height="18" viewBox="0 0 18 18" fill="none" xmlns="http://www.w3.org/2000/svg">
<g id="Icon">
<mask id="mask0_414_7340" style="mask-type:alpha" maskUnits="userSpaceOnUse" x="0" y="0" width="18" height="18">
<rect id="Bounding box" width="18" height="18" fill="white"/>
</mask>
<g mask="url(#mask0_414_7340)">
<g id="Icon_2">
<path id="Vector" d="M2 8.75C2 9.63642 2.17459 10.5142 2.51381 11.3331C2.85303 12.1521 3.35023 12.8962 3.97703 13.523C4.60382 14.1498 5.34794 14.647 6.16689 14.9862C6.98583 15.3254 7.86358 15.5 8.75 15.5C9.63642 15.5 10.5142 15.3254 11.3331 14.9862C12.1521 14.647 12.8962 14.1498 13.523 13.523C14.1498 12.8962 14.647 12.1521 14.9862 11.3331C15.3254 10.5142 15.5 9.63642 15.5 8.75C15.5 7.86358 15.3254 6.98583 14.9862 6.16689C14.647 5.34794 14.1498 4.60382 13.523 3.97703C12.8962 3.35023 12.1521 2.85303 11.3331 2.51381C10.5142 2.17459 9.63642 2 8.75 2C7.86358 2 6.98583 2.17459 6.16689 2.51381C5.34794 2.85303 4.60382 3.35023 3.97703 3.97703C3.35023 4.60382 2.85303 5.34794 2.51381 6.16689C2.17459 6.98583 2 7.86358 2 8.75Z" stroke="#707070" stroke-width="1.5" stroke-linecap="round" stroke-linejoin="round"/>
<path id="Vector_2" d="M8.75 8.75L11 10.25" stroke="#707070" stroke-width="1.5" stroke-linecap="round" stroke-linejoin="round"/>
<path id="Vector_3" d="M8.75 5V8.75" stroke="#707070" stroke-width="1.5" stroke-linecap="round" stroke-linejoin="round"/>
</g>
</g>
</g>
</svg>
