<svg width="18" height="18" viewBox="0 0 18 18" fill="none" xmlns="http://www.w3.org/2000/svg">
<g id="Icon">
<mask id="mask0_414_7302" style="mask-type:alpha" maskUnits="userSpaceOnUse" x="0" y="0" width="18" height="18">
<rect id="Bounding box" width="18" height="18" fill="white"/>
</mask>
<g mask="url(#mask0_414_7302)">
<g id="Icon_2">
<path id="Vector" d="M2 13.5C2 14.0967 2.23705 14.669 2.65901 15.091C3.08097 15.5129 3.65326 15.75 4.25 15.75C4.84674 15.75 5.41903 15.5129 5.84099 15.091C6.26295 14.669 6.5 14.0967 6.5 13.5C6.5 12.9033 6.26295 12.331 5.84099 11.909C5.41903 11.4871 4.84674 11.25 4.25 11.25C3.65326 11.25 3.08097 11.4871 2.65901 11.909C2.23705 12.331 2 12.9033 2 13.5Z" stroke="black" stroke-width="1.5" stroke-linecap="round" stroke-linejoin="round"/>
<path id="Vector_2" d="M12.5 13.5C12.5 14.0967 12.7371 14.669 13.159 15.091C13.581 15.5129 14.1533 15.75 14.75 15.75C15.3467 15.75 15.919 15.5129 16.341 15.091C16.7629 14.669 17 14.0967 17 13.5C17 12.9033 16.7629 12.331 16.341 11.909C15.919 11.4871 15.3467 11.25 14.75 11.25C14.1533 11.25 13.581 11.4871 13.159 11.909C12.7371 12.331 12.5 12.9033 12.5 13.5Z" stroke="black" stroke-width="1.5" stroke-linecap="round" stroke-linejoin="round"/>
<path id="Vector_3" d="M9.5 14.25V11.25L7.25 9L11 6L12.5 8.25H14.75" stroke="black" stroke-width="1.5" stroke-linecap="round" stroke-linejoin="round"/>
<path id="Vector_4" d="M12.5 3.75C12.5 3.94891 12.579 4.13968 12.7197 4.28033C12.8603 4.42098 13.0511 4.5 13.25 4.5C13.4489 4.5 13.6397 4.42098 13.7803 4.28033C13.921 4.13968 14 3.94891 14 3.75C14 3.55109 13.921 3.36032 13.7803 3.21967C13.6397 3.07902 13.4489 3 13.25 3C13.0511 3 12.8603 3.07902 12.7197 3.21967C12.579 3.36032 12.5 3.55109 12.5 3.75Z" stroke="black" stroke-width="1.5" stroke-linecap="round" stroke-linejoin="round"/>
</g>
</g>
</g>
</svg>
