<svg width="18" height="18" viewBox="0 0 18 18" fill="none" xmlns="http://www.w3.org/2000/svg">
<mask id="mask0_414_7359" style="mask-type:alpha" maskUnits="userSpaceOnUse" x="0" y="0" width="18" height="18">
<rect y="6.10352e-05" width="18" height="18" fill="white"/>
</mask>
<g mask="url(#mask0_414_7359)">
<path d="M8.46199 2.59005C8.63485 2.23984 8.72128 2.06474 8.83862 2.0088C8.94071 1.96012 9.05932 1.96012 9.1614 2.0088C9.27874 2.06474 9.36517 2.23984 9.53804 2.59005L11.178 5.91252C11.2291 6.01591 11.2546 6.06761 11.2919 6.10774C11.3249 6.14328 11.3645 6.17207 11.4085 6.19253C11.4582 6.21563 11.5152 6.22397 11.6293 6.24064L15.2977 6.77684C15.684 6.8333 15.8772 6.86154 15.9666 6.95589C16.0444 7.03798 16.0809 7.15078 16.0661 7.26289C16.0491 7.39175 15.9093 7.52795 15.6296 7.80035L12.9761 10.3849C12.8934 10.4654 12.852 10.5057 12.8253 10.5537C12.8017 10.5961 12.7865 10.6427 12.7807 10.6909C12.7741 10.7454 12.7838 10.8023 12.8034 10.9161L13.4295 14.5666C13.4955 14.9517 13.5285 15.1442 13.4665 15.2584C13.4125 15.3578 13.3165 15.4275 13.2053 15.4482C13.0775 15.4719 12.9046 15.3809 12.5588 15.1991L9.27928 13.4744C9.1771 13.4207 9.12601 13.3938 9.07218 13.3833C9.02452 13.3739 8.9755 13.3739 8.92784 13.3833C8.87402 13.3938 8.82293 13.4207 8.72074 13.4744L5.44119 15.1991C5.09544 15.3809 4.92256 15.4719 4.79473 15.4482C4.68351 15.4275 4.58754 15.3578 4.53355 15.2584C4.4715 15.1442 4.50452 14.9517 4.57056 14.5666L5.19666 10.9161C5.21618 10.8023 5.22594 10.7454 5.21934 10.6909C5.21349 10.6427 5.19833 10.5961 5.1747 10.5537C5.14802 10.5057 5.10666 10.4654 5.02394 10.3849L2.37042 7.80035C2.09075 7.52795 1.95091 7.39175 1.93389 7.26289C1.91909 7.15078 1.95567 7.03798 2.03344 6.95589C2.12283 6.86154 2.31598 6.8333 2.70228 6.77684L6.37073 6.24064C6.48482 6.22397 6.54186 6.21563 6.59154 6.19253C6.63552 6.17207 6.67512 6.14328 6.70814 6.10774C6.74543 6.06761 6.77095 6.01591 6.82198 5.91252L8.46199 2.59005Z" fill="#FFC107"/>
</g>
</svg>
