<svg width="311" height="200" viewBox="0 0 311 200" fill="none" xmlns="http://www.w3.org/2000/svg">
<mask id="mask0_414_2297" style="mask-type:alpha" maskUnits="userSpaceOnUse" x="0" y="0" width="311" height="200">
<rect width="311" height="200" fill="#D9D9D9"/>
</mask>
<g mask="url(#mask0_414_2297)">
<path fill-rule="evenodd" clip-rule="evenodd" d="M120.649 0.277304C127.436 0.42897 138.542 0.42897 145.328 0.277304C152.116 0.124741 146.562 0 132.989 0C119.415 0 113.863 0.124741 120.649 0.277304ZM99.1591 4.76356C104.493 4.9224 112.973 4.92151 118.005 4.76176C123.038 4.60202 118.675 4.47189 108.309 4.47278C97.944 4.47368 93.8266 4.60471 99.1591 4.76356ZM120.649 11.0411C123.981 11.2134 129.432 11.2134 132.764 11.0411C136.096 10.8679 133.37 10.727 126.707 10.727C120.043 10.727 117.317 10.8679 120.649 11.0411ZM182.165 11.0438C186.261 11.2098 192.722 11.2089 196.524 11.0411C200.326 10.8733 196.975 10.7377 189.078 10.7386C181.181 10.7395 178.07 10.8769 182.165 11.0438ZM61.3504 18.1909C59.5187 19.7165 59.1382 22.9697 53.8236 82.4218C49.6865 128.705 48.4776 145.447 49.1938 146.588C49.9135 147.736 51.9767 148.285 57.2482 148.732C69.1042 149.738 74.6647 150.561 75.1735 151.384C75.4409 151.816 77.0482 152.169 78.7471 152.169C82.422 152.169 82.6616 153.358 79.9209 158.002C78.0946 161.099 75.3458 173.415 76.166 174.829C76.3805 175.2 77.4745 175.502 78.5972 175.502C81.1235 175.502 82.081 176.368 80.9978 177.674C80.5455 178.219 80.0438 179.871 79.8832 181.346C79.6265 183.703 79.8967 184.063 82.1133 184.317C83.5007 184.476 85.1332 184.194 85.7407 183.69C86.57 183.001 86.8975 183.468 87.0573 185.562C87.3803 189.798 89.8142 194.182 93.3339 196.867C96.0854 198.966 97.3409 199.284 102.855 199.284C110.293 199.284 113.958 197.296 116.804 191.715L118.529 188.336L122.842 189.045C125.214 189.435 136.565 189.779 148.065 189.807C171.075 189.867 171.123 189.858 178.446 183.927C181.274 181.638 182.069 181.308 181.742 182.561C181.057 185.178 183.079 191.321 185.618 194.339C188.785 198.102 192.645 199.935 197.54 199.999C209.162 200.149 216.974 188.529 212.48 177.774C211.778 176.093 211.397 173.978 211.633 173.074C212.721 168.917 203.452 160.498 196.807 159.607C193.72 159.193 193.148 158.832 193.712 157.653C194.094 156.858 194.367 154.492 194.323 152.393L194.24 148.579H221.837C244.724 148.579 249.617 148.36 250.504 147.291C251.176 146.481 253.619 122.801 257.081 83.5588L262.588 21.1147L260.584 19.1108L258.579 17.1059L160.93 16.8448C68.1682 16.5962 63.1829 16.6635 61.3504 18.1909ZM253.398 19.9373C254.412 20.8554 255.036 22.6556 255.032 24.6488C255.027 26.423 252.607 54.5027 249.654 87.048C245.883 128.603 243.948 146.435 243.155 146.938C242.534 147.332 231.107 147.66 217.762 147.669L193.497 147.682L190.166 143.697C188.333 141.505 186.834 139.587 186.834 139.435C186.834 139.281 197.901 139.245 211.426 139.355C230.346 139.506 236.234 139.291 236.959 138.418C237.476 137.794 239.339 122.561 241.099 104.567C242.859 86.5715 245.271 62.5607 246.46 51.2083C248.115 35.3946 248.373 30.3125 247.566 29.4779C246.81 28.6962 238.552 28.2215 218.244 27.7943C190.561 27.2128 189.929 27.158 187.732 25.172C180.114 18.2869 167.663 18.7123 161.887 26.0551L160.102 28.3238H114.291C89.0944 28.3238 68.2651 28.6702 68.0039 29.0938C67.7419 29.5174 66.507 40.5872 65.2605 53.6941C64.014 66.8002 62.8141 78.0638 62.5951 78.7243C62.3761 79.3858 61.1144 92.8257 59.7906 108.592C57.4053 137.018 57.3999 137.269 59.1427 138.681C60.1128 139.466 61.1727 141.803 61.5074 143.893L62.1132 147.682H57.338C48.6006 147.682 48.8016 153.747 55.194 83.0482C58.2955 48.734 61.1413 20.1617 61.5155 19.555C62.0477 18.6944 82.982 18.4521 156.977 18.4521C243.911 18.4521 251.893 18.575 253.398 19.9373ZM180.552 29.2212L185.488 33.6509H175.168H164.847L169.783 29.2212C172.498 26.7847 174.921 24.7915 175.168 24.7915C175.415 24.7915 177.838 26.7847 180.552 29.2212ZM95.2966 32.8109V36.4007H81.8351H68.3737V33.8879C68.3737 29.5865 69.5116 29.2212 82.912 29.2212H95.2966V32.8109ZM129.124 34.8302C138.413 38.8219 142.441 41.0117 143.095 42.4242C144.154 44.7091 141.652 76.7033 140.204 79.41C139.73 80.2958 139.571 82.4316 139.851 84.1574C140.297 86.9008 140.095 87.3657 138.245 87.8611C134.877 88.7621 134.126 88.5665 133.626 86.6567C133.178 84.9436 132.402 84.8619 116.58 84.8619C104.031 84.8619 99.7667 85.1464 99.0308 86.0348C98.495 86.6792 97.6209 92.0306 97.0869 97.9258C95.7166 113.056 95.8422 112.682 92.1304 112.682H88.9993L89.4758 107.971C90.9736 93.1703 91.7068 84.2193 91.7068 80.7283V76.785H78.2454C59.8741 76.785 60.4386 75.1113 78.9185 74.7882L93.053 74.5414L94.2762 58.1535C95.2481 45.1335 95.2714 41.49 94.3911 40.4292C93.5062 39.3631 90.761 39.0929 80.8282 39.0929C73.1238 39.0929 68.3737 38.751 68.3737 38.1955C68.3737 37.6364 73.5904 37.2981 82.2291 37.2981H96.0836L96.6894 33.2597L97.2951 29.2212H106.684H116.072L129.124 34.8302ZM158.942 31.1507C158.374 32.2115 157.909 34.9809 157.909 37.3035C157.909 42.1855 162.318 52.1631 169.603 63.7723L174.108 70.9517L167.259 71.2174C158.026 71.5754 157.607 72.0448 156.855 82.8723C156.521 87.6682 156.028 92.8508 155.759 94.3881C155.306 96.9772 155.11 97.11 153.111 96.183C151.923 95.6328 150.948 94.678 150.944 94.0605C150.941 93.444 150.504 92.9388 149.974 92.9388C149.446 92.9388 149.85 91.8744 150.872 90.574C151.895 89.2737 152.732 87.4806 152.732 86.5885C152.732 85.6974 153.136 84.7183 153.63 84.4132C155.152 83.4718 154.624 79.8426 152.588 77.2544C150.875 75.0763 150.195 74.8403 146.754 75.228C142.151 75.7467 142.422 77.5882 144.223 58.0242C145.383 45.4055 145.398 43.0291 144.324 41.3904C143.594 40.2749 138.454 37.4847 131.973 34.6866C125.868 32.0508 120.705 29.7426 120.499 29.5578C120.294 29.3729 129.091 29.2212 140.051 29.2212H159.974L158.942 31.1507ZM224.526 30.781C224.526 33.7389 221.73 67.3665 221.317 69.3812C220.913 71.3529 220.624 71.4004 208.964 71.4004H197.026L192.23 62.6505L187.434 53.9005L189.826 47.1339C192.32 40.0828 192.877 33.9229 191.29 30.9568C190.386 29.2688 190.832 29.2212 207.444 29.2212C223.072 29.2212 224.526 29.354 224.526 30.781ZM229.911 31.0188C229.911 34.3922 226.29 74.5378 225.884 75.6632C225.586 76.4916 222.039 76.785 212.343 76.785C200.205 76.785 199.251 76.9044 199.798 78.3555C200.123 79.2197 203.22 85.0755 206.681 91.3682L212.973 102.81H226.443C238.743 102.81 239.889 102.946 239.615 104.367C239.348 105.752 238.184 105.897 229.004 105.688C223.333 105.559 218.132 105.826 217.448 106.281C216.454 106.94 217.862 110.099 224.403 121.883C228.913 130.008 232.603 136.916 232.603 137.233C232.603 137.551 221.789 137.81 208.572 137.81C185.652 137.81 184.47 137.728 183.004 136.015C181.482 134.238 181.553 134.221 190.657 134.234C196.922 134.244 199.419 134.525 198.501 135.118C197.418 135.818 197.56 135.99 199.227 136.002C200.383 136.009 201.054 135.619 200.745 135.118C200.439 134.624 201.022 134.221 202.038 134.221C203.054 134.221 203.886 134.624 203.886 135.118C203.886 135.612 204.693 136.015 205.68 136.015C206.668 136.015 207.475 135.612 207.475 135.118C207.475 134.624 208.081 134.221 208.821 134.221C209.562 134.221 210.168 134.624 210.168 135.118C210.168 136.716 212.369 136.071 214.888 133.736C216.241 132.481 217.347 131.239 217.347 130.975C217.347 130.271 206.568 110.873 204.554 107.953L202.84 105.467L183.105 105.54L163.368 105.612L162.233 108.313L161.098 111.013L159.583 108.701C156.579 104.116 156.424 102.394 157.756 88.4346C158.476 80.9015 159.278 74.3916 159.541 73.9671C159.803 73.5426 164.991 73.1953 171.07 73.1953H182.123V71.0047C182.123 69.7994 181.567 68.6013 180.889 68.3402C178.949 67.5962 179.406 65.6641 182.92 59.7661L186.186 54.2846L191.221 63.5156L196.257 72.7466L208.751 72.997C215.621 73.1352 221.547 72.9333 221.919 72.5482C222.29 72.1641 223.234 63.9742 224.016 54.3493C226.022 29.652 226.093 29.2212 228.171 29.2212C229.313 29.2212 229.911 29.8386 229.911 31.0188ZM246.584 30.4256C246.995 31.4971 241.387 90.7634 240.181 98.099L239.701 101.016L226.505 100.986L213.309 100.957L207.363 89.9925L201.418 79.0286L213.496 78.5799C223.325 78.2146 225.775 77.8556 226.652 76.6531C227.273 75.8014 228.407 66.8657 229.328 55.5635C230.205 44.7773 231.152 34.438 231.43 32.5866L231.936 29.2212H239.028C244.135 29.2212 246.251 29.5587 246.584 30.4256ZM101.235 37.9712C100.949 40.8088 100.459 45.8569 100.144 49.189L99.5746 55.2467H117.981C138.261 55.2467 137.476 55.48 137.476 49.4502C137.476 47.8231 136.971 46.0768 136.354 45.5697C134.9 44.3743 104.694 32.8109 103.025 32.8109C102.137 32.8109 101.598 34.3635 101.235 37.9712ZM132.091 44.8832C135.003 45.9134 135.252 46.2993 135.506 50.1717L135.78 54.3493H118.571H101.364L102.015 44.7019C102.373 39.3963 102.826 34.7889 103.021 34.4649C103.216 34.14 109.13 36.1018 116.164 38.8228C123.196 41.5447 130.364 44.2711 132.091 44.8832ZM185.04 40.8878C185.04 45.4171 184.79 46.2724 183.469 46.2742C182.194 46.2751 181.899 45.4746 181.899 42.0114C181.899 37.9891 181.753 37.7298 179.339 37.4542C176.789 37.1626 176.781 37.176 177.096 41.717L177.411 46.2733H171.354L165.296 46.2724V40.8878V35.5032H175.168H185.04V40.8878ZM167.988 39.9904C167.988 42.4691 168.238 42.6827 171.129 42.6827C174.021 42.6827 174.27 42.4691 174.27 39.9904C174.27 37.5117 174.021 37.2981 171.129 37.2981C168.238 37.2981 167.988 37.5117 167.988 39.9904ZM93.6022 41.2872C93.8221 41.507 93.5125 48.4729 92.9148 56.7678C92.318 65.0628 91.8011 72.3544 91.7679 72.9709C91.7221 73.8163 88.363 74.0927 78.1431 74.0927H64.5802L65.1088 70.2786C65.3996 68.1805 66.0816 61.2146 66.6237 54.798C67.1666 48.3813 67.7697 42.627 67.9635 42.0096C68.2247 41.1831 71.5927 40.8878 80.76 40.8878C87.6038 40.8878 93.3823 41.0673 93.6022 41.2872ZM100.965 57.7442C99.7873 58.4936 97.4764 80.6152 98.4178 82.1373C99.2524 83.4888 132.679 83.3973 133.516 82.0413C134.824 79.926 136.565 59.4529 135.542 58.2208C134.799 57.3251 130.65 57.0451 118.296 57.055C109.348 57.0631 101.549 57.3727 100.965 57.7442ZM134.784 60.4069C134.785 61.2711 134.316 66.3192 133.741 71.6248L132.696 81.2722H116.132H99.5683L100.22 70.7274C100.579 64.9273 101.054 59.8792 101.278 59.5095C101.501 59.1397 109.131 58.8364 118.234 58.8364C133.397 58.8364 134.783 58.9683 134.784 60.4069ZM180.014 70.7139C180.557 71.0765 179.626 71.3789 177.945 71.387C174.908 71.4004 174.9 71.3888 176.576 69.5365C177.808 68.176 178.366 67.9938 178.644 68.8634C178.854 69.5185 179.471 70.3513 180.014 70.7139ZM185.04 69.6056C185.04 70.0992 185.871 70.503 186.887 70.503C187.903 70.503 188.486 70.0992 188.181 69.6056C187.875 69.112 187.044 68.7081 186.333 68.7081C185.621 68.7081 185.04 69.112 185.04 69.6056ZM189.54 72.7789C189.565 74.3234 191.206 76.3031 191.892 75.6157C192.26 75.2486 191.878 74.265 191.043 73.4304C190.21 72.5958 189.533 72.3023 189.54 72.7789ZM164.899 77.9068C164.223 80.127 162.678 101.307 163.137 102.05C163.717 102.988 200.028 103.073 200.606 102.137C200.835 101.767 197.931 95.9119 194.153 89.1256L187.283 76.7877L176.262 76.7868C168.224 76.785 165.147 77.0883 164.899 77.9068ZM90.498 81.4965C90.2144 83.5947 89.4902 91.4697 88.8898 98.9964L87.7967 112.682H76.3554C65.0639 112.682 64.8898 112.714 63.0546 115.047C61.4186 117.126 61.1942 118.65 61.1942 127.685C61.1942 135.51 60.9268 137.869 60.0724 137.579C58.7819 137.141 58.6976 138.91 61.625 104.812C62.8222 90.8585 64.0472 79.0456 64.346 78.5619C64.661 78.0531 70.3866 77.6824 77.9519 77.6824H91.0131L90.498 81.4965ZM193.158 79.5545C193.709 80.5838 194.338 81.247 194.557 81.029C195.184 80.4008 193.912 77.6824 192.989 77.6824C192.53 77.6824 192.607 78.5242 193.158 79.5545ZM192.941 89.7977L199.231 101.016H181.709H164.188L164.765 94.0605C165.082 90.2357 165.571 85.1876 165.852 82.8427L166.362 78.5799H176.507H186.652L192.941 89.7977ZM195.851 83.5157C195.829 84.8493 197.431 87.1288 197.994 86.5652C198.263 86.2969 197.893 85.2989 197.174 84.3477C196.455 83.3964 195.859 83.0221 195.851 83.5157ZM151.347 86.1569C150.865 90.5534 148.214 91.7461 146.411 88.378C145.598 86.8605 145.719 86.2762 147.052 85.2657C149.713 83.2492 151.623 83.645 151.347 86.1569ZM132.989 87.4653C132.989 87.9105 131.575 89.1085 129.848 90.1271C127.843 91.3108 126.707 92.6623 126.707 93.8667C126.707 94.9032 124.829 98.0469 122.535 100.851C120.242 103.657 117.477 107.853 116.393 110.177C113.181 117.069 112.49 117.585 110.031 114.932C108.239 112.998 107.168 112.682 102.403 112.682H96.8599L97.384 108.419C97.673 106.074 98.1585 100.724 98.4645 96.5285C98.7705 92.333 99.1797 88.396 99.3745 87.7785C99.7972 86.436 132.989 86.1273 132.989 87.4653ZM144.655 89.349C145.672 91.2489 145.018 91.6303 142.97 90.3326C142.29 89.9018 142.01 89.1004 142.35 88.5521C143.205 87.1674 143.552 87.2876 144.655 89.349ZM199.44 90.3236C199.991 91.353 200.62 92.0162 200.839 91.7981C201.466 91.1699 200.194 88.4516 199.271 88.4516C198.812 88.4516 198.889 89.2934 199.44 90.3236ZM142.498 91.5926C144.819 92.8266 147.263 93.8362 147.93 93.8362C148.597 93.8362 149.142 94.2293 149.142 94.7103C149.142 95.1913 150.302 96.1848 151.719 96.9171C153.603 97.8917 154.559 99.2962 155.276 102.145C156.813 108.247 160.812 112.992 167.037 116.103C170.046 117.607 172.198 119.028 171.82 119.26C171.44 119.493 168.858 119.556 166.082 119.399C160.124 119.066 154.386 116.397 150.264 112.044C147.644 109.277 147.487 108.825 148.723 107.588C150.029 106.283 153.63 99.8391 153.63 98.8079C153.63 97.0481 151.96 99.0045 150.215 102.81C149.082 105.278 147.801 107.298 147.365 107.298C146.931 107.298 145.841 105.012 144.942 102.218C142.801 95.5592 139.72 93.0608 135.703 94.7237C134.172 95.3582 132.532 96.603 132.057 97.4896C129.551 102.172 133.08 111.918 139.322 117.558C141.268 119.316 142.86 121.473 142.86 122.352C142.86 123.231 143.539 124.918 144.368 126.101C145.85 128.217 145.804 128.318 141.686 132.047C137.016 136.274 131.015 138.708 125.259 138.708C116.273 138.708 113.663 135.148 114.369 123.851C114.984 113.983 118.235 107.226 126.589 98.4472C132.652 92.0754 133.003 91.8538 136.521 92.1894C140.748 92.5923 141.229 91.9094 137.7 90.5148C136.139 89.8983 135.792 89.5052 136.755 89.4442C137.592 89.3921 140.177 90.3586 142.498 91.5926ZM132.54 91.283C131.553 91.8223 130.244 92.8912 129.632 93.6576C129.021 94.424 128.281 94.8117 127.987 94.5182C127.15 93.6809 131.018 90.2438 132.764 90.2734C134.13 90.2976 134.101 90.4295 132.54 91.283ZM202.133 94.2849C202.111 95.6185 203.713 97.8979 204.276 97.3344C204.545 97.066 204.175 96.0681 203.456 95.1168C202.737 94.1655 202.141 93.7913 202.133 94.2849ZM141.22 97.2015C141.952 98.0658 143.068 100.58 143.7 102.79C145.961 110.694 153.702 118.533 161.033 120.344C163.812 121.03 164.251 122.322 161.999 123.187C159.484 124.151 148.083 121.732 144.074 119.382C134.861 113.983 129.405 100.923 134.621 96.7528C136.616 95.1581 139.665 95.3654 141.22 97.2015ZM204.783 100.009C204.783 100.441 205.389 101.298 206.129 101.913C207.59 103.125 207.773 102.836 206.931 100.64C206.354 99.1373 204.783 98.6751 204.783 100.009ZM74.6736 101.486C75.2982 102.238 75.9937 102.669 76.2199 102.443C76.8418 101.821 75.5773 100.118 74.4932 100.118C73.8973 100.118 73.9655 100.633 74.6736 101.486ZM78.6573 101.076C77.6917 102.638 78.791 102.969 80.0223 101.486C80.7304 100.633 80.7986 100.118 80.2027 100.118C79.6786 100.118 78.9822 100.549 78.6573 101.076ZM74.6557 105.556C74.6557 106.078 75.0595 106.257 75.5531 105.951C76.0467 105.646 76.4505 105.219 76.4505 105.001C76.4505 104.783 76.0467 104.605 75.5531 104.605C75.0595 104.605 74.6557 105.033 74.6557 105.556ZM78.6941 105.503C78.9992 105.996 79.6526 106.4 80.1461 106.4C80.6397 106.4 80.7941 105.996 80.489 105.503C80.1838 105.009 79.5305 104.605 79.0369 104.605C78.5433 104.605 78.389 105.009 78.6941 105.503ZM208.556 106.36C209.793 108.342 210.666 108.095 209.858 105.99C209.565 105.228 208.907 104.605 208.393 104.605C207.803 104.605 207.862 105.249 208.556 106.36ZM209.379 118.964C212.774 125.134 215.551 130.687 215.551 131.304C215.552 132.165 211.237 132.422 196.931 132.412C186.689 132.404 177.754 132.047 177.077 131.618C176.136 131.022 175.883 128.468 176.004 120.814L176.164 110.79L173.647 112.197C172.262 112.969 170.464 114.074 169.65 114.651C167.318 116.303 163.501 113.386 163.501 109.952V107.264L183.354 107.505L203.207 107.746L209.379 118.964ZM238.812 110.663C238.618 119.489 236.544 137.247 235.672 137.537C234.944 137.778 220.224 112.658 218.394 108.051C218.229 107.637 222.773 107.298 228.49 107.298H238.885L238.812 110.663ZM211.065 110.778C211.065 111.21 211.671 112.067 212.411 112.682C213.872 113.895 214.055 113.605 213.213 111.41C212.636 109.906 211.065 109.444 211.065 110.778ZM178.174 114.557C180.158 117.389 180.175 125.495 178.202 127.468C177.402 128.268 176.951 129.123 177.198 129.37C178.156 130.329 180.417 126.911 180.963 123.675C181.619 119.79 179.863 113.485 177.95 112.855C176.982 112.538 177.034 112.929 178.174 114.557ZM107.66 114.977C109.587 116.326 109.655 116.889 109.655 131.4C109.655 141.89 109.331 146.75 108.579 147.503C107.013 149.068 66.6309 149.023 64.4842 147.453C63.1156 146.452 62.9711 144.629 63.191 131.1L63.4378 115.874L65.6814 114.74C67.2743 113.935 73.3957 113.602 86.7952 113.593C102.437 113.582 106.007 113.818 107.66 114.977ZM214.696 117.247C215.247 118.276 215.917 118.899 216.185 118.631C216.924 117.892 215.74 115.374 214.651 115.374C213.988 115.374 214.001 115.948 214.696 117.247ZM75.3799 117.84C81.4546 117.996 91.1468 117.995 96.9182 117.839C102.69 117.683 97.7196 117.556 85.8736 117.556C74.0275 117.557 69.3052 117.684 75.3799 117.84ZM112.43 121.734L111.564 123.9L111.507 121.582C111.476 120.307 111.745 118.969 112.105 118.609C113.171 117.544 113.364 119.399 112.43 121.734ZM80.9108 120.983C76.4748 123.224 73.2009 127.457 72.3358 132.07C71.9167 134.301 72.3268 136.234 73.8839 139.373C76.7171 145.083 80.7483 147.682 86.771 147.682C94.8757 147.682 100.831 141.839 100.831 133.885C100.831 127.248 97.4621 122.536 91.093 120.265C86.4174 118.597 85.5074 118.661 80.9108 120.983ZM217.347 120.983C217.347 121.789 217.778 122.715 218.305 123.039C219.844 123.991 219.994 123.139 218.62 121.259C217.555 119.803 217.347 119.758 217.347 120.983ZM87.2197 121.657C87.2197 122.15 87.042 122.554 86.8239 122.554C86.6059 122.554 86.1787 122.15 85.8736 121.657C85.5684 121.163 85.747 120.759 86.2693 120.759C86.7916 120.759 87.2197 121.163 87.2197 121.657ZM169.783 121.657C170.782 122.303 170.249 122.53 167.711 122.54C165.658 122.549 164.514 122.196 164.847 121.657C165.548 120.522 168.028 120.522 169.783 121.657ZM151.502 123.574C154.393 124.302 155.424 125.006 155.424 126.25C155.424 127.633 154.748 127.939 151.681 127.939C147.541 127.939 144.655 125.999 144.655 123.216C144.655 121.966 145.074 121.625 146.117 122.025C146.921 122.334 149.344 123.03 151.502 123.574ZM80.086 125.492C79.7217 127.107 78.9194 129.371 78.3037 130.522C76.8678 133.205 77.7446 137.976 80.0582 140.07C81.0355 140.954 81.8351 142.674 81.8351 143.892C81.8351 145.982 81.722 146.032 79.8159 144.783C72.7657 140.163 71.7677 130.994 77.6163 124.573C80.1587 121.782 80.8632 122.045 80.086 125.492ZM96.5269 125.272C101.114 130.723 100.44 139.172 95.0561 143.715C92.1933 146.131 92.152 146.137 91.8666 144.213C91.7006 143.091 92.5585 141.096 93.8858 139.518C96.6544 136.227 96.8114 133.001 94.3955 129.039C92.5271 125.974 92.0138 122.554 93.4218 122.554C93.8714 122.554 95.2687 123.777 96.5269 125.272ZM164.847 124.349C163.86 124.773 162.447 125.12 161.706 125.12C160.858 125.12 161.023 124.835 162.155 124.349C163.142 123.924 164.556 123.578 165.296 123.578C166.144 123.578 165.979 123.862 164.847 124.349ZM159.527 125.631C161.339 127.443 161.133 127.939 158.565 127.939C156.92 127.939 156.322 127.46 156.322 126.144C156.322 124.041 157.715 123.818 159.527 125.631ZM114.62 135.736L116.128 138.037L113.817 136.354C111.798 134.881 111.517 134.048 111.584 129.733L111.661 124.798L112.387 129.117C112.786 131.492 113.791 134.471 114.62 135.736ZM167.54 127.041C165.662 129.116 162.604 129.435 162.604 127.555C162.604 126.279 164.212 125.548 167.454 125.35C169.107 125.25 169.11 125.305 167.54 127.041ZM220.068 125.748C220.052 126.27 220.633 127.482 221.357 128.44C222.082 129.398 222.688 129.755 222.703 129.232C222.719 128.709 222.138 127.498 221.414 126.539C220.689 125.582 220.083 125.225 220.068 125.748ZM172.211 129.298C172.109 129.343 170.937 130.06 169.606 130.893C166.741 132.683 165.718 131.71 167.616 128.999C168.748 127.384 169.239 127.247 170.679 128.146C171.622 128.735 172.311 129.253 172.211 129.298ZM81.9599 135.229C81.6664 139.538 81.5201 139.821 80.3894 138.275C78.2957 135.411 79.0674 127.809 81.267 129.634C81.8737 130.137 82.1528 132.395 81.9599 135.229ZM89.0146 136.4C89.0146 141.135 88.8961 141.4 86.771 141.4C84.636 141.4 84.5274 141.149 84.5274 136.195C84.5274 130.45 85.7712 128.157 87.7905 130.176C88.5317 130.917 89.0146 133.373 89.0146 136.4ZM94.3991 133.653C94.3991 135.257 93.8059 137.353 93.0817 138.312C91.8666 139.918 91.7616 139.698 91.7356 135.492C91.7194 132.983 91.9653 130.672 92.2803 130.356C93.4039 129.233 94.3991 130.781 94.3991 133.653ZM171.084 134.641C168.759 140.204 169.209 141.122 175.703 144.066C178.959 145.542 184.195 148.586 187.34 150.83C192.668 154.632 192.989 155.056 192.073 157.068C191.532 158.255 189.9 159.719 188.448 160.321C186.996 160.923 184.052 163.17 181.908 165.315C178.667 168.555 177.777 170.228 176.639 175.218C175.149 181.747 175.315 182.861 177.664 182.11C179.64 181.478 175.726 184.854 172.027 186.973C169.793 188.252 166.365 188.565 151.903 188.81C142.316 188.972 133.229 188.867 131.711 188.575C129.924 188.232 128.283 187.015 127.058 185.121C125.399 182.558 125.328 182.045 126.486 180.963C127.513 180.004 127.67 178.519 127.191 174.289C126.091 164.564 122.154 158.369 115.989 156.655C111.667 155.456 95.2346 155.523 90.3167 156.761C87.9699 157.352 84.6728 159.228 82.2811 161.334C78.5021 164.66 78.2867 164.74 79.133 162.515C80.751 158.26 81.906 156.594 82.8375 157.171C83.3401 157.48 83.9593 156.935 84.2151 155.959C85.187 152.242 87.8694 151.969 116.606 152.66C131.539 153.019 143.758 153.588 143.758 153.924C143.758 154.262 142.185 156.646 140.262 159.223C138.339 161.799 136.271 165.103 135.667 166.564C134.643 169.035 134.796 169.499 137.872 173.253C139.69 175.472 140.916 177.711 140.595 178.229C140.276 178.747 140.502 179.759 141.098 180.478C141.948 181.501 144.752 181.784 154.029 181.784H165.875L168.277 178.114C171.123 173.768 171.365 168.805 169.45 153.964C168.258 144.714 168.194 134.272 169.319 132.451C169.632 131.944 170.451 131.528 171.137 131.528C172.191 131.528 172.183 132.009 171.084 134.641ZM185.056 140.148C188.955 144.204 190.201 146.101 189.848 147.447C189.526 148.681 190.03 149.727 191.415 150.697C192.538 151.484 193.259 152.325 193.018 152.568C192.775 152.809 190.578 151.56 188.136 149.791C185.692 148.023 180.754 145.159 177.162 143.427C170.091 140.02 170.047 139.919 173.076 133.967L174.346 131.472L177.067 133.07C178.563 133.95 182.158 137.134 185.056 140.148ZM222.357 133.003C221.503 135.231 222.445 135.535 223.588 133.4C224.139 132.37 224.215 131.528 223.756 131.528C223.299 131.528 222.669 132.191 222.357 133.003ZM216.691 134.842C217.564 135.07 218.776 135.055 219.383 134.809C219.991 134.563 219.277 134.378 217.796 134.396C216.315 134.413 215.818 134.614 216.691 134.842ZM185.713 135.712C186.33 135.962 187.34 135.962 187.956 135.712C188.574 135.463 188.068 135.26 186.834 135.26C185.6 135.26 185.096 135.463 185.713 135.712ZM191.995 135.712C192.612 135.962 193.622 135.962 194.238 135.712C194.856 135.463 194.35 135.26 193.116 135.26C191.882 135.26 191.378 135.463 191.995 135.712ZM125.325 143.622C128.266 144.374 133.593 144.99 137.163 144.99C143.925 144.99 146.176 146.145 143.389 148.183C141.167 149.808 115.669 149.99 114.404 148.39C113.9 147.754 113.264 144.942 112.99 142.142L112.491 137.051L116.234 139.653C118.292 141.084 122.383 142.87 125.325 143.622ZM89.0146 144.99C89.0146 146.261 88.416 146.785 86.963 146.785C85.5101 146.785 84.9124 146.261 84.9124 144.99C84.9124 143.718 85.5101 143.195 86.963 143.195C88.416 143.195 89.0146 143.718 89.0146 144.99ZM151.626 145.887C150.965 146.946 149.534 147.682 148.134 147.682C146.516 147.682 145.613 147.111 145.292 145.887C144.876 144.292 145.265 144.092 148.785 144.092C152.523 144.092 152.684 144.194 151.626 145.887ZM150.04 148.804C150.04 148.928 149.441 151.856 148.709 155.31C147.978 158.765 147.372 163.512 147.363 165.859C147.347 170.487 144.959 175.959 142.959 175.954C142.273 175.953 140.507 174.462 139.034 172.642C135.733 168.564 136.054 166.693 141.162 160.231C144.269 156.3 144.781 155.085 144.377 152.596C144.113 150.969 144.135 149.399 144.425 149.108C144.927 148.606 150.04 148.33 150.04 148.804ZM207.267 152.82C208.88 153.019 211.303 153.015 212.652 152.811C214.001 152.605 212.68 152.442 209.719 152.447C206.757 152.452 205.654 152.62 207.267 152.82ZM118.721 159.585C121.867 161.68 124.393 165.865 125.35 170.566L125.898 173.259L124.638 170.549C123.945 169.06 121.892 166.536 120.076 164.94L116.772 162.041H103.313C88.6592 162.041 85.2893 162.809 80.7133 167.192C77.2816 170.479 77.6136 168.207 81.154 164.175C86.036 158.615 89.4803 157.596 103.465 157.573C114.667 157.556 115.923 157.721 118.721 159.585ZM211.962 158.451C211.962 159.009 217.048 159.349 225.424 159.349C233.8 159.349 238.885 159.009 238.885 158.451C238.885 157.893 233.8 157.554 225.424 157.554C217.048 157.554 211.962 157.893 211.962 158.451ZM169.42 173.238C168.68 176.186 167.103 176.101 164.083 172.949C162.082 170.86 161.857 170.212 162.851 169.387C163.518 168.834 165.048 166.271 166.251 163.694L168.437 159.008L169.212 164.991C169.639 168.282 169.732 171.993 169.42 173.238ZM198.278 161.294C201.148 162.017 203.637 163.54 206.303 166.206C212.111 172.013 211.66 172.81 202.571 172.81C195.363 172.81 194.813 172.952 191.821 175.579C189.206 177.874 181.713 180.662 177.636 180.855C176.623 180.903 176.815 179.018 178.346 173.864C179.863 168.753 184.355 163.544 188.98 161.531C192.459 160.017 193.137 159.999 198.278 161.294ZM116.771 164.511C120.737 166.533 123.082 169.791 124.465 175.203L125.573 179.541L123.038 179.819C120.504 180.097 87.7178 176.094 81.9024 174.796C80.2117 174.418 78.6708 173.638 78.4787 173.061C77.8972 171.316 83.8418 165.64 87.6684 164.286C93.2065 162.328 112.787 162.479 116.771 164.511ZM152.732 170.653C152.732 172.546 150.862 173.12 149.412 171.67C148.546 170.803 148.284 169.613 148.683 168.357C149.276 166.489 149.385 166.469 151.019 167.948C151.961 168.8 152.732 170.018 152.732 170.653ZM160.276 168.576C160.956 169.655 160.901 170.384 160.078 171.207C159.158 172.128 158.777 172.089 158.093 171.008C156.896 169.114 157.016 166.311 158.277 166.731C158.859 166.925 159.758 167.755 160.276 168.576ZM154.691 171.21C154.048 171.853 153.63 171.906 153.63 171.345C153.63 170.146 154.691 169.085 155.29 169.684C155.545 169.939 155.275 170.626 154.691 171.21ZM199.398 183.335C199.398 186.912 196.885 186.81 193.061 183.076L189.542 179.64L191.497 177.558L193.453 175.477L196.426 178.358C198.12 179.999 199.398 182.141 199.398 183.335ZM202.854 177.77C209.451 183.322 205.753 192.912 197.014 192.912C193.107 192.912 189.66 189.581 188.933 185.101C188.215 180.674 189.773 180.788 192.668 185.374C194.466 188.223 195.474 188.964 197.551 188.964C200.792 188.964 202.988 186.883 202.988 183.81C202.988 181.316 200.728 178.195 198.92 178.195C198.317 178.195 197.321 177.589 196.706 176.848C194.726 174.462 199.832 175.228 202.854 177.77ZM90.6685 177.805C91.224 178.27 83.3904 183.579 82.1492 183.579C80.664 183.579 80.5976 181.719 81.9742 178.697C82.9102 176.642 83.3652 176.477 86.6857 176.985C88.7067 177.294 90.4989 177.663 90.6685 177.805ZM147.482 179.043L150.352 180.788L146.393 180.613C143.42 180.482 142.358 180.047 142.132 178.868C141.732 176.781 143.879 176.851 147.482 179.043ZM166.028 178.868C165.846 179.824 164.749 180.551 163.221 180.727C160.889 180.995 160.795 180.885 161.874 179.157C163.32 176.842 166.453 176.624 166.028 178.868ZM98.3568 180.647C96.3708 182.633 97.1659 186.264 100.057 188.415C102.487 190.22 102.671 190.231 105.29 188.728C110.309 185.847 112.234 187.072 108.38 190.692C105.961 192.965 101.266 193.41 98.0212 191.674C92.7613 188.859 92.7335 177.458 97.9898 178.832C99.5369 179.237 99.5755 179.429 98.3568 180.647ZM101.445 181.666C100.067 183.871 101.057 186.271 103.346 186.271C104.348 186.271 105.168 186.702 105.168 187.228C105.168 188.857 100.504 187.722 99.2246 185.781C98.1935 184.219 98.2195 183.649 99.3978 181.967C101.077 179.569 102.924 179.298 101.445 181.666ZM124.909 184.471C126.315 186.195 127.373 187.698 127.26 187.812C127.146 187.925 121.524 187.363 114.765 186.562C104.417 185.337 102.476 184.869 102.476 183.595C102.476 180.993 103.571 180.729 113.086 181.036L122.351 181.336L124.909 184.471ZM202.091 183.568C202.091 185.868 199.678 188.088 197.316 187.962C195.495 187.865 195.484 187.828 197.155 187.417C200.057 186.704 201.365 185.176 200.947 182.988C200.731 181.862 200.901 181.154 201.323 181.415C201.745 181.677 202.091 182.645 202.091 183.568Z" fill="black"/>
</g>
</svg>
