<svg width="40" height="40" viewBox="0 0 40 40" fill="none" xmlns="http://www.w3.org/2000/svg">
<mask id="mask0_414_7422" style="mask-type:alpha" maskUnits="userSpaceOnUse" x="0" y="0" width="40" height="40">
<rect y="-6.10352e-05" width="40" height="40" fill="white"/>
</mask>
<g mask="url(#mask0_414_7422)">
<path fill-rule="evenodd" clip-rule="evenodd" d="M35.6919 0.181895C35.0342 0.529069 34.8917 0.86968 34.7217 2.50053C34.6772 2.92686 34.6693 2.93788 33.7335 3.88751L32.7901 4.84472H32.3617C31.939 4.84472 31.9261 4.85168 31.3881 5.37107L30.8429 5.89742L30.0321 5.87163C29.2509 5.84679 29.2139 5.85311 29.0221 6.04495C28.7833 6.28374 28.7613 6.62678 28.9685 6.88253C29.1021 7.04748 29.1867 7.06444 30.0038 7.08967C31.2208 7.12726 31.3189 7.10085 31.8751 6.58599L32.3502 6.14606L33.1022 6.89792L33.854 7.64986L33.448 8.07916C33.2247 8.3153 33.0069 8.60066 32.9641 8.71334C32.9213 8.82602 32.8862 9.35151 32.8862 9.88106C32.8862 10.678 32.8523 10.9609 32.6895 11.5225C32.4892 12.2142 32.2254 12.8152 32.1228 12.8147C31.988 12.8139 31.2024 12.1106 30.8202 11.6486L30.4048 11.1465L30.5512 10.9062C30.7254 10.6208 30.7403 10.231 30.5883 9.93943C30.5278 9.82339 30.1835 9.44137 29.8232 9.09036C28.9509 8.24083 28.5959 8.163 27.996 8.68974L27.7262 8.92658L27.1384 8.83914C26.815 8.79109 26.3849 8.7503 26.1825 8.7485L25.8145 8.74538L26.0709 8.52596C26.2119 8.40531 26.5565 8.17246 26.8368 8.0086C27.1171 7.84466 27.3797 7.64829 27.4204 7.57211C27.6078 7.22204 27.3922 6.77579 26.9866 6.67405C26.6471 6.5888 25.4646 7.34222 24.5516 8.22543C24.0709 8.69044 24.1694 8.69966 22.602 8.04431C21.9955 7.79067 21.2936 7.52968 21.0423 7.4642C20.455 7.3112 19.5277 7.31214 18.936 7.46631C18.3563 7.61727 16.4955 8.39812 16.3053 8.57011C16.1344 8.72482 16.1212 9.12435 16.2797 9.35049C16.5044 9.67133 16.7225 9.64453 17.9047 9.15108C19.7396 8.38507 20.1875 8.36734 21.6985 9.00058C23.4203 9.72228 23.8644 9.84207 25.1213 9.92349C25.7605 9.96482 26.3698 9.99944 26.4755 10.0003C26.6598 10.0019 26.6546 10.0154 26.3478 10.334C25.5876 11.1237 25.6453 11.4199 26.7741 12.5219C27.4292 13.1615 27.4956 13.2057 27.8022 13.2057C28.2367 13.2057 28.3757 13.1254 28.9989 12.5151L29.5265 11.9983L29.7748 12.309C30.2499 12.9033 30.8218 13.4059 31.8526 14.1352C33.2952 15.156 33.6016 15.547 33.7152 16.5132L33.7672 16.9564H19.9931H6.21907L6.27111 16.5132C6.37449 15.634 6.70401 15.1569 7.70646 14.4351L8.32877 13.9871H9.82811C11.4943 13.9871 11.6862 13.9427 11.9126 13.5049C12.0637 13.2127 12.1437 12.2308 12.0667 11.6142C12.0283 11.3071 11.9488 11.098 11.8061 10.9284L11.6007 10.6843L11.8314 10.5002C12.1793 10.2225 12.6809 10.0789 13.5547 10.0068C14.4223 9.93513 14.6514 9.85215 14.7585 9.57037C14.8476 9.33611 14.7186 8.93432 14.5203 8.8282C14.3192 8.72053 13.4203 8.73787 12.7196 8.8629C11.8876 9.01128 11.3047 9.31923 10.6167 9.97381L10.0303 10.5316L9.08914 10.5599C7.6352 10.6033 7.46181 10.776 7.43336 12.2086L7.41508 13.133L6.79184 13.6025C5.60271 14.4986 5.18193 15.1915 5.03143 16.5014L4.98048 16.945L3.40308 16.9702C1.91436 16.994 1.80379 17.0062 1.437 17.1867C0.566919 17.6149 0.049088 18.4066 0.00329815 19.3787C-0.0484303 20.4782 0.51105 21.4041 1.48967 21.8383C1.76042 21.9585 1.9932 22.0662 2.00703 22.0777C2.02086 22.0892 1.81981 22.6093 1.56031 23.2335C0.990905 24.603 0.892449 24.9687 0.951054 25.4978C1.02122 26.1311 4.16705 36.435 4.49773 37.1147C4.88484 37.9103 5.73891 38.7635 6.55312 39.168C7.68622 39.731 6.76722 39.695 19.9931 39.695C33.2081 39.695 32.2892 39.7307 33.4314 39.1729C34.2379 38.779 35.0967 37.9199 35.4889 37.1147C35.8292 36.4159 38.9613 26.1211 39.0306 25.4736C39.0884 24.9339 39.0051 24.6262 38.4203 23.2199C38.164 22.6032 37.9654 22.0892 37.9792 22.0777C37.9931 22.0662 38.2259 21.9585 38.4966 21.8383C40.1185 21.1187 40.5154 18.9554 39.2566 17.6967C39.0813 17.5214 38.7631 17.2919 38.5493 17.1867C38.1824 17.0061 38.072 16.994 36.5822 16.9702L35.0038 16.945L34.9566 16.5795C34.9308 16.3785 34.8913 16.0859 34.8691 15.9293C34.7879 15.357 34.389 14.6837 33.7819 14.094L33.2019 13.5307L33.4762 12.9289C33.9533 11.8818 34.078 11.3321 34.1012 10.1719L34.122 9.13068L34.6444 8.58964L35.1667 8.04868L35.14 7.61743L35.1132 7.18626L36.0508 6.25303L36.9885 5.31981L37.8871 5.23175C38.939 5.12876 39.3915 4.93302 39.7397 4.4305C39.9316 4.15358 39.9578 4.04449 39.9578 3.52299C39.9578 2.99977 39.9316 2.8917 39.7343 2.60094C39.4702 2.21165 38.8606 1.87542 38.4188 1.87542C38.1277 1.87542 38.1215 1.86932 38.1198 1.58239C38.1165 1.01182 37.6997 0.385839 37.1492 0.124619C36.7564 -0.0617446 36.105 -0.0361929 35.6919 0.181895ZM36.6976 1.29382C36.8551 1.40408 36.8713 1.48073 36.8713 2.11429C36.8713 3.06884 36.9408 3.13901 37.8659 3.11862C38.4802 3.1051 38.5526 3.1194 38.6824 3.27966C38.8665 3.50705 38.8621 3.56433 38.6434 3.78304C38.4876 3.93869 38.3517 3.97237 37.6861 4.01957C36.4583 4.10662 36.488 4.09099 35.3107 5.27152L34.258 6.32719L33.9636 6.03979L33.6694 5.75247L34.7524 4.6532C35.9438 3.44399 35.8764 3.57136 35.9736 2.34425C36.0417 1.48347 36.0848 1.32594 36.2731 1.24999C36.5038 1.15692 36.5019 1.15677 36.6976 1.29382ZM28.6477 11.1529L27.8881 11.9125L27.5341 11.5652L27.1801 11.2178L27.9417 10.4534L28.7032 9.68891L29.0553 10.0411L29.4074 10.3932L28.6477 11.1529ZM19.457 9.90192C19.2421 9.94271 17.9989 11.1093 17.8372 11.4221C17.6961 11.6951 17.6968 12.0622 17.8389 12.3305C17.9004 12.4465 18.4219 13.0098 18.9978 13.5821C20.4621 15.0374 20.6592 15.0612 21.8008 13.9195C22.5153 13.2051 22.6552 12.924 22.5349 12.4444C22.4664 12.171 20.4383 10.1023 20.0933 9.95388C19.838 9.84402 19.7851 9.83972 19.457 9.90192ZM23.7099 11.1227C23.4323 11.4003 23.4347 11.8072 23.7153 12.0279C23.9884 12.2428 24.2553 12.2324 24.4897 11.998C24.8516 11.6362 24.669 11.0686 24.1592 10.9702C23.9586 10.9314 23.8717 10.9609 23.7099 11.1227ZM14.3422 11.8672C13.5912 12.6347 13.5175 12.832 13.8557 13.1701C14.2122 13.5267 14.4535 13.4447 15.1947 12.7151C15.7737 12.1452 15.8517 12.0354 15.8517 11.7911C15.8517 11.446 15.5888 11.174 15.2553 11.174C15.0629 11.174 14.8978 11.2994 14.3422 11.8672ZM20.9288 13.0884L20.5767 13.4406L19.7989 12.6598L19.0212 11.8791L19.3685 11.5252L19.7159 11.1712L20.4984 11.9537L21.281 12.7363L20.9288 13.0884ZM10.8508 12.3071V12.815H9.75685H8.66289V12.3071V11.7992H9.75685H10.8508V12.3071ZM24.2482 13.4756C23.91 13.8137 23.9837 14.0111 24.7347 14.7785C25.278 15.3337 25.4579 15.4717 25.6385 15.4717C25.9543 15.4717 26.1369 15.3553 26.2271 15.0967C26.3428 14.7648 26.1907 14.4965 25.5203 13.8503C24.8521 13.2062 24.5937 13.1301 24.2482 13.4756ZM12.5308 14.7006C12.1314 14.9239 12.0596 15.3593 12.371 15.6706C12.7513 16.051 13.3513 15.7897 13.3513 15.2437C13.3513 14.7967 12.8969 14.4958 12.5308 14.7006ZM16.0471 14.6988C15.6471 14.9267 15.576 15.3593 15.8873 15.6706C16.0687 15.852 16.1278 15.8624 16.9769 15.8624C17.8057 15.8624 17.891 15.8483 18.0874 15.6794C18.3565 15.4479 18.3749 15.0691 18.1289 14.8227C17.9759 14.6695 17.864 14.6491 17.0805 14.6305C16.5301 14.6176 16.1452 14.643 16.0471 14.6988ZM28.9401 14.7006C28.5407 14.9239 28.4689 15.3593 28.7803 15.6706C29.0147 15.905 29.2816 15.9153 29.5547 15.7004C30.0737 15.2922 29.5132 14.3802 28.9401 14.7006ZM38.0699 18.3165C38.5058 18.5329 38.7806 18.9868 38.7781 19.486C38.7756 19.9727 38.6069 20.3143 38.2254 20.6053L37.9384 20.8243H19.9931H2.0479L1.76089 20.6053C1.38106 20.3157 1.21063 19.9728 1.20821 19.4932C1.20493 18.8643 1.60758 18.3472 2.21473 18.2007C2.3446 18.1694 10.3976 18.1491 20.1103 18.1557C37.3108 18.1672 37.7777 18.1714 38.0699 18.3165ZM37.2272 23.5201C37.8927 25.1035 37.9119 25.2511 37.5886 26.2941L37.3708 26.9973L24.3647 27.0364C14.3201 27.0665 11.3207 27.0972 11.1921 27.1709C10.8699 27.3557 10.8349 27.809 11.1208 28.0948L11.3125 28.2866H24.131C31.1812 28.2866 36.949 28.313 36.9484 28.3452C36.9478 28.3775 36.7784 28.9664 36.572 29.6541L36.1966 30.9043H19.9931H3.78971L3.41433 29.6541C3.20788 28.9664 3.03848 28.3775 3.03785 28.3452C3.0373 28.313 4.42733 28.2866 6.12687 28.2866H9.21698L9.40873 28.0948C9.65167 27.8519 9.65276 27.5747 9.41202 27.2947L9.22354 27.0755L5.91949 27.0364L2.61551 26.9973L2.39758 26.2941C2.04595 25.1591 2.01985 25.2811 3.22836 22.4065L3.35166 22.1132L20.002 22.133L36.6524 22.1527L37.2272 23.5201ZM35.7774 32.2C35.7774 32.4268 34.5617 36.2679 34.3821 36.6085C34.1162 37.113 33.4266 37.8002 32.9081 38.0775C32.0535 38.5346 32.4728 38.5202 19.9931 38.5202C7.56354 38.5202 7.96956 38.5338 7.09408 38.0901C6.58359 37.8314 5.88003 37.1318 5.60419 36.6085C5.42463 36.2679 4.20893 32.4268 4.20893 32.2C4.20893 32.1397 8.72314 32.1155 19.9931 32.1155C31.2631 32.1155 35.7774 32.1397 35.7774 32.2Z" fill="black"/>
</g>
</svg>
