<svg width="40" height="40" viewBox="0 0 40 40" fill="none" xmlns="http://www.w3.org/2000/svg">
<mask id="mask0_414_7449" style="mask-type:alpha" maskUnits="userSpaceOnUse" x="0" y="0" width="40" height="40">
<rect y="-3.05176e-05" width="40" height="40" fill="white"/>
</mask>
<g mask="url(#mask0_414_7449)">
<path fill-rule="evenodd" clip-rule="evenodd" d="M17.3802 2.02719C17.2083 2.04391 16.6633 2.09501 16.1691 2.14071C11.7814 2.54693 7.55375 3.71207 4.8482 5.26069C2.85437 6.40191 1.57985 7.66128 0.77468 9.28592C0.263918 10.3163 0.0685046 11.084 0.0188895 12.255C-0.0168177 13.0963 -0.00275361 13.2406 0.155702 13.6595C0.414091 14.3426 1.13644 15.0453 1.85215 15.3099C1.86356 15.314 1.77566 15.525 1.65681 15.7787C1.46312 16.1923 1.44109 16.3245 1.44343 17.0603C1.44554 17.7289 1.47687 17.9477 1.61282 18.2434L1.77964 18.606L1.56094 18.8155C1.00908 19.3442 0.650681 20.46 0.727956 21.409C0.800855 22.3048 1.02666 22.7981 1.63447 23.39C2.10929 23.8525 2.16117 23.9345 2.20328 24.2886C2.22875 24.503 2.32041 24.8432 2.4069 25.0448L2.56418 25.4112L2.17734 25.5398C1.24302 25.85 0.363539 26.7096 0.111322 27.5589C-0.0367419 28.0573 -0.0371326 29.162 0.110306 30.0714C0.401824 31.8685 1.20676 33.4722 2.48464 34.8017C2.9379 35.2733 3.04158 35.3436 3.28388 35.3436C3.63782 35.3436 3.90207 35.082 3.90207 34.7314C3.90207 34.5321 3.81206 34.3891 3.46257 34.0332C2.00842 32.5524 1.26005 30.7724 1.23872 28.7443C1.22958 27.8713 1.33639 27.5917 1.85277 27.1371C2.4101 26.6466 2.70764 26.5926 4.8539 26.5926H6.7149L6.71677 28.1748C6.71787 29.045 6.7535 29.9079 6.79608 30.0923C7.00384 30.9932 7.60274 31.7559 8.41736 32.1572C8.86663 32.3786 9.03384 32.4172 9.64289 32.4397C10.2133 32.4608 10.4319 32.4344 10.7861 32.3015C11.7056 31.9568 12.3218 31.3625 12.6776 30.4774C12.8152 30.135 12.8483 29.844 12.884 28.6651L12.9266 27.2607L13.2527 27.2053C13.6432 27.1388 13.9673 26.9803 14.1694 26.7568C14.3126 26.5988 14.3873 26.5926 16.1647 26.5926H18.0111L18.3989 26.9886C19.3072 27.9163 20.3527 28.3998 21.4822 28.4145C22.7088 28.4306 23.6304 28.0559 24.6299 27.1349L25.2185 26.5926H31.1123C37.4969 26.5926 37.447 26.5896 38.0088 27.018C38.4483 27.3532 38.6694 27.7068 38.7595 28.2189C38.8574 28.7747 39.0299 28.9679 39.428 28.9679C39.7968 28.9679 40 28.7229 40 28.278C40 27.1734 39.0935 26.0093 37.8923 25.5713L37.4342 25.4043L37.5876 25.0462C37.6721 24.8492 37.763 24.5285 37.7897 24.3334C37.831 24.0325 37.9011 23.9215 38.2532 23.5997C39.041 22.8797 39.4286 21.6426 39.2244 20.5C39.1101 19.86 38.7772 19.1439 38.4472 18.8278L38.2182 18.6083L38.3864 18.2445C38.5247 17.9451 38.5545 17.7353 38.5545 17.0603C38.5545 16.3275 38.5315 16.1905 38.3386 15.7787C38.2197 15.525 38.1318 15.314 38.1432 15.3099C38.8589 15.0453 39.5813 14.3426 39.8397 13.6595C39.9981 13.2406 40.0122 13.0963 39.9765 12.255C39.9284 11.1196 39.7353 10.3301 39.2694 9.36405C37.8665 6.45504 34.5382 4.33972 29.3738 3.07489C28.272 2.80501 25.8378 2.37105 25.4259 2.37105C25.0688 2.37105 24.842 2.59874 24.842 2.95706C24.842 3.29054 25.0486 3.51837 25.4041 3.5769C28.9778 4.16548 30.8124 4.63428 32.7988 5.46657C35.6407 6.65725 37.5673 8.35026 38.345 10.3407C38.6015 10.9969 38.7473 11.7375 38.7574 12.4353C38.7684 13.1847 38.6314 13.5278 38.1761 13.8908L37.8758 14.1302H19.9977H2.11952L1.81925 13.8903C1.30521 13.4795 1.22965 13.2496 1.26888 12.2159C1.32052 10.8561 1.67549 9.90458 2.57825 8.70655C3.31857 7.7241 4.41073 6.85556 5.86574 6.0925C9.68407 4.08977 16.3369 2.92924 22.124 3.25647L23.2736 3.32148L23.4718 3.12325C23.8134 2.78173 23.7024 2.31792 23.2339 2.12899C23.0129 2.03984 18.1256 1.95491 17.3802 2.02719ZM19.4507 4.73461C18.812 5.17067 18.3187 6.76883 18.5963 7.50329C18.7859 8.00522 19.4536 8.46207 19.9977 8.46207C20.5417 8.46207 21.2095 8.00522 21.3991 7.50329C21.6766 6.76883 21.1834 5.17067 20.5446 4.73461C20.3918 4.6303 20.1694 4.55881 19.9977 4.55881C19.8259 4.55881 19.6036 4.6303 19.4507 4.73461ZM10.5825 4.73156C10.0149 4.93088 9.21058 5.73941 8.94305 6.37964C8.54495 7.33241 9.25191 8.38738 10.2884 8.38738C11.354 8.38738 11.9499 7.56673 11.9499 6.09961C11.9499 5.37578 11.8079 5.00362 11.4483 4.7843C11.1824 4.62217 10.9368 4.60717 10.5825 4.73156ZM28.358 4.92572C27.9776 5.12184 27.7918 5.50931 27.8383 6.00991C27.9135 6.82079 28.6419 7.99272 29.2193 8.23181C29.3545 8.28783 29.6471 8.31393 29.9193 8.29424C30.2924 8.26721 30.4456 8.21306 30.6758 8.02671C31.4928 7.36546 31.4578 6.19431 30.6023 5.56361C29.7526 4.93729 28.8392 4.67765 28.358 4.92572ZM10.7358 6.33636C10.6136 7.06418 10.4265 7.33194 10.1819 7.12903C9.99817 6.97643 10.0626 6.75625 10.3971 6.39324C10.5745 6.20079 10.7343 6.04335 10.7523 6.04335C10.7703 6.04335 10.7628 6.17524 10.7358 6.33636ZM20.1503 6.38175C20.2024 6.56787 20.2333 6.82282 20.219 6.94822C20.198 7.13246 20.1555 7.1763 19.9977 7.1763C19.8399 7.1763 19.7973 7.13246 19.7763 6.94822C19.7475 6.6953 19.907 6.04335 19.9977 6.04335C20.0295 6.04335 20.0982 6.19564 20.1503 6.38175ZM29.8332 6.55537C30.111 6.78907 30.1253 6.84337 29.9544 7.01433C29.8645 7.10418 29.7933 7.11637 29.6879 7.05996C29.5301 6.97549 29.2668 6.57701 29.1803 6.29166C29.1262 6.11321 29.1291 6.11219 29.3574 6.23017C29.485 6.2962 29.6991 6.44254 29.8332 6.55537ZM15.1113 8.68733C14.7055 8.87563 14.2005 9.45156 13.8925 10.0773C13.683 10.5029 13.6543 10.634 13.6833 11.0342C13.7406 11.8261 14.2398 12.3485 15.0091 12.4217C15.524 12.4707 15.9997 12.2512 16.3599 11.7983C16.598 11.499 16.5989 11.4943 16.5989 10.5091C16.5989 9.6408 16.578 9.48133 16.4276 9.2002C16.123 8.63108 15.639 8.44246 15.1113 8.68733ZM23.8853 8.74437C23.2445 9.09207 23.1004 10.8076 23.6351 11.7218C23.9012 12.1766 24.5384 12.4918 25.0498 12.4217C25.7755 12.3222 26.3179 11.7632 26.3871 11.0433C26.4347 10.5483 26.169 9.976 25.6056 9.35952C24.9781 8.67296 24.3987 8.46582 23.8853 8.74437ZM15.4604 10.5505C15.4694 10.9572 15.3369 11.215 15.1337 11.1861C14.8648 11.1479 14.8623 10.7983 15.1279 10.3785C15.3665 10.0013 15.4493 10.0441 15.4604 10.5505ZM24.9243 10.4639C25.1946 10.857 25.206 11.1482 24.9523 11.1844C24.7123 11.2187 24.6138 11.0475 24.5561 10.4962C24.4967 9.92763 24.5519 9.92279 24.9243 10.4639ZM9.1719 16.8906C9.99075 17.6998 10.8303 18.4768 11.0377 18.6174C11.6493 19.032 12.5019 19.3878 13.2232 19.5295L13.8975 19.662L13.7081 19.8871C13.6038 20.011 13.4822 20.2431 13.4379 20.4029C13.3901 20.5749 13.357 21.7191 13.3568 23.2069C13.3565 24.5893 13.335 25.7759 13.3089 25.8439C13.2828 25.9119 13.2037 25.9678 13.1331 25.968C12.854 25.9689 12.4111 26.1403 12.1756 26.3384C11.7192 26.7224 11.641 27.027 11.6386 28.4288C11.6374 29.1163 11.5991 29.8132 11.5536 29.9775C11.461 30.3109 11.0188 30.8422 10.694 31.0101C9.73884 31.504 8.62707 31.1721 8.17093 30.2567L7.96504 29.8435V27.7979C7.96504 26.1765 7.98692 25.7341 8.07045 25.6648C8.12842 25.6166 8.35985 25.5424 8.58465 25.4997C9.31481 25.3613 9.78658 24.8776 9.92722 24.1233C9.97871 23.847 10.0001 23.0839 9.98059 22.2171C9.94379 20.5826 9.85792 20.2595 9.30903 19.6906C8.71279 19.0728 8.65762 19.0606 6.24609 19.0109C4.55051 18.9759 4.03975 18.9411 3.82394 18.8456C3.10229 18.5266 2.65404 17.8349 2.65271 17.0382C2.65177 16.4835 2.8057 16.096 3.17949 15.7124L3.46499 15.4194H5.57406H7.68314L9.1719 16.8906ZM17.9986 16.5C17.166 17.3128 16.7647 17.6444 16.3498 17.8625C15.0571 18.5417 13.6691 18.5685 12.3405 17.9398C11.8372 17.7016 11.5948 17.5045 10.6216 16.5424L9.48866 15.4223L14.2939 15.4241L19.0991 15.4258L17.9986 16.5ZM36.767 15.6727C37.1494 16.0085 37.3396 16.4465 37.3417 16.9966C37.3446 17.7343 37.0161 18.3309 36.4113 18.6865L36.0542 18.8964L26.5262 18.9172L16.9981 18.9379L17.3845 18.6873C17.597 18.5495 18.4565 17.7583 19.2945 16.9292L20.8181 15.4217L28.6483 15.4205L36.4785 15.4194L36.767 15.6727ZM2.90094 19.7272C3.43663 20.1087 3.93645 20.1856 5.88191 20.1861C6.87726 20.1863 7.8212 20.2225 7.97958 20.2665C8.28586 20.3516 8.66825 20.7344 8.66825 20.9559C8.66825 21.0718 8.59691 21.0853 8.12405 21.0585C7.42889 21.0192 7.05212 21.189 5.40459 22.2837C4.35533 22.981 4.17101 23.0766 3.87535 23.0766C3.02635 23.0766 2.26485 22.5612 2.05686 21.846C1.89387 21.2852 1.94497 20.5758 2.18219 20.1052C2.49238 19.49 2.53574 19.4672 2.90094 19.7272ZM37.6414 19.7754C38.4916 20.9746 37.893 22.9984 36.6881 22.9984C36.424 22.9984 35.8605 22.6702 35.0776 22.0603C34.5033 21.6129 34.1421 21.4784 33.5149 21.4786C32.635 21.4788 32.0848 21.8156 31.372 22.7902C31.0944 23.1696 30.7378 23.3884 30.3964 23.3888C30.0835 23.3892 29.812 23.2382 28.2465 22.1933C26.8173 21.2393 26.5116 21.0964 25.8967 21.095C25.2109 21.0935 24.7562 21.3433 23.3574 22.4905C22.6914 23.0367 22.0585 23.5181 21.951 23.5602C21.5075 23.7341 21.2247 23.6012 19.8694 22.5824C18.0923 21.2465 17.93 21.162 17.1458 21.1636C16.401 21.1653 16.1925 21.2585 15.2388 22.016C14.8831 22.2985 14.5732 22.5296 14.5502 22.5296C14.4893 22.5296 14.5754 20.8756 14.6449 20.7101C14.7374 20.4898 15.1021 20.3445 15.7984 20.2504C16.2405 20.1906 19.5593 20.1607 26.3733 20.1549L36.3039 20.1465L36.8432 19.8618C37.1398 19.7052 37.4065 19.5733 37.4358 19.5687C37.4651 19.5642 37.5576 19.6573 37.6414 19.7754ZM8.51589 22.4145L8.74638 22.5336V23.2739C8.74638 24.1137 8.63512 24.3267 8.19632 24.3267C8.06568 24.3267 7.82503 24.3949 7.66149 24.4784C7.36599 24.6292 6.87117 25.1229 6.87117 25.2671C6.87117 25.3126 6.32915 25.3425 5.5003 25.3425C4.16288 25.3425 4.12483 25.3379 3.9445 25.1576C3.84285 25.0559 3.68744 24.8311 3.59907 24.6579L3.43843 24.3431L4.04139 24.3116L4.64435 24.2802L6.15874 23.2877C7.79135 22.2178 7.99192 22.1435 8.51589 22.4145ZM26.7056 22.6548L27.1382 22.942L25.306 24.7529C24.2983 25.7488 23.307 26.6614 23.1031 26.7808C22.2336 27.2904 21.2436 27.3351 20.3268 26.9061C19.8887 26.7011 19.5674 26.4184 17.9582 24.8218C16.9342 23.8059 16.1163 22.9426 16.1406 22.9033C16.1648 22.864 16.3271 22.7287 16.5012 22.6026C16.7312 22.436 16.9069 22.3734 17.1445 22.3734C17.5092 22.3734 17.5521 22.4001 19.4403 23.804C20.8822 24.8761 21.3293 25.0266 22.2548 24.7518C22.5762 24.6564 22.958 24.3943 24.0182 23.5415C24.7625 22.9428 25.4545 22.4181 25.556 22.3754C25.8512 22.2514 26.2405 22.346 26.7056 22.6548ZM34.1907 22.9448C34.3991 23.0871 34.8404 23.3997 35.1712 23.6392C35.5572 23.9187 35.9142 24.1087 36.1674 24.1695C36.3845 24.2216 36.5618 24.287 36.5614 24.315C36.5594 24.4499 36.075 25.1905 35.9422 25.2616C35.8428 25.3147 34.1895 25.3425 31.1178 25.3425H26.4446L27.3135 24.4735L28.1825 23.6046L28.6414 23.9156C29.5109 24.5049 29.7465 24.5966 30.3895 24.5964C30.872 24.5963 31.0445 24.5598 31.3662 24.3899C31.7634 24.1801 32.252 23.7176 32.5759 23.2446C32.9931 22.6357 33.5789 22.5269 34.1907 22.9448ZM16.7161 25.3215C16.7161 25.333 16.2238 25.3425 15.6222 25.3425H14.5283V24.7646C14.5283 24.1976 14.5337 24.1819 14.8127 23.9369L15.0971 23.6872L15.9066 24.4939C16.3518 24.9376 16.7161 25.31 16.7161 25.3215ZM38.7698 30.2285C38.6626 30.3036 38.5387 30.5495 38.4383 30.8866C38.2484 31.5244 37.7751 32.4933 37.3872 33.0387C36.915 33.7025 35.933 34.631 35.1499 35.1542C33.4617 36.2821 31.3674 36.9971 28.7233 37.3483C27.9297 37.4538 26.6454 37.4805 20.9744 37.5098C13.833 37.5466 12.2194 37.5021 10.4946 37.2202C8.79662 36.9429 7.50976 36.5484 6.02693 35.851C5.3038 35.5108 5.21574 35.487 5.00525 35.5742C4.6917 35.7041 4.5534 36.0454 4.68521 36.3638C4.88508 36.8463 7.30755 37.8355 9.33372 38.2619C11.353 38.6869 11.7443 38.7031 19.9308 38.7033C24.5777 38.7034 27.7932 38.6722 28.2911 38.6223C33.5904 38.0912 37.4281 35.9389 39.0751 32.5745C39.6 31.5022 39.8076 30.7893 39.6826 30.4877C39.5257 30.1088 39.1093 29.9907 38.7698 30.2285Z" fill="black"/>
</g>
</svg>
