<svg width="40" height="40" viewBox="0 0 40 40" fill="none" xmlns="http://www.w3.org/2000/svg">
<mask id="mask0_414_7431" style="mask-type:alpha" maskUnits="userSpaceOnUse" x="0" y="0" width="40" height="40">
<rect width="40" height="40" fill="white"/>
</mask>
<g mask="url(#mask0_414_7431)">
<path fill-rule="evenodd" clip-rule="evenodd" d="M16.5363 0.117734C8.12591 0.179921 4.01186 0.236796 3.88006 0.292734C3.35022 0.517655 3.09882 0.997576 3.09882 1.78429V2.32367L2.48468 2.35921C1.75304 2.40156 1.42109 2.56554 1.16304 3.01218C1.00241 3.28999 0.987102 3.40476 1.00671 4.17968C1.02609 4.9421 1.04968 5.06874 1.21609 5.3021C1.5871 5.82217 1.77249 5.85569 4.29022 5.85764L6.53631 5.85936V7.66014C6.53631 9.08771 6.55998 9.50669 6.6506 9.68185C6.84459 10.057 7.28662 10.1161 7.59451 9.80818L7.7863 9.61646V6.60506V3.59374H8.4113H9.0363L9.03075 8.45701L9.02513 13.3203L8.42529 13.7614L7.82537 14.2026L7.7863 12.9295C7.75232 11.8207 7.72802 11.6352 7.59841 11.4922C7.40966 11.284 7.00756 11.2769 6.75982 11.4773C6.57615 11.6259 6.57521 11.6357 6.53631 13.7234L6.49724 15.8203L6.19342 16.4062C5.71693 17.325 5.36443 18.5066 5.36443 19.1847V19.4531H4.8535C3.86694 19.4531 3.25506 20.0176 3.25506 20.9279C3.25506 21.2203 3.32288 21.4468 3.5285 21.8413L3.80194 22.3659L3.80397 23.9759C3.80702 26.3992 3.95819 27.6207 4.43842 29.1015C5.32295 31.8289 7.43099 34.4069 9.95458 35.8473C10.3304 36.0618 10.7829 36.2949 10.9602 36.3654L11.2825 36.4935L11.3187 37.6022C11.3582 38.8101 11.4357 39.1023 11.8173 39.4804C11.9409 39.6029 12.1729 39.7699 12.3329 39.8515C12.6118 39.9938 12.8939 39.9999 19.1919 39.9999C26.3736 39.9999 26.0653 40.0189 26.563 39.5465C27.0125 39.1198 27.0831 38.8637 27.0831 37.66V36.5638L27.8839 36.1626C29.1152 35.5458 29.9898 34.9085 31.0325 33.8687C32.4018 32.503 33.3279 31.047 33.943 29.2923C34.4633 27.8085 34.6531 26.3245 34.6585 23.6977L34.6612 22.3564L34.9347 21.7859C35.2369 21.1551 35.2762 20.7828 35.088 20.3323C34.8455 19.7521 34.3724 19.4531 33.6968 19.4531H33.273L33.1808 18.8225C33.0648 18.0292 32.7977 17.206 32.3995 16.4139C32.0827 15.7839 31.7894 15.4687 31.5197 15.4687C31.3355 15.4687 30.9112 15.876 30.9112 16.0528C30.9112 16.1229 31.0873 16.5387 31.3024 16.9768C31.6837 17.7531 32.005 18.7841 32.005 19.2312V19.4531H31.3907H30.7763L30.6744 18.9648C30.2391 16.8795 28.6538 15.2471 26.6259 14.796C25.8695 14.6277 24.5069 14.6815 23.8783 14.9044C22.4324 15.4172 21.3775 16.3266 20.7298 17.6186C20.4612 18.1544 20.2081 18.9646 20.2081 19.2885C20.2081 19.4427 20.167 19.4531 19.5571 19.4531H18.9059L18.9674 19.0039C19.3332 16.3346 21.4581 14.0838 24.1534 13.5103C24.8376 13.3647 26.1476 13.3823 26.8878 13.5471C27.5765 13.7004 28.7325 14.2105 29.2645 14.596C29.702 14.9129 30.0529 14.9273 30.2805 14.6379C30.6859 14.1227 30.3176 13.6786 28.8954 12.9672C28.2529 12.6459 27.0548 12.2656 26.6848 12.2656C26.5001 12.2656 26.439 12.2148 26.3406 11.9792C26.1245 11.462 25.3555 10.3871 24.8149 9.84638C23.8802 8.91185 22.7707 8.2592 21.3909 7.83232C20.7632 7.63818 20.6134 7.62334 19.2511 7.62037L17.7863 7.61717V6.76944V5.92163L24.798 5.97795L31.8097 6.03428L31.9974 5.83147C32.2309 5.57905 32.2355 5.19585 32.0078 4.96796C31.8457 4.80577 31.8004 4.80436 25.4599 4.75647C21.9484 4.72999 18.7853 4.70358 18.4308 4.69788L17.7863 4.68749V4.14061V3.59374H28.3366H38.8871L39.0788 3.40194C39.3217 3.15913 39.3228 2.88195 39.0821 2.60202L38.8935 2.38281L21.6212 2.36273L4.34881 2.34273V1.88593V1.42906L13.3136 1.37179C18.2443 1.34031 26.0195 1.28812 30.5919 1.25586L38.9054 1.19711L39.0879 0.984841C39.3136 0.722576 39.3201 0.474686 39.1086 0.205859L38.9468 0L33.9719 0.0128125C31.2359 0.0198437 23.3898 0.0671092 16.5363 0.117734ZM6.53631 4.10155V4.60936H4.38787H2.23944V4.10155V3.59374H4.38787H6.53631V4.10155ZM11.5363 7.95217V12.3105L11.048 12.4491C10.7795 12.5253 10.4982 12.6072 10.423 12.631C10.2939 12.672 10.2863 12.4227 10.2863 8.13412V3.59374H10.9113H11.5363V7.95217ZM14.0363 6.58944C14.0363 9.53974 14.0338 9.5874 13.8711 9.73396C13.7804 9.81583 13.4991 10.1397 13.2461 10.4538L12.7863 11.0249V7.30928V3.59374H13.4113H14.0363V6.58944ZM16.5363 5.80717V8.02068L15.9113 8.33131L15.2863 8.64193V6.1178V3.59374H15.9113H16.5363V5.80717ZM33.6592 5.02452C33.4406 5.25725 33.443 5.56514 33.6651 5.80991L33.8409 6.0035L36.3191 6.05686L38.7973 6.1103L39.034 5.87366C39.3242 5.58342 39.3396 5.29624 39.0788 5.03553L38.8871 4.84374H36.3581H33.8291L33.6592 5.02452ZM20.895 8.98279C21.5952 9.15248 22.6077 9.62099 23.1744 10.0375C23.6624 10.3962 24.5149 11.2932 24.8101 11.7587L25.0552 12.1451L24.3959 12.2403L23.7366 12.3354L23.0466 11.6482C21.946 10.552 20.8181 10.0781 19.3097 10.0781C18.4296 10.0781 17.8387 10.2032 17.1042 10.545C16.3102 10.9146 15.695 11.3922 15.1575 12.0563L14.9158 12.3549L14.2612 12.258C13.9012 12.2048 13.5946 12.1522 13.58 12.1413C13.512 12.0902 14.2321 11.1469 14.6722 10.7109C16.3515 9.04724 18.5929 8.42474 20.895 8.98279ZM19.9738 11.3316C20.6717 11.4422 21.5284 11.8629 22.039 12.3458L22.4613 12.7452L21.8734 13.0493L21.2856 13.3536L20.9944 13.1196C20.0804 12.385 18.5339 12.3892 17.6139 13.1286L17.3115 13.3715L16.731 13.0727L16.1505 12.7739L16.5143 12.4045C17.1349 11.7744 18.3 11.2751 19.1925 11.2568C19.3429 11.2536 19.6945 11.2873 19.9738 11.3316ZM14.7349 13.602C15.4656 13.7882 16.333 14.1936 16.959 14.6414C17.4453 14.9892 18.1972 15.7328 18.4414 16.1073C18.5692 16.3032 18.5696 16.3318 18.4477 16.5676C18.3761 16.7059 18.2398 17.0261 18.1447 17.2792L17.9717 17.7393L17.5716 17.125C16.8967 16.0889 15.981 15.3646 14.8046 14.9367C14.2867 14.7483 14.1264 14.7282 13.1379 14.7274C12.2675 14.7267 11.9563 14.7567 11.6144 14.8741C10.0939 15.3964 8.96974 16.3614 8.33661 17.6881C8.09388 18.1968 7.86443 18.9674 7.86443 19.2742C7.86443 19.4467 7.84052 19.4531 7.19685 19.4531H6.5292L6.57943 19.1601C6.80459 17.8474 7.32709 16.639 8.0424 15.7773C9.06286 14.5478 10.6567 13.6558 12.2129 13.4435C12.9181 13.3473 14.0028 13.4154 14.7349 13.602ZM20.05 13.9443L20.2909 14.0689L19.8003 14.6118C19.5305 14.9104 19.2921 15.1509 19.2706 15.1463C19.2492 15.1417 19.023 14.9129 18.7682 14.6379C18.2616 14.0914 18.2618 14.0499 18.7726 13.8603C19.1299 13.7276 19.7041 13.7654 20.05 13.9443ZM14.3787 16.0967C15.7484 16.52 16.8068 17.7178 17.12 19.1992L17.1737 19.4531H16.5034C15.9175 19.4531 15.8331 19.4359 15.8324 19.3164C15.8311 19.0901 15.4794 18.4192 15.1844 18.0804C15.0321 17.9055 14.6851 17.6418 14.4133 17.4945C13.9442 17.2401 13.8795 17.2265 13.1379 17.2265C12.4469 17.2265 12.3069 17.251 11.9264 17.4378C11.354 17.7189 10.8617 18.216 10.5882 18.789C10.4652 19.0468 10.3645 19.3017 10.3645 19.3554C10.3644 19.4257 10.1814 19.4531 9.70981 19.4531H9.05521L9.13396 19.082C9.3063 18.2698 9.88544 17.3334 10.5402 16.808C10.9924 16.4453 11.875 16.0343 12.3957 15.944C12.9529 15.8474 13.7774 15.9108 14.3787 16.0967ZM26.7224 16.0967C27.937 16.472 28.9725 17.511 29.3499 18.733C29.5805 19.4796 29.5979 19.4531 28.8776 19.4531C28.3497 19.4531 28.2427 19.4314 28.2038 19.3164C27.9003 18.4205 27.468 17.8782 26.7525 17.496C26.3323 17.2717 26.1685 17.2301 25.5988 17.2035C25.0573 17.1782 24.8525 17.2035 24.4892 17.3404C23.7323 17.6258 22.9837 18.4285 22.7773 19.176L22.7008 19.4531H22.0795C21.3542 19.4531 21.3529 19.4507 21.6205 18.6498C21.9553 17.6478 22.7585 16.7528 23.7398 16.2883C24.6916 15.8377 25.6792 15.7743 26.7224 16.0967ZM13.8846 18.596C14.1503 18.7316 14.5832 19.2254 14.5832 19.3931C14.5832 19.426 13.9143 19.4531 13.0968 19.4531H11.6104L11.7256 19.2303C11.8807 18.9303 12.3495 18.5286 12.6119 18.4708C12.7293 18.445 12.8605 18.4105 12.9035 18.3943C13.0582 18.3357 13.5879 18.4447 13.8846 18.596ZM26.2576 18.6169C26.5392 18.7725 26.9269 19.2182 26.9269 19.3865C26.9269 19.4232 26.258 19.4531 25.4405 19.4531H23.9542L24.0693 19.2303C24.2245 18.9303 24.6932 18.5286 24.9556 18.4708C25.0731 18.445 25.2042 18.4105 25.2472 18.3943C25.4124 18.3318 25.9595 18.4524 26.2576 18.6169ZM33.8345 20.6724C34.0224 20.7445 33.9849 20.9663 33.6837 21.5644L33.4093 22.1093H22.0188C10.8016 22.1093 10.6257 22.1117 10.4634 22.2629C10.3727 22.3474 10.276 22.4874 10.2485 22.5742C10.1808 22.7875 10.36 23.1374 10.5988 23.2582C10.7536 23.3365 13.1456 23.3573 22.1136 23.3581L33.4332 23.3593L33.388 25.0195C33.3248 27.3406 33.0577 28.5358 32.2341 30.1816C31.6702 31.3083 31.1342 32.0429 30.1694 33.0111C28.5552 34.6309 26.6351 35.6378 24.3272 36.0745C23.6942 36.1943 23.0649 36.2108 19.1535 36.2101C14.7951 36.2093 14.6829 36.2055 13.88 36.0292C11.5717 35.5226 9.90505 34.6234 8.28677 33.0116C6.69974 31.431 5.75303 29.6934 5.27428 27.4825C5.15615 26.937 5.10678 26.3386 5.07451 25.0627L5.0317 23.3676L6.8456 23.3439L8.6595 23.3203L8.85513 23.0927C9.00693 22.916 9.04036 22.8111 9.00419 22.6239C8.90888 22.1295 8.82544 22.1096 6.8206 22.1061L5.01287 22.1029L4.81756 21.7018C4.42116 20.8878 4.41866 20.8788 4.55116 20.7463C4.65998 20.6374 6.17061 20.6249 19.1917 20.6249C27.1773 20.6249 33.7665 20.6463 33.8345 20.6724ZM17.9594 25.0014C17.0816 25.2313 16.3483 25.656 15.6695 26.3272C14.616 27.369 14.1525 28.4873 14.1633 29.9609C14.1713 31.0477 14.4056 31.8307 14.9795 32.6888C16.5127 34.981 19.479 35.6709 21.8332 34.2828C22.5292 33.8724 23.3242 33.0298 23.6994 32.3046C24.1326 31.4674 24.2899 30.8327 24.2899 29.9218C24.2899 28.5168 23.7951 27.3319 22.7885 26.3265C21.5131 25.0525 19.682 24.5501 17.9594 25.0014ZM20.5883 26.3169C21.5515 26.6829 22.2363 27.3173 22.6895 28.2634C23.2162 29.3632 23.2102 30.5077 22.6719 31.617C22.017 32.9665 20.7534 33.7499 19.2316 33.7499C15.788 33.7499 14.0757 29.6373 16.5061 27.2038C17.573 26.1355 19.1877 25.7847 20.5883 26.3169ZM19.2316 37.3772H24.3097L25.1105 37.1787L25.9113 36.9801V37.7123C25.9113 38.3855 25.8958 38.46 25.7195 38.6362L25.5277 38.828H19.2456C11.7907 38.828 12.5519 38.9515 12.5519 37.7422V36.9801L13.3527 37.1787L14.1535 37.3772H19.2316Z" fill="black"/>
</g>
</svg>
