<svg width="40" height="40" viewBox="0 0 40 40" fill="none" xmlns="http://www.w3.org/2000/svg">
<mask id="mask0_414_7404" style="mask-type:alpha" maskUnits="userSpaceOnUse" x="0" y="0" width="40" height="40">
<rect y="-6.10352e-05" width="40" height="40" fill="white"/>
</mask>
<g mask="url(#mask0_414_7404)">
<path fill-rule="evenodd" clip-rule="evenodd" d="M18.1829 0.0563792C15.3789 0.390079 13.4794 0.929594 11.2259 2.03231C9.14361 3.05131 7.51052 4.21844 5.86633 5.86254C2.83427 8.89468 0.884138 12.7305 0.20095 17.0066C0.0312469 18.0686 -0.0348051 20.7519 0.0798674 21.9261C0.300301 24.1836 1.04587 26.8818 1.93292 28.6323L2.1335 29.0281L1.15319 30.0133C0.614068 30.5553 0.135992 31.0977 0.0908891 31.2187C-0.12079 31.7863 0.0162385 32.2322 0.725535 33.2845C1.89172 35.0146 3.59118 36.6406 5.3172 37.6778C6.39506 38.3256 6.75495 38.2498 7.85673 37.1429L8.54742 36.4489L9.26133 36.9133C10.234 37.5459 12.2764 38.5391 13.4146 38.9327C14.4805 39.3013 15.8305 39.6368 17.0885 39.8454C18.4266 40.0673 21.8017 40.0464 23.1781 39.8078C25.3151 39.4372 26.9558 38.9101 28.8137 37.9973C30.925 36.96 32.527 35.8158 34.1733 34.1695C37.1827 31.1601 39.0601 27.4994 39.8121 23.1743C39.965 22.2942 39.9874 21.8915 39.9874 20.016C39.9874 17.6483 39.8871 16.7785 39.4048 14.9632C38.8811 12.9919 37.9143 10.7816 36.8923 9.21908L36.4514 8.54496L37.146 7.85356C37.5281 7.47327 37.8937 7.05031 37.9586 6.91351C38.1722 6.46327 38.1126 6.03506 37.7523 5.43278C36.5758 3.46599 34.5298 1.42541 32.6088 0.302765C32.0688 -0.0127995 31.6606 -0.0762719 31.2225 0.0870992C31.1015 0.132202 30.5591 0.610278 30.0171 1.1494L29.0319 2.12971L28.6361 1.92913C26.9329 1.066 24.2293 0.308549 22.0635 0.0875683C21.3194 0.0116671 18.7331 -0.00912561 18.1829 0.0563792ZM22.5212 1.38219C23.8018 1.5411 25.5938 2.00237 26.8595 2.4989C27.4184 2.71816 27.9285 2.93187 27.993 2.97377C28.087 3.03489 27.8081 3.35147 26.5859 4.57097L25.0617 6.09205L24.1627 5.8319C22.8801 5.46084 21.9518 5.31459 20.567 5.26542C16.3903 5.11729 12.5275 6.63422 9.58276 9.57897C6.63801 12.5237 5.12108 16.3865 5.26921 20.5632C5.31838 21.948 5.46463 22.8763 5.83569 24.1589L6.09584 25.0579L4.57476 26.5822C3.35526 27.8043 3.03868 28.0832 2.97756 27.9892C2.75744 27.6506 2.06651 25.6918 1.80566 24.667C1.38215 23.0029 1.23503 21.7742 1.23949 19.9379C1.24699 16.8967 1.84349 14.3532 3.1829 11.6521C5.02587 7.93548 7.9929 4.97792 11.6949 3.16715C13.0898 2.48483 14.0404 2.1265 15.2986 1.80844C17.7162 1.1974 19.9636 1.06475 22.5212 1.38219ZM32.579 1.73488C34.093 2.7531 35.4717 4.16247 36.5107 5.75405L36.9115 6.36813L21.6481 21.6317L6.38467 36.8953L6.03033 36.6921C4.43109 35.7749 2.43976 33.8012 1.44241 32.1449L1.17821 31.7062L9.70009 23.183C17.9114 14.9705 18.222 14.6494 18.222 14.3732C18.222 14.1567 18.1716 14.047 18.016 13.9246C17.5666 13.5711 17.7828 13.384 12.233 18.9313L7.06215 24.1L6.8611 23.2501C6.54233 21.9028 6.47268 21.147 6.5199 19.548C6.55077 18.5016 6.60885 17.8845 6.72962 17.3192C7.87674 11.9495 11.9533 7.87295 17.323 6.72583C17.8883 6.60506 18.5054 6.54698 19.5518 6.51611C21.1508 6.46889 21.9066 6.53854 23.2542 6.85739L24.1044 7.05852L21.541 9.62282C19.2317 11.933 18.9776 12.2121 18.9776 12.4401C18.9776 12.7946 19.3249 13.0923 19.6613 13.0259C19.85 12.9887 21.1884 11.6928 25.7992 7.0829C31.1535 1.72972 31.7106 1.19537 31.8572 1.27275C31.946 1.31965 32.2708 1.52766 32.579 1.73488ZM36.1052 10.2646C37.9388 13.3158 38.8135 16.5047 38.8013 20.0942C38.7841 25.1512 36.877 29.7402 33.3105 33.3067C29.744 36.8732 25.155 38.7803 20.098 38.7975C17.006 38.8079 14.314 38.1895 11.6347 36.8531C10.8628 36.4681 9.46714 35.6442 9.46714 35.5735C9.46714 35.5501 10.1091 34.8896 10.8937 34.1059L12.3203 32.6811L13.3755 33.2093C15.9707 34.5084 18.9019 35.0338 21.7083 34.7028L22.4462 34.6157L22.9758 34.894C23.8402 35.3483 24.5963 35.5249 25.687 35.5273C26.8174 35.5298 27.337 35.4079 28.3838 34.8943C29.0203 34.582 29.2329 34.423 29.8724 33.7805C30.4451 33.2051 30.6935 32.8853 30.9421 32.4036C31.3642 31.5855 31.5823 30.788 31.6422 29.8438C31.6889 29.1081 31.7021 29.0647 31.9981 28.6713C32.8073 27.596 33.5237 26.1765 34.0545 24.5967L34.3933 23.5883L35.0239 23.2918C35.8561 22.9007 36.4164 22.3455 36.8092 21.5231C37.0921 20.9305 37.0995 20.8921 37.0995 20.016C37.0995 19.14 37.0921 19.1016 36.8092 18.509C36.4131 17.6794 35.856 17.1305 35.0066 16.7324L34.3597 16.4292L34.2184 15.8992C34.0153 15.1372 33.5182 13.9168 33.064 13.0657L32.6713 12.3298L34.103 10.8966C34.8904 10.1083 35.5546 9.46336 35.5792 9.46336C35.6036 9.46336 35.8404 9.82387 36.1052 10.2646ZM22.9617 11.5796C22.6224 11.8464 22.6867 12.3536 23.0859 12.5601C23.7001 12.8777 24.2653 12.0067 23.7223 11.5796C23.609 11.4905 23.4379 11.4176 23.342 11.4176C23.2461 11.4176 23.0749 11.4905 22.9617 11.5796ZM32.1252 13.8994C32.4181 14.4836 32.929 15.7733 33.0343 16.1946C33.082 16.3851 33.0608 16.4051 32.719 16.4911C31.074 16.9053 29.9472 18.3383 29.9472 20.016C29.9472 21.6938 31.074 23.1267 32.719 23.5409C33.148 23.649 33.1485 23.5991 32.7061 24.7843C32.3963 25.6142 31.9698 26.4882 31.566 27.1203L31.2971 27.5411L31.0909 27.0908C30.0532 24.824 27.4424 23.3549 25.0291 23.6797C23.4018 23.8987 22.8157 24.3426 23.3155 24.9779C23.4682 25.1722 23.5185 25.1883 23.8431 25.1471C24.0404 25.122 24.4305 25.0484 24.7099 24.9836C27.1877 24.4088 29.7403 26.0534 30.3042 28.588C30.7752 30.705 29.7014 32.9056 27.7408 33.8416C26.9819 34.2039 26.481 34.3208 25.687 34.3208C24.8895 34.3208 24.3922 34.2039 23.6156 33.8336C22.0237 33.0749 20.9578 31.3878 20.9578 29.6268C20.9578 28.5826 21.2857 27.5905 21.9047 26.7614C22.2827 26.255 22.3145 25.8951 22.0026 25.6498C21.5959 25.3299 21.2918 25.4694 20.7924 26.2047C20.0611 27.2816 19.75 28.3066 19.7524 29.6307C19.7548 30.9796 20.1112 32.0689 20.8985 33.1347L21.2124 33.5595L19.6585 33.5168C17.9282 33.4694 17.1448 33.3399 15.7206 32.8663C14.8489 32.5764 13.2974 31.8717 13.2974 31.7657C13.2974 31.6864 31.6844 13.2936 31.7636 13.2936C31.7954 13.2936 31.9581 13.5662 32.1252 13.8994ZM25.3067 13.9246C24.9675 14.1914 25.0317 14.6987 25.4309 14.9051C26.0451 15.2227 26.6103 14.3517 26.0673 13.9246C25.954 13.8355 25.7829 13.7626 25.687 13.7626C25.5911 13.7626 25.42 13.8355 25.3067 13.9246ZM21.7892 15.0972C21.4499 15.3639 21.5142 15.8712 21.9134 16.0776C22.5275 16.3952 23.0928 15.5243 22.5497 15.0972C22.4365 15.008 22.2654 14.9351 22.1695 14.9351C22.0735 14.9351 21.9024 15.008 21.7892 15.0972ZM18.2716 16.2697C17.9324 16.5365 17.9966 17.0437 18.3958 17.2501C19.01 17.5677 19.5752 16.6968 19.0322 16.2697C18.9189 16.1806 18.7478 16.1076 18.6519 16.1076C18.556 16.1076 18.3849 16.1806 18.2716 16.2697ZM34.3272 17.7592C34.8525 17.9166 35.353 18.3667 35.65 18.949C35.8797 19.3993 35.9201 19.5583 35.9201 20.01C35.9201 20.4512 35.8772 20.6287 35.667 21.0556C35.3834 21.6315 35.0946 21.9125 34.52 22.1712C33.945 22.43 33.5518 22.4706 32.9963 22.3283C32.0686 22.0906 31.4553 21.4672 31.2229 20.5256C31.1074 20.0574 31.1074 19.9747 31.2229 19.5065C31.5768 18.0727 32.8957 17.3303 34.3272 17.7592ZM16.4526 18.4642C16.0914 18.6428 16.0142 19.1442 16.3033 19.4333C16.5641 19.6941 16.8515 19.6788 17.1416 19.3887C17.3323 19.1981 17.368 19.1109 17.3261 18.9393C17.2255 18.5273 16.7967 18.2941 16.4526 18.4642ZM21.7892 18.6147C21.4499 18.8815 21.5142 19.3887 21.9134 19.5952C22.5275 19.9128 23.0928 19.0418 22.5497 18.6147C22.4365 18.5256 22.2654 18.4527 22.1695 18.4527C22.0735 18.4527 21.9024 18.5256 21.7892 18.6147ZM18.7976 20.8093C18.4365 20.9878 18.3592 21.4893 18.6484 21.7783C18.9091 22.0391 19.1966 22.0239 19.4866 21.7338C19.6773 21.5431 19.713 21.456 19.6711 21.2843C19.5705 20.8723 19.1418 20.6391 18.7976 20.8093ZM15.28 21.9818C14.9189 22.1603 14.8417 22.6618 15.1308 22.9509C15.3916 23.2116 15.679 23.1964 15.9691 22.9063C16.1597 22.7157 16.1955 22.6285 16.1536 22.4568C16.053 22.0448 15.6242 21.8116 15.28 21.9818ZM11.7625 23.1543C11.4013 23.3329 11.3241 23.8343 11.6132 24.1234C11.874 24.3841 12.1614 24.3689 12.4515 24.0788C12.6422 23.8882 12.6779 23.801 12.636 23.6294C12.5354 23.2173 12.1066 22.9842 11.7625 23.1543ZM15.28 25.4994C14.9189 25.6779 14.8417 26.1794 15.1308 26.4684C15.3916 26.7292 15.679 26.7139 15.9691 26.4239C16.1597 26.2332 16.1955 26.1461 16.1536 25.9744C16.053 25.5624 15.6242 25.3292 15.28 25.4994ZM24.9843 26.0487C23.1279 26.4027 21.7939 28.3251 22.1237 30.1709C22.4969 32.2593 24.5477 33.6266 26.5318 33.1098C28.3606 32.6335 29.5586 30.8505 29.2567 29.0543C29.0005 27.5294 27.8159 26.3152 26.3175 26.0415C25.7826 25.9438 25.527 25.9452 24.9843 26.0487ZM26.6826 27.4248C28.1264 28.0635 28.5186 29.9993 27.4507 31.2156C27.3249 31.3588 27.0349 31.5797 26.8063 31.7064C26.432 31.9137 26.3203 31.9366 25.687 31.9361C25.1082 31.9356 24.925 31.9044 24.6535 31.7598C23.3038 31.0409 22.8923 29.4366 23.7427 28.2095C24.3662 27.3097 25.6486 26.9674 26.6826 27.4248ZM25.2571 27.9892C25.0394 28.2069 25.0513 28.619 25.2816 28.8354C25.6658 29.1963 26.2733 28.9262 26.2733 28.3946C26.2733 28.0608 26.0353 27.8328 25.687 27.8328C25.5176 27.8328 25.3539 27.8924 25.2571 27.9892ZM24.3495 29.7356C23.8086 30.2009 24.378 31.0193 25.0138 30.6905C25.3922 30.4948 25.4527 30.0537 25.1434 29.7444C24.9021 29.5031 24.6234 29.5 24.3495 29.7356ZM26.2307 29.7444C25.9214 30.0537 25.9818 30.4948 26.3603 30.6905C26.992 31.0173 27.5613 30.1973 27.0238 29.7349C26.7506 29.5 26.4717 29.5033 26.2307 29.7444Z" fill="black"/>
</g>
</svg>
