<svg width="40" height="40" viewBox="0 0 40 40" fill="none" xmlns="http://www.w3.org/2000/svg">
<mask id="mask0_414_7395" style="mask-type:alpha" maskUnits="userSpaceOnUse" x="0" y="0" width="40" height="40">
<rect y="-6.10352e-05" width="40" height="40" fill="white"/>
</mask>
<g mask="url(#mask0_414_7395)">
<path fill-rule="evenodd" clip-rule="evenodd" d="M18.0278 3.09C15.1256 3.45453 12.088 4.68763 9.84616 6.41123L9.40554 6.75004L9.00347 6.20934C8.32476 5.2966 7.64659 4.80688 6.75754 4.58747C5.25781 4.21738 3.70865 5.19518 2.71131 7.14116C2.01054 8.5086 1.731 9.64599 1.67236 11.3681C1.62638 12.7161 1.75782 13.6215 2.13479 14.5549L2.32933 15.0364L2.01875 15.2515C1.19554 15.822 0.439261 16.9647 0.158627 18.0621C-0.0344308 18.817 -0.0559338 20.6811 0.119843 21.4263C0.542553 23.2187 2.03408 24.7922 3.71037 25.2143L4.07045 25.3049V29.4245V33.5441L4.27203 33.9486C4.64032 34.6877 5.29675 35.0887 6.14475 35.0927C6.61601 35.0949 6.75504 35.061 7.12216 34.8548C7.60328 34.5845 8.01215 34.1055 8.13288 33.6706C8.17737 33.5104 8.21396 33.0326 8.2142 32.6089L8.21466 31.8385L8.74247 32.3026C11.4725 34.7028 14.7068 36.1558 18.1842 36.5444C19.222 36.6604 21.1362 36.6412 22.1801 36.5044C28.2626 35.707 33.2918 31.8018 35.6581 26.0385L35.9433 25.3441L36.3688 25.2124C37.1489 24.9711 37.927 24.5007 38.5103 23.9178C39.1353 23.2933 39.4871 22.7419 39.7905 21.9112C39.9909 21.3625 40 21.2717 40 19.8129C40 18.3542 39.9909 18.2634 39.7905 17.7146C39.4871 16.8839 39.1353 16.3326 38.5103 15.708C37.9266 15.1248 37.1489 14.6548 36.3676 14.413L35.9407 14.2809L35.6191 13.5087C35.1704 12.4316 34.5902 11.3074 34.3685 11.0858C34.0477 10.765 33.5697 10.8627 33.3948 11.2848C33.3055 11.5006 33.3222 11.5676 33.5961 12.0893C34.0954 13.04 34.3714 13.6387 34.6808 14.4419C35.009 15.2937 35.0975 15.3835 35.7395 15.5171C37.0916 15.7985 38.2262 16.844 38.6515 18.2006C38.9033 19.0039 38.9033 20.622 38.6515 21.4253C38.2262 22.7818 37.0916 23.8273 35.7395 24.1087C35.5035 24.1579 35.236 24.2468 35.1449 24.3065C35.0423 24.3737 34.8415 24.7674 34.6173 25.3405C33.3582 28.5603 31.3466 31.0608 28.5448 32.889C24.5917 35.4686 19.6554 36.1087 15.1233 34.6295C12.816 33.8764 10.1936 32.2118 8.69 30.5459L8.21466 30.0193V29.1229C8.21466 28.6298 8.24297 28.2599 8.27753 28.3007C8.31209 28.3416 8.53909 28.6231 8.78195 28.9264C9.37528 29.6673 10.6202 30.8655 11.3885 31.4352C12.0529 31.9278 12.9668 32.4822 13.7058 32.8409C14.1428 33.053 14.1602 33.0551 14.4271 32.9278C14.7343 32.7813 14.8481 32.502 14.7337 32.176C14.6808 32.0255 14.4615 31.8648 13.8997 31.5646C12.6244 30.883 11.7607 30.2418 10.7108 29.1971C9.71049 28.2018 9.27386 27.6493 8.59476 26.5194L8.21466 25.887V21.4586V17.0301L8.60492 16.7325C9.37692 16.1438 10.0806 14.9855 10.4149 13.753C10.5496 13.2565 10.5903 12.8538 10.6124 11.8003L10.6404 10.473L10.9718 10.1317C11.458 9.63113 12.6995 8.71377 13.5065 8.25885C16.2902 6.68968 19.6001 6.17759 22.7323 6.83168C27.273 7.77992 31.0633 11.1294 32.5625 15.5188C34.1717 20.2305 33.025 25.4002 29.5771 28.9768C26.348 32.3264 21.8367 33.7175 17.2404 32.7809L16.4157 32.6128L16.2053 32.7694C15.9287 32.975 15.8719 33.4747 16.1015 33.6825C16.3871 33.941 17.959 34.2076 19.4811 34.2556C21.489 34.3189 22.7386 34.1478 24.5444 33.5622C28.8565 32.1637 32.3751 28.6401 33.7773 24.3161C34.298 22.7103 34.4874 21.5095 34.4874 19.8129C34.4874 17.0156 33.767 14.5077 32.2735 12.106C31.3692 10.6517 29.829 9.02115 28.3827 7.98705C26.9484 6.96148 24.7071 5.98188 22.9895 5.62985C21.4154 5.30715 18.9811 5.26477 17.5281 5.53469C15.1299 5.98024 12.9685 6.9528 11.0585 8.44581C10.6015 8.80307 10.3084 8.98518 10.2877 8.92458C10.2694 8.87086 10.1825 8.61666 10.0945 8.3598L9.93451 7.89283L10.1812 7.69516C11.5524 6.59663 13.5242 5.51694 15.0891 5.00783C18.6804 3.83932 22.4002 3.95778 25.8787 5.35133C27.8854 6.15523 29.5916 7.31311 31.2521 8.99769C32.1344 9.89292 32.3126 10.0388 32.5227 10.0388C32.8515 10.0388 33.0799 9.79862 33.0799 9.45285C33.0799 9.22555 32.9866 9.07377 32.5235 8.54824C30.3482 6.07962 27.0895 4.16398 23.7595 3.39612C22.1735 3.03049 19.5973 2.89287 18.0278 3.09ZM7.15257 6.07555C8.10582 6.70844 8.94139 8.26135 9.28207 10.0333C9.44964 10.905 9.44823 12.4612 9.2791 13.2447C8.99941 14.5402 8.202 15.698 7.29746 16.1219C6.9119 16.3026 6.74402 16.3333 6.14256 16.3333C5.5411 16.3333 5.37322 16.3026 4.98765 16.1219C4.08312 15.698 3.28571 14.5402 3.00601 13.2447C2.83688 12.4612 2.83548 10.905 3.00304 10.0333C3.39659 7.98658 4.42115 6.3045 5.57175 5.81611C5.67066 5.77412 5.96795 5.74972 6.23232 5.76177C6.63666 5.78022 6.78303 5.83011 7.15257 6.07555ZM22.4245 8.58163C20.8322 9.25213 20.1358 11.0152 20.8573 12.5497C21.1563 13.1856 21.6442 13.673 22.2894 13.9801C22.7472 14.1981 22.8713 14.2221 23.5404 14.2218C24.2026 14.2215 24.334 14.1966 24.7507 13.9926C26.9966 12.8933 27.0131 9.81152 24.779 8.6606C24.4278 8.47967 24.2435 8.44119 23.6186 8.41852C22.971 8.39498 22.818 8.41594 22.4245 8.58163ZM23.9923 9.66155C24.7758 9.85883 25.3603 10.7816 25.2217 11.6024C25.1444 12.0596 24.7396 12.6147 24.3224 12.8357C24.0269 12.9921 23.8816 13.0177 23.4159 12.9956C22.7993 12.9663 22.4916 12.7957 22.0785 12.2541C21.7737 11.8545 21.7262 11.0642 21.976 10.5484C22.1674 10.1528 22.5264 9.84069 22.9734 9.68125C23.3417 9.54981 23.5339 9.54606 23.9923 9.66155ZM15.8385 10.1119C15.213 10.2642 14.6265 10.8186 14.4814 11.3947C14.4046 11.6995 14.3707 11.7323 14.0412 11.8204C13.529 11.9574 13.0213 12.4493 12.8583 12.9664C12.7367 13.3522 12.7107 13.3791 12.3731 13.4695C11.8837 13.6003 11.3064 14.1792 11.175 14.6709C11.085 15.0069 11.0548 15.0379 10.7398 15.1173C10.3249 15.2218 9.8051 15.6739 9.61166 16.0988C9.43666 16.4829 9.4247 17.1393 9.58554 17.5244C9.73434 17.8805 11.6606 19.8466 12.0654 20.0555C12.7585 20.4134 13.5804 20.2907 14.0946 19.7528C14.4107 19.4221 14.5541 19.1739 14.6232 18.8382C14.6598 18.6604 14.7251 18.595 14.9028 18.558C15.5064 18.4325 16.1113 17.8636 16.2572 17.2842C16.3345 16.9772 16.3664 16.9469 16.7102 16.855C17.214 16.7202 17.7878 16.1495 17.9109 15.6608C17.9937 15.3318 18.0239 15.3008 18.3454 15.2148C18.7682 15.1017 19.2922 14.6452 19.4849 14.2221C19.5632 14.0501 19.6281 13.7316 19.6291 13.5142C19.6319 12.8657 19.369 12.4605 18.1995 11.3106C17.2842 10.4109 17.1099 10.2739 16.7392 10.1639C16.2863 10.0293 16.1986 10.0243 15.8385 10.1119ZM17.413 12.2489C18.2912 13.1202 18.3797 13.2335 18.3797 13.4879C18.3797 13.7635 18.2445 13.9542 17.9847 14.0455C17.7437 14.13 17.387 13.873 16.5226 12.9922C15.7862 12.2418 15.643 12.0566 15.643 11.8549C15.643 11.6878 15.7061 11.5644 15.849 11.452C16.2369 11.1468 16.3709 11.2151 17.413 12.2489ZM29.0139 12.8212C28.7065 12.9533 27.5769 14.0305 27.4053 14.3551C27.2627 14.6249 27.262 15.1466 27.4039 15.4185C27.4645 15.5346 27.8263 15.9345 28.2079 16.3071C29.2301 17.305 29.6048 17.3169 30.5982 16.3834C31.5166 15.5203 31.7663 14.9696 31.4826 14.4333C31.3184 14.1228 30.0273 12.8753 29.7712 12.7796C29.4825 12.6717 29.3438 12.6793 29.0139 12.8212ZM15.734 13.9251C16.6076 14.7894 16.7377 14.9508 16.7377 15.1705C16.7377 15.4512 16.4449 15.7469 16.1669 15.7469C16.0685 15.7469 15.6272 15.3698 15.0046 14.7538C14.131 13.8894 14.0009 13.728 14.0009 13.5084C14.0009 13.2277 14.2937 12.932 14.5717 12.932C14.6701 12.932 15.1114 13.3091 15.734 13.9251ZM29.8521 14.4345C30.0791 14.6588 30.265 14.8725 30.265 14.9094C30.265 14.994 29.5084 15.7469 29.4234 15.7469C29.3888 15.7469 29.1693 15.5534 28.9357 15.3168L28.511 14.8868L28.9357 14.4567C29.1693 14.2202 29.3781 14.0267 29.3997 14.0267C29.4214 14.0267 29.6249 14.2102 29.8521 14.4345ZM14.1844 15.6599C14.9509 16.4359 15.0956 16.6207 15.0956 16.8236C15.0956 16.9911 15.0326 17.1144 14.8896 17.2268C14.5017 17.532 14.3677 17.4638 13.3256 16.4299C12.4474 15.5587 12.3589 15.4453 12.3589 15.1909C12.3589 14.7728 12.6827 14.5346 13.0702 14.6677C13.1819 14.706 13.6833 15.1525 14.1844 15.6599ZM23.522 15.1164C23.183 15.2257 22.7748 15.5043 22.6057 15.7418C22.5202 15.862 22.1853 16.5307 21.8615 17.2278C21.3359 18.3596 21.2728 18.5453 21.2728 18.9625C21.2728 19.4987 21.4 19.8001 21.8041 20.2219C22.142 20.5747 22.7176 20.7872 23.1782 20.7294C23.4848 20.6909 23.5135 20.7055 23.7391 21.0133C24.0885 21.49 24.5523 21.7195 25.1551 21.7138C25.6358 21.7093 25.6475 21.7143 25.8521 22.0096C26.1341 22.4163 26.7251 22.706 27.2734 22.706C27.6747 22.706 27.7078 22.7226 28.0986 23.1197C28.5304 23.5583 28.9004 23.7226 29.4573 23.7226C29.8544 23.7226 30.5284 23.3866 30.7678 23.0694C30.8699 22.9341 31.2089 22.2779 31.5213 21.6113C32.29 19.971 32.3338 19.3551 31.7303 18.6678C31.3717 18.2595 30.9364 18.0637 30.3657 18.0543C29.891 18.0465 29.8749 18.0391 29.6495 17.728C29.3406 17.3016 28.8611 17.0762 28.263 17.0762C27.8033 17.0762 27.7912 17.0705 27.4937 16.7146C27.107 16.2519 26.6462 16.0421 26.0751 16.0686C25.6609 16.0877 25.64 16.0788 25.4526 15.8031C25.0757 15.2484 24.1424 14.9165 23.522 15.1164ZM3.15481 16.2411C3.22018 16.3408 3.45296 16.5592 3.67206 16.7263L4.07045 17.0301V18.5424C4.07045 20.0437 4.07186 20.056 4.26241 20.2465C4.36797 20.3521 4.54547 20.4385 4.6569 20.4385C4.76832 20.4385 4.94582 20.3521 5.05138 20.2465C5.23904 20.0589 5.24334 20.0267 5.24334 18.818V17.5815H6.14256H7.04177V25.3461C7.04177 33.8502 7.05984 33.5184 6.58263 33.7652C6.28205 33.9206 6.00306 33.9206 5.70249 33.7652C5.23451 33.5231 5.24334 33.6425 5.24334 27.5622V22.0137L5.0373 21.8516C4.924 21.7625 4.75284 21.6895 4.6569 21.6895C4.56095 21.6895 4.38979 21.7625 4.27649 21.8516C4.07288 22.0118 4.07045 22.0256 4.07045 23.0245C4.07045 23.7223 4.04316 24.0353 3.98233 24.0353C3.73696 24.0353 2.81217 23.4784 2.42395 23.097C1.61684 22.3039 1.27123 21.4856 1.20195 20.2039C1.11297 18.5576 1.47101 17.4597 2.39095 16.5577C2.67033 16.2838 2.9297 16.0597 2.96739 16.0597C3.00515 16.0597 3.08945 16.1413 3.15481 16.2411ZM12.4605 17.2979C13.0765 17.9205 13.4536 18.3618 13.4536 18.4603C13.4536 18.7328 13.1577 19.031 12.8871 19.031C12.6816 19.031 12.4988 18.8855 11.6842 18.0731C11.1453 17.5358 10.7031 17.028 10.6767 16.9164C10.607 16.6212 10.89 16.2942 11.2151 16.2942C11.4347 16.2942 11.5961 16.4244 12.4605 17.2979ZM24.4006 16.4506C24.4866 16.5366 24.5569 16.6921 24.5569 16.7962C24.5569 17.053 23.5669 19.1925 23.3689 19.3633C23.1319 19.5679 22.7993 19.5376 22.6078 19.2941C22.5187 19.1808 22.4457 19.0371 22.4457 18.9747C22.4457 18.787 23.5359 16.4973 23.6755 16.392C23.8695 16.2455 24.2241 16.2741 24.4006 16.4506ZM26.5313 17.452C26.7634 17.6514 26.6809 18.0077 26.1292 19.1874C25.5476 20.4312 25.3809 20.6166 24.9729 20.4732C24.8519 20.4306 24.705 20.2961 24.6466 20.1742C24.5264 19.9232 24.5963 19.7277 25.364 18.1709C25.686 17.5181 25.809 17.3405 25.9644 17.3043C26.1934 17.251 26.3425 17.2899 26.5313 17.452ZM16.9164 18.2797C15.8227 18.6367 15.0501 19.5299 14.8494 20.6695C14.635 21.8867 15.3382 23.2129 16.5005 23.7837C16.8878 23.9739 17.0192 23.9962 17.7542 23.9962C18.4957 23.9962 18.6185 23.975 19.0223 23.7767C19.6392 23.4737 20.1388 22.9633 20.4359 22.3327C20.6541 21.8694 20.6834 21.7278 20.6818 21.1422C20.6794 20.2913 20.4728 19.7422 19.9319 19.1504C19.3646 18.5296 18.7161 18.2276 17.8836 18.1962C17.49 18.1814 17.1198 18.2134 16.9164 18.2797ZM28.491 18.3217C28.5967 18.3618 28.7183 18.4984 28.7632 18.6274C28.8481 18.8708 28.6757 19.3257 27.9147 20.866C27.5949 21.5134 27.3432 21.6585 26.9923 21.3978C26.6428 21.1381 26.6807 20.8829 27.2528 19.6415C27.876 18.2897 28.0156 18.1409 28.491 18.3217ZM30.7768 19.4575C30.8823 19.5631 30.9687 19.7034 30.9687 19.7693C30.9687 19.961 29.8794 22.266 29.738 22.3737C29.5567 22.5117 29.1696 22.4951 29.0006 22.3421C28.9219 22.2709 28.8575 22.1133 28.8575 21.9919C28.8575 21.7091 29.8311 19.5831 30.0434 19.4024C30.2684 19.2108 30.5513 19.232 30.7768 19.4575ZM18.5197 19.5711C19.4033 20.0257 19.7181 21.0136 19.2674 21.9178C18.6346 23.1878 16.7783 23.1211 16.1798 21.8068C15.8083 20.991 16.1974 19.9371 17.0058 19.57C17.4336 19.3757 18.1407 19.3762 18.5197 19.5711ZM10.2052 20.6623C9.71933 20.9587 9.66123 21.1408 9.66123 22.3678C9.66123 23.3652 9.67734 23.4977 9.82246 23.6923C10.1945 24.1909 10.3175 24.2308 11.4849 24.2308C12.7039 24.2308 12.9219 24.1564 13.2116 23.6408C13.3533 23.3887 13.3754 23.2191 13.3752 22.3826C13.3751 21.2808 13.2832 20.9928 12.836 20.6941C12.5923 20.5313 12.4826 20.5167 11.5067 20.517C10.6087 20.5172 10.4061 20.5398 10.2052 20.6623ZM12.1243 22.3933V23.0188H11.4988H10.8732V22.3933V21.7677H11.4988H12.1243V22.3933ZM22.7785 24.1894C22.596 24.2722 22.3548 24.4319 22.2424 24.5443C22.0617 24.7251 22.0108 24.7391 21.8003 24.6656C21.2054 24.4583 20.3503 24.6452 19.9619 25.0674C19.7864 25.2582 19.7808 25.2589 19.3364 25.1439C18.9314 25.039 18.845 25.0404 18.4431 25.1579C18.1756 25.2361 17.8916 25.3891 17.7313 25.5413C17.4799 25.7799 17.4488 25.7892 17.1988 25.7013C16.557 25.4758 15.9142 25.637 15.3953 26.1537C14.7635 26.7828 14.7354 27.1348 15.1699 28.9765C15.5086 30.412 15.585 30.6029 15.9689 30.9716C16.6184 31.5955 17.603 31.6133 18.3034 31.0138C18.5904 30.7682 18.6376 30.7527 18.8619 30.8309C19.4497 31.0358 20.2521 30.8493 20.697 30.4046C20.8747 30.2269 20.9307 30.2097 21.0921 30.2832C21.603 30.516 22.5869 30.3058 22.9785 29.8801C23.1552 29.6883 23.1683 29.6862 23.5259 29.7951C24.5433 30.1049 25.6319 29.3957 25.7758 28.3296C25.8101 28.0759 25.7382 27.6157 25.5051 26.5974C25.1581 25.0811 25.0874 24.8991 24.7004 24.528C24.1826 24.0313 23.4221 23.8972 22.7785 24.1894ZM27.4892 24.3803C27.1626 24.5254 26.9801 24.7448 26.4784 25.5952C25.985 26.4317 25.9147 26.8501 26.1959 27.2767C26.4155 27.6099 28.0271 28.5705 28.3663 28.5705C28.9156 28.5705 29.1986 28.3142 29.8292 27.2452C30.6123 25.9178 30.416 25.4982 28.5586 24.5281C28.0194 24.2464 27.8446 24.2223 27.4892 24.3803ZM23.8794 25.4286C24.0114 25.5744 24.5544 27.7349 24.556 28.1209C24.558 28.5923 23.9609 28.822 23.6413 28.4728C23.3988 28.2078 22.8714 25.8276 23.0007 25.5821C23.0524 25.4839 23.1334 25.3778 23.1807 25.3462C23.3432 25.2378 23.7501 25.2857 23.8794 25.4286ZM28.4954 25.8859C28.7591 26.0436 28.9878 26.1827 29.0037 26.1949C29.0196 26.2072 28.8819 26.4613 28.6978 26.7597L28.363 27.3022L27.8479 26.9888C27.5646 26.8164 27.3209 26.6648 27.3064 26.6517C27.2609 26.6109 27.8767 25.6022 27.9481 25.6007C27.9855 25.5999 28.2318 25.7282 28.4954 25.8859ZM21.5389 25.9315C21.6998 26.0756 21.7855 26.3254 22.0123 27.3114C22.1647 27.9736 22.2894 28.5822 22.2894 28.6638C22.2894 28.8587 21.9475 29.196 21.7499 29.196C21.6644 29.196 21.5059 29.1169 21.3978 29.0201C21.2369 28.876 21.1512 28.6263 20.9243 27.6402C20.7719 26.978 20.6473 26.3695 20.6473 26.2878C20.6473 26.0929 20.9892 25.7556 21.1868 25.7556C21.2723 25.7556 21.4307 25.8347 21.5389 25.9315ZM19.266 26.4788C19.5362 26.7275 20.0769 29.0677 19.9358 29.3775C19.7759 29.7283 19.2715 29.7905 19.0223 29.4902C18.9138 29.3595 18.3821 27.1556 18.3807 26.8307C18.3795 26.5646 18.6289 26.3029 18.8836 26.3029C18.9888 26.3029 19.1608 26.382 19.266 26.4788ZM17.0113 27.0066C17.1728 27.1851 17.7658 29.6159 17.6962 29.8139C17.5538 30.2184 17.0462 30.3539 16.7791 30.0587C16.6295 29.8934 16.1198 27.8561 16.1149 27.4038C16.1134 27.2566 16.1704 27.0719 16.2415 26.9933C16.416 26.8005 16.8313 26.8077 17.0113 27.0066Z" fill="black"/>
</g>
</svg>
