<svg width="40" height="40" viewBox="0 0 40 40" fill="none" xmlns="http://www.w3.org/2000/svg">
<mask id="mask0_414_7458" style="mask-type:alpha" maskUnits="userSpaceOnUse" x="0" y="0" width="40" height="40">
<rect width="40" height="40" fill="white"/>
</mask>
<g mask="url(#mask0_414_7458)">
<path fill-rule="evenodd" clip-rule="evenodd" d="M16.8327 0.0578431C15.6074 0.197101 14.8779 0.372952 14.2281 0.685559C12.6582 1.44088 11.6229 3.03715 11.5892 4.75399L11.5761 5.42588L10.9301 6.16791C8.65638 8.77964 6.6554 12.3365 4.77937 17.1009C3.66992 19.9186 2.7586 22.7087 1.52303 27.0702L1.03575 28.7904L1.0076 33.2082C0.987814 36.3126 1.00611 37.7655 1.06905 38.0951C1.30715 39.3418 2.25607 40.0764 3.52175 39.9937C4.41492 39.9353 5.11504 39.4674 5.46964 38.6916C5.61828 38.3664 5.63814 38.1569 5.66488 36.629C5.6813 35.6937 5.70499 34.9284 5.71758 34.9284C5.73025 34.9284 5.86685 34.9812 6.02127 35.0457C6.17562 35.1102 6.52303 35.1627 6.79317 35.1622C7.66289 35.1609 8.44816 34.6744 8.87469 33.8728C9.07932 33.4884 9.08315 33.4531 9.1077 31.7431L9.13257 30.0042L10.5151 28.9225C12.4284 27.4254 13.5567 26.562 13.5997 26.562C13.6198 26.562 13.6524 27.2105 13.6723 28.0031C13.7082 29.4374 13.7095 29.4467 13.9613 29.9582C14.2566 30.5578 14.7176 30.9562 15.325 31.1366C16.2193 31.4022 16.9928 31.2078 17.6478 30.5528C18.3456 29.855 18.3484 29.8375 18.3484 26.2035V23.1262L20.1663 21.9238C26.1965 17.935 30.8255 15.5057 35.3856 13.9365C36.8524 13.4317 37.1972 13.2703 37.8747 12.7712C38.7874 12.0987 39.2411 11.2233 39.0759 10.4532C38.8957 9.61269 37.6679 7.50404 36.8867 6.69375C36.4588 6.2497 36.2012 6.19989 35.8987 6.50249C35.584 6.81713 35.6468 7.02449 36.3336 7.93894L36.9605 8.77355L36.3729 8.8723C35.5947 9.00311 35.0606 9.21056 34.4519 9.61832C34.0127 9.91263 33.3566 10.5894 33.2727 10.8348C33.2567 10.8813 32.8552 10.5421 32.3804 10.081C30.7861 8.53303 29.3181 7.4995 27.3012 6.50507C25.8065 5.76812 24.8705 5.40579 23.4708 5.0221C20.2973 4.15239 16.7036 4.05215 13.5005 4.74406C13.135 4.82303 12.8201 4.87245 12.8009 4.85384C12.7198 4.77557 12.9576 3.76198 13.1486 3.37157C13.2625 3.1388 13.5271 2.76075 13.7368 2.53141C14.5004 1.69586 15.4695 1.38349 17.7978 1.22234C21.6181 0.958055 26.3604 1.74497 29.9106 3.23239C31.4044 3.85823 32.4835 4.48501 34.2341 5.74365C34.3687 5.84037 34.5731 5.91958 34.6882 5.91958C35.1479 5.91958 35.4178 5.23971 35.0887 4.9106C34.8068 4.62865 33.7894 3.9003 33.0483 3.44969C30.4032 1.84169 27.0163 0.730285 23.1571 0.203982C21.8312 0.0232046 17.9304 -0.0669495 16.8327 0.0578431ZM21.4369 5.79408C23.4133 6.13718 24.9189 6.62729 26.5416 7.45572C27.6052 7.99867 29.3408 9.16286 30.3521 10.0117C31.2037 10.7264 33.5176 13.0702 33.5171 13.2176C33.5169 13.2676 33.2091 13.4282 32.8329 13.5745C30.8042 14.3632 27.6948 15.9107 24.9478 17.4987C22.1973 19.0889 17.6604 22.0464 17.3847 22.429C17.1358 22.7743 17.1043 23.2022 17.1005 26.2883C17.0969 29.0939 17.0883 29.2735 16.9441 29.5098C16.624 30.0347 15.8309 30.1767 15.3725 29.791C14.9537 29.4386 14.908 29.2261 14.908 27.6316C14.908 26.2696 14.8988 26.1806 14.732 25.9357C14.4598 25.5356 14.1785 25.3672 13.7188 25.3292C13.3457 25.2983 13.2644 25.3223 12.891 25.5737C12.3314 25.9505 8.87899 28.6255 8.42134 29.0369C7.91287 29.4941 7.87088 29.6878 7.87049 31.5753C7.87025 33.0172 7.85571 33.1929 7.71786 33.419C7.39853 33.9426 6.85283 34.0975 6.31277 33.8176C5.83651 33.5708 5.68216 33.2512 5.67895 32.5057C5.67755 32.1676 5.63603 31.8653 5.58122 31.794C5.32451 31.4596 4.88696 31.4342 4.61212 31.7377C4.48052 31.8829 4.46645 32.1385 4.4304 35.0487L4.39131 38.2024L4.16338 38.4402C3.74185 38.8799 3.11891 38.9416 2.66954 38.5882C2.23934 38.2498 2.24106 38.2699 2.24106 33.5609V29.2171L2.66579 27.5572C3.4581 24.4607 4.55285 21.0447 5.63962 18.2773C6.12206 17.0489 7.05511 14.8522 7.12971 14.7691C7.14214 14.7552 7.28757 14.8276 7.45295 14.93C8.87078 15.808 10.974 15.9487 12.6377 15.2767C14.5865 14.4895 15.7312 12.9263 15.7105 11.0802C15.6902 9.27053 14.5407 7.73048 12.6343 6.95881C12.3377 6.83879 12.0946 6.7208 12.094 6.69656C12.0936 6.67232 12.194 6.5559 12.3174 6.43775C12.5725 6.19325 12.973 6.07487 14.3215 5.8453C15.8722 5.58133 16.5042 5.53816 18.4266 5.5649C19.9748 5.58649 20.4487 5.62253 21.4369 5.79408ZM12.0931 8.05356C12.7092 8.27829 13.2448 8.64203 13.71 9.15152C14.2652 9.75953 14.471 10.3006 14.4733 11.1584C14.4749 11.745 14.4458 11.8852 14.2256 12.3527C13.6124 13.6546 12.1143 14.4678 10.3338 14.4651C9.69664 14.4642 9.43947 14.4258 8.94444 14.2578C8.3824 14.067 7.71442 13.7176 7.71442 13.6145C7.71442 13.5903 7.92413 13.1597 8.18051 12.6576C8.80018 11.444 9.86334 9.67235 10.5906 8.64125C11.2562 7.69764 11.1892 7.72383 12.0931 8.05356ZM11.2576 9.20242C10.8869 9.35544 10.8091 9.88143 11.1122 10.1845C11.4928 10.5651 12.0931 10.3037 12.0931 9.75734C12.0931 9.31213 11.6711 9.03181 11.2576 9.20242ZM23.3124 9.23386C22.2194 9.44317 21.2026 9.97112 20.4735 10.708C18.7295 12.4706 18.6659 14.924 20.3192 16.6614C20.636 16.9944 20.74 17.1521 20.6725 17.1971C20.6199 17.2323 20.2899 17.4365 19.9391 17.6509C19.22 18.0905 19.077 18.311 19.2479 18.7172C19.353 18.9671 19.4956 19.0556 19.793 19.0556C19.8925 19.0556 20.7253 18.6025 21.6437 18.0487C24.5975 16.2674 26.3164 15.3567 29.3342 13.9743C31.1469 13.1438 31.2863 13.0313 31.0898 12.557C30.919 12.1444 30.5248 12.0629 29.9988 12.3312C29.8302 12.4172 29.6583 12.4876 29.6167 12.4876C29.5752 12.4876 29.4555 12.3028 29.3509 12.0771C28.7439 10.7672 27.429 9.72779 25.8685 9.32424C25.1855 9.14761 23.9845 9.10508 23.3124 9.23386ZM37.469 10.1772C38.6639 10.6764 36.8984 12.5658 35.2371 12.5658C34.273 12.5658 33.9472 12.0588 34.4399 11.3252C35.0593 10.403 36.6063 9.81669 37.469 10.1772ZM25.7765 10.5782C26.7886 10.8809 27.5815 11.4489 28.0199 12.1856C28.5212 13.0281 28.6513 12.8835 26.3506 14.042C25.2393 14.6015 23.789 15.3621 23.1278 15.7321L21.9256 16.4049L21.6331 16.2021C21.2379 15.9283 21.0664 15.735 20.7475 15.2044C19.5571 13.2235 21.032 10.84 23.7045 10.4258C24.1342 10.3592 25.3408 10.4479 25.7765 10.5782ZM23.2318 11.6631C22.9181 11.9767 22.9983 12.414 23.4096 12.6331C24 12.9476 24.5373 12.0942 24.0259 11.6543C23.7519 11.4186 23.4731 11.4217 23.2318 11.6631ZM10.8776 12.3668C10.6431 12.6013 10.6327 12.8684 10.8478 13.1417C11.188 13.5743 11.8898 13.3182 11.8898 12.7613C11.8898 12.2154 11.2704 11.974 10.8776 12.3668ZM26.1732 12.3809C26.084 12.4942 26.0111 12.6653 26.0111 12.7613C26.0111 13.0432 26.3009 13.3477 26.5692 13.3477C26.9 13.3477 27.0762 13.2323 27.1741 12.9514C27.3909 12.3295 26.578 11.8662 26.1732 12.3809ZM9.98195 17.9317C8.43284 18.234 7.26631 18.8922 6.49933 19.8967C6.17257 20.3246 6.14255 20.6675 6.40973 20.9186C6.74728 21.2357 6.97591 21.1521 7.62982 20.4725C8.55998 19.5057 9.46324 19.1373 10.909 19.135C12.0357 19.1332 13.0348 19.4559 13.7958 20.0674C14.0986 20.3108 14.5958 20.9299 14.5947 21.0623C14.5944 21.0983 14.4635 21.2157 14.3038 21.3232C13.6722 21.7484 11.2109 23.6171 10.1481 24.4783C9.52985 24.9792 8.98111 25.3891 8.92872 25.3891C8.78501 25.3891 7.93859 24.8161 7.70277 24.5592C7.17615 23.9855 6.97184 23.506 6.81311 22.4721C6.75338 22.0832 6.53499 21.8705 6.19541 21.8705C5.6458 21.8705 5.47362 22.4274 5.7229 23.3984C6.01729 24.5446 6.69372 25.4547 7.78628 26.1744C7.96877 26.2946 7.96565 26.2982 6.94932 27.176C6.38822 27.6606 5.9086 28.1105 5.8835 28.176C5.70241 28.6479 6.15686 29.174 6.60129 29.0071C6.68965 28.9739 7.38961 28.4134 8.1569 27.7613C11.1013 25.2593 13.8731 23.1109 16.1733 21.548C16.83 21.1018 17.4824 20.626 17.6232 20.4904C17.9344 20.1911 17.9557 19.9069 17.6873 19.6386C17.3817 19.3329 17.131 19.3873 16.3576 19.9268C15.785 20.3263 15.658 20.3867 15.6016 20.2859C15.0718 19.3392 13.8056 18.4334 12.5203 18.0815C12.0612 17.9558 10.3698 17.856 9.98195 17.9317ZM8.1831 22.5534C8.06049 22.7093 8.02726 22.8312 8.06041 23.003C8.19138 23.6826 9.11583 23.6723 9.24766 22.9899C9.35588 22.4296 8.54277 22.0962 8.1831 22.5534Z" fill="black"/>
</g>
</svg>
