<svg width="40" height="40" viewBox="0 0 40 40" fill="none" xmlns="http://www.w3.org/2000/svg">
<mask id="mask0_414_7413" style="mask-type:alpha" maskUnits="userSpaceOnUse" x="0" y="0" width="40" height="40">
<rect y="-6.10352e-05" width="40" height="40" fill="white"/>
</mask>
<g mask="url(#mask0_414_7413)">
<path fill-rule="evenodd" clip-rule="evenodd" d="M11.3549 0.111298C10.834 0.251564 10.385 0.477083 9.88743 0.848417L9.49438 1.14176L9.23948 0.928903C8.59277 0.389017 7.6467 0.0710549 6.68273 0.0696483C4.31032 0.0661319 2.49843 1.8824 2.49273 4.26965L2.49101 4.99325L1.81437 5.67716C1.44226 6.05333 1.0174 6.56587 0.870256 6.81608C0.509706 7.42919 0.190025 8.35893 0.0883617 9.0898C-0.0323685 9.95772 -0.0279925 28.9023 0.0929721 29.1678C0.286453 29.5926 0.948476 29.6217 1.15446 29.2145C1.23166 29.0619 1.25315 26.9272 1.25519 19.2136C1.25792 8.36416 1.23698 8.83521 1.76436 7.76786C2.56157 6.15445 4.21616 5.15243 6.08853 5.14915C6.87199 5.14774 7.49752 5.29855 8.24191 5.6684C8.76624 5.92885 9.46593 6.61338 21.3884 18.5286C31.2146 28.3488 34.0435 31.2187 34.2645 31.5909C35.862 34.2816 34.4001 37.803 31.3342 38.6496C30.8626 38.7799 30.0509 38.7883 18.0556 38.7883C5.87239 38.7883 5.25749 38.7817 4.81044 38.6445C3.58243 38.2681 2.4367 37.3668 1.85391 36.3189C1.36771 35.4447 1.25495 34.8247 1.25495 33.0263V31.47L1.02654 31.2416C0.900887 31.1159 0.72241 31.0131 0.629811 31.0131C0.537212 31.0131 0.358735 31.1159 0.233082 31.2416L0.00467102 31.47V32.8379C0.00467102 34.4479 0.0937535 35.1878 0.387413 36.0177C0.705688 36.9171 1.05639 37.4548 1.84415 38.2509C2.46882 38.8823 2.64511 39.0105 3.36792 39.3588C4.80129 40.0496 3.65033 39.9996 18.1101 39.999C30.4809 39.9984 30.931 39.9934 31.5352 39.8478C32.3125 39.6605 32.7953 39.4511 33.459 39.0136C34.0008 38.6565 34.9266 37.7355 35.1203 37.3611C35.2231 37.1621 35.2932 37.1335 35.8849 37.0485C39.265 36.5628 40.6906 32.5267 38.3615 30.0369L37.8963 29.5396L38.178 29.1706C38.7784 28.384 39.0251 27.6302 39.0197 26.5981C39.0135 25.4205 38.6386 24.5228 37.7981 23.6724C37.2601 23.1283 36.4644 22.6838 35.7724 22.5408C35.3288 22.449 35.2879 22.4238 35.307 22.2531C35.3932 21.4816 35.3452 20.6216 35.1874 20.109C34.7456 18.6748 33.4665 17.5057 32.0426 17.2352L31.5702 17.1454L31.6308 16.7925C32.0195 14.5309 30.5661 12.3794 28.3313 11.9082C28.0305 11.8447 27.6742 11.7922 27.5395 11.7914L27.2948 11.7901L27.2412 11.2183C27.0726 9.41948 25.9202 8.00229 24.1999 7.4785C23.7466 7.3405 23.5268 7.32104 22.7895 7.35355L21.9161 7.39207L21.831 6.94447C21.5483 5.4564 20.2944 4.169 18.7374 3.76821C18.3734 3.67452 18.0436 3.65381 17.4276 3.68593L16.6043 3.72875L16.5139 3.25364C16.2365 1.79386 14.9865 0.502323 13.4684 0.106922C12.9143 -0.0374069 11.8994 -0.0352971 11.3549 0.111298ZM12.9424 1.24765C13.906 1.42417 14.7432 2.06869 15.1489 2.94631C15.3171 3.31022 15.3595 3.53371 15.3852 4.19206C15.4144 4.93832 15.4303 5.00521 15.6136 5.1493C15.8578 5.34145 16.0497 5.34231 16.466 5.15329C16.6447 5.0721 16.9905 4.96434 17.2345 4.9137C18.1609 4.72139 19.3177 5.13102 19.9781 5.88517C20.4571 6.43232 20.6498 6.97034 20.6934 7.88296C20.7227 8.49357 20.7577 8.6565 20.8906 8.80114C21.0953 9.02384 21.2505 9.02197 21.8394 8.78942C22.478 8.53733 23.0246 8.47427 23.579 8.58875C24.7535 8.83138 25.5861 9.59538 25.9121 10.7295C26.043 11.1849 26.0407 11.5911 25.9024 12.4679C25.8572 12.7538 25.8767 12.8199 26.0604 13.0036C26.2532 13.1964 26.2988 13.2077 26.6363 13.1463C26.838 13.1095 27.2842 13.0815 27.6281 13.0839C28.1307 13.0876 28.3408 13.1286 28.7 13.2934C29.3201 13.5778 29.8814 14.1271 30.1879 14.7496C30.4201 15.2212 30.4411 15.326 30.4402 16.0081C30.4395 16.6484 30.4093 16.8204 30.224 17.2412C29.9985 17.7538 29.9991 18.0254 30.2263 18.2141C30.2985 18.2741 30.6727 18.3332 31.1506 18.36C31.8413 18.3988 32.0236 18.4396 32.4558 18.6524C33.0633 18.9515 33.6151 19.5162 33.9037 20.1343C34.0837 20.5199 34.1122 20.6827 34.1122 21.3235C34.1122 21.9712 34.0847 22.1251 33.8954 22.5307C33.6646 23.0254 33.6649 23.3333 33.8963 23.5256C33.9713 23.588 34.3324 23.6462 34.8104 23.673C35.432 23.7079 35.6954 23.7609 36.0463 23.9216C36.6653 24.2049 37.2268 24.7545 37.5333 25.377C37.7633 25.8441 37.7863 25.9564 37.7838 26.5965C37.7796 27.6286 37.5873 28.0662 36.7978 28.84C35.9936 29.6281 35.9859 29.8602 36.7495 30.2911C37.2782 30.5895 37.7844 31.1405 38.0462 31.7028C38.2232 32.0831 38.2528 32.2519 38.254 32.8886C38.2553 33.5396 38.2285 33.6886 38.0366 34.0998C37.9164 34.3576 37.6526 34.7397 37.4506 34.9488C36.9186 35.4994 35.7617 36.0239 35.9055 35.6493C36.1653 34.9722 36.2076 33.4711 35.9909 32.6151C35.6658 31.331 35.1851 30.5828 33.6964 29.0447L32.6143 27.9265L32.6914 27.2623C32.837 26.0062 32.4559 23.7518 32.0411 23.4161C31.8145 23.2324 31.5639 23.2403 31.3113 23.439C31.0591 23.6374 31.0519 23.8258 31.2649 24.6516C31.4055 25.1968 31.5719 26.7935 31.4881 26.7935C31.4707 26.7935 29.6984 25.0317 27.5496 22.8785L23.6428 18.9636L24.3846 19.0178C25.7729 19.1193 27.1305 19.5764 28.2237 20.3103C28.4978 20.4943 29.046 20.9734 29.4421 21.3749C30.2328 22.1766 30.4563 22.2697 30.7724 21.9291C31.113 21.562 31.0376 21.2926 30.4016 20.6023C29.4274 19.545 28.1703 18.7218 26.8383 18.2687C25.7724 17.9061 24.9757 17.7939 23.6652 17.8218C22.6544 17.8432 22.4989 17.8296 22.3787 17.7095C22.2593 17.5902 22.2406 17.3914 22.231 16.1466C22.2219 14.9661 22.1911 14.6083 22.052 14.0697C21.2058 10.7914 18.8244 8.41472 15.5229 7.55343C15.0007 7.41715 14.6437 7.38691 13.4691 7.37957L12.0473 7.37066L11.0857 6.43061C10.5569 5.91354 9.93237 5.33997 9.69794 5.15594C8.16228 3.95021 6.00477 3.58426 4.16443 4.21745C3.92539 4.29966 3.71378 4.35092 3.69417 4.33123C3.59243 4.22957 3.79865 3.36367 4.03886 2.8834C4.95867 1.04487 7.35304 0.717294 8.84314 2.22615C9.42327 2.81347 9.60909 2.80651 10.2398 2.17387C10.7311 1.68095 11.2967 1.36431 11.8961 1.24632C12.3725 1.15255 12.4238 1.15263 12.9424 1.24765ZM14.9426 8.6965C17.5759 9.20302 19.7278 11.0581 20.6175 13.5887C20.8961 14.381 21.0467 15.2545 21.0115 15.874L20.9859 16.3242L17.1182 12.4552L13.2505 8.58624H13.8098C14.1174 8.58624 14.6272 8.63587 14.9426 8.6965ZM5.02666 14.7022C2.79366 16.9352 2.50523 17.2516 2.50523 17.4676C2.50523 17.8303 2.73739 18.0727 3.08466 18.0727C3.35714 18.0727 3.49795 17.9465 5.86388 15.5815C7.23457 14.2113 8.37663 13.0083 8.40171 12.9083C8.45492 12.6965 8.27207 12.2996 8.08891 12.2293C7.66944 12.0684 7.62341 12.1055 5.02666 14.7022ZM7.13588 18.0617C2.74505 22.4526 2.50523 22.7069 2.50523 22.9711C2.50523 23.3151 2.76771 23.5896 3.09661 23.5896C3.29603 23.5896 3.94024 22.9755 7.99498 18.9204C12.2506 14.6643 12.6638 14.2286 12.6638 13.9974C12.6638 13.6509 12.4289 13.4311 12.0589 13.4311C11.7766 13.4311 11.6074 13.5903 7.13588 18.0617ZM9.08858 21.6557C2.23345 28.5113 2.38583 28.3449 2.55602 28.7884C2.63307 28.9892 3.04496 29.1362 3.2833 29.0479C3.52046 28.9601 16.295 16.2241 16.4627 15.9082C16.675 15.5085 16.409 15.0721 15.953 15.0721C15.6846 15.0721 15.3741 15.3698 9.08858 21.6557ZM10.4567 25.7585C2.79412 33.421 2.50523 33.7203 2.50523 33.9969C2.50523 34.3305 2.78459 34.6077 3.12092 34.6077C3.28736 34.6077 4.79598 33.1366 11.3154 26.6172C19.9774 17.9551 19.5466 18.4313 19.114 17.9989C18.9881 17.8729 18.834 17.8071 18.6652 17.8071C18.4283 17.8071 17.784 18.4312 10.4567 25.7585ZM13.1399 28.6225C5.72791 36.0347 5.06034 36.7234 5.06674 36.9501C5.07987 37.4108 5.46332 37.6521 5.88865 37.4674C6.03415 37.4041 9.46546 34.028 14.0899 29.398C21.3994 22.0797 22.0409 21.4167 22.0409 21.1815C22.0409 21.014 21.9746 20.8594 21.849 20.7339C21.4158 20.3006 21.9015 19.8606 13.1399 28.6225ZM17.2557 29.9771C10.7965 36.4348 10.5539 36.6877 10.5539 36.9653C10.5539 37.1833 10.6039 37.2925 10.7598 37.4151C11.2138 37.7722 10.8784 38.0721 18.0746 30.8759C24.5235 24.427 24.7758 24.1639 24.7758 23.8878C24.7758 23.671 24.7256 23.5614 24.5699 23.439C24.1167 23.0825 24.4503 22.7843 17.2557 29.9771ZM20.6936 32.0102C16.4141 36.2897 16.0239 36.7014 16.0239 36.9367C16.0239 37.1051 16.0898 37.2595 16.2157 37.3853C16.639 37.8087 16.4478 37.9705 21.551 32.8699C25.7446 28.6784 26.2606 28.1363 26.2606 27.9215C26.2606 27.5983 25.9812 27.3404 25.6311 27.3404C25.3813 27.3404 25.0506 27.6533 20.6936 32.0102ZM25.9871 32.3409C25.7007 32.4618 21.5842 36.6641 21.5293 36.8914C21.4879 37.0627 21.5241 37.1505 21.7143 37.3407C22.1722 37.7986 22.1588 37.8078 24.5985 35.368C26.9795 32.987 27.0024 32.9553 26.6317 32.5476C26.4248 32.3199 26.204 32.2491 25.9871 32.3409Z" fill="black"/>
</g>
</svg>
