<svg width="40" height="40" viewBox="0 0 40 40" fill="none" xmlns="http://www.w3.org/2000/svg">
<mask id="mask0_414_7440" style="mask-type:alpha" maskUnits="userSpaceOnUse" x="0" y="0" width="40" height="40">
<rect width="40" height="40" fill="white"/>
</mask>
<g mask="url(#mask0_414_7440)">
<path fill-rule="evenodd" clip-rule="evenodd" d="M15.6785 0.108801C15.3092 0.240543 14.9034 0.547864 14.6362 0.898162C14.5225 1.04733 14.3656 1.16938 14.2877 1.16938C13.9573 1.16938 12.2414 1.67057 11.509 1.98094C10.113 2.57268 9.08523 3.39775 8.65445 4.2726C8.47215 4.64282 8.47004 4.67634 8.4473 7.6325L8.42425 10.6184L8.17382 10.6568C8.03606 10.6779 7.65958 10.7172 7.33726 10.7442C4.42056 10.988 1.58255 12.1538 0.5365 13.5377C-0.0448552 14.307 -0.0134432 13.8096 0.0101548 21.8784L0.0312523 29.1041L0.247073 29.5136C0.98955 30.9223 3.11759 32.0439 6.04796 32.5708C11.2167 33.5002 17.1066 32.2007 18.6539 29.7894C19.0976 29.098 19.1363 28.776 19.1363 25.7759V23.0667L19.7418 23.0141C20.0749 22.9851 20.4606 22.9421 20.5988 22.9185L20.8502 22.8756L20.8723 29.4688L20.8944 36.0619L21.1482 36.5681C21.2877 36.8465 21.5043 37.1856 21.6295 37.3217C22.8462 38.6439 25.1311 39.5432 28.1716 39.8964C29.5019 40.0509 32.2698 40.0071 33.4748 39.8124C36.7509 39.2831 39.0215 38.1214 39.7762 36.5887C39.9449 36.2462 39.9624 36.0989 39.9847 34.8354C40.0085 33.4901 40.0048 33.4519 39.8332 33.2921C39.6079 33.0822 39.2211 33.0801 38.9984 33.2876C38.8385 33.4365 38.8273 33.5171 38.8268 34.5183C38.8266 35.1075 38.7911 35.717 38.7479 35.8728C38.5799 36.4774 37.6548 37.247 36.5136 37.7315C32.3234 39.5101 25.1596 38.9732 22.7536 36.7C22.0624 36.0472 22.0991 36.4307 22.1234 30.1093L22.1446 24.5507L22.8195 24.996C23.9154 25.7192 25.4133 26.2338 27.2748 26.5266C28.3739 26.6995 31.1717 26.7656 32.4988 26.6498C34.9451 26.4365 37.0482 25.7816 38.3976 24.8129L38.7882 24.5325L38.8295 27.756C38.8522 29.5289 38.8786 30.9899 38.8881 31.0027C38.8976 31.0156 39.0173 31.0731 39.1539 31.1306C39.4456 31.2532 39.8017 31.1637 39.9229 30.9373C39.9703 30.8488 39.9994 29.0819 39.9994 26.2992C39.9994 20.9256 40.0574 21.2865 39.0311 20.2744C37.9153 19.174 36.2545 18.4695 33.777 18.0455C32.1104 17.7603 29.0801 17.7044 27.8451 17.9361L27.5753 17.9867V11.5384C27.5753 4.25666 27.599 4.55913 26.9632 3.71711C26.1789 2.67825 24.3562 1.74644 22.1508 1.25698C21.668 1.14985 21.4299 1.05858 21.376 0.960048C21.3333 0.881753 21.1846 0.709143 21.0456 0.576385C20.3159 -0.120303 19.0945 -0.195395 18.2651 0.405417L17.9484 0.634833L17.7805 0.477227C17.3147 0.0399601 16.3468 -0.12968 15.6785 0.108801ZM16.7424 1.27714C17.5059 1.5961 17.5562 2.65637 16.8243 3.0037C16.4104 3.20006 16.0363 3.12013 15.7086 2.76514C15.468 2.50462 15.4486 2.44743 15.4823 2.09752C15.5229 1.67533 15.6865 1.43935 16.0498 1.27901C16.3501 1.14641 16.4291 1.14618 16.7424 1.27714ZM20.1246 1.37958C20.306 1.49835 20.5428 1.92952 20.5428 2.14089C20.5428 2.61417 20.0371 3.12231 19.566 3.12231C19.0112 3.12231 18.5196 2.54236 18.6201 2.00649C18.753 1.298 19.5154 0.980364 20.1246 1.37958ZM14.2753 2.62379C14.2923 2.73795 14.2251 2.80296 14.0095 2.88094C13.6395 3.01472 13.0758 3.53411 12.8604 3.9398C12.6181 4.39598 12.6217 5.37264 12.8675 5.83608C13.517 7.06115 15.0734 7.43809 16.1141 6.62232L16.4128 6.38814L16.5839 6.54887C17.1375 7.06904 18.2013 7.19977 18.9397 6.83845C19.1678 6.72687 19.3969 6.5845 19.4486 6.52215C19.5295 6.42478 19.578 6.43565 19.793 6.59966C20.6619 7.26244 21.8863 7.18961 22.6672 6.42877C23.3104 5.80217 23.4864 4.7623 23.0873 3.94652C22.8587 3.47933 22.3832 3.02058 21.9742 2.87266C21.7829 2.80351 21.7149 2.73177 21.7149 2.59925C21.7149 2.50048 21.7439 2.41961 21.7795 2.41961C22.0798 2.41961 23.7195 2.97619 24.4114 3.31297C25.7267 3.95332 26.3888 4.6908 26.3062 5.42359C26.2275 6.1216 25.537 6.78516 24.2653 7.38449C20.609 9.10761 14.0886 8.90914 10.9551 6.97934C9.52375 6.09785 9.27534 5.15877 10.2229 4.21142C10.9034 3.53122 11.9017 3.03433 13.4321 2.61402C14.1804 2.40859 14.2434 2.40929 14.2753 2.62379ZM15.1796 4.01201C15.8168 4.27822 15.9842 5.00976 15.5223 5.50993C15.2101 5.8482 14.8245 5.93251 14.4353 5.74779C13.7003 5.39905 13.7278 4.343 14.4803 4.01529C14.7884 3.8812 14.8658 3.88089 15.1796 4.01201ZM18.4051 4.03201C19.147 4.3841 19.0637 5.55306 18.2799 5.78787C17.9038 5.90055 17.6409 5.83765 17.3308 5.56057C16.8481 5.12924 16.9933 4.28151 17.5946 4.02013C17.9264 3.87581 18.0808 3.87807 18.4051 4.03201ZM21.6906 4.1021C21.9007 4.23986 22.1057 4.65251 22.1052 4.93709C22.1048 5.21269 21.8224 5.61182 21.5287 5.75185C21.1791 5.9186 20.7445 5.8371 20.4586 5.55119C19.6464 4.73886 20.7254 3.46964 21.6906 4.1021ZM10.4628 8.11446C11.7797 8.90429 13.7341 9.46432 15.9625 9.69045C17.3032 9.82649 19.997 9.74765 21.2359 9.53613C23.2118 9.19872 24.8986 8.59283 25.9539 7.84137L26.3251 7.57702V12.8826V18.1882L25.9148 18.2843C24.6223 18.5876 23.158 19.2287 22.2813 19.875C21.7549 20.2631 21.1326 21.0346 21.0527 21.3981C20.9969 21.6522 20.8946 21.6822 19.7852 21.7699L19.1449 21.8205L19.121 18.1935L19.0972 14.5666L18.8423 14.0491C17.9271 12.1906 14.7287 10.8744 10.59 10.6531L9.60329 10.6004V9.07909V7.55772L9.77911 7.68376C9.87576 7.75307 10.1835 7.94686 10.4628 8.11446ZM11.9239 11.9952C14.6857 12.3572 16.7073 13.1785 17.5473 14.2798C18.2127 15.1522 17.8321 16.0308 16.4271 16.8655C12.6725 19.0961 4.3779 18.7317 1.82431 16.2241C0.9858 15.4006 0.976501 14.7854 1.79055 13.9811C2.71932 13.0633 4.71522 12.3119 7.06377 11.9957C8.17194 11.8465 10.787 11.8463 11.9239 11.9952ZM9.30316 13.0935C9.03296 13.2827 8.95896 13.5525 9.09078 13.8679C9.22049 14.1784 9.26589 14.1922 10.3578 14.2526C11.8005 14.3325 13.0424 14.6761 13.1044 15.0124C13.1623 15.3265 12.4098 15.6749 11.2568 15.8677C10.9705 15.9155 10.1913 15.9553 9.52515 15.9561C8.12467 15.9578 6.96399 15.7941 6.33536 15.5064C5.7762 15.2504 5.79456 15.0546 6.4085 14.7265C6.64979 14.5976 6.90476 14.4438 6.97501 14.3849C7.14332 14.2437 7.13832 13.809 6.9661 13.6055C6.7198 13.3144 6.47968 13.3235 5.84777 13.648C4.96488 14.1015 4.55965 14.8078 4.75851 15.5464C5.04106 16.5957 6.74653 17.1879 9.48608 17.1879C12.4008 17.1879 14.105 16.5216 14.3328 15.293C14.4165 14.8418 14.3114 14.4753 13.9992 14.1298C13.461 13.5341 12.4573 13.1976 10.7754 13.0491C9.59126 12.9445 9.51249 12.9469 9.30316 13.0935ZM2.5317 18.185C4.34062 19.0895 6.70636 19.5526 9.52515 19.5541C12.7352 19.5557 15.5324 18.9112 17.2668 17.7701L17.886 17.3627V22.9939C17.886 28.5407 17.8836 28.63 17.7232 28.9614C17.2038 30.0344 15.0784 31.0224 12.3717 31.449C11.2709 31.6225 8.98834 31.6838 7.80609 31.5716C4.30437 31.2391 1.64006 30.0608 1.24061 28.6681C1.19412 28.506 1.16427 26.2359 1.16427 22.8663V17.3309L1.53543 17.6016C1.73961 17.7506 2.18789 18.0131 2.5317 18.185ZM32.133 19.0686C34.85 19.3072 37.0928 20.0729 38.176 21.1318C38.9483 21.8867 39.0009 22.4953 38.3573 23.2264C37.3088 24.4177 34.5935 25.313 31.5799 25.4613C27.6137 25.6565 23.9837 24.7636 22.5881 23.2496C22.018 22.631 21.9751 22.0483 22.4521 21.3985C23.6502 19.7663 28.0417 18.7093 32.133 19.0686ZM30.8199 20.0475C30.649 20.1101 30.475 20.1955 30.4331 20.2374C30.3887 20.2818 29.691 20.3135 28.7564 20.3135C26.9442 20.3135 26.7026 20.3724 26.2446 20.9261C25.5871 21.721 25.6527 22.9448 26.3923 23.6841C26.6164 23.9082 26.8741 24.0795 27.0674 24.1331C27.2441 24.1819 28.0127 24.2197 28.8351 24.2199C30.1446 24.2203 30.3276 24.2369 30.6625 24.3851C31.2272 24.6349 31.8069 24.6587 32.5775 24.4638C33.8037 24.1538 34.6682 23.6177 35.0041 22.9591C35.1886 22.5976 35.2019 21.96 35.0324 21.6028C34.507 20.4957 32.062 19.5929 30.8199 20.0475ZM2.70642 20.1767C2.63571 20.2305 2.54108 20.3734 2.49615 20.4944C2.3923 20.7742 2.38613 24.9951 2.48912 25.2662C2.65766 25.7094 3.16846 25.8106 3.5104 25.4687C3.65738 25.3217 3.66472 25.1998 3.66472 22.9026C3.66472 20.581 3.6587 20.4831 3.50274 20.2849C3.32349 20.057 2.93381 20.004 2.70642 20.1767ZM33.0513 21.4555C33.4684 21.6428 33.9827 22.0864 33.9827 22.2591C33.9827 22.4153 33.6242 22.7564 33.273 22.9343C32.443 23.3549 31.4179 23.4846 31.0807 23.2115C30.9091 23.0726 30.8962 23.0076 30.8962 22.282C30.8962 21.1813 31.0202 21.068 32.092 21.19C32.3628 21.2208 32.7945 21.3404 33.0513 21.4555ZM29.646 22.2279V22.9702H28.5265H27.407L27.1786 22.7418C26.9277 22.491 26.8866 22.1961 27.0593 21.8848C27.2464 21.5471 27.4622 21.4913 28.5911 21.4883L29.646 21.4855V22.2279ZM23.6968 27.2811C23.3807 27.4341 23.3558 27.6392 23.3558 30.0881V32.4321L23.5476 32.6239C23.7804 32.8567 24.1256 32.8743 24.3824 32.6665L24.5669 32.5172L24.5898 30.1512C24.6142 27.6271 24.5912 27.4355 24.2454 27.278C24.015 27.173 23.9189 27.1735 23.6968 27.2811Z" fill="black"/>
</g>
</svg>
