<svg width="200" height="200" viewBox="0 0 200 200" fill="none" xmlns="http://www.w3.org/2000/svg">
<path id="Vector" fill-rule="evenodd" clip-rule="evenodd" d="M139.635 1.75242C130.725 5.17761 127.289 12.895 132.118 18.6347C134.24 21.1561 134.251 21.2459 132.82 24.247C132.02 25.9245 131.57 27.5012 131.819 27.75C132.069 27.9996 133.965 27.4353 136.034 26.4974C138.102 25.5586 140.737 24.7822 141.89 24.772C143.518 24.7574 143.756 24.5249 142.959 23.728C142.162 22.9311 140.982 23.1055 137.658 24.5095C133.063 26.4512 132.804 26.3255 134.636 23.0431C135.732 21.0792 135.644 20.7115 133.556 18.5184C130.33 15.1291 130.41 10.3462 133.753 6.85686C136.596 3.8891 142.993 1.51387 149.014 1.18897C155.022 0.865772 155.11 -0.0508041 149.129 0.00220676C146.231 0.0278572 142.176 0.77514 139.635 1.75242ZM62.9102 2.63565C62.2168 5.79664 59.8476 22.9251 59.8766 24.5651C59.8989 25.8057 60.0134 25.8356 60.6077 24.7532C61.5337 23.0679 64.4416 1.69856 63.8285 1.08466C63.5677 0.823878 63.1548 1.52242 62.9102 2.63565ZM158.178 1.66778C158.178 2.13803 158.585 2.52279 159.083 2.52279C159.581 2.52279 159.751 2.13803 159.46 1.66778C159.169 1.19752 158.762 0.812762 158.555 0.812762C158.347 0.812762 158.178 1.19752 158.178 1.66778ZM160.743 2.92807C160.743 3.15122 161.89 3.92758 163.293 4.65263C166.153 6.13181 168.438 9.89985 168.438 13.1386C168.438 18.3671 159.815 23.8981 151.663 23.8981C149.658 23.8981 147.781 24.2829 147.49 24.7532C146.679 26.0656 152.985 25.7886 158.035 24.2889C163.395 22.6968 167.989 18.8715 169.296 14.9102C170.48 11.3252 168.673 6.83548 164.994 4.21572C162.761 2.62625 160.743 2.01491 160.743 2.92807ZM53.5444 11.7142C54.1412 15.3591 54.6508 19.0365 54.6756 19.8873C54.7004 20.738 55.0492 21.2314 55.4511 20.9834C56.0992 20.5824 55.7358 16.5826 54.2592 7.86663C54.0001 6.33786 53.4888 5.08783 53.1237 5.08783C52.7578 5.08783 52.9467 8.06927 53.5444 11.7142ZM147.062 9.84085C147.062 11.0815 147.433 11.8005 147.917 11.5004C148.388 11.2097 148.772 10.2256 148.772 9.31246C148.772 8.3993 148.388 7.65287 147.917 7.65287C147.447 7.65287 147.062 8.63785 147.062 9.84085ZM152.193 9.79041C152.193 10.9661 152.577 11.9279 153.048 11.9279C153.518 11.9279 153.903 10.9661 153.903 9.79041C153.903 8.61477 153.518 7.65287 153.048 7.65287C152.577 7.65287 152.193 8.61477 152.193 9.79041ZM68.4011 9.3629C68.4011 9.83316 69.1706 10.2179 70.1112 10.2179C71.0517 10.2179 71.8212 9.83316 71.8212 9.3629C71.8212 8.89264 71.0517 8.50789 70.1112 8.50789C69.1706 8.50789 68.4011 8.89264 68.4011 9.3629ZM74.3862 9.44328C74.3862 9.86907 75.1557 10.2179 76.0963 10.2179C77.0368 10.2179 77.8063 10.07 77.8063 9.89044C77.8063 9.71004 77.0368 9.36119 76.0963 9.11495C75.1557 8.86956 74.3862 9.01662 74.3862 9.44328ZM41.8957 10.2179C41.8957 10.6882 42.6421 11.0729 43.5553 11.0729C44.4684 11.0729 45.4526 10.6882 45.7433 10.2179C46.0434 9.73312 45.3243 9.3629 44.0837 9.3629C42.8807 9.3629 41.8957 9.74766 41.8957 10.2179ZM80.6672 10.3325C81.7992 10.99 82.5131 10.9832 83.1895 10.3068C83.8777 9.61855 83.4502 9.36974 81.6111 9.38855C79.4 9.41164 79.2837 9.52792 80.6672 10.3325ZM85.8793 10.2983C85.616 10.7241 86.3855 11.0729 87.5885 11.0729C90.2083 11.0729 90.4203 10.5856 88.0673 9.97082C87.1277 9.72457 86.1427 9.87249 85.8793 10.2983ZM36.7656 11.0729C36.7656 12.1443 37.6728 12.1443 39.3307 11.0729C40.3678 10.4026 40.2447 10.2419 38.6894 10.2307C37.6317 10.2239 36.7656 10.6027 36.7656 11.0729ZM91.4865 11.0729C91.4865 11.5432 92.256 11.9279 93.1965 11.9279C94.1371 11.9279 94.9066 11.5432 94.9066 11.0729C94.9066 10.6027 94.1371 10.2179 93.1965 10.2179C92.256 10.2179 91.4865 10.6027 91.4865 11.0729ZM30.7805 11.9279C30.7805 12.9993 31.6877 12.9993 33.3456 11.9279C34.3827 11.2576 34.2596 11.0969 32.7043 11.0858C31.6466 11.0789 30.7805 11.4577 30.7805 11.9279ZM97.8991 11.9279C98.1898 12.3982 98.9816 12.783 99.6596 12.783C100.338 12.783 100.892 12.3982 100.892 11.9279C100.892 11.4577 100.099 11.0729 99.1312 11.0729C98.1633 11.0729 97.6084 11.4577 97.8991 11.9279ZM25.6504 12.783C24.6133 13.4533 24.7364 13.614 26.2917 13.6251C27.3493 13.632 28.2155 13.2532 28.2155 12.783C28.2155 11.7116 27.3083 11.7116 25.6504 12.783ZM103.884 12.783C104.175 13.2532 104.967 13.638 105.645 13.638C106.323 13.638 106.877 13.2532 106.877 12.783C106.877 12.3127 106.084 11.9279 105.116 11.9279C104.148 11.9279 103.594 12.3127 103.884 12.783ZM68.1746 20.2216C64.9939 24.2675 62.5887 27.7765 62.8307 28.0185C63.0727 28.2604 63.3925 28.298 63.5412 28.1022C63.6891 27.9056 66.1208 24.86 68.9441 21.3331C74.7539 14.0757 75.6328 12.7659 74.6504 12.824C74.27 12.8462 71.3561 16.1757 68.1746 20.2216ZM109.014 13.638C109.305 14.1082 110.312 14.493 111.253 14.493C112.193 14.493 112.725 14.1082 112.434 13.638C112.144 13.1677 111.136 12.783 110.196 12.783C109.255 12.783 108.724 13.1677 109.014 13.638ZM180.33 14.1595C178.776 16.032 181.434 18.6903 183.306 17.1358C184.718 15.9645 184.327 14.0125 182.542 13.3276C181.908 13.0839 180.912 13.4584 180.33 14.1595ZM19.2378 14.493C18.5649 15.5814 20.546 15.5814 22.2304 14.493C23.2726 13.8192 23.1623 13.6619 21.6396 13.6508C20.6093 13.644 19.5285 14.0227 19.2378 14.493ZM114.572 14.493C114.572 14.9632 115.63 15.342 116.923 15.3352C118.755 15.3249 118.991 15.1385 117.992 14.493C116.319 13.4122 114.572 13.4122 114.572 14.493ZM182.973 15.348C182.973 15.8183 182.588 16.203 182.118 16.203C181.648 16.203 181.263 15.8183 181.263 15.348C181.263 14.8777 181.648 14.493 182.118 14.493C182.588 14.493 182.973 14.8777 182.973 15.348ZM14.56 16.1697C13.8683 16.6074 13.5118 17.1743 13.7674 17.43C14.0231 17.6865 14.9739 17.3342 15.8802 16.6485C17.6825 15.2847 16.5873 14.8871 14.56 16.1697ZM121.412 16.203C123.07 17.2743 123.977 17.2743 123.977 16.203C123.977 15.7328 123.112 15.354 122.053 15.3608C120.498 15.3719 120.375 15.5327 121.412 16.203ZM145.729 16.5861C147.875 18.3012 153.11 18.291 155.236 16.5673C156.833 15.2719 156.815 15.2437 154.758 15.8234C151.797 16.657 148.731 16.6904 146.207 15.9157C144.158 15.2864 144.138 15.3147 145.729 16.5861ZM9.42995 18.7347C8.73824 19.1725 8.3817 19.7394 8.63735 19.995C8.893 20.2515 9.84378 19.8992 10.7501 19.2135C12.5525 17.8498 11.4572 17.4522 9.42995 18.7347ZM38.2619 19.2571C36.9682 19.9591 35.9106 20.9552 35.9106 21.4716C35.9106 22.3873 34.074 22.2822 25.1921 20.856C18.541 19.7881 11.9505 24.5719 13.2023 29.5592C13.7683 31.813 17.0934 35.5374 19.9834 37.1543C20.9231 37.6801 21.8191 39.6672 22.2953 42.2844C23.7651 50.3514 29.6621 52.4351 39.9394 48.5174C45.5782 46.3688 46.6846 46.4184 49.4078 48.9458C50.5595 50.0145 52.9878 50.9499 55.3203 51.2227L59.279 51.6861L56.7858 52.8447C55.4152 53.4825 53.034 54.606 51.4941 55.3413C49.9551 56.0775 47.8466 58.0525 46.8103 59.7301C44.465 63.5238 44.4975 67.4124 47.0189 85.3206C48.7025 97.2763 48.7461 98.5657 47.5183 99.9226C44.9891 102.718 46.8394 109.4 50.1423 109.4C51.2068 109.4 51.3385 110.077 50.846 113.033C49.047 123.83 42.1368 139.291 33.0164 152.925L27.6973 160.877L23.6702 161.037C20.9094 161.148 19.0933 161.748 17.8946 162.947L16.1461 164.695L17.8587 169.203C20.1604 175.26 22.9845 179.235 26.0454 180.725C29.9563 182.628 31.1405 181.412 30.8788 175.766C30.7574 173.136 30.8959 170.234 31.1866 169.316C31.4996 168.333 34.363 166.341 38.167 164.462C46.1844 160.499 56.413 151.105 60.9941 143.493C62.7982 140.496 64.056 138.812 63.7892 139.753C63.0453 142.369 58.8181 177.745 58.7609 181.825C58.7301 184.055 58.2632 185.594 57.5322 185.875C56.2582 186.364 53.8659 191.43 53.8659 193.639C53.8659 196.921 68.3977 200.388 72.6685 198.124C75.8663 196.43 75.7551 194.457 72.3316 192.131C70.6763 191.006 68.5225 189.07 67.5461 187.827L65.7694 185.569L70.0214 176.769C75.1976 166.053 79.241 154.695 80.8664 146.304C82.4747 137.998 82.4088 121.496 80.7244 110.901C79.7472 104.756 79.6275 102.106 80.2969 101.437C81.5872 100.147 81.4504 94.8866 80.0575 92.2172C79.0281 90.2447 79.0751 89.8873 80.4782 89.0109C82.8073 87.5565 84.6464 87.8096 84.6464 89.5855C84.6464 91.7059 88.1656 94.8643 90.5289 94.8643C91.5874 94.8643 93.294 94.406 94.3217 93.846C95.3751 93.2706 98.6609 92.9217 101.861 93.0431C105.518 93.1834 108.669 92.7858 110.729 91.9248C112.487 91.1903 114.129 90.5892 114.378 90.5892C114.793 90.5892 114.165 103.178 113.396 110.255C113.218 111.9 112.096 116.336 110.903 120.112C107.327 131.433 106.019 139.432 106.058 149.763C106.108 163.2 108.102 185.762 109.274 186.152C110.502 186.562 105.271 191.159 102.288 192.293C99.5322 193.341 98.6028 195.311 100.046 197.05C101.288 198.546 114.735 198.867 118.364 197.487C121.164 196.423 121.327 192.691 118.719 189.375C117.26 187.52 117.116 186.893 118.018 186.335C118.71 185.907 119.274 183.512 119.46 180.22C120.52 161.373 121.713 149.749 123.546 140.372C124.695 134.495 125.757 129.564 125.906 129.416C126.516 128.805 132.814 170.342 133.348 178.509C133.681 183.59 134.34 187.596 134.901 187.943C135.967 188.601 131.622 192.471 127.925 194.156C125.336 195.335 124.455 197.264 125.777 198.857C126.84 200.139 136.244 200.407 142.36 199.331C145.322 198.809 145.818 198.399 146.062 196.263C146.236 194.75 145.666 192.879 144.588 191.421C143.203 189.548 142.993 188.534 143.593 186.629C144.012 185.3 144.807 178.294 145.36 171.06C146.437 156.976 146.019 142.988 144.012 125.933C142.437 112.553 142.467 106.364 144.139 99.7678C144.882 96.836 145.773 93.2825 146.118 91.8718C146.653 89.6889 146.897 90.2985 147.759 95.9681C148.317 99.6319 148.772 104.281 148.772 106.299C148.772 108.318 149.023 110.22 149.328 110.526C149.634 110.832 149.923 113.108 149.969 115.585C150.038 119.177 150.335 120.067 151.442 119.986C152.393 119.918 152.697 120.387 152.411 121.483C151.748 124.019 154.324 123.415 156.819 120.449C159.37 117.417 159.473 116.677 157.792 113.454C156.849 111.647 156.772 110.492 157.461 108.515C157.972 107.05 158.218 101.784 158.03 96.3375C157.708 87.0144 157.589 86.5108 153.817 78.619C148.744 68.0023 143.335 60.1755 139.316 57.6387C131.803 52.8959 129.543 45.3718 133.445 38.0914C135.871 33.5666 135.137 30.7383 131.536 30.7383C130.069 30.7383 128.43 30.138 127.894 29.4053C127.106 28.328 126.453 28.2493 124.487 28.9966C123.15 29.5053 120.802 29.6857 119.271 29.3984C116.991 28.9709 116.234 29.2343 115.101 30.8528C113.082 33.7359 113.397 35.6093 116.068 36.5848C117.484 37.1021 117.838 37.4706 116.957 37.5108C115.705 37.569 115.524 38.412 115.706 43.3497C115.917 49.0407 115.958 49.1322 118.666 49.9393C120.234 50.4062 121.404 51.3227 121.394 52.0768C121.384 52.8028 119.66 56.0441 117.564 59.2803C115.467 62.5166 113.541 66.5565 113.282 68.258C112.106 75.983 109.249 80.7284 104.178 83.3781C100.938 85.0718 92.9777 84.8914 88.5607 83.0249C87.1858 82.4444 85.5202 82.1768 84.8584 82.4307C84.1967 82.6846 82.726 82.659 81.5906 82.3743C79.7343 81.9083 79.5779 81.5278 80.0439 78.6156C80.7535 74.173 79.0196 69.449 75.1788 65.3663C64.8409 54.376 65.5924 55.5653 66.8672 52.2145C67.6385 50.1881 68.7183 49.0236 70.1342 48.6918C71.4629 48.3798 72.3504 47.494 72.5223 46.3072C72.6719 45.2684 73.161 44.4185 73.6082 44.4185C74.0682 44.4185 74.2879 42.1279 74.1143 39.1516C73.7433 32.7946 71.8665 30.7383 66.438 30.7383C63.283 30.7383 62.505 30.256 58.1965 25.6338C51.3727 18.3132 44.2196 16.0252 38.2619 19.2571ZM4.27507 22.6156C3.68169 23.3313 3.58849 23.8981 4.06559 23.8981C4.53585 23.8981 5.39941 23.321 5.9851 22.6156C6.57848 21.9 6.67168 21.3331 6.19458 21.3331C5.72432 21.3331 4.86076 21.9102 4.27507 22.6156ZM185.822 24.3923C185.537 25.1336 185.934 26.3708 186.703 27.1404C188 28.4357 188.207 28.4357 189.503 27.1404C191.25 25.3919 190.448 23.0431 188.103 23.0431C187.133 23.0431 186.107 23.6502 185.822 24.3923ZM188.958 25.1807C188.958 25.8861 188.596 26.4632 188.154 26.4632C187.075 26.4632 186.303 25.1277 186.986 24.4445C187.949 23.4818 188.958 23.8588 188.958 25.1807ZM1.15 26.9275C0.354832 29 1.46464 29.3745 2.52571 27.3917C3.18749 26.1545 3.20032 25.6082 2.56846 25.6082C2.06657 25.6082 1.42873 26.2016 1.15 26.9275ZM161.598 28.0732C161.598 28.4887 162.367 29.0299 163.308 29.2762C165.327 29.8037 165.628 28.5905 163.665 27.8372C161.87 27.1481 161.598 27.1797 161.598 28.0732ZM80.7988 30.7383C81.0895 31.2085 81.4965 31.5933 81.7043 31.5933C81.9121 31.5933 82.0814 31.2085 82.0814 30.7383C82.0814 30.268 81.6735 29.8832 81.1759 29.8832C80.6783 29.8832 80.5081 30.268 80.7988 30.7383ZM82.9364 30.7887C82.9364 31.2863 83.3211 31.4565 83.7914 31.1658C84.2616 30.8751 84.6464 30.4681 84.6464 30.2603C84.6464 30.0525 84.2616 29.8832 83.7914 29.8832C83.3211 29.8832 82.9364 30.2911 82.9364 30.7887ZM167.155 30.7383C167.446 31.2085 168.261 31.5933 168.966 31.5933C169.672 31.5933 170.011 31.2085 169.72 30.7383C169.43 30.268 168.615 29.8832 167.909 29.8832C167.204 29.8832 166.865 30.268 167.155 30.7383ZM0 32.9262C0 34.1292 0.348844 34.8988 0.774641 34.6354C1.20044 34.3721 1.34836 33.3871 1.10211 32.4474C0.487359 30.0944 0 30.3065 0 32.9262ZM80.3713 33.3537C80.3713 33.8514 80.7561 34.0215 81.2263 33.7308C81.6966 33.4401 82.0814 33.0331 82.0814 32.8253C82.0814 32.6176 81.6966 32.4483 81.2263 32.4483C80.7561 32.4483 80.3713 32.8561 80.3713 33.3537ZM83.3639 33.3033C83.6546 33.7736 84.0616 34.1583 84.2693 34.1583C84.4771 34.1583 84.6464 33.7736 84.6464 33.3033C84.6464 32.833 84.2386 32.4483 83.7409 32.4483C83.2433 32.4483 83.0732 32.833 83.3639 33.3033ZM172.713 33.3033C174.387 34.3857 175.519 34.3857 174.85 33.3033C174.56 32.833 173.671 32.4543 172.876 32.4611C171.63 32.4731 171.607 32.5894 172.713 33.3033ZM178.208 36.3138C179.114 36.9995 180.065 37.3518 180.321 37.0953C180.858 36.5592 178.686 35.033 177.415 35.0535C176.945 35.0612 177.302 35.6289 178.208 36.3138ZM124.576 37.2201C124.765 37.7973 123.907 38.0016 122.29 37.7639C120.867 37.5553 119.702 37.0175 119.702 36.5695C119.702 35.4614 124.196 36.0616 124.576 37.2201ZM0.867839 37.3646C0.891779 38.5351 2.46415 40.5299 2.96605 40.0271C3.6398 39.3534 2.56675 36.7234 1.61854 36.7234C1.19873 36.7234 0.860999 37.0124 0.867839 37.3646ZM72.3034 39.0746C72.5873 40.3683 72.9669 41.9073 73.1482 42.4947C73.3294 43.083 73.1311 43.5635 72.707 43.5635C72.2829 43.5635 71.6921 44.333 71.3937 45.2735C71.0953 46.214 70.1838 46.9835 69.369 46.9835C67.7453 46.9835 64.1261 53.5312 64.1261 56.4691C64.1261 57.7217 63.7037 58.0953 62.6298 57.7926C61.8064 57.5609 59.8826 57.1197 58.3547 56.8119C55.039 56.145 54.8517 55.355 57.6545 53.8553C58.7976 53.2431 60.6068 51.0961 61.6739 49.0843C63.3412 45.9421 63.4686 45.1042 62.5768 43.1479C61.3507 40.4563 61.8321 39.2961 63.9465 39.8484C64.8118 40.075 66.1678 39.4833 67.0707 38.4864C69.3545 35.9624 71.6793 36.224 72.3034 39.0746ZM182.118 38.1974C182.118 38.571 182.888 39.3577 183.828 39.945C184.775 40.5367 185.538 40.6419 185.538 40.181C185.538 39.7227 184.769 38.937 183.828 38.4334C182.888 37.9298 182.118 37.8238 182.118 38.1974ZM123.977 40.1032C123.977 41.8398 121.939 45.2735 120.908 45.2735C119.564 45.2735 117.137 42.9231 117.137 41.6217C117.137 40.9386 117.437 40.9565 118.163 41.6824C119.62 43.1394 120.362 42.9598 120.985 40.9984C121.526 39.2918 123.977 38.5591 123.977 40.1032ZM127.825 40.9984C127.534 41.4687 126.911 41.8534 126.441 41.8534C125.971 41.8534 125.824 41.4687 126.115 40.9984C126.405 40.5282 127.028 40.1434 127.498 40.1434C127.968 40.1434 128.115 40.5282 127.825 40.9984ZM187.248 41.644C187.248 42.1142 187.825 42.9778 188.531 43.5635C189.246 44.1568 189.813 44.25 189.813 43.773C189.813 43.3027 189.236 42.4391 188.531 41.8534C187.815 41.2601 187.248 41.1669 187.248 41.644ZM4.70771 43.5686C5.56101 44.5125 6.4451 45.0982 6.67168 44.8716C7.24625 44.2971 5.11384 41.8534 4.03823 41.8534C3.55258 41.8534 3.85355 42.6255 4.70771 43.5686ZM128.762 45.9276C129.277 46.273 129.947 47.5701 130.249 48.8098C130.898 51.4612 129.708 52.7198 125.82 53.4979C122.515 54.1588 122.276 52.7891 124.917 48.3148C126.786 45.147 127.206 44.8853 128.762 45.9276ZM191.523 46.0242C191.523 46.4363 192.1 47.2529 192.806 47.8385C194.198 48.9937 194.372 48.7175 193.569 46.6261C193.019 45.194 191.523 44.7536 191.523 46.0242ZM8.55014 47.411C9.13583 48.1164 9.99939 48.6936 10.4697 48.6936C10.9467 48.6936 10.8535 48.1267 10.2602 47.411C9.67449 46.7056 8.81092 46.1285 8.34066 46.1285C7.86356 46.1285 7.95676 46.6954 8.55014 47.411ZM156.468 46.8826C156.468 47.3529 156.852 47.9753 157.323 48.266C157.793 48.5568 158.178 48.4097 158.178 47.9394C158.178 47.4692 157.793 46.8467 157.323 46.556C156.852 46.2653 156.468 46.4124 156.468 46.8826ZM160.458 46.6988C160.144 47.0117 159.888 47.6658 159.888 48.1523C159.888 48.6876 160.286 48.6371 160.899 48.0241C161.456 47.4675 161.712 46.8134 161.469 46.5706C161.227 46.3277 160.771 46.385 160.458 46.6988ZM12.8252 50.8311C13.4109 51.5365 14.2745 52.1136 14.7447 52.1136C15.2218 52.1136 15.1286 51.5467 14.5352 50.8311C13.9496 50.1257 13.086 49.5486 12.6157 49.5486C12.1386 49.5486 12.2318 50.1154 12.8252 50.8311ZM195.838 51.3321C196.363 52.3128 196.962 52.9447 197.171 52.7369C197.768 52.1384 196.556 49.5486 195.677 49.5486C195.24 49.5486 195.313 50.3506 195.838 51.3321ZM156.468 51.309C156.468 51.8067 156.852 51.9768 157.323 51.6861C157.793 51.3954 158.178 50.9884 158.178 50.7806C158.178 50.5729 157.793 50.4036 157.323 50.4036C156.852 50.4036 156.468 50.8114 156.468 51.309ZM160.315 51.2586C160.606 51.7289 161.013 52.1136 161.221 52.1136C161.428 52.1136 161.598 51.7289 161.598 51.2586C161.598 50.7883 161.19 50.4036 160.692 50.4036C160.195 50.4036 160.024 50.7883 160.315 51.2586ZM133.967 54.7094C135.168 56.1373 137.252 57.8747 138.597 58.5698C141.593 60.1191 148.833 70.6734 152.822 79.3073C156.356 86.958 157.518 93.828 156.787 102.773L156.247 109.4H153.365C151.78 109.4 150.476 109.111 150.468 108.758C150.341 103.267 148.405 91.4015 147.061 87.8806C145.329 83.3439 140.57 77.1313 139.583 78.1189C139.297 78.4036 140.048 79.6912 141.249 80.9789C145.782 85.8396 145.853 87.3795 142.253 102.851L140.729 109.4H127.641H114.551L115.203 105.766C115.78 102.547 115.772 96.6214 115.16 71.643C115.004 65.2817 115.097 64.9551 118.419 60.1841C121.283 56.0723 122.293 55.2412 124.627 55.0754C126.16 54.9659 128.276 54.2751 129.329 53.5398C131.806 51.8118 131.454 51.7237 133.967 54.7094ZM17.1003 53.7322C17.1003 54.152 17.7091 54.7291 18.4529 55.0147C20.5443 55.8175 20.8204 55.6431 19.6653 54.2511C18.4854 52.8301 17.1003 52.5497 17.1003 53.7322ZM198.363 56.3887C198.363 57.3292 198.712 58.0987 199.138 58.0987C199.565 58.0987 199.712 57.3292 199.466 56.3887C199.22 55.4482 198.871 54.6787 198.691 54.6787C198.511 54.6787 198.363 55.4482 198.363 56.3887ZM62.5588 58.9349C64.2825 58.9452 65.8293 58.5459 65.9951 58.0483C66.1618 57.5498 67.252 58.1748 68.4182 59.4368C70.5224 61.7137 70.5241 61.7265 68.6106 61.1383C65.7976 60.2739 65.4035 62.3464 67.5854 66.5326C68.7457 68.759 70.0205 70.0689 71.0269 70.0689C71.9058 70.0689 73.4782 71.2232 74.5213 72.6339C75.5644 74.0447 77.1411 75.199 78.0243 75.199C79.2231 75.199 79.5086 75.6333 79.1461 76.909C78.8793 77.8495 78.4552 79.3501 78.203 80.2436C77.8217 81.5962 77.1411 81.8031 74.1417 81.4825C66.5765 80.6719 64.9913 80.206 63.743 78.4224C63.0351 77.4118 62.2442 76.7953 61.9868 77.0535C61.7295 77.3109 62.2014 78.3651 63.0359 79.3954C64.799 81.5714 69.5101 82.8445 75.909 82.8736C80.8031 82.8958 82.0523 84.0287 80.4611 87.0007C79.3103 89.152 69.9923 91.0219 64.5168 90.2011C57.9819 89.2212 53.0545 83.6876 50.3971 74.344C49.0205 69.5055 47.4712 67.6201 48.2886 71.7789C49.0923 75.8651 53.246 84.6101 55.4938 86.946C59.2551 90.856 62.1706 91.6956 70.366 91.2279L77.979 90.7945L79.223 93.7716C80.7236 97.3627 80.4278 100.564 78.6408 100.081C73.9587 98.8145 72.6095 99.1488 63.8106 103.763C58.7968 106.393 53.7385 108.545 52.5697 108.545C50.2517 108.545 47.0258 105.846 47.0258 103.908C47.0258 102.018 50.9845 97.7679 53.8488 96.5812C55.269 95.9929 56.4309 95.2097 56.4309 94.8404C56.4309 93.9905 53.1417 94.8164 52.5192 95.8228C52.2645 96.2358 51.5727 96.5743 50.9836 96.5743C49.5472 96.5743 45.6689 68.311 46.4974 63.8914C46.8317 62.113 48.2057 59.6155 49.6396 58.1808L52.1892 55.632L55.8059 57.2745C57.7955 58.1774 60.8343 58.9247 62.5588 58.9349ZM23.4505 57.6892C24.3568 58.3749 25.3076 58.7271 25.5632 58.4706C26.1002 57.9345 23.9284 56.4083 22.6579 56.4289C22.1876 56.4366 22.5442 57.0043 23.4505 57.6892ZM28.5806 60.2542C29.4869 60.9399 30.4377 61.2922 30.6933 61.0357C31.2302 60.4996 29.0585 58.9734 27.788 58.9939C27.3177 59.0016 27.6742 59.5693 28.5806 60.2542ZM92.8289 59.7121C92.2466 60.6535 94.426 62.5696 95.199 61.7966C95.5085 61.4871 95.7616 60.721 95.7616 60.0935C95.7616 58.8203 93.5574 58.5331 92.8289 59.7121ZM132.443 63.015C131.951 64.3078 131.776 66.5146 132.056 67.9177C132.643 70.8615 136.422 76.909 137.674 76.909C138.141 76.909 137.367 75.3119 135.952 73.3607C133.258 69.6405 132.612 65.4099 134.267 62.3173C134.884 61.1656 134.877 60.6638 134.246 60.6638C133.747 60.6638 132.937 61.7214 132.443 63.015ZM198.115 62.3738C197.87 63.3143 198.017 64.0838 198.444 64.0838C198.869 64.0838 199.218 63.9231 199.218 63.7264C199.218 63.5298 199.452 62.7603 199.737 62.0164C200.023 61.2725 199.875 60.6638 199.41 60.6638C198.944 60.6638 198.362 61.4333 198.115 62.3738ZM33.7106 62.8192C35.4677 64.1488 36.4493 63.9376 35.5181 62.4311C35.2086 61.9292 34.304 61.5307 33.5089 61.5461C32.2392 61.5701 32.264 61.7248 33.7106 62.8192ZM72.9096 65.1227C75.272 66.7874 78.9854 72.8802 78.1474 73.7181C77.6934 74.1721 66.6911 63.6435 66.6911 62.7551C66.6911 61.9352 70.3754 63.3382 72.9096 65.1227ZM38.9031 64.9388C39.1938 65.4091 40.0087 65.7938 40.7141 65.7938C41.4194 65.7938 41.7589 65.4091 41.4682 64.9388C41.1775 64.4686 40.3627 64.0838 39.6573 64.0838C38.9519 64.0838 38.6124 64.4686 38.9031 64.9388ZM195.798 67.0764C195.194 67.8048 194.892 68.5923 195.127 68.8274C195.362 69.0626 196.049 68.6598 196.653 67.9314C197.258 67.2029 197.56 66.4154 197.324 66.1803C197.089 65.9452 196.403 66.3479 195.798 67.0764ZM191.033 71.3335C190.127 72.0183 189.77 72.5861 190.241 72.5938C191.511 72.6143 193.683 71.0881 193.146 70.552C192.89 70.2955 191.94 70.6478 191.033 71.3335ZM71.5305 73.7386C71.8144 75.488 71.6228 76.9304 71.0602 77.2784C70.5387 77.6007 70.1112 78.2865 70.1112 78.802C70.1112 79.3176 70.8807 79.0423 71.8212 78.1915C73.8253 76.3781 74.0536 73.2769 72.2915 71.814C71.2364 70.9393 71.1226 71.2266 71.5305 73.7386ZM20.0928 72.6339C20.3835 73.1042 21.006 73.489 21.4762 73.489C21.9465 73.489 22.0936 73.1042 21.8029 72.6339C21.5122 72.1637 20.8897 71.7789 20.4195 71.7789C19.9492 71.7789 19.8021 72.1637 20.0928 72.6339ZM23.0854 72.6339C23.0854 73.1042 23.4701 73.489 23.9404 73.489C24.4107 73.489 24.7954 73.1042 24.7954 72.6339C24.7954 72.1637 24.4107 71.7789 23.9404 71.7789C23.4701 71.7789 23.0854 72.1637 23.0854 72.6339ZM185.538 74.344C184.433 75.0579 184.456 75.1742 185.701 75.1862C186.497 75.193 187.385 74.8142 187.676 74.344C188.344 73.2615 187.212 73.2615 185.538 74.344ZM20.2356 74.9143C19.4182 75.7308 19.5328 76.909 20.4289 76.909C20.8487 76.909 21.4138 76.3319 21.6849 75.6265C22.1851 74.3235 21.2736 73.8754 20.2356 74.9143ZM23.0854 75.0981C23.0854 75.5684 23.4701 76.1908 23.9404 76.4815C24.4107 76.7722 24.7954 76.6252 24.7954 76.1549C24.7954 75.6846 24.4107 75.0622 23.9404 74.7715C23.4701 74.4808 23.0854 74.6278 23.0854 75.0981ZM114.522 85.289C114.568 88.6868 114.349 89.0596 111.643 90.1908C110.031 90.8637 106.524 91.6717 103.848 91.9863C99.1184 92.5421 99.0012 92.5062 99.5809 90.6773C99.9093 89.6436 99.7827 88.3209 99.3005 87.7395C98.6413 86.9452 99.4262 86.3253 102.451 85.2505C106.773 83.7158 111.54 79.6511 112.561 76.6294C113.095 75.0502 113.285 75.2836 113.831 78.1915C114.185 80.0726 114.496 83.266 114.522 85.289ZM181.049 75.8462C180.227 76.0292 179.553 76.5362 179.553 76.9714C179.553 77.9735 180.48 77.9624 182.093 76.9424C183.629 75.9711 183.08 75.3948 181.049 75.8462ZM84.2189 77.764C84.5096 78.2343 85.5168 78.619 86.4573 78.619C87.3978 78.619 87.9297 78.2343 87.6389 77.764C87.3482 77.2938 86.341 76.909 85.4005 76.909C84.46 76.909 83.9282 77.2938 84.2189 77.764ZM89.7765 78.619C89.7765 79.0893 90.5691 79.4741 91.537 79.4741C92.5048 79.4741 93.0597 79.0893 92.769 78.619C92.4783 78.1488 91.6866 77.764 91.0086 77.764C90.3305 77.764 89.7765 78.1488 89.7765 78.619ZM173.995 78.619C173.37 79.6305 174.207 79.6305 176.56 78.619C178.209 77.9102 178.203 77.882 176.397 77.8239C175.367 77.7914 174.286 78.1488 173.995 78.619ZM95.7616 79.4741C95.7616 79.9443 96.5542 80.3291 97.5221 80.3291C98.4899 80.3291 99.0448 79.9443 98.7541 79.4741C98.4634 79.0038 97.6717 78.619 96.9937 78.619C96.3156 78.619 95.7616 79.0038 95.7616 79.4741ZM169.293 79.4741C168.256 80.1444 168.379 80.3051 169.934 80.3163C170.993 80.3231 171.858 79.9443 171.858 79.4741C171.858 78.4027 170.951 78.4027 169.293 79.4741ZM101.747 80.3291C101.747 80.7993 102.539 81.1841 103.507 81.1841C104.475 81.1841 105.03 80.7993 104.739 80.3291C104.449 79.8588 103.657 79.4741 102.979 79.4741C102.301 79.4741 101.747 79.8588 101.747 80.3291ZM163.735 80.3291C162.104 81.0302 162.113 81.0669 163.949 81.1242C165.007 81.1567 165.873 80.7993 165.873 80.3291C165.873 79.8588 165.776 79.5014 165.659 79.5339C165.542 79.5673 164.676 79.9247 163.735 80.3291ZM158.605 81.1841C158.314 81.6544 158.485 82.0391 158.982 82.0391C159.48 82.0391 159.888 81.6544 159.888 81.1841C159.888 80.7138 159.718 80.3291 159.511 80.3291C159.303 80.3291 158.896 80.7138 158.605 81.1841ZM15.1671 83.0019C13.2271 84.0877 13.2707 86.0346 15.2594 87.0991C17.9673 88.5483 20.1159 85.0419 17.7321 83.0643C17.0199 82.4726 16.1504 82.4521 15.1671 83.0019ZM188.531 83.2387C184.613 84.9675 182.97 87.3641 182.399 92.1847C182.027 95.3286 181.244 97.2148 179.647 98.8094C175.459 102.993 174.435 105.301 174.429 110.559C174.424 114.647 174.03 116.031 172.285 118.106C169.31 121.642 168.89 124.11 170.139 130.728C171.211 136.41 171.099 137.149 168.603 140.864C167.577 142.391 163.289 138.331 160.823 133.498C158.201 128.357 152.334 126.456 149.332 129.774C146.484 132.922 148.283 139.44 152.79 142.301C157.276 145.149 159.888 148.139 159.888 150.429C159.888 151.658 160.349 153.125 160.914 153.689C161.711 154.487 161.711 154.715 160.914 154.715C159.352 154.715 159.556 167.839 161.165 170.951C163.226 174.937 165.626 176.091 171.858 176.091C178.328 176.091 180.824 174.783 182.636 170.448C184.02 167.137 184.245 155.929 182.944 155.125C182.418 154.8 183.109 153.385 184.654 151.624C186.243 149.816 187.248 147.728 187.248 146.239C187.248 144.661 188.596 142.07 191.081 138.869C195.768 132.834 196.719 129 194.327 125.782C190.885 121.151 185.935 123.272 183.365 130.48L182.193 133.767L182.156 130.483C182.127 127.934 182.788 126.416 185.114 123.699C188.286 119.993 189.8 115.964 189.808 111.21C189.811 109.62 190.55 107.119 191.451 105.653C193.904 101.658 196.653 92.808 196.653 88.9066C196.653 86.5989 196.088 84.894 194.943 83.7491C192.96 81.7655 192.034 81.6911 188.531 83.2387ZM17.2285 85.0317C17.2285 85.478 16.8147 85.9816 16.3094 86.15C15.8041 86.3185 15.3903 85.8157 15.3903 85.0317C15.3903 84.2476 15.8041 83.7449 16.3094 83.9133C16.8147 84.0817 17.2285 84.5853 17.2285 85.0317ZM90.7187 85.702C92.3167 86.7767 93.7472 88.5081 93.8977 89.5495C94.2354 91.8914 93.6856 91.9333 91.4865 89.7342C90.546 88.7937 88.8377 88.0242 87.6894 88.0242C86.5411 88.0242 85.3484 87.613 85.038 87.1111C84.7276 86.6083 83.935 86.4039 83.2775 86.6562C82.6072 86.9135 82.0814 86.5946 82.0814 85.9311C82.0814 83.2515 86.884 83.1241 90.7187 85.702ZM97.4716 87.1991C97.4716 88.2551 96.9056 88.2388 94.8262 87.1264C93.9036 86.6322 93.3752 85.8619 93.6523 85.4139C94.2499 84.446 97.4716 85.9517 97.4716 87.1991ZM98.3266 89.671C98.3266 89.9497 97.5571 90.6585 96.6166 91.2459C94.7929 92.3848 94.6407 92.2779 95.3708 90.3738C95.8155 89.2161 98.3266 88.6193 98.3266 89.671ZM91.1992 91.074C92.2081 93.7024 90.1031 94.2102 87.5389 91.9556L85.0739 89.7881L87.8792 89.7616C89.6568 89.7445 90.8735 90.225 91.1992 91.074ZM15.9785 95.4167C14.7678 96.6265 15.4527 98.2844 17.1627 98.2844C18.358 98.2844 18.8454 97.8201 18.659 96.8591C18.3537 95.285 16.8942 94.5001 15.9785 95.4167ZM156.33 113.287C157.848 116.618 157.538 118.315 154.997 120.58C153.718 121.719 153.171 122 153.78 121.203C155.093 119.487 154.779 116.094 153.261 115.594C152.613 115.38 152.187 116.028 152.18 117.237C152.171 118.535 151.932 118.862 151.495 118.175C151.125 117.593 150.981 115.766 151.174 114.113C151.458 111.681 151.887 111.11 153.431 111.11C154.645 111.11 155.699 111.901 156.33 113.287ZM25.7804 129.84C24.226 130.801 24.8783 133.678 26.732 134.034C27.5503 134.192 28.4643 133.686 28.7627 132.909C29.4621 131.086 27.3237 128.885 25.7804 129.84ZM27.3605 131.63C27.3605 132.1 26.9526 132.485 26.455 132.485C25.9574 132.485 25.7872 132.1 26.0779 131.63C26.3686 131.16 26.7756 130.775 26.9834 130.775C27.1912 130.775 27.3605 131.16 27.3605 131.63ZM182.118 162.894C182.118 166.452 181.722 170.103 181.237 171.008C178.622 175.895 167.382 176.734 163.591 172.327C161.865 170.321 161.598 169.098 161.598 163.218V156.425H171.858H182.118V162.894ZM25.0417 163.27C24.4893 165.384 26.1592 167.541 28.3497 167.541C29.8246 167.541 29.9281 167.98 29.4116 172.029C29.097 174.498 28.737 176.64 28.6122 176.789C28.4882 176.938 27.9299 175.679 27.3724 173.99C26.6824 171.899 25.9052 170.994 24.9356 171.154C23.9088 171.323 23.117 170.198 22.0901 167.113C20.764 163.126 20.764 162.799 22.0901 162.257C24.6543 161.209 25.5042 161.502 25.0417 163.27ZM29.5561 166.485C28.5771 167.464 26.508 165.718 26.5337 163.933L26.5627 161.983L28.2651 164.028C29.2022 165.152 29.7827 166.258 29.5561 166.485ZM24.0396 172.449C24.9254 172.681 25.6504 173.156 25.6504 173.506C25.6504 173.856 26.6003 175.543 27.7623 177.253C29.6878 180.092 29.7348 180.366 28.2916 180.366C24.5098 180.366 16.9259 167.945 18.4187 164.197C18.7906 163.265 19.5063 164.284 20.6948 167.433C21.7678 170.277 23.0426 172.188 24.0396 172.449ZM62.7734 184.305C64.6536 185.026 64.4629 186.966 62.4032 188.068C61.048 188.793 60.5726 188.708 60.1742 187.67C59.6826 186.389 60.2605 183.786 61.0369 183.786C61.2481 183.786 62.0296 184.019 62.7734 184.305ZM116.282 188.045C116.282 189.147 115.521 189.929 114.104 190.285C111.437 190.954 111.082 190.65 111.713 188.237C112.372 185.718 116.282 185.553 116.282 188.045ZM61.561 189.771C62.192 189.771 63.3164 189.227 64.0585 188.562C65.2444 187.499 65.7985 187.748 68.6115 190.607L71.8135 193.862L68.3122 192.974C65.6924 192.309 64.6502 192.344 64.1748 193.112C63.2266 194.645 56.4309 191.757 56.4309 189.82C56.4309 187.576 57.4193 187.061 58.9943 188.487C59.7749 189.193 60.93 189.771 61.561 189.771ZM141.347 189.239C141.917 190.726 140.355 192.336 138.341 192.336C137.27 192.336 136.802 191.687 136.802 190.198C136.802 188.514 137.236 188.061 138.848 188.061C139.974 188.061 141.098 188.591 141.347 189.239ZM110.545 190.626C111.08 192.675 113.477 192.836 116.099 191C117.892 189.744 118.052 189.783 118.75 191.641C119.815 194.473 118.403 194.981 109.06 195.131C104.634 195.202 101.2 195.564 101.43 195.936C101.659 196.307 101.655 196.611 101.42 196.611C101.185 196.611 100.764 196.241 100.485 195.788C100.205 195.336 101.459 194.21 103.27 193.286C105.081 192.362 107.066 191 107.68 190.261C109.174 188.46 110.006 188.566 110.545 190.626ZM135.947 191.935C135.947 193.937 138.075 194.316 140.952 192.828C143.735 191.389 143.965 191.525 144.818 195.096C145.296 197.097 145.064 197.505 143.187 197.977C141.983 198.279 140.759 198.288 140.468 197.996C140.176 197.705 140.771 197.466 141.79 197.466C142.809 197.466 143.642 197.15 143.642 196.764C143.642 196.378 141.046 196.39 137.871 196.791C134.696 197.193 131.069 197.332 129.808 197.1C128.548 196.867 127.327 197.057 127.094 197.521C126.861 197.984 126.738 198.013 126.82 197.584C126.985 196.725 134.283 190.797 135.306 190.692C135.658 190.656 135.947 191.215 135.947 191.935ZM63.6712 194.901C64.8622 194.901 65.8361 194.503 65.8361 194.016C65.8361 193.406 66.35 193.406 67.4897 194.016C68.3994 194.503 70.4198 194.913 71.9785 194.928C74.6564 194.954 74.7214 195.025 73.1542 196.211C72.241 196.901 69.906 197.466 67.9651 197.466C63.124 197.466 55.5759 195.128 55.5759 193.629C55.5759 192.598 56.0051 192.603 58.5411 193.662C60.1716 194.343 62.4802 194.901 63.6712 194.901ZM119.274 195.756C118.984 196.226 117.711 196.566 116.445 196.51L114.144 196.408L116.709 195.756C118.12 195.397 119.393 195.057 119.539 195.002C119.684 194.946 119.565 195.286 119.274 195.756ZM109.228 197.223C107.935 197.419 105.818 197.419 104.525 197.223C103.233 197.027 104.29 196.867 106.877 196.867C109.463 196.867 110.521 197.027 109.228 197.223ZM134.463 198.923C133.411 199.126 131.488 199.131 130.188 198.935C128.888 198.738 129.748 198.572 132.1 198.566C134.451 198.56 135.515 198.72 134.463 198.923Z" fill="black"/>
</svg>
