<svg width="343" height="320" viewBox="0 0 343 320" fill="none" xmlns="http://www.w3.org/2000/svg">
<mask id="mask0_414_8592" style="mask-type:alpha" maskUnits="userSpaceOnUse" x="0" y="0" width="343" height="320">
<rect width="343" height="320" fill="#D9D9D9"/>
</mask>
<g mask="url(#mask0_414_8592)">
<path fill-rule="evenodd" clip-rule="evenodd" d="M115.638 0.443687C126.498 0.686352 144.267 0.686352 155.125 0.443687C165.985 0.199586 157.1 0 135.382 0C113.664 0 104.78 0.199586 115.638 0.443687ZM81.2546 7.62169C89.7881 7.87584 103.357 7.87441 111.408 7.61882C119.461 7.36323 112.479 7.15502 95.8949 7.15646C79.3104 7.15789 72.7225 7.36754 81.2546 7.62169ZM115.638 17.6657C120.97 17.9414 129.691 17.9414 135.023 17.6657C140.354 17.3886 135.992 17.1632 125.331 17.1632C114.669 17.1632 110.307 17.3886 115.638 17.6657ZM214.064 17.67C220.618 17.9357 230.956 17.9342 237.038 17.6657C243.122 17.3972 237.761 17.1804 225.125 17.1818C212.489 17.1833 207.512 17.403 214.064 17.67ZM20.7606 29.1054C17.83 31.5465 17.2211 36.7516 8.71782 131.875C2.09837 205.928 0.164227 232.716 1.31007 234.541C2.46165 236.377 5.76275 237.256 14.1972 237.971C33.1667 239.581 42.0634 240.897 42.8776 242.214C43.3055 242.905 45.8772 243.471 48.5953 243.471C54.4753 243.471 54.8586 245.373 50.4734 252.804C47.5514 257.758 43.1533 277.464 44.4657 279.727C44.8089 280.32 46.5592 280.804 48.3555 280.804C52.3975 280.804 53.9296 282.189 52.1965 284.279C51.4728 285.15 50.6702 287.794 50.4131 290.154C50.0025 293.925 50.4347 294.501 53.9813 294.907C56.2012 295.161 58.8131 294.71 59.7852 293.903C61.1119 292.802 61.636 293.549 61.8916 296.899C62.4085 303.677 66.3027 310.692 71.9342 314.986C76.3367 318.345 78.3455 318.855 87.1675 318.855C99.0682 318.855 104.932 315.673 109.487 306.744L112.247 301.337L119.148 302.471C122.943 303.096 141.104 303.646 159.505 303.692C196.319 303.787 196.397 303.772 208.114 294.284C212.638 290.621 213.911 290.092 213.386 292.097C212.291 296.285 215.526 306.114 219.589 310.943C224.655 316.964 230.832 319.896 238.664 319.998C257.26 320.239 269.758 301.646 262.568 284.438C261.446 281.749 260.835 278.364 261.213 276.918C262.953 270.267 248.123 256.797 237.491 255.371C232.553 254.709 231.637 254.131 232.54 252.245C233.15 250.973 233.588 247.187 233.516 243.83L233.384 237.727H277.539C314.158 237.727 321.987 237.375 323.407 235.665C324.481 234.37 328.391 196.481 333.929 133.694L342.741 33.7836L339.535 30.5772L336.327 27.3695L180.088 26.9516C31.669 26.5539 23.6927 26.6616 20.7606 29.1054ZM328.036 31.8997C329.659 33.3686 330.658 36.249 330.651 39.4381C330.644 42.2768 326.771 87.2044 322.046 139.277C316.012 205.764 312.916 234.295 311.649 235.101C310.655 235.731 292.372 236.257 271.019 236.27L232.195 236.291L226.865 229.916C223.933 226.408 221.535 223.339 221.535 223.095C221.535 222.85 239.241 222.792 260.881 222.968C291.154 223.21 300.575 222.866 301.734 221.468C302.562 220.471 305.543 196.098 308.359 167.307C311.175 138.514 315.034 100.097 316.935 81.9332C319.583 56.6314 319.997 48.5 318.706 47.1646C317.495 45.914 304.282 45.1544 271.791 44.4709C227.497 43.5404 226.486 43.4528 222.971 40.2752C210.783 29.2591 190.86 29.9397 181.619 41.6881L178.763 45.3181H105.465C65.1511 45.3181 31.8241 45.8723 31.4063 46.5501C30.987 47.2278 29.0112 64.9395 27.0168 85.9106C25.0223 106.88 23.1025 124.902 22.7522 125.959C22.4018 127.017 20.383 148.521 18.265 173.747C14.4484 219.229 14.4398 219.631 17.2283 221.889C18.7805 223.146 20.4763 226.885 21.0119 230.229L21.9811 236.291H14.3408C0.360951 236.291 0.682589 245.995 10.9104 132.877C15.8728 77.9745 20.426 32.2587 21.0248 31.288C21.8763 29.911 55.3712 29.5233 173.763 29.5233C312.858 29.5233 325.628 29.72 328.036 31.8997ZM211.484 46.7539L219.381 53.8415H202.869H186.356L194.253 46.7539C198.597 42.8555 202.474 39.6664 202.869 39.6664C203.263 39.6664 207.14 42.8555 211.484 46.7539ZM75.0745 52.4975V58.2411H53.5362H31.9979V54.2206C31.9979 47.3383 33.8186 46.7539 55.2592 46.7539H75.0745V52.4975ZM129.199 55.7282C144.06 62.1151 150.506 65.6186 151.553 67.8787C153.246 71.5345 149.244 122.725 146.926 127.056C146.168 128.473 145.914 131.891 146.362 134.652C147.076 139.041 146.753 139.785 143.792 140.578C138.403 142.019 137.201 141.706 136.401 138.651C135.685 135.91 134.443 135.779 109.128 135.779C89.05 135.779 82.2267 136.234 81.0492 137.656C80.192 138.687 78.7935 147.249 77.9391 156.681C75.7465 180.89 75.9475 180.292 70.0087 180.292H64.9989L65.7613 172.753C68.1578 149.072 69.331 134.751 69.331 129.165V122.856H47.7926C18.3986 122.856 19.3017 120.178 48.8695 119.661L71.4848 119.266L73.4419 93.0455C74.997 72.2137 75.0343 66.384 73.6257 64.6868C72.2099 62.9809 67.8175 62.5487 51.9251 62.5487C39.598 62.5487 31.9979 62.0016 31.9979 61.1128C31.9979 60.2183 40.3447 59.6769 54.1665 59.6769H76.3338L77.303 53.2154L78.2722 46.7539H93.2945H108.315L129.199 55.7282ZM176.908 49.8411C175.999 51.5383 175.255 55.9695 175.255 59.6856C175.255 67.4968 182.308 83.461 193.965 102.036L201.173 113.523L190.214 113.948C175.442 114.521 174.771 115.272 173.568 132.596C173.034 140.269 172.245 148.561 171.815 151.021C171.089 155.163 170.776 155.376 167.577 153.893C165.676 153.013 164.117 151.485 164.111 150.497C164.105 149.51 163.406 148.702 162.559 148.702C161.713 148.702 162.359 146.999 163.995 144.918C165.632 142.838 166.971 139.969 166.971 138.542C166.971 137.116 167.617 135.549 168.407 135.061C170.844 133.555 169.998 127.748 166.74 123.607C164.001 120.122 162.912 119.744 157.407 120.365C150.042 121.195 150.476 124.141 153.356 92.8388C155.213 72.6488 155.237 68.8465 153.519 66.2246C152.35 64.4398 144.126 59.9756 133.756 55.4985C123.989 51.2813 115.729 47.5882 115.399 47.2924C115.07 46.9966 129.146 46.7539 146.681 46.7539H178.559L176.908 49.8411ZM281.842 49.2495C281.842 53.9822 277.368 107.786 276.708 111.01C276.06 114.165 275.598 114.241 256.943 114.241H237.841L230.168 100.241L222.494 86.2409L226.322 75.4143C230.311 64.1325 231.203 54.2766 228.664 49.531C227.218 46.83 227.932 46.7539 254.51 46.7539C279.515 46.7539 281.842 46.9665 281.842 49.2495ZM290.458 49.63C290.458 55.0275 284.664 119.261 284.015 121.061C283.538 122.386 277.862 122.856 262.349 122.856C242.928 122.856 241.402 123.047 242.276 125.369C242.796 126.752 247.752 136.121 253.29 146.189L263.357 164.497H284.909C304.588 164.497 306.422 164.714 305.984 166.987C305.556 169.204 303.695 169.435 289.006 169.1C279.933 168.895 271.612 169.321 270.516 170.049C268.927 171.105 271.179 176.159 281.644 195.012C288.861 208.013 294.765 219.066 294.765 219.573C294.765 220.081 277.463 220.496 256.315 220.496C219.643 220.496 217.752 220.364 215.407 217.625C212.971 214.78 213.085 214.753 227.652 214.774C237.676 214.79 241.671 215.24 240.202 216.189C238.469 217.309 238.695 217.584 241.363 217.603C243.213 217.615 244.287 216.99 243.791 216.189C243.303 215.399 244.235 214.753 245.86 214.753C247.486 214.753 248.817 215.399 248.817 216.189C248.817 216.978 250.109 217.625 251.689 217.625C253.268 217.625 254.561 216.978 254.561 216.189C254.561 215.399 255.53 214.753 256.714 214.753C257.899 214.753 258.868 215.399 258.868 216.189C258.868 218.746 262.39 217.714 266.421 213.977C268.585 211.97 270.355 209.983 270.355 209.559C270.355 208.433 253.109 177.397 249.887 172.724L247.144 168.747L215.568 168.863L183.99 168.98L182.173 173.3L180.357 177.621L177.933 173.922C173.127 166.586 172.879 163.831 175.009 141.495C176.161 129.442 177.445 119.027 177.865 118.347C178.285 117.668 186.586 117.112 196.312 117.112H213.997V113.607C213.997 111.679 213.108 109.762 212.022 109.344C208.918 108.154 209.65 105.062 215.272 95.6258L220.497 86.8554L228.554 101.625L236.612 116.395L256.601 116.795C267.594 117.016 277.075 116.693 277.67 116.077C278.264 115.463 279.775 102.359 281.025 86.9588C284.235 47.4432 284.349 46.7539 287.674 46.7539C289.501 46.7539 290.458 47.7418 290.458 49.63ZM317.134 48.6809C317.791 50.3954 308.82 145.221 306.89 156.958L306.122 161.625L285.008 161.578L263.894 161.532L254.381 143.988L244.868 126.446L264.194 125.728C279.92 125.143 283.84 124.569 285.244 122.645C286.238 121.282 288.051 106.985 289.524 88.9016C290.929 71.6436 292.444 55.1008 292.887 52.1385L293.697 46.7539H305.045C313.217 46.7539 316.601 47.2938 317.134 48.6809ZM84.5758 60.7539C84.1177 65.2941 83.3337 73.371 82.8312 78.7025L81.9194 88.3947H111.369C143.818 88.3947 142.561 88.768 142.561 79.1203C142.561 76.517 141.754 73.7228 140.766 72.9115C138.44 70.9989 90.1097 52.4975 87.4404 52.4975C86.0188 52.4975 85.1573 54.9816 84.5758 60.7539ZM133.946 71.8131C138.605 73.4615 139.003 74.0789 139.409 80.2748L139.847 86.9588H112.314H84.7825L85.8236 71.523C86.3965 63.034 87.1216 55.6622 87.4332 55.1438C87.7462 54.6241 97.2087 57.7629 108.462 62.1165C119.713 66.4716 131.182 70.8338 133.946 71.8131ZM218.663 65.4205C218.663 72.6674 218.264 74.0358 216.15 74.0387C214.11 74.0401 213.638 72.7593 213.638 67.2182C213.638 60.7826 213.405 60.3676 209.543 59.9268C205.462 59.4601 205.45 59.4817 205.953 66.7473L206.458 74.0373H196.766L187.074 74.0358V65.4205V56.8052H202.869H218.663V65.4205ZM191.381 63.9846C191.381 67.9505 191.781 68.2923 196.407 68.2923C201.033 68.2923 201.433 67.9505 201.433 63.9846C201.433 60.0187 201.033 59.6769 196.407 59.6769C191.781 59.6769 191.381 60.0187 191.381 63.9846ZM72.3635 66.0595C72.7153 66.4113 72.22 77.5566 71.2637 90.8285C70.3088 104.1 69.4817 115.767 69.4286 116.753C69.3554 118.106 63.9808 118.548 47.6289 118.548H25.9284L26.7741 112.446C27.2393 109.089 28.3306 97.9434 29.1979 87.6768C30.0666 77.4102 31.0315 68.2032 31.3417 67.2154C31.7595 65.8929 37.1484 65.4205 51.816 65.4205C62.7661 65.4205 72.0118 65.7077 72.3635 66.0595ZM84.1436 92.3908C82.2597 93.5898 78.5623 128.984 80.0685 131.42C81.4039 133.582 134.886 133.436 136.226 131.266C138.318 127.882 141.104 95.1247 139.467 93.1532C138.278 91.7202 131.64 91.2722 111.873 91.288C97.5562 91.3009 85.0783 91.7963 84.1436 92.3908ZM138.255 96.6511C138.256 98.0338 137.505 106.111 136.585 114.6L134.914 130.035H108.412H81.9093L82.9518 113.164C83.5261 103.884 84.2872 95.8068 84.6447 95.2152C85.0022 94.6236 97.2102 94.1383 111.774 94.1383C136.035 94.1383 138.254 94.3493 138.255 96.6511ZM210.622 113.142C211.491 113.722 210.002 114.206 207.313 114.219C202.454 114.241 202.441 114.222 205.121 111.258C207.093 109.082 207.986 108.79 208.431 110.181C208.767 111.23 209.754 112.562 210.622 113.142ZM218.663 111.369C218.663 112.159 219.994 112.805 221.62 112.805C223.245 112.805 224.177 112.159 223.689 111.369C223.201 110.579 221.871 109.933 220.732 109.933C219.594 109.933 218.663 110.579 218.663 111.369ZM225.864 116.446C225.904 118.917 228.529 122.085 229.628 120.985C230.216 120.398 229.605 118.824 228.269 117.489C226.935 116.153 225.853 115.684 225.864 116.446ZM186.438 124.651C185.356 128.203 182.885 162.092 183.619 163.281C184.547 164.781 242.645 164.916 243.57 163.42C243.936 162.827 239.29 153.459 233.245 142.601L222.253 122.86L204.619 122.859C191.758 122.856 186.835 123.341 186.438 124.651ZM67.3968 130.394C66.9431 133.752 65.7843 146.351 64.8237 158.394L63.0748 180.292H44.7687C26.7023 180.292 26.4237 180.342 23.4874 184.075C20.8697 187.402 20.5108 189.84 20.5108 204.297C20.5108 216.816 20.0829 220.59 18.7159 220.126C16.6511 219.425 16.5161 222.255 21.2 167.699C23.1155 145.374 25.0755 126.473 25.5536 125.699C26.0576 124.885 35.2186 124.292 47.3231 124.292H68.221L67.3968 130.394ZM231.652 127.287C232.534 128.934 233.541 129.995 233.891 129.646C234.895 128.641 232.859 124.292 231.382 124.292C230.649 124.292 230.771 125.639 231.652 127.287ZM231.306 143.676L241.369 161.625H213.335H185.3L186.224 150.497C186.731 144.377 187.513 136.3 187.963 132.548L188.78 125.728H205.011H221.244L231.306 143.676ZM235.961 133.625C235.927 135.759 238.49 139.406 239.39 138.504C239.821 138.075 239.23 136.478 238.078 134.956C236.928 133.434 235.974 132.835 235.961 133.625ZM164.756 137.851C163.983 144.885 159.742 146.794 156.857 141.405C155.557 138.977 155.75 138.042 157.884 136.425C162.141 133.199 165.197 133.832 164.756 137.851ZM135.382 139.945C135.382 140.657 133.12 142.574 130.356 144.203C127.148 146.097 125.331 148.26 125.331 150.187C125.331 151.845 122.327 156.875 118.657 161.362C114.986 165.851 110.564 172.565 108.829 176.284C103.689 187.31 102.585 188.136 98.6504 183.891C95.7829 180.797 94.0684 180.292 86.4453 180.292H77.5758L78.4144 173.471C78.8767 169.719 79.6535 161.158 80.1432 154.446C80.6328 147.733 81.2876 141.434 81.5992 140.446C82.2755 138.298 135.382 137.804 135.382 139.945ZM154.048 142.958C155.675 145.998 154.628 146.608 151.352 144.532C150.263 143.843 149.817 142.561 150.36 141.683C151.728 139.468 152.284 139.66 154.048 142.958ZM241.704 144.518C242.585 146.165 243.592 147.226 243.942 146.877C244.946 145.872 242.91 141.523 241.434 141.523C240.7 141.523 240.822 142.869 241.704 144.518ZM150.596 146.548C154.31 148.523 158.221 150.138 159.288 150.138C160.355 150.138 161.228 150.767 161.228 151.536C161.228 152.306 163.083 153.896 165.35 155.067C168.364 156.627 169.895 158.874 171.042 163.433C173.5 173.195 179.899 180.787 189.859 185.765C194.674 188.172 198.117 190.445 197.511 190.817C196.904 191.188 192.773 191.289 188.332 191.039C178.799 190.505 169.618 186.235 163.023 179.271C158.83 174.844 158.579 174.12 160.557 172.141C162.646 170.052 168.407 159.743 168.407 158.093C168.407 155.277 165.736 158.407 162.944 164.497C161.132 168.445 159.081 171.676 158.385 171.676C157.69 171.676 155.945 168.019 154.508 163.549C151.082 152.895 146.152 148.897 139.725 151.558C137.276 152.573 134.651 154.565 133.891 155.983C129.882 163.474 135.528 179.07 145.515 188.093C148.629 190.906 151.177 194.357 151.177 195.763C151.177 197.169 152.262 199.868 153.589 201.762C155.96 205.147 155.886 205.309 149.297 211.275C141.826 218.038 132.224 221.932 123.014 221.932C108.637 221.932 104.461 216.236 105.59 198.161C106.575 182.374 111.776 171.561 125.142 157.515C134.843 147.321 135.405 146.966 141.033 147.503C147.797 148.148 148.566 147.055 142.92 144.824C140.422 143.837 139.868 143.208 141.408 143.111C142.748 143.027 146.883 144.574 150.596 146.548ZM134.664 146.053C133.084 146.916 130.991 148.626 130.012 149.852C129.034 151.078 127.849 151.699 127.38 151.229C126.04 149.889 132.229 144.39 135.023 144.437C137.208 144.476 137.161 144.687 134.664 146.053ZM246.013 150.856C245.978 152.99 248.541 156.637 249.442 155.735C249.872 155.306 249.281 153.709 248.129 152.187C246.979 150.665 246.026 150.066 246.013 150.856ZM148.552 155.522C149.723 156.905 151.508 160.929 152.521 164.464C156.138 177.11 168.524 189.654 180.253 192.551C184.699 193.648 185.401 195.716 181.798 197.099C177.775 198.642 159.532 194.771 153.118 191.012C138.377 182.374 129.648 161.477 137.994 154.805C141.186 152.253 146.063 152.585 148.552 155.522ZM250.253 160.014C250.253 160.706 251.222 162.077 252.407 163.061C254.744 165.001 255.037 164.537 253.689 161.025C252.766 158.62 250.253 157.88 250.253 160.014ZM42.0778 162.377C43.0772 163.581 44.19 164.27 44.5518 163.91C45.5469 162.913 43.5237 160.189 41.7892 160.189C40.8358 160.189 40.9449 161.013 42.0778 162.377ZM48.4517 161.721C46.9067 164.221 48.6657 164.751 50.6357 162.377C51.7686 161.013 51.8777 160.189 50.9243 160.189C50.0857 160.189 48.9715 160.878 48.4517 161.721ZM42.0491 168.889C42.0491 169.725 42.6952 170.011 43.485 169.522C44.2747 169.034 44.9209 168.351 44.9209 168.002C44.9209 167.653 44.2747 167.369 43.485 167.369C42.6952 167.369 42.0491 168.053 42.0491 168.889ZM48.5106 168.804C48.9988 169.594 50.0441 170.24 50.8338 170.24C51.6236 170.24 51.8706 169.594 51.3824 168.804C50.8942 168.015 49.8488 167.369 49.0591 167.369C48.2694 167.369 48.0224 168.015 48.5106 168.804ZM256.289 170.176C258.269 173.348 259.665 172.953 258.373 169.584C257.905 168.365 256.851 167.369 256.029 167.369C255.085 167.369 255.179 168.398 256.289 170.176ZM257.606 190.343C263.038 200.214 267.482 209.1 267.482 210.086C267.483 211.465 260.58 211.875 237.689 211.86C221.302 211.847 207.007 211.275 205.923 210.589C204.418 209.635 204.013 205.549 204.207 193.302L204.462 177.265L200.435 179.515C198.219 180.751 195.342 182.519 194.039 183.442C190.309 186.085 184.202 181.417 184.202 175.924V171.622L215.967 172.008L247.731 172.394L257.606 190.343ZM304.699 177.061C304.389 191.183 301.07 219.595 299.675 220.058C298.51 220.445 274.959 180.253 272.031 172.881C271.767 172.219 279.037 171.676 288.185 171.676H304.817L304.699 177.061ZM260.304 177.245C260.304 177.937 261.273 179.308 262.458 180.292C264.796 182.231 265.088 181.768 263.74 178.255C262.817 175.85 260.304 175.111 260.304 177.245ZM207.679 183.291C210.852 187.823 210.881 200.792 207.723 203.949C206.444 205.229 205.722 206.597 206.117 206.992C207.65 208.527 211.267 203.058 212.141 197.88C213.191 191.664 210.381 181.575 207.32 180.569C205.772 180.06 205.854 180.686 207.679 183.291ZM94.8567 183.963C97.9396 186.121 98.0487 187.023 98.0487 210.24C98.0487 227.024 97.5289 234.801 96.3257 236.004C93.8215 238.508 29.2094 238.436 25.7747 235.925C23.585 234.324 23.3538 231.406 23.7056 209.76L24.1005 185.399L27.6902 183.584C30.2389 182.296 40.0331 181.763 61.4723 181.749C86.4999 181.732 92.2118 182.109 94.8567 183.963ZM266.114 187.594C266.995 189.241 268.066 190.238 268.496 189.81C269.679 188.627 267.784 184.599 266.042 184.599C264.981 184.599 265.002 185.517 266.114 187.594ZM43.2078 188.544C52.9274 188.793 68.435 188.792 77.6692 188.542C86.9034 188.292 78.9514 188.09 59.9977 188.09C41.044 188.091 33.4883 188.295 43.2078 188.544ZM102.488 194.774L101.103 198.24L101.011 194.531C100.962 192.491 101.391 190.35 101.967 189.774C103.673 188.07 103.982 191.038 102.488 194.774ZM52.0572 193.573C44.9596 197.159 39.7215 203.932 38.3373 211.312C37.6668 214.882 38.323 217.975 40.8142 222.996C45.3473 232.133 51.7973 236.291 61.4336 236.291C74.4011 236.291 83.9296 226.942 83.9296 214.216C83.9296 203.596 78.5393 196.058 68.3488 192.423C60.8678 189.755 59.4118 189.857 52.0572 193.573ZM270.355 193.573C270.355 194.863 271.044 196.343 271.887 196.863C274.35 198.385 274.591 197.023 272.391 194.014C270.688 191.685 270.355 191.613 270.355 193.573ZM62.1515 194.65C62.1515 195.44 61.8672 196.086 61.5183 196.086C61.1694 196.086 60.4859 195.44 59.9977 194.65C59.5095 193.861 59.7952 193.215 60.6309 193.215C61.4666 193.215 62.1515 193.861 62.1515 194.65ZM194.253 194.65C195.851 195.684 194.998 196.048 190.938 196.065C187.652 196.078 185.823 195.513 186.356 194.65C187.477 192.835 191.445 192.835 194.253 194.65ZM165.003 197.719C169.629 198.883 171.279 200.009 171.279 202.001C171.279 204.213 170.196 204.702 165.29 204.702C158.666 204.702 154.048 201.599 154.048 197.146C154.048 195.146 154.719 194.6 156.387 195.241C157.674 195.734 161.551 196.849 165.003 197.719ZM50.7376 200.787C50.1547 203.372 48.871 206.993 47.886 208.836C45.5886 213.127 46.9914 220.762 50.6931 224.112C52.2568 225.526 53.5362 228.279 53.5362 230.227C53.5362 233.572 53.3553 233.651 50.3054 231.653C39.0251 224.261 37.4284 209.591 46.7861 199.317C50.854 194.851 51.9811 195.272 50.7376 200.787ZM77.0431 200.436C84.3819 209.157 83.3036 222.675 74.6897 229.945C70.1092 233.81 70.0432 233.82 69.5865 230.74C69.3209 228.945 70.6936 225.753 72.8173 223.229C77.247 217.963 77.4983 212.801 73.6329 206.462C70.6434 201.558 69.822 196.086 72.0749 196.086C72.7943 196.086 75.03 198.043 77.0431 200.436ZM186.356 198.958C184.776 199.637 182.515 200.191 181.33 200.191C179.973 200.191 180.238 199.736 182.048 198.958C183.628 198.279 185.889 197.725 187.074 197.725C188.431 197.725 188.166 198.18 186.356 198.958ZM177.842 201.01C180.743 203.909 180.413 204.702 176.305 204.702C173.673 204.702 172.715 203.936 172.715 201.83C172.715 198.466 174.943 198.109 177.842 201.01ZM105.992 217.178L108.404 220.86L104.707 218.166C101.476 215.81 101.027 214.477 101.134 207.573L101.258 199.676L102.42 206.587C103.057 210.388 104.665 215.153 105.992 217.178ZM190.663 203.266C187.66 206.586 182.766 207.095 182.766 204.089C182.766 202.047 185.339 200.876 190.527 200.561C193.172 200.4 193.176 200.489 190.663 203.266ZM274.709 201.197C274.683 202.032 275.612 203.971 276.771 205.504C277.931 207.036 278.9 207.608 278.925 206.771C278.95 205.935 278.022 203.997 276.863 202.463C275.703 200.931 274.733 200.359 274.709 201.197ZM198.137 206.877C197.975 206.949 196.1 208.096 193.969 209.429C189.386 212.293 187.749 210.735 190.786 206.399C192.596 203.814 193.383 203.595 195.686 205.033C197.195 205.975 198.298 206.805 198.137 206.877ZM53.7358 216.367C53.2662 223.26 53.0322 223.714 51.223 221.24C47.873 216.658 49.1079 204.495 52.6273 207.414C53.5979 208.22 54.0445 211.832 53.7358 216.367ZM65.0233 218.241C65.0233 225.816 64.8338 226.24 61.4336 226.24C58.0176 226.24 57.8438 225.838 57.8438 217.912C57.8438 208.721 59.834 205.051 63.0647 208.281C64.2508 209.467 65.0233 213.397 65.0233 218.241ZM73.6386 213.845C73.6386 216.411 72.6895 219.766 71.5307 221.299C69.5865 223.869 69.4185 223.518 69.3769 216.788C69.3511 212.773 69.7445 209.075 70.2485 208.57C72.0462 206.772 73.6386 209.249 73.6386 213.845ZM196.334 215.425C192.615 224.326 193.334 225.795 203.724 230.506C208.934 232.868 217.312 237.737 222.343 241.328C230.868 247.411 231.382 248.09 229.916 251.309C229.051 253.209 226.44 255.551 224.117 256.514C221.794 257.476 217.084 261.072 213.652 264.503C208.467 269.688 207.043 272.365 205.222 280.349C202.838 290.795 203.104 292.578 206.863 291.376C210.024 290.365 203.762 295.767 197.843 299.157C194.269 301.203 188.784 301.704 165.645 302.096C150.305 302.355 135.767 302.187 133.337 301.72C130.478 301.172 127.852 299.223 125.892 296.194C123.239 292.093 123.125 291.271 124.977 289.541C126.62 288.006 126.871 285.631 126.106 278.862C124.346 263.303 118.046 253.39 108.182 250.649C101.268 248.729 74.9754 248.837 67.1068 250.818C63.3519 251.763 58.0765 254.765 54.2498 258.134C48.2033 263.455 47.8587 263.585 49.2127 260.024C51.8016 253.216 53.6496 250.551 55.1401 251.473C55.9442 251.968 56.9349 251.097 57.3442 249.534C58.8992 243.587 63.1911 243.15 109.17 244.256C133.063 244.83 152.612 245.741 152.612 246.279C152.612 246.819 150.095 250.633 147.02 254.757C143.943 258.879 140.634 264.165 139.666 266.502C138.028 270.455 138.274 271.199 143.194 277.205C146.104 280.755 148.065 284.337 147.552 285.166C147.041 285.994 147.403 287.614 148.356 288.764C149.716 290.401 154.203 290.855 169.046 290.855H188L191.844 284.982C196.397 278.028 196.783 270.088 193.72 246.342C191.812 231.543 191.71 214.835 193.511 211.921C194.012 211.11 195.322 210.445 196.419 210.445C198.106 210.445 198.093 211.215 196.334 215.425ZM218.689 224.237C224.928 230.726 226.921 233.761 226.357 235.915C225.841 237.889 226.648 239.564 228.864 241.116C230.66 242.375 231.815 243.72 231.428 244.108C231.041 244.494 227.526 242.496 223.617 239.665C219.707 236.837 211.807 232.255 206.059 229.484C194.746 224.032 194.675 223.871 199.521 214.348L201.553 210.355L205.907 212.912C208.3 214.319 214.053 219.415 218.689 224.237ZM278.372 212.804C277.005 216.37 278.513 216.856 280.34 213.44C281.222 211.792 281.344 210.445 280.61 210.445C279.878 210.445 278.87 211.506 278.372 212.804ZM269.306 215.748C270.703 216.113 272.641 216.088 273.613 215.695C274.585 215.301 273.442 215.004 271.073 215.033C268.704 215.062 267.909 215.383 269.306 215.748ZM219.74 217.139C220.728 217.538 222.343 217.538 223.33 217.139C224.318 216.742 223.509 216.416 221.535 216.416C219.561 216.416 218.754 216.742 219.74 217.139ZM229.791 217.139C230.779 217.538 232.395 217.538 233.381 217.139C234.369 216.742 233.561 216.416 231.586 216.416C229.612 216.416 228.805 216.742 229.791 217.139ZM123.119 229.795C127.826 230.998 136.35 231.983 142.06 231.983C152.88 231.983 156.482 233.831 152.022 237.092C148.467 239.693 107.671 239.984 105.646 237.424C104.84 236.406 103.822 231.907 103.384 227.427L102.586 219.282L108.574 223.444C111.868 225.734 118.412 228.592 123.119 229.795ZM65.0233 231.983C65.0233 234.018 64.0655 234.855 61.7408 234.855C59.4161 234.855 58.4598 234.018 58.4598 231.983C58.4598 229.949 59.4161 229.112 61.7408 229.112C64.0655 229.112 65.0233 229.949 65.0233 231.983ZM165.202 233.419C164.144 235.114 161.854 236.291 159.614 236.291C157.026 236.291 155.58 235.378 155.068 233.419C154.402 230.868 155.025 230.548 160.656 230.548C166.637 230.548 166.894 230.71 165.202 233.419ZM162.664 238.086C162.664 238.284 161.706 242.969 160.534 248.496C159.364 254.024 158.395 261.619 158.38 265.374C158.355 272.779 154.535 281.535 151.335 281.526C150.238 281.525 147.412 279.139 145.054 276.228C139.773 269.703 140.287 266.709 148.458 256.369C153.431 250.08 154.249 248.136 153.603 244.154C153.181 241.551 153.216 239.038 153.681 238.573C154.483 237.77 162.664 237.328 162.664 238.086ZM254.227 244.512C256.808 244.83 260.685 244.825 262.843 244.497C265.001 244.168 262.889 243.907 258.15 243.916C253.412 243.923 251.647 244.191 254.227 244.512ZM112.554 255.335C117.587 258.688 121.629 265.384 123.16 272.906L124.037 277.214L122.021 272.879C120.912 270.495 117.627 266.458 114.721 263.905L109.435 259.265H87.9013C64.4547 259.265 59.0629 260.495 51.7413 267.507C46.2505 272.767 46.7818 269.131 52.4463 262.68C60.2576 253.785 65.7685 252.153 88.144 252.118C106.067 252.089 108.077 252.353 112.554 255.335ZM261.74 253.522C261.74 254.415 269.877 254.958 283.278 254.958C296.679 254.958 304.817 254.415 304.817 253.522C304.817 252.629 296.679 252.086 283.278 252.086C269.877 252.086 261.74 252.629 261.74 253.522ZM193.672 277.181C192.489 281.898 189.964 281.761 185.132 276.719C181.93 273.376 181.571 272.339 183.161 271.02C184.229 270.134 186.677 266.034 188.602 261.91L192.099 254.412L193.34 263.985C194.022 269.251 194.171 275.189 193.672 277.181ZM239.844 258.071C244.438 259.227 248.419 261.663 252.685 265.929C261.977 275.221 261.256 276.496 246.713 276.496C235.18 276.496 234.3 276.723 229.513 280.926C225.33 284.599 213.34 289.059 206.817 289.367C205.198 289.445 205.503 286.428 207.953 278.182C210.381 270.004 217.568 261.671 224.968 258.45C230.534 256.027 231.619 255.999 239.844 258.071ZM109.434 263.217C115.779 266.452 119.531 271.666 121.744 280.326L123.517 287.265L119.461 287.71C115.407 288.155 62.9484 281.75 53.6439 279.674C50.9387 279.069 48.4732 277.821 48.166 276.898C47.2355 274.105 56.7468 265.023 62.8695 262.858C71.7303 259.725 103.059 259.966 109.434 263.217ZM166.971 273.044C166.971 276.074 163.979 276.991 161.66 274.672C160.274 273.285 159.855 271.381 160.493 269.371C161.442 266.382 161.615 266.35 164.23 268.716C165.738 270.08 166.971 272.029 166.971 273.044ZM179.041 269.721C180.13 271.447 180.042 272.615 178.726 273.932C177.252 275.405 176.643 275.343 175.549 273.613C173.634 270.582 173.826 266.097 175.844 266.769C176.774 267.079 178.213 268.408 179.041 269.721ZM170.106 273.936C169.076 274.965 168.407 275.05 168.407 274.151C168.407 272.234 170.106 270.536 171.064 271.495C171.471 271.903 171.041 273.001 170.106 273.936ZM241.638 293.336C241.638 299.06 237.616 298.896 231.497 292.921L225.867 287.425L228.996 284.093L232.125 280.763L236.882 285.373C239.591 287.999 241.638 291.425 241.638 293.336ZM247.166 284.432C257.722 293.315 251.805 308.66 237.822 308.66C231.571 308.66 226.055 303.33 224.892 296.162C223.743 289.079 226.236 289.261 230.868 296.598C233.746 301.157 235.358 302.342 238.681 302.342C243.867 302.342 247.381 299.012 247.381 294.096C247.381 290.105 243.764 285.111 240.872 285.111C239.907 285.111 238.313 284.142 237.33 282.958C234.161 279.139 242.331 280.364 247.166 284.432ZM67.6696 284.488C68.5584 285.232 56.0246 293.727 54.0387 293.727C51.6623 293.727 51.5561 290.75 53.7587 285.915C55.2564 282.627 55.9844 282.363 61.2972 283.176C64.5308 283.671 67.3983 284.261 67.6696 284.488ZM158.571 286.468L163.163 289.261L156.828 288.981C152.073 288.771 150.372 288.075 150.011 286.188C149.372 282.85 152.806 282.962 158.571 286.468ZM188.244 286.188C187.954 287.719 186.198 288.882 183.754 289.163C180.022 289.593 179.871 289.416 181.599 286.651C183.912 282.947 188.925 282.599 188.244 286.188ZM79.9709 289.036C76.7933 292.213 78.0655 298.023 82.6919 301.463C86.5788 304.352 86.8732 304.369 91.0646 301.964C99.094 297.355 102.174 299.315 96.0083 305.108C92.1372 308.745 84.626 309.455 79.4339 306.678C71.0181 302.174 70.9736 283.932 79.3836 286.131C81.8591 286.778 81.9208 287.086 79.9709 289.036ZM84.9118 290.665C82.7077 294.193 84.2915 298.034 87.953 298.034C89.5569 298.034 90.8693 298.724 90.8693 299.565C90.8693 302.171 83.407 300.355 81.3594 297.25C79.7095 294.75 79.7512 293.839 81.6365 291.148C84.3231 287.311 87.2781 286.876 84.9118 290.665ZM122.454 295.154C124.705 297.912 126.397 300.317 126.217 300.5C126.034 300.681 117.038 299.78 106.225 298.5C89.6674 296.54 86.5616 295.79 86.5616 293.753C86.5616 289.588 88.3134 289.166 103.538 289.657L118.362 290.137L122.454 295.154ZM245.945 293.709C245.945 297.388 242.086 300.941 238.305 300.74C235.391 300.584 235.374 300.524 238.048 299.867C242.691 298.726 244.784 296.281 244.114 292.78C243.77 290.98 244.041 289.847 244.716 290.265C245.392 290.683 245.945 292.232 245.945 293.709Z" fill="black"/>
</g>
</svg>
