<svg width="343" height="320" viewBox="0 0 343 320" fill="none" xmlns="http://www.w3.org/2000/svg">
<mask id="mask0_414_8672" style="mask-type:alpha" maskUnits="userSpaceOnUse" x="0" y="0" width="343" height="320">
<rect width="343" height="320" fill="#D9D9D9"/>
</mask>
<g mask="url(#mask0_414_8672)">
<path fill-rule="evenodd" clip-rule="evenodd" d="M90.8784 53.4769C90.8784 82.8892 90.4279 106.94 89.8758 106.924C89.3236 106.908 87.369 105.719 85.5308 104.28C83.6925 102.841 80.5347 101.652 78.5119 101.636C73.7899 101.598 73.2043 96.6756 77.8435 96.0178C81.413 95.5098 83.0614 88.5497 81.0654 82.4133C80.3809 80.313 80.2165 73.8677 80.6978 68.0895C81.5521 57.8487 81.4879 57.5291 78.1349 55.3312C74.8555 53.1828 74.5145 53.2109 70.8085 55.9516C68.6708 57.5318 65.6855 58.8246 64.1748 58.8246C62.5357 58.8246 60.41 60.4958 58.906 62.9691C57.5196 65.2485 54.5208 68.2472 52.2413 69.6336C49.9619 71.02 48.0969 73.0655 48.0969 74.1792C48.0969 77.2688 53.0556 81.5523 56.6305 81.5523C60.3298 81.5523 61.4207 84.3518 61.4475 93.9188C61.4648 99.8802 61.2523 100.269 57.9701 100.269C53.1839 100.269 36.8708 108.137 28.5538 114.457C16.4012 123.689 12 130.398 12 139.687C12 146.255 14.3477 151.972 19.6579 158.332C23.6446 163.107 33.6247 171.14 34.725 170.459C35.1648 170.188 36.3708 170.488 37.4055 171.129C38.6796 171.916 39.1663 174.26 38.9123 178.394C38.578 183.815 38.848 184.495 41.3374 184.495C43.558 184.495 43.9912 185.118 43.4351 187.503C39.8093 203.025 37.4536 266.861 39.7705 286.77C40.455 292.652 40.5259 297.788 39.9283 298.181C38.1569 299.348 34.7277 308.482 34.7277 312.032C34.7277 316.547 38.1007 319.529 43.1784 319.504C50.4165 319.47 51.101 318.297 50.6839 306.655C50.4766 300.865 50.6625 295.226 51.097 294.123C51.5302 293.02 52.2053 288.545 52.5943 284.18C52.9847 279.815 54.9246 268.863 56.9073 259.844L60.5102 243.447L67.3393 243.049L74.1669 242.652L82.5227 265.834C87.3944 279.351 90.8784 291.197 90.8784 294.243C90.8784 298.579 91.3343 299.471 93.5523 299.471C96.3197 299.471 97.2422 302.697 94.8892 304.15C92.821 305.428 93.2756 316.293 95.4735 318.117C96.6727 319.113 103.18 319.801 112.804 319.952C125.264 320.146 128.617 319.791 130.318 318.091C134.556 313.855 129.999 309.721 115.757 304.88C100.28 299.619 103.109 299.471 219.112 299.471H330.188V170.776V42.0823L309.116 21.0405L288.044 0H189.462H90.8784V53.4769ZM287.707 23.7304L288.075 44.7869H307.796H327.516L327.515 171.46L327.514 298.134H217.139C156.433 298.134 107.067 297.643 107.438 297.044C107.808 296.445 106.972 288.172 105.582 278.662C100.778 245.797 99.1673 224.786 100.514 212.571C101.753 201.341 100.92 155.746 99.4053 151.797C98.7048 149.973 99.13 149.968 103.397 151.751C106.023 152.848 109.352 153.746 110.792 153.746C114.368 153.746 118.545 148.072 121.017 139.858C124.113 129.568 127.346 105.071 125.681 104.517C124.922 104.264 124.302 102.932 124.302 101.557C124.302 99.8935 126.243 98.1983 130.106 96.4897C138.699 92.6889 144.723 82.8892 138.468 82.8892C137.522 82.8892 135.659 84.0925 134.328 85.5631C131.252 88.9629 129.649 88.9629 129.649 85.5631C129.649 84.0925 129.124 82.8892 128.482 82.8892C126.128 82.8892 116.549 94.6635 115.678 98.6301C115.184 100.879 113.991 103.022 113.029 103.392C112.066 103.761 109.885 107.422 108.185 111.525C104.443 120.554 102.062 121.008 96.3384 113.78L92.2154 108.574V55.624V2.67385H189.777H287.338L287.707 23.7304ZM308.797 23.3962L328.147 42.7815H308.445H288.743V23.3962C288.743 12.7342 288.901 4.01077 289.095 4.01077C289.289 4.01077 298.154 12.7342 308.797 23.3962ZM157.231 18.4268C158.799 19.6889 161.154 21.3573 162.464 22.1328C164.587 23.3881 164.277 23.8988 159.615 26.812L154.382 30.0808L211.076 30.4297C242.257 30.6222 268.125 30.4217 268.561 29.9858C269.326 29.2211 267.6 27.693 262.471 24.598C260.248 23.2558 260.415 22.9269 264.36 20.8867C266.741 19.6554 268.689 18.0618 268.689 17.3452C268.689 16.5204 247.773 16.0591 211.536 16.0872C157.306 16.13 154.528 16.249 157.231 18.4268ZM183.721 48.7054C179.726 53.6988 173.936 54.2456 167.965 50.1934C163.436 47.1198 162.907 47.0236 162.155 49.1413C161.701 50.4234 160.445 52.5023 159.365 53.7617C158.285 55.0211 157.751 56.9663 158.18 58.084C158.769 59.6174 157.251 60.6 151.992 62.088C137.58 66.1656 138.418 66.2592 132.572 59.9396C129.624 56.7524 125.354 53.0585 123.084 51.7296L118.954 49.3151V53.2002C118.954 55.4074 120.709 59.5091 123.014 62.6923L127.076 68.298L124.505 71.9171C120.874 77.0281 117.486 85.5631 119.089 85.5631C121.973 85.5631 128.068 81.4788 132.49 76.5843C136.613 72.02 137.623 71.5427 141.485 72.3329C148.274 73.7206 157.809 77.6605 157.112 78.7875C156.766 79.3477 158.273 81.5215 160.46 83.6165C164.181 87.1821 164.731 87.3211 169.007 85.7743C172.637 84.4628 175.933 84.4628 185.023 85.777C194.903 87.2061 198.057 87.1259 208.066 85.1967C221.1 82.6833 231.71 78.0335 232.353 74.5522C233.229 69.8061 218.453 59.0626 205.185 54.7965C202.244 53.8513 197.745 51.3619 195.188 49.2669C189.503 44.6064 187.095 44.4888 183.721 48.7054ZM201.617 55.6735C203.724 56.2457 204.5 57.2163 204.014 58.6749C200.094 70.4411 199.906 72.3262 202.049 78.2862L204.185 84.2261L194.658 84.2061C182.816 84.182 172.002 81.6846 157.199 75.5575C150.893 72.9465 142.901 70.4238 139.439 69.9491L133.144 69.0855L143.52 66.6376C149.226 65.2913 158.215 62.2832 163.497 59.953C168.778 57.6227 174.904 55.2376 177.11 54.6521C181.241 53.5571 196.097 54.1761 201.617 55.6735ZM78.9023 58.9289C80.9999 62.8501 79.7713 64.9825 73.6014 68.1309C70.6442 69.639 66.1253 72.7166 63.5597 74.9693C57.9447 79.8999 51.7012 80.0536 51.0221 75.2794C50.7173 73.1337 51.7173 71.7727 54.7562 70.2018C57.0396 69.0213 59.4728 66.5667 60.164 64.7472C60.9822 62.5961 62.8204 61.1602 65.4248 60.6402C67.6267 60.199 70.116 59.0091 70.9583 57.9944C73.211 55.2804 77.2004 55.7497 78.9023 58.9289ZM260.935 57.7551C258.756 59.9342 258.919 62.2338 261.431 64.7458C263.192 66.5066 267.597 66.8461 288.631 66.8461C311.669 66.8461 313.92 66.6362 316.05 64.2833C317.9 62.2391 318.067 61.1575 316.879 58.9356C315.445 56.2577 314.37 56.1508 288.964 56.1508C270.195 56.1508 262.074 56.616 260.935 57.7551ZM78.7525 74.3597C78.8034 75.1832 75.9878 76.6017 72.4958 77.5108C69.0037 78.4199 64.9475 79.4881 63.4822 79.8825C61.053 80.5376 60.9942 80.3878 62.8138 78.1739C63.9114 76.8396 67.5037 74.0334 70.7965 71.9371C76.2659 68.4571 76.8675 68.3315 77.7218 70.4946C78.2365 71.7968 78.7004 73.5361 78.7525 74.3597ZM221.897 70.8569C221.897 72.3422 221.005 73.5308 219.892 73.5308C218.778 73.5308 217.886 72.3422 217.886 70.8569C217.886 69.3716 218.778 68.1831 219.892 68.1831C221.005 68.1831 221.897 69.3716 221.897 70.8569ZM168.754 71.6551C165.743 73.0267 166.975 74.381 174.65 78.1391C182.811 82.1352 197.832 84.4668 197.832 81.7381C197.832 80.7943 195.162 80.2087 190.813 80.198C186.042 80.186 181.654 79.1151 177.11 76.8517L170.425 73.5241L183.546 74.0134C192.16 74.3356 196.215 74.0522 195.35 73.1872C193.898 71.7353 171.42 70.4398 168.754 71.6551ZM259.803 76.9011C258.414 80.5215 261.217 81.7087 270.162 81.2876C277.691 80.932 278.716 80.563 278.716 78.21C278.716 75.8383 277.693 75.492 269.673 75.1404C262.344 74.8196 260.474 75.1538 259.803 76.9011ZM287.873 76.9172C286.379 80.8076 289.441 81.6566 303.565 81.2675C316.468 80.9119 317.487 80.6886 317.487 78.21C317.487 75.7246 316.469 75.5094 303.091 75.1565C290.893 74.8343 288.568 75.1043 287.873 76.9172ZM277.061 78.21C277.409 79.6712 265.531 80.829 262.424 79.6365C261.364 79.2301 260.89 78.2635 261.37 77.4881C262.459 75.7233 276.623 76.3757 277.061 78.21ZM315.482 78.21C315.482 79.8517 313.179 80.2154 302.781 80.2154C292.382 80.2154 290.08 79.8517 290.08 78.21C290.08 76.5682 292.382 76.2046 302.781 76.2046C313.179 76.2046 315.482 76.5682 315.482 78.21ZM78.9077 82.3839C80.3515 86.1807 78.6871 89.5738 75.3782 89.5738C73.0212 89.5738 70.731 81.2475 72.7177 79.9012C75.4651 78.0402 77.5788 78.8878 78.9077 82.3839ZM69.4877 82.8892C69.4877 83.6245 68.8861 84.2261 68.1508 84.2261C67.4155 84.2261 66.8138 83.6245 66.8138 82.8892C66.8138 82.1539 67.4155 81.5523 68.1508 81.5523C68.8861 81.5523 69.4877 82.1539 69.4877 82.8892ZM137.075 88.9829C135.812 90.9094 131.82 93.7156 128.203 95.2197C123.057 97.3574 121.628 98.6128 121.628 100.991C121.628 103.355 121.043 103.878 118.997 103.341C116.507 102.69 116.474 102.391 118.383 97.7852C119.493 95.1074 122.153 91.1501 124.296 88.9909C127.779 85.4829 128.11 85.3772 127.427 87.9882C126.343 92.1381 130.941 91.8854 134.992 87.5738C138.887 83.4267 140.153 84.2836 137.075 88.9829ZM260.871 85.4093C259.879 86.0377 259.285 87.6834 259.551 89.0658C260.001 91.3961 261.538 91.5792 280.721 91.5792C299.905 91.5792 301.443 91.3961 301.892 89.0658C302.158 87.6834 301.564 86.0377 300.572 85.4093C299.582 84.781 290.648 84.2676 280.721 84.2676C270.795 84.2676 261.861 84.781 260.871 85.4093ZM300.107 88.2369C300.644 89.1059 293.882 89.5738 280.8 89.5738C268.269 89.5738 260.668 89.0685 260.668 88.2369C260.668 87.4067 267.994 86.9 279.974 86.9C291.403 86.9 299.618 87.4454 300.107 88.2369ZM69.8219 93.3881C72.7083 99.6596 72.8166 104.113 70.1067 105.153C66.4462 106.557 62.8031 101.74 62.8031 95.4937C62.8031 90.5097 63.8258 88.6941 66.8138 88.3773C67.1815 88.3385 68.5358 90.5926 69.8219 93.3881ZM176.442 96.4162C172.609 97.9376 164.409 105.481 164.409 107.487C164.409 108.228 166.777 106.521 169.671 103.694C174.008 99.459 176.114 98.443 181.642 97.9122C187.795 97.32 188.701 97.6181 192.579 101.497C196.542 105.458 196.773 106.215 196.247 113.49C195.847 119.026 194.1 124.562 190.162 132.767C185.541 142.4 183.889 144.591 180.046 146.197C177.52 147.253 174.468 149.524 173.264 151.245L171.072 154.372L171.304 151.051C171.432 149.225 170.177 145.356 168.518 142.454C165.646 137.438 165.615 137.095 167.883 135.436C169.195 134.477 171.063 133.692 172.035 133.692C173.606 133.692 177.847 130.248 188.006 120.717C192.065 116.91 192.156 114.277 188.14 116.811C186.486 117.854 183.627 119.108 181.789 119.598C179.008 120.339 179.514 119.477 184.797 114.466C188.289 111.154 191.148 108.109 191.148 107.7C191.148 106.383 182.936 106.903 177.361 108.574C166.596 111.799 156.573 126.365 158.373 136.168C159.968 144.858 163.257 153.499 165.868 155.862C167.272 157.133 168.42 158.679 168.42 159.301C168.42 161.635 165.695 160.273 160.648 155.417C155.848 150.798 155.469 149.908 155.838 144.087C156.059 140.612 155.671 137.418 154.976 136.989C154.282 136.56 153.714 136.881 153.714 137.703C153.714 138.525 153.199 138.88 152.569 138.491C150.896 137.456 152.232 152.63 154.004 154.764C154.83 155.76 158.111 158.1 161.294 159.967C164.479 161.832 166.798 163.82 166.451 164.384C166.102 164.947 162.745 164.8 158.988 164.058C153.259 162.924 151.678 161.932 149.163 157.892C147.515 155.245 145.766 151.995 145.277 150.67C144.545 148.691 144.06 148.57 142.548 149.981C140.994 151.433 141.163 152.432 143.632 156.4C145.24 158.984 146.929 162.11 147.384 163.345C147.929 164.828 150.394 165.884 154.639 166.454C158.174 166.927 161.861 167.569 162.832 167.877C165.31 168.668 164.21 174.605 161.703 173.964C160.618 173.688 156.071 173.24 151.599 172.97C144.33 172.531 143.137 172.832 140.342 175.808C136.332 180.075 137.731 181.549 142.607 178.194C145.442 176.244 147.942 175.753 152.829 176.186C158.735 176.712 159.218 177.011 158.378 179.626C157.872 181.201 156.794 185.366 155.983 188.879C154.944 193.375 153.965 195.06 152.676 194.566C150.595 193.767 145.692 196.028 145.692 197.786C145.692 198.886 169.33 211.234 171.439 211.234C173.282 211.234 172.447 206.093 170.245 203.891C168.222 201.869 168.36 201.389 172.09 197.446C174.306 195.102 176.873 191.724 177.792 189.939L179.464 186.693L183.178 191.243C185.22 193.746 187.271 198.161 187.733 201.057C188.693 207.057 191.251 206.128 191.415 199.719C191.486 196.913 189.839 194.042 185.383 189.204C179.682 183.018 179.402 182.384 181.391 180.186C183.414 177.951 183.876 178.146 189.863 183.747C196.184 189.659 197.749 190.061 204.517 187.513C205.62 187.098 207.474 186.871 208.639 187.01C209.803 187.149 210.756 186.326 210.756 185.183C210.756 183.445 209.422 183.231 202.622 183.879C194.652 184.64 194.399 184.561 189.902 179.916C187.379 177.309 185.694 174.797 186.158 174.333C186.622 173.868 190.26 174.839 194.243 176.49L201.481 179.49L206.652 175.976C209.496 174.045 212.585 172.463 213.517 172.463C215.49 172.463 215.647 171.209 214 168.607C213.053 167.113 211.943 167.434 208.212 170.279C203.306 174.022 197.8 174.738 191.717 172.426C187.138 170.685 188.605 169.083 194.33 169.577C197.037 169.811 199.36 169.164 200.426 167.881C201.371 166.741 202.716 166.159 203.413 166.59C204.979 167.559 212.349 164.734 215.691 161.881C217.057 160.716 219.678 156.8 221.513 153.178C224.293 147.698 224.762 145.18 224.315 138.152C223.95 132.425 222.912 128.55 221.084 126.104C216.636 120.147 215.444 120.794 214.434 129.708C213.472 138.215 211.262 138.426 211.222 130.016C211.199 125.074 208.898 124.133 207.953 128.679C206.243 136.902 205.835 149.511 207.164 153.009C208.994 157.82 207.742 159.117 201.076 159.312C198.189 159.397 195.199 159.956 194.43 160.554C193.494 161.281 193.07 159.341 193.148 154.686C193.299 145.742 200.16 131.556 208.616 122.703C213.799 117.278 215.484 116.312 219.774 116.312C230.147 116.312 235.951 124.726 234.435 137.568C233.894 142.14 234.075 143.204 235.135 141.714C237.771 138.008 236.878 126.474 233.574 121.57C230.008 116.28 222.339 112.904 216.941 114.251C211.341 115.648 201.743 126.448 195.779 138.064C192.864 143.742 190.178 148.38 189.811 148.372C189.443 148.364 188.309 147.83 187.291 147.185C185.788 146.233 186.208 144.663 189.519 138.85C194.344 130.377 199.177 116.574 199.149 111.342C199.121 105.993 196.451 101.464 191.265 97.9697C186.46 94.733 181.893 94.2544 176.442 96.4162ZM265.486 97.0472C265.037 98.217 265.009 99.7211 265.422 100.39C265.835 101.059 277.203 101.606 290.684 101.606C310.276 101.606 315.337 101.236 315.903 99.7639C317.491 95.6221 313.734 94.9215 289.956 94.9215C269.566 94.9215 266.189 95.2143 265.486 97.0472ZM313.812 98.5981C314.242 99.8922 309.071 100.269 290.859 100.269C269.32 100.269 265.638 99.7558 268.275 97.1181C268.781 96.6114 279.11 96.3601 291.227 96.5619C307.394 96.8293 313.404 97.3721 313.812 98.5981ZM63.4301 104.785C65.1774 106.534 67.3125 110.594 68.1721 113.81C70.5412 122.664 71.35 123.631 76.7725 124.088C84.1109 124.707 87.0215 121.663 85.2474 115.221C84.5014 112.513 82.6176 108.491 81.0614 106.285L78.2325 102.275L81.5481 104.431C85.9505 107.295 91.3491 120.504 94.8812 137.06C100.423 163.026 99.9508 224.631 94.1419 233.575C90.7233 238.839 66.3178 243.18 54.2387 240.672C38.201 237.343 37.6007 231.171 50.2347 199.588C59.6038 176.17 63.1373 162.161 65.6333 138.547C67.6601 119.359 66.0758 111.418 59.065 105.64C54.6358 101.988 54.4607 101.606 57.212 101.606C58.8832 101.606 61.6814 103.037 63.4301 104.785ZM57.1653 106.367C62.271 109.942 64.1413 115.376 64.1306 126.607C64.1213 137.048 61.0758 161.266 59.5851 162.757C59.1493 163.194 58.7923 162.913 58.7923 162.135C58.7923 159.113 51.7601 158.848 47.8683 161.725L44.0862 164.522L44.1129 160.805C44.1276 158.761 44.7038 153.183 45.3937 148.409C47.4539 134.159 44.3201 129.671 37.4296 137.004C33.61 141.069 33.5726 146.241 37.3079 153.564C38.8307 156.547 40.0754 159.195 40.0754 159.449C40.0754 159.703 38.6074 161.901 36.8133 164.333L33.5512 168.754L25.9267 161.585C17.9466 154.079 13.4158 146.29 13.3663 139.989C13.2834 129.478 27.265 114.613 44.3843 107.009C51.5141 103.841 53.4246 103.747 57.1653 106.367ZM81.3288 111.3C85.3249 119.358 84.516 121.66 77.6843 121.66C72.4743 121.66 72.4142 121.601 70.8059 114.899C69.3353 108.768 69.4169 107.962 71.6763 106.233C75.5961 103.233 77.9357 104.46 81.3288 111.3ZM123.709 114.128C122.335 126.624 119.305 140.115 116.657 145.532C113.979 151.009 109.376 152.413 102.899 149.73C99.6367 148.38 98.9495 147.049 97.4895 139.266C96.0684 131.69 93.6084 123.434 88.8557 110.296C88.3236 108.826 90.8731 110.781 94.5229 114.641C98.1714 118.501 102.185 121.66 103.441 121.66C104.935 121.66 107.083 118.759 109.653 113.268L113.579 104.875L119.096 105.402L124.612 105.927L123.709 114.128ZM261.67 120.43C260.384 121.18 259.331 122.846 259.331 124.133C259.331 129.137 261.845 129.682 284.953 129.682C306.295 129.682 307.437 129.549 308.857 126.897C310.046 124.675 309.878 123.593 308.028 121.549C305.928 119.228 303.739 118.99 284.859 119.026C273.199 119.049 262.979 119.668 261.67 120.43ZM43.9873 140.711C43.9324 143.837 43.4324 149.1 42.8762 152.409L41.8642 158.425L38.9644 151.964C35.3855 143.988 35.3748 142.95 38.8361 138.552C42.7412 133.587 44.1009 134.158 43.9873 140.711ZM260.871 138.886C259.879 139.515 259.285 141.16 259.55 142.543C259.997 144.862 261.72 145.084 281.898 145.424C305.172 145.815 308.636 145.072 306.048 140.237C304.805 137.913 302.948 137.704 283.683 137.723C272.128 137.735 261.861 138.258 260.871 138.886ZM304.786 141.714C304.786 142.551 296.541 143.051 282.727 143.051C268.912 143.051 260.668 142.551 260.668 141.714C260.668 140.877 268.912 140.377 282.727 140.377C296.541 140.377 304.786 140.877 304.786 141.714ZM266.839 150.484C266.38 151.675 266.346 153.198 266.759 153.866C267.172 154.536 274.736 155.083 283.568 155.083C299.454 155.083 299.62 155.051 299.198 152.075C298.786 149.178 298.198 149.054 283.22 148.691C269.892 148.37 267.552 148.626 266.839 150.484ZM297.433 151.741C297.433 152.526 291.498 153.234 283.061 153.457C269.922 153.804 267.023 153.185 269.624 150.583C271.088 149.119 297.433 150.217 297.433 151.741ZM260.871 158.94C259.879 159.568 259.285 161.214 259.55 162.597C259.994 164.905 261.689 165.139 280.433 165.479C297.79 165.793 300.95 165.542 301.622 163.79C302.056 162.659 301.668 160.839 300.761 159.745C299.446 158.162 295.405 157.761 280.893 157.777C270.871 157.789 261.861 158.312 260.871 158.94ZM299.773 162.183C299.529 162.972 271.148 163.681 261.257 163.145C260.847 163.123 260.892 162.487 261.359 161.732C262.374 160.09 300.281 160.535 299.773 162.183ZM57.4367 163.75C58.807 165.401 58.442 165.962 55.2615 167.094C53.1585 167.841 50.3951 169.055 49.1183 169.789C46.1022 171.526 41.9136 171.488 38.5647 169.696C34.6969 167.626 37.7358 164.308 42.6062 165.282C45.006 165.762 46.8388 165.288 48.0006 163.888C50.2172 161.218 55.2749 161.145 57.4367 163.75ZM58.7923 171.168C58.7923 172.922 57.1613 173.407 48.0969 174.348L40.7438 175.113L45.8562 173.242C48.6691 172.214 51.3256 171.016 51.7615 170.581C53.1077 169.234 58.7923 169.709 58.7923 171.168ZM56.1185 177.701C56.1185 182.018 54.2722 183.158 47.2854 183.158C39.5607 183.158 39.3467 183.007 41.4591 179.059C42.542 177.037 44.2867 176.474 49.4806 176.474C53.1317 176.474 56.1185 177.026 56.1185 177.701ZM260.935 184.763C260.053 185.645 259.331 187.33 259.331 188.506C259.331 193.374 261.926 193.854 288.247 193.854C309.834 193.854 314.29 193.517 316.055 191.754C318.54 189.267 318.562 189.089 316.772 185.744C315.475 183.322 313.719 183.158 288.964 183.158C270.195 183.158 262.074 183.624 260.935 184.763ZM225.806 199.997C224.024 201.906 220.159 204.893 217.218 206.636C214.276 208.381 209.82 212.835 207.315 216.536C204.022 221.404 201.895 223.266 199.632 223.266C197.911 223.266 194.164 225.38 191.305 227.963C188.125 230.836 185.307 232.352 184.046 231.868C180.721 230.591 170.994 235.687 163.072 242.856C153.346 251.657 149.738 254.015 146.001 254.015C143.883 254.015 142.168 255.363 140.616 258.247C137.421 264.185 129.929 272.464 126.871 273.434C125.458 273.882 124.302 275.183 124.302 276.325C124.302 278.128 126.183 278.279 138.673 277.485C156.588 276.343 157.725 276.018 157.725 272.025C157.725 269.389 158.726 268.557 163.407 267.307C173.967 264.487 187.697 257.283 192.109 252.245C194.477 249.542 197.589 247.331 199.026 247.331C200.462 247.331 203.426 245.827 205.61 243.988C207.795 242.15 210.81 240.646 212.31 240.646C216.661 240.646 221.968 238.186 226.834 233.915C234.42 227.254 240.225 229.555 238.536 238.554C237.929 241.789 238.229 244.063 239.459 245.543C241.076 247.494 241.399 247.157 242.346 242.52C242.933 239.651 243.745 235.709 244.151 233.76C244.681 231.217 244.063 229.389 241.963 227.289L239.036 224.362L241.911 221.304C243.846 219.242 245.038 215.794 245.56 210.728C246.479 201.827 244.413 200.605 241.249 208.176C238.431 214.922 235.472 217.918 231.627 217.918C228.9 217.918 228.544 217.453 229.323 214.91C230.624 210.667 232.12 209.08 236.551 207.244C239.921 205.849 242.824 202.303 241.599 201.079C241.372 200.851 238.258 201.688 234.681 202.941C229.338 204.811 227.369 206.472 223.659 212.237C221.174 216.096 218.256 219.255 217.176 219.255C216.096 219.255 215.212 218.977 215.212 218.638C215.212 218.298 218.45 214.39 222.408 209.956C229.015 202.552 232.432 196.528 230.027 196.528C229.488 196.528 227.59 198.089 225.806 199.997ZM268.244 202.767C266.592 204.42 267.336 208.267 269.467 209.085C270.63 209.532 279.239 209.897 288.597 209.897C306.551 209.897 311.441 208.549 309.725 204.075C308.993 202.171 306.217 201.875 289.008 201.875C278.077 201.875 268.733 202.276 268.244 202.767ZM307.46 205.218C307.46 206.908 304.414 207.223 288.075 207.223C270.359 207.223 267.023 206.66 269.581 204.104C270.07 203.613 278.794 203.212 288.966 203.212C304.513 203.212 307.46 203.532 307.46 205.218ZM260.871 212.417C259.879 213.045 259.285 214.691 259.55 216.073C259.994 218.382 261.689 218.616 280.433 218.956C297.79 219.27 300.95 219.019 301.622 217.267C302.056 216.136 301.668 214.315 300.761 213.222C299.446 211.639 295.405 211.238 280.893 211.254C270.871 211.266 261.861 211.789 260.871 212.417ZM300.107 215.913C300.107 217.313 265.65 218.578 262.321 217.299C261.319 216.916 260.883 215.979 261.352 215.218C262.486 213.384 300.107 214.059 300.107 215.913ZM264.678 223.935C263.351 225.535 263.351 226.345 264.678 227.945C267.093 230.854 298.349 230.869 300.761 227.963C301.668 226.869 302.063 225.064 301.635 223.952C300.499 220.988 267.137 220.973 264.678 223.935ZM300.107 225.94C299.628 226.715 292.294 227.277 282.648 227.277C272.451 227.277 266.015 226.76 266.015 225.94C266.015 225.116 272.727 224.603 283.474 224.603C294.773 224.603 300.642 225.075 300.107 225.94ZM93.1285 297.048C92.702 298.114 92.3851 297.797 92.321 296.239C92.2635 294.83 92.579 294.041 93.0229 294.485C93.4667 294.929 93.5148 296.083 93.1285 297.048ZM47.4285 296.797C46.9739 297.532 45.7359 298.134 44.6757 298.134C43.6155 298.134 42.7492 297.532 42.7492 296.797C42.7492 296.062 43.9886 295.46 45.502 295.46C47.0154 295.46 47.883 296.062 47.4285 296.797ZM105.585 301.476C105.585 304.15 104.916 304.818 102.242 304.818C100.404 304.818 98.9 304.567 98.9 304.26C98.9 303.952 98.5551 302.801 98.1339 301.702C97.6593 300.468 98.2997 299.464 99.8051 299.074C104.689 297.812 105.585 298.183 105.585 301.476ZM48.1478 301.285C49.5128 306.456 49.248 311.329 47.5247 312.761C45.026 314.835 38.9443 313.594 37.8681 310.792C36.57 307.408 38.6877 302.078 41.7867 300.925C44.1517 300.047 47.8764 300.257 48.1478 301.285ZM43.1088 304.408C44.4097 304.748 46.2145 304.725 47.1196 304.359C48.0247 303.992 46.9605 303.715 44.7546 303.742C42.5487 303.769 41.808 304.068 43.1088 304.408ZM105.607 306.146C109.587 304.498 115.517 306.154 112.44 308.055C111.611 308.567 110.932 309.646 110.932 310.452C110.932 311.258 112.161 310.805 113.664 309.445C116.231 307.122 116.34 307.118 115.475 309.371C114.662 311.488 114.871 311.57 117.269 310.073C119.465 308.702 120.78 308.708 124.148 310.102C132.455 313.543 128.858 314.617 112.046 313.713C103.099 313.232 95.6326 312.689 95.4521 312.504C95.2729 312.321 95.44 310.532 95.8251 308.528C96.432 305.372 96.8799 305.074 99.1714 306.3C101.066 307.314 102.892 307.27 105.607 306.146ZM41.7719 307.082C43.0727 307.421 44.8776 307.399 45.7827 307.032C46.6878 306.666 45.6236 306.389 43.4177 306.416C41.2118 306.443 40.4711 306.742 41.7719 307.082ZM47.8202 316.516C46.3229 318.32 42.8989 318.674 39.5165 317.376C35.7009 315.912 37.2972 314.845 43.304 314.845C47.875 314.845 48.8938 315.222 47.8202 316.516ZM128.981 316.851C128.007 318.424 103.815 318.424 98.9 316.851C96.8211 316.185 102.032 315.73 112.682 315.647C123.791 315.561 129.517 315.983 128.981 316.851Z" fill="black"/>
</g>
</svg>
