<svg width="343" height="320" viewBox="0 0 343 320" fill="none" xmlns="http://www.w3.org/2000/svg">
<mask id="mask0_414_8632" style="mask-type:alpha" maskUnits="userSpaceOnUse" x="0" y="0" width="343" height="320">
<rect width="343" height="320" fill="#D9D9D9"/>
</mask>
<g mask="url(#mask0_414_8632)">
<path fill-rule="evenodd" clip-rule="evenodd" d="M35.3453 3.00275C33.7168 5.32337 33.2393 9.76469 33.2393 22.5889C33.2393 38.4766 33.1216 39.1722 30.43 39.1722C25.892 39.1722 20.1124 46.1652 17.6452 54.6426C15.665 61.4437 15.5068 66.7927 16.3657 97.7618C17.2449 129.502 17.1204 133.302 15.1483 134.936C12.5825 137.064 12.2213 144.614 14.5735 146.963C15.4662 147.855 19.4631 148.584 23.456 148.584C29.7361 148.584 30.622 148.903 30.0161 150.948C28.7703 155.149 14.303 230.533 14.303 232.82C14.303 234.261 15.4446 235.033 17.5722 235.033C21.1241 235.033 21.419 234.16 25.2049 212.408L26.9092 202.615H38.7255H50.5418L52.76 215.11C56.554 236.477 56.0008 235.033 60.3981 235.033C65.1065 235.033 65.0768 235.463 61.6439 217.473C60.156 209.676 58.9387 203.143 58.9387 202.955C58.9387 202.768 63.6985 202.615 69.5146 202.615H80.0906L77.6884 215.785C74.4029 233.796 74.4489 235.033 78.4107 235.033C81.4364 235.033 81.7989 234.205 83.8698 222.539C85.0898 215.666 86.4194 208.373 86.8238 206.33L87.5583 202.615H99.7033C107.087 202.615 111.536 203.122 111.05 203.906C110.611 204.617 109.458 204.895 108.488 204.524C107.519 204.152 105.276 205.021 103.503 206.454C100.738 208.689 100.538 209.369 102.093 211.24C103.093 212.443 105.912 213.421 108.379 213.421C112.741 213.421 112.89 213.613 114.413 221.188C117.278 235.44 117.076 235.033 121.304 235.033C125.762 235.033 125.8 234.816 123.303 223.193C122.279 218.431 122.009 214.406 122.684 213.99C124.21 213.048 124.268 213.206 132.631 241.473L139.651 265.193L134.422 282.87C131.546 292.591 128.059 304.324 126.673 308.943C124.664 315.638 124.499 317.626 125.858 318.753C128.611 321.034 129.893 318.242 136.382 295.836L142.44 274.915L145.9 286.38C147.803 292.686 150.81 302.668 152.582 308.564C155.741 319.076 158.237 322.417 159.83 318.272C160.271 317.125 157.232 304.683 153.077 290.626L145.521 265.064L153.185 239.218L160.85 213.373L191.915 213.735L222.979 214.097L230.203 238.41C234.176 251.783 237.425 263.94 237.422 265.426C237.418 267.941 227.294 302.562 226.393 303.146C226.168 303.292 222.788 305.412 218.883 307.86C209.995 313.428 209.176 317.43 216.922 317.43C219.749 317.43 222.792 318.16 223.685 319.051C224.947 320.311 225.669 320.311 226.931 319.051C227.824 318.16 231.659 317.43 235.453 317.43C243.474 317.43 245.597 315.842 245.597 309.842C245.597 304.963 246.74 301.221 248.231 301.221C248.777 301.221 250.032 304.589 251.021 308.706C253.258 318.019 255.541 321.491 257.903 319.166C259.223 317.865 258.949 315.474 256.588 307.684L253.604 297.844L258.731 293.489C263.611 289.344 263.915 289.263 265.079 291.801C265.749 293.268 267.387 294.467 268.718 294.467C270.048 294.467 271.505 295.063 271.955 295.79C273.313 297.983 269.756 307.68 266.461 310.772C262.099 314.864 263.642 317.43 270.463 317.43C277.39 317.43 281.229 314.871 286.316 306.859C291.418 298.826 291.272 296.339 285.499 292.937C282.895 291.404 280.724 289.752 280.674 289.268C280.114 283.883 279.278 279.483 278.325 276.907C277.399 274.411 278.366 271.791 283.137 263.864L289.107 253.944H295.081H301.054V283.576V313.206L296.668 313.631C293.781 313.909 292.13 314.86 291.836 316.417C291.435 318.528 292.707 318.781 303.759 318.781C314.811 318.781 316.082 318.528 315.682 316.417C315.387 314.86 313.737 313.909 310.849 313.631L306.464 313.206V283.576V253.944H317.881C324.161 253.944 329.641 253.392 330.059 252.715C331.237 250.813 329.391 247.19 327.244 247.19C325.822 247.19 326.112 246.119 328.349 243.098C331.294 239.121 331.368 238.204 330.976 211.052C330.539 180.895 329.404 170.351 326.046 165.233C323.526 161.392 316.89 157.113 311.68 155.97C305.844 154.691 305.078 144.627 309.933 133.069C311.056 130.396 311.197 128.232 310.351 126.653C308.961 124.06 303.101 123.406 301.689 125.688C301.093 126.651 300.189 126.586 298.858 125.484C297.425 124.295 296.104 124.25 293.906 125.312C292.258 126.11 289.244 127.122 287.21 127.562C281.065 128.894 280.303 137.778 286.335 137.778C287.822 137.778 288.662 138.387 288.201 139.133C287.74 139.879 287.774 143.222 288.276 146.562C289.07 151.857 289.612 152.637 292.496 152.637C294.356 152.637 295.438 153.227 294.967 153.987C294.507 154.73 292.321 155.338 290.11 155.338C280.967 155.338 271.911 162.457 265.778 174.46C263.418 179.081 262.661 179.69 261.213 178.136C260.259 177.113 258.839 174.349 258.057 171.996C256.371 166.918 258.183 164.737 266.224 162.158C269.015 161.264 271.296 159.971 271.296 159.285C271.296 158.6 272.145 158.04 273.181 158.04C277.39 158.04 277.056 149.973 272.842 149.892C271.62 149.869 269.502 149.003 268.134 147.968C266.029 146.376 264.853 146.366 260.469 147.912C257.622 148.915 252.349 150.162 248.753 150.683C240.973 151.811 237.482 153.426 237.482 155.896C237.482 156.893 236.581 158.454 235.481 159.368C232.14 162.135 235.328 165.858 241.882 166.841L247.626 167.704L247.698 176.041C247.799 187.89 249.256 193.83 253.211 198.524C257.147 203.195 262.246 203.866 268.659 200.554C271.714 198.976 272.644 198.898 272.629 200.216C272.579 204.31 270.187 204.847 250.58 205.154L230.54 205.471L231.479 195.601C231.995 190.172 232.944 185.067 233.585 184.255C235.238 182.169 233.61 181.003 229.041 181.003C223.423 181.003 224.607 177.14 231.406 173.295C237.193 170.021 236.425 169.293 229.666 171.646C226.957 172.589 225.023 174.473 224.125 177.049C222.953 180.4 222.025 181.003 218.027 181.003H213.311L214.099 193.16L214.888 205.317H167.347C141.2 205.317 119.806 205.115 119.806 204.869C119.806 204.624 117.75 194.139 115.236 181.569C112.722 169 110.26 156.436 109.764 153.65L108.862 148.584L145.782 148.598L182.701 148.611L184.944 153.946C191.064 168.5 213.564 168.5 219.684 153.946L221.927 148.611L232.139 148.598C243.54 148.583 245.597 147.444 245.597 141.155C245.597 136.302 243.51 133.726 239.578 133.726C236.896 133.727 236.805 133.005 236.805 111.776V89.826L228.234 68.5298C216.408 39.152 217.731 40.0624 185.517 39.1722L161.06 38.4969L160.68 21.0247C160.461 10.9669 159.672 2.79879 158.823 1.77626C157.644 0.357951 145.283 0 97.3984 0H37.45L35.3453 3.00275ZM157.408 2.97169C159.669 5.23017 159.669 42.0467 157.408 44.3052C155.073 46.6366 39.9022 46.6366 37.5676 44.3052C35.3061 42.0467 35.3061 5.23017 37.5676 2.97169C39.9022 0.640265 155.073 0.640265 157.408 2.97169ZM60.9175 9.15145C59.1037 10.0997 57.2506 12.3433 56.8002 14.1398C56.3052 16.1106 54.8268 17.5694 53.0752 17.8207C51.4791 18.049 49.3718 19.9063 48.3952 21.95C46.0146 26.9235 48.6197 32.409 54.2046 34.1839C56.4364 34.893 59.3891 36.4572 60.7674 37.6594C62.8112 39.4451 67.4222 39.9314 85.7904 40.2988C114.478 40.8729 129.525 39.7098 132.857 36.6598C134.234 35.3996 137.783 33.7773 140.744 33.056C144.857 32.0523 146.442 30.8448 147.462 27.9366C149.472 22.2066 146.046 16.8805 140.361 16.8981C137.288 16.9076 136.037 16.2835 136.037 14.7436C136.037 13.5509 134.756 11.418 133.188 10.0024C130.552 7.61968 127.893 7.42922 97.2781 7.42922C73.1044 7.42922 63.3292 7.89253 60.9175 9.15145ZM124.885 9.79306C124.21 11.8381 119.112 12.7458 115.987 11.3762C114.192 10.5887 114.566 10.178 117.777 9.40269C124.059 7.88713 125.488 7.96547 124.885 9.79306ZM79.5036 11.0709C77.66 12.912 67.0326 12.6634 65.093 10.7332C64.2841 9.92949 67.0164 9.45537 72.4647 9.45537C79.1803 9.45537 80.7588 9.81737 79.5036 11.0709ZM106.28 11.4815C105.21 12.7702 102.222 13.5077 98.0788 13.5077C88.6661 13.5077 88.4307 11.0398 97.788 10.4549C102.087 10.1861 106.135 9.85114 106.783 9.71066C107.432 9.57018 107.206 10.3671 106.28 11.4815ZM131.891 11.3748C133.2 12.9512 132.987 13.1646 130.703 12.5689C129.174 12.1691 127.921 11.3046 127.921 10.6481C127.921 8.82726 130.104 9.22574 131.891 11.3748ZM62.9965 12.0124C62.9965 12.6756 62.1146 13.5563 61.0366 13.9696C59.7259 14.4721 59.3255 14.0723 59.8287 12.7634C60.6497 10.6265 62.9965 10.07 62.9965 12.0124ZM114.395 12.9768C114.395 13.2686 112.721 13.4982 110.676 13.4874C107.969 13.4726 107.475 13.1389 108.862 12.2609C110.585 11.1722 114.395 11.6652 114.395 12.9768ZM87.0051 13.0876C85.7025 13.428 83.5735 13.428 82.271 13.0876C80.9684 12.7485 82.0343 12.4703 84.638 12.4703C87.2418 12.4703 88.3076 12.7485 87.0051 13.0876ZM215.84 14.1831C215.84 15.2974 214.927 16.2092 213.811 16.2092C212.695 16.2092 211.782 16.817 211.782 17.56C211.782 18.3029 212.695 18.9107 213.811 18.9107C214.927 18.9107 215.84 19.8225 215.84 20.9369C215.84 22.0513 216.449 22.963 217.193 22.963C217.936 22.963 218.545 22.0513 218.545 20.9369C218.545 19.8225 219.458 18.9107 220.574 18.9107C221.69 18.9107 222.603 18.3029 222.603 17.56C222.603 16.817 221.69 16.2092 220.574 16.2092C219.458 16.2092 218.545 15.2974 218.545 14.1831C218.545 13.0687 217.936 12.1569 217.193 12.1569C216.449 12.1569 215.84 13.0687 215.84 14.1831ZM123.497 14.3235C123.048 14.772 121.88 14.8206 120.905 14.4302C119.826 13.9993 120.146 13.6792 121.722 13.6144C123.148 13.5563 123.946 13.8751 123.497 14.3235ZM132.21 15.7432C134.012 17.3709 134.684 19.9171 134.684 25.1027C134.684 37.6026 132.29 38.3712 93.3136 38.4023C60.4631 38.428 58.9387 37.9174 58.9387 26.8951C58.9387 15.3474 59.2349 15.1597 76.8105 15.6297C85.2075 15.854 94.2875 16.4375 96.99 16.9278C100.028 17.4789 102.252 17.2533 102.818 16.3389C104.071 14.3154 116.48 14.4654 119.967 16.5469C122.355 17.972 123.037 17.8666 124.337 15.8715C126.271 12.9052 129.021 12.8607 132.21 15.7432ZM218.545 17.56C218.545 18.3029 217.936 18.9107 217.193 18.9107C216.449 18.9107 215.84 18.3029 215.84 17.56C215.84 16.817 216.449 16.2092 217.193 16.2092C217.936 16.2092 218.545 16.817 218.545 17.56ZM267.282 41.5023C277.261 52.4071 286.589 66.0633 291.065 76.3237C293.169 81.15 295.351 85.0983 295.911 85.0983C298.128 85.0983 289.751 67.949 282.056 56.7322C275.795 47.6064 263.46 33.7692 261.585 33.7692C260.825 33.7692 263.389 37.2487 267.282 41.5023ZM258.637 43.5622C267.282 52.7515 271.741 58.7084 276.693 67.6802C279.239 72.2917 280.724 73.9721 280.74 72.2552C280.79 66.7292 257.647 36.4707 253.37 36.4707C252.599 36.4707 254.969 39.6612 258.637 43.5622ZM34.3525 43.9134L35.8985 47.3039L97.1266 46.9527L158.355 46.6015L159.69 43.5622C160.995 40.5905 161.506 40.523 182.684 40.5527C200.964 40.577 205.218 40.9796 209.952 43.1259C216.795 46.2287 219.265 49.8311 216.121 52.1261C214.183 53.5417 214.782 55.8502 221.758 73.7951C226.592 86.2316 230.771 94.9062 232.737 96.5798C235.839 99.2219 235.892 99.6569 235.146 116.504L234.383 133.726H229.025C224.854 133.726 223.051 132.941 220.876 130.179C217.435 125.812 208.551 121.638 202.609 121.599C196.473 121.558 189.284 124.805 184.73 129.674L180.9 133.769L143.251 133.41L105.603 133.051L104.398 125.959L103.194 118.868H69.6648H36.1366L34.5919 126.297L33.0473 133.726H26.4628H19.8797L19.0344 127.985C18.5704 124.827 18.381 107.048 18.6137 88.4752C18.9965 57.906 19.2941 54.1955 21.7423 49.3138C24.0173 44.7779 28.8826 40.6216 32.0071 40.5433C32.4467 40.5325 33.5017 42.0494 34.3525 43.9134ZM172.7 49.1301C171.611 50.4417 171.265 61.8097 171.521 87.9647L171.881 124.946H176.602C181.088 124.946 181.635 124.404 187.514 114.14L193.703 103.334L208.7 102.953C219.335 102.683 224.141 102.036 225.228 100.729C227.279 98.2616 210.52 53.1122 206.265 49.6407C203.903 47.7145 200.668 47.2768 188.804 47.2768C178.112 47.2768 173.831 47.7699 172.7 49.1301ZM29.6184 54.8465C29.9796 57.5238 30.9413 60.3806 31.7569 61.1951C32.6658 62.1029 33.2393 68.8932 33.2393 78.7362C33.2393 93.6919 33.0324 94.963 30.2393 97.2215C27.6734 99.2976 27.5016 99.9622 29.053 101.828C30.6762 103.782 37.8165 104.009 97.4877 104.009C152.325 104.009 164.383 103.681 165.652 102.154C167.456 99.9838 166.412 96.4299 163.661 95.3763C162.146 94.7955 161.736 91.2308 161.736 78.6565C161.736 69.8671 162.27 62.0975 162.925 61.3924C163.578 60.6859 164.518 57.8304 165.015 55.0438L165.917 49.9784H97.439H28.9611L29.6184 54.8465ZM206.104 51.6817C208.555 54.6304 224.112 97.5983 223.401 99.4516C222.91 100.729 218.496 101.324 207.455 101.601L192.187 101.983L185.998 112.789C180.929 121.638 179.213 123.595 176.521 123.595H173.233L172.872 88.4968C172.673 69.193 172.806 52.6299 173.167 51.6884C174.095 49.276 204.099 49.2706 206.104 51.6817ZM163.089 52.3422C163.089 52.8987 133.568 53.3553 97.4877 53.3553C61.4072 53.3553 31.8867 52.8987 31.8867 52.3422C31.8867 51.7857 61.4072 51.3291 97.4877 51.3291C133.568 51.3291 163.089 51.7857 163.089 52.3422ZM175.859 53.0743C175.491 54.0347 175.357 64.2155 175.564 75.6997L175.938 96.5798L196.122 96.9554C207.988 97.1755 216.85 96.7865 217.627 96.0112C219.254 94.3862 207.289 59.612 203.408 54.6858C200.945 51.5574 199.942 51.3291 188.647 51.3291C179.991 51.3291 176.339 51.8276 175.859 53.0743ZM53.5283 58.083C53.5283 60.2699 52.6261 60.7845 48.7942 60.7845C44.9623 60.7845 44.0601 60.2699 44.0601 58.083C44.0601 55.8961 44.9623 55.3814 48.7942 55.3814C52.6261 55.3814 53.5283 55.8961 53.5283 58.083ZM77.875 58.083C77.875 60.2699 76.9729 60.7845 73.1409 60.7845C69.309 60.7845 68.4069 60.2699 68.4069 58.083C68.4069 55.8961 69.309 55.3814 73.1409 55.3814C76.9729 55.3814 77.875 55.8961 77.875 58.083ZM102.222 58.083C102.222 60.2699 101.32 60.7845 97.4877 60.7845C93.6558 60.7845 92.7536 60.2699 92.7536 58.083C92.7536 55.8961 93.6558 55.3814 97.4877 55.3814C101.32 55.3814 102.222 55.8961 102.222 58.083ZM126.569 58.083C126.569 60.2699 125.666 60.7845 121.834 60.7845C118.003 60.7845 117.1 60.2699 117.1 58.083C117.1 55.8961 118.003 55.3814 121.834 55.3814C125.666 55.3814 126.569 55.8961 126.569 58.083ZM150.915 58.083C150.915 60.2699 150.013 60.7845 146.181 60.7845C142.349 60.7845 141.447 60.2699 141.447 58.083C141.447 55.8961 142.349 55.3814 146.181 55.3814C150.013 55.3814 150.915 55.8961 150.915 58.083ZM48.9849 63.486C51.3966 63.486 53.7772 62.8255 54.2776 62.0178C54.9323 60.9601 55.5978 60.9601 56.6569 62.0178C58.5559 63.9142 63.9244 63.9142 65.0984 62.0178C65.7531 60.9601 66.4185 60.9601 67.4776 62.0178C69.3834 63.921 77.4463 63.921 78.6244 62.0178C79.279 60.9601 79.9445 60.9601 81.0036 62.0178C81.8125 62.8255 83.8373 63.486 85.505 63.486C87.1728 63.486 88.9447 62.8255 89.4452 62.0178C90.0998 60.9601 90.7653 60.9601 91.8244 62.0178C93.7302 63.921 101.793 63.921 102.971 62.0178C103.626 60.9601 104.291 60.9601 105.35 62.0178C106.159 62.8255 108.184 63.486 109.852 63.486C111.52 63.486 113.291 62.8255 113.792 62.0178C114.447 60.9601 115.112 60.9601 116.171 62.0178C118.073 63.9169 125.596 63.9169 127.498 62.0178C128.557 60.9601 129.222 60.9601 129.877 62.0178C131.019 63.8629 136.946 63.9453 138.068 62.1312C138.628 61.2262 139.747 61.2262 141.44 62.1312C144.792 63.9223 150.524 63.8589 151.665 62.0178C152.319 60.9601 152.985 60.9601 154.044 62.0178C154.853 62.8255 156.61 63.486 157.949 63.486C160.158 63.486 160.383 64.9868 160.383 79.6953V95.9045H157.002C153.825 95.9045 153.62 95.4763 153.62 88.8278C153.62 82.4778 150.024 70.2574 148.152 70.2453C147.748 70.2426 146.835 72.1215 146.123 74.4205C144.48 79.725 142.463 79.7155 140.913 74.3935C140.247 72.1093 139.325 70.2399 138.864 70.2399C137.149 70.2399 133.332 83.6476 133.332 89.6693V95.9045L126.907 95.7977C123.372 95.7397 121.243 95.3844 122.173 95.0102C123.103 94.6347 123.863 93.1637 123.863 91.74C123.863 89.2722 122.559 89.1506 96.1351 89.1506C69.7108 89.1506 68.4069 89.2722 68.4069 91.74C68.4069 93.1637 69.1684 94.6455 70.0976 95.0319C71.0282 95.4182 63.5713 95.6208 53.5283 95.4817L35.2682 95.2291L34.8868 79.3576C34.527 64.3316 34.6487 63.486 37.174 63.486C38.6416 63.486 40.2512 62.8255 40.7517 62.0178C41.4063 60.9601 42.0718 60.9601 43.1309 62.0178C43.9397 62.8255 46.5732 63.486 48.9849 63.486ZM141.447 88.0889C141.447 95.0035 141.136 95.9045 138.742 95.9045C136.348 95.9045 136.037 95.0035 136.037 88.0889C136.037 81.1743 136.348 80.2747 138.742 80.2747C141.136 80.2747 141.447 81.1743 141.447 88.0889ZM150.915 88.0254C150.915 95.0035 150.606 95.9045 148.21 95.9045C145.843 95.9045 145.505 95.0035 145.505 88.7008C145.505 80.9109 145.808 80.1451 148.886 80.1451C150.458 80.1451 150.915 81.9213 150.915 88.0254ZM294.887 90.6311C293.457 92.9409 297.967 96.8257 299.871 94.9238C300.719 94.0769 301.047 92.4316 300.599 91.2673C299.663 88.8318 296.237 88.4496 294.887 90.6311ZM109.999 91.5091C102.745 91.7509 90.8762 91.7509 83.6236 91.5091C76.371 91.2659 82.3048 91.0674 96.8114 91.0674C111.318 91.0674 117.253 91.2659 109.999 91.5091ZM164.184 99.6191C163.758 101.826 159.373 102.006 98.2262 102.334C59.5122 102.541 32.2141 102.175 31.4769 101.439C27.6382 97.6051 33.2393 97.2552 98.3425 97.2552C160.754 97.2552 164.613 97.3944 164.184 99.6191ZM228.108 118.692C227.311 120.176 226.661 122.384 226.661 123.595C226.661 124.807 227.311 127.014 228.108 128.498C230.164 132.336 233.424 129.329 233.424 123.595C233.424 117.861 230.164 114.854 228.108 118.692ZM101.38 122.582C103.873 131.072 117.242 204.267 116.442 205.038C115.898 205.562 114.532 204.625 113.406 202.953C111.401 199.973 110.839 199.914 84.6989 199.914C70.034 199.914 57.7119 200.239 57.3129 200.636C56.9152 201.033 57.7173 207.568 59.0942 215.157C62.0875 231.648 62.1768 233.683 59.8963 233.683C58.7155 233.683 57.1776 228.096 55.1555 216.46C53.508 206.989 49.1323 182.522 45.4289 162.092C41.7255 141.662 38.6849 123.883 38.6727 122.582C38.6511 120.399 41.0195 120.218 69.6688 120.218C98.0436 120.218 100.746 120.42 101.38 122.582ZM215.519 127.876C221.959 132.67 227.672 145.883 223.305 145.883C222.109 145.883 221.25 144.678 221.25 143.003C221.25 134.291 210.385 126.168 200.254 127.31C191.436 128.303 183.378 135.818 183.378 143.052C183.378 144.609 182.689 145.883 181.848 145.883C179.55 145.883 181.366 137.092 184.604 132.552C186.114 130.434 189.347 127.684 191.788 126.441C197.836 123.361 210.481 124.126 215.519 127.876ZM50.2631 133.388C51.352 139.414 51.8768 140.48 53.7528 140.48C54.5319 140.48 54.7997 139.417 54.3466 138.116C53.5608 135.864 53.6094 135.864 55.3651 138.116C56.3782 139.417 57.5969 140.48 58.073 140.48C58.5491 140.48 58.9576 139.417 58.9793 138.116C59.0185 135.864 59.0861 135.864 60.3995 138.116C62.5271 141.763 64.4992 140.924 63.5727 136.765C61.9198 129.347 61.3869 128.184 59.876 128.686C59.0293 128.969 57.9567 130.673 57.4914 132.475L56.646 135.752L54.8701 132.037C52.1243 126.294 49.1391 127.168 50.2631 133.388ZM64.3491 130.18C64.3491 131.201 64.7291 133.937 65.1944 136.259C65.9059 139.811 66.6552 140.48 69.9285 140.48C72.067 140.48 73.8172 139.872 73.8172 139.129C73.8172 138.386 72.5999 137.778 71.1121 137.778C69.6242 137.778 68.4069 137.17 68.4069 136.427C68.4069 135.685 69.3564 135.077 70.5156 135.077C71.6747 135.077 72.2415 134.459 71.7748 133.704C71.3068 132.949 70.4006 132.655 69.7595 133.051C69.1183 133.446 68.2121 133.152 67.7441 132.397C67.2734 131.638 68.1377 131.024 69.6797 131.024C71.2108 131.024 72.4647 130.417 72.4647 129.674C72.4647 128.931 70.6386 128.323 68.4069 128.323C65.8653 128.323 64.3491 129.017 64.3491 130.18ZM74.3245 132.544C74.7898 134.866 75.1698 137.601 75.1698 138.622C75.1698 141.804 77.871 140.653 77.9454 137.441L78.0171 134.401L80.1393 137.441C82.6849 141.085 86.4654 141.558 85.5307 138.116C85.1777 136.815 84.5163 134.08 84.0618 132.037C83.606 129.995 82.5713 128.323 81.7611 128.323C80.8305 128.323 80.6289 129.686 81.2146 132.016L82.1425 135.708L79.2344 132.016C75.3173 127.042 73.2667 127.264 74.3245 132.544ZM85.9906 132.117C85.9906 137.083 88.8838 140.901 92.1666 140.27C94.2198 139.876 94.7825 138.633 94.7825 134.496C94.7825 131.596 94.0535 128.981 93.1621 128.684C92.0137 128.301 91.7703 129.548 92.3248 132.961C92.7955 135.856 92.5548 137.778 91.7229 137.778C90.1012 137.778 88.6958 134.592 88.6958 130.914C88.6958 129.489 88.0872 128.323 87.3432 128.323C86.5993 128.323 85.9906 130.03 85.9906 132.117ZM210.922 137.287C218.916 145.271 213.619 158.04 202.314 158.04C194.808 158.04 190.141 153.471 190.141 146.129C190.141 134.94 203.065 129.441 210.922 137.287ZM296.996 138.343C296.996 143.341 295.607 145.883 292.873 145.883C289.605 145.883 289.068 144.736 289.872 139.467C290.41 135.926 291.165 135.077 293.767 135.077C296.28 135.077 296.996 135.801 296.996 138.343ZM32.0044 140.817C31.1347 145.09 30.9034 145.218 23.3829 145.613L15.6556 146.018V141.223V136.427H24.277H32.8971L32.0044 140.817ZM178.819 139.467C178.372 141.139 177.996 143.266 177.986 144.194C177.971 145.502 170.022 145.883 142.8 145.883C109.033 145.883 107.632 145.78 107.632 143.292C107.632 141.867 107.263 139.74 106.811 138.564C106.075 136.648 109.791 136.427 142.813 136.427H179.635L178.819 139.467ZM242.892 141.155V145.883H234.776C227.678 145.883 226.661 145.559 226.661 143.292C226.661 141.867 226.291 139.74 225.84 138.564C225.142 136.749 226.362 136.427 233.955 136.427H242.892V141.155ZM196.437 140.249C191.584 145.603 195.314 153.987 202.549 153.987C209.476 153.987 213.089 144.652 207.956 140.014C204.689 137.061 199.225 137.173 196.437 140.249ZM206.372 141.831C207.86 143.316 209.077 145.244 209.077 146.114C209.077 148.464 204.901 152.637 202.549 152.637C199.92 152.637 195.551 148.711 195.551 146.349C195.551 144.235 200.334 139.129 202.314 139.129C203.058 139.129 204.884 140.345 206.372 141.831ZM304.971 150.611C306.041 154.853 307.212 156.704 308.85 156.736C312.748 156.816 304.998 160.639 300.826 160.694C293.288 160.794 292.581 159.554 296.997 153.986C299.228 151.172 301.054 147.894 301.054 146.701C301.054 142.294 303.486 144.72 304.971 150.611ZM53.8637 151.624C54.26 152.815 59.0658 153.424 70.2085 153.693C83.6466 154.017 85.9906 153.766 85.9906 152.005C85.9906 150.261 83.4234 149.935 69.6472 149.935C57.1735 149.935 53.4363 150.335 53.8637 151.624ZM88.6958 151.961C88.6958 153.377 90.1242 153.987 93.4299 153.987C96.7357 153.987 98.164 153.377 98.164 151.961C98.164 150.546 96.7357 149.935 93.4299 149.935C90.1242 149.935 88.6958 150.546 88.6958 151.961ZM269.672 155.533C270.007 158.322 269.292 159.137 265.486 160.304C261.957 161.386 260.614 161.3 259.672 159.935C257.733 157.127 254.788 157.124 254.32 159.931C253.722 163.521 251.109 164.881 245.597 164.471C241.6 164.174 240.799 163.564 240.45 160.563C240.058 157.179 240.449 156.94 248.566 155.592C253.257 154.813 259.225 153.592 261.828 152.877C268.087 151.159 269.19 151.533 269.672 155.533ZM274.002 154.067C274.002 155.596 273.393 156.473 272.649 156.014C271.905 155.554 271.296 154.304 271.296 153.232C271.296 152.161 271.905 151.286 272.649 151.286C273.393 151.286 274.002 152.538 274.002 154.067ZM56.2335 160.021C56.2335 161.762 58.7277 162.092 71.9006 162.092C83.8332 162.092 87.4352 161.69 87.0078 160.404C86.6142 159.219 81.9396 158.602 71.3406 158.333C58.5045 158.009 56.2335 158.263 56.2335 160.021ZM91.0128 158.879C88.9163 160.971 90.2716 162.092 94.8948 162.092C98.1667 162.092 99.5612 161.544 99.1866 160.404C98.5657 158.515 92.5074 157.385 91.0128 158.879ZM258.243 162.811C257.097 165.792 255.213 165.195 256.022 162.107C256.408 160.629 257.239 159.738 257.865 160.124C258.491 160.512 258.662 161.721 258.243 162.811ZM238.834 163.602C238.834 164.345 238.225 164.577 237.482 164.118C236.738 163.659 236.129 162.676 236.129 161.933C236.129 161.19 236.738 160.957 237.482 161.417C238.225 161.876 238.834 162.859 238.834 163.602ZM254.051 167.039C253.122 167.414 251.6 167.414 250.669 167.039C249.74 166.664 250.5 166.358 252.36 166.358C254.22 166.358 254.981 166.664 254.051 167.039ZM57.5861 169.478C57.5861 171.222 60.1533 171.547 73.9295 171.547C86.4032 171.547 90.1404 171.148 89.713 169.859C89.3167 168.668 84.5109 168.058 73.3682 167.79C59.9301 167.465 57.5861 167.717 57.5861 169.478ZM91.401 169.44C91.401 171.006 92.8212 171.547 96.9237 171.547C103.972 171.547 103.504 168.353 96.3691 167.752C92.59 167.433 91.401 167.837 91.401 169.44ZM284.483 181.443C285.194 180.368 286.022 180.896 287.058 183.088C288.254 185.62 288.181 186.654 286.72 187.865C284.195 189.958 275.339 181.268 275.391 176.748C275.425 173.757 275.659 173.846 279.431 178.301C282.155 181.517 283.771 182.522 284.483 181.443ZM58.9387 178.222C58.9387 180.7 61.8887 181.211 76.2235 181.215C88.3577 181.219 90.7964 180.872 91.1616 179.085C91.5417 177.233 89.437 176.95 75.2686 176.95C65.9668 176.95 58.9387 177.498 58.9387 178.222ZM94.351 179.247C94.6499 180.797 96.1067 181.543 98.8403 181.543C101.574 181.543 103.031 180.797 103.33 179.247C103.681 177.425 102.755 176.95 98.8403 176.95C94.9259 176.95 93.9994 177.425 94.351 179.247ZM227.645 183.34C224.839 183.631 220.578 183.627 218.177 183.329C215.775 183.03 218.072 182.791 223.279 182.797C228.487 182.803 230.451 183.046 227.645 183.34ZM61.8982 188.77C62.2904 190.811 64.2801 191.186 76.4467 191.521C92.0733 191.951 94.4308 191.525 93.2622 188.483C92.6089 186.781 89.6629 186.406 76.9553 186.406C62.9126 186.406 61.4883 186.63 61.8982 188.77ZM95.7117 188.77C96.1743 191.198 100.935 192.591 104.326 191.292C107.957 189.9 104.827 186.406 99.9494 186.406C96.2136 186.406 95.3519 186.887 95.7117 188.77ZM230.042 187.757C229.582 188.5 226.199 189.107 222.523 189.107C218.847 189.107 215.84 188.5 215.84 187.757C215.84 187.014 219.224 186.406 223.359 186.406C228.027 186.406 230.562 186.918 230.042 187.757ZM229.366 194.51C229.366 196.812 228.464 197.212 223.279 197.212C219.932 197.212 217.193 196.958 217.193 196.647C217.193 196.337 216.823 195.121 216.372 193.946C215.688 192.17 216.715 191.809 222.458 191.809C228.464 191.809 229.366 192.161 229.366 194.51ZM229.366 201.264C229.366 203.566 228.464 203.966 223.279 203.966C218.095 203.966 217.193 203.566 217.193 201.264C217.193 198.963 218.095 198.563 223.279 198.563C228.464 198.563 229.366 198.963 229.366 201.264ZM280.088 209.369C280.088 211.145 269.347 211.438 192.923 211.742C141.141 211.949 105.253 211.585 104.514 210.848C100.561 206.9 106.209 206.652 192.594 206.996C269.311 207.3 280.088 207.593 280.088 209.369ZM120.69 220.96C122.831 230.075 122.838 233.683 120.716 233.683C119.163 233.683 115.748 220.73 115.748 214.841C115.748 210.635 119.297 215.029 120.69 220.96ZM154.421 215.785C154.018 217.086 151.514 225.443 148.858 234.358C146.201 243.273 143.692 251.479 143.281 252.593C142.681 254.222 130.706 218.065 130.644 214.434C130.634 213.878 136.145 213.421 142.89 213.421C153.949 213.421 155.083 213.654 154.421 215.785ZM251.716 218.487C251.07 221.955 249.265 224.796 245.991 227.5L241.209 231.45L241.882 240.832C243.091 257.714 241.426 256.542 235.301 236.201C232.087 225.529 229.438 216.039 229.412 215.11C229.378 213.886 232.573 213.421 241.013 213.421H252.662L251.716 218.487ZM271.05 216.798C272.442 219.849 272.3 220.176 269.577 220.19C267.919 220.198 264.285 220.58 261.5 221.041L256.437 221.876L257.912 217.649C259.211 213.928 259.995 213.421 264.448 213.421C268.534 213.421 269.806 214.072 271.05 216.798ZM287.233 223.674L292.262 225.82L282.691 229.414C277.426 231.39 271.582 234.026 269.704 235.27C266.323 237.511 265.487 238.963 256.999 257.321L252.628 266.776L249.848 260.639L247.069 254.499L251.232 240.377C253.522 232.609 255.847 225.759 256.398 225.155C257.632 223.802 268.609 221.899 276.412 221.685C279.597 221.597 284.467 222.492 287.233 223.674ZM247.43 234.02C244.757 243.138 242.892 245.128 242.892 238.863C242.892 234.865 246.956 226.929 249.004 226.929C249.282 226.929 248.574 230.121 247.43 234.02ZM302.789 230.487C306.67 232.444 311.63 235.536 313.81 237.359C316.857 239.907 318.969 240.559 322.94 240.181C328.76 239.627 329.261 240.324 325.49 243.732C321.268 247.547 313.207 249.769 303.353 249.832C291.355 249.909 287.499 252.054 282.079 261.667C275.821 272.764 267.057 283.781 259.383 290.199L252.778 295.721L250.752 288.448L248.724 281.177L257.983 260.516C263.074 249.153 268.079 239.02 269.103 237.997C270.484 236.617 292.711 227.283 295.35 226.973C295.561 226.949 298.908 228.53 302.789 230.487ZM79.0302 252.344C85.996 261.128 104.187 276.745 105.697 275.238C106.081 274.855 102.488 271.477 97.7163 267.731C92.943 263.986 86.3748 257.832 83.1191 254.056C76.2465 246.088 72.984 244.721 79.0302 252.344ZM69.5282 253.45C71.3461 256.758 85.9906 271.084 85.9906 269.554C85.9906 268.292 71.2176 252.254 69.2901 251.424C68.6598 251.152 68.7667 252.064 69.5282 253.45ZM250.903 269.478C250.907 270.964 250.14 273.567 249.198 275.263C247.56 278.209 247.41 278.055 245.789 271.743C244.857 268.112 244.522 263.441 245.044 261.365L245.993 257.589L248.443 262.183C249.792 264.71 250.898 267.992 250.903 269.478ZM90.7964 274.285C93.9669 277.784 112.909 289.649 113.839 288.718C114.219 288.339 111.304 286.055 107.362 283.642C103.419 281.23 97.9746 277.512 95.264 275.38C89.5182 270.863 87.1741 270.287 90.7964 274.285ZM242.133 291.625C240.35 297.07 235.595 302.488 233.999 300.894C233.716 300.612 235.121 294.754 237.122 287.874L240.76 275.369L242.482 280.335C243.924 284.497 243.868 286.329 242.133 291.625ZM276.726 278.596C276.735 279.525 277.059 281.5 277.444 282.986C277.959 284.977 276.907 286.518 273.44 288.851C268.978 291.852 265.886 291.874 265.886 288.905C265.886 287.119 274.137 276.907 275.58 276.907C276.2 276.907 276.715 277.668 276.726 278.596ZM115.748 289.613C115.748 292.198 116.301 292.719 118.453 292.157C121.559 291.346 121.834 290.28 119.535 287.984C117.037 285.489 115.748 286.044 115.748 289.613ZM184.73 288.309C184.73 289.467 185.339 290.415 186.083 290.415C186.827 290.415 187.435 289.844 187.435 289.144C187.435 288.444 186.827 287.497 186.083 287.038C185.339 286.579 184.73 287.151 184.73 288.309ZM278.537 293.792C277.349 297.736 276.994 297.847 274.061 295.197C271.42 292.808 271.422 292.773 274.387 290.374C277.812 287.605 279.885 289.313 278.537 293.792ZM245.989 291.767C246.379 293.254 246.145 294.131 245.471 293.713C244.796 293.297 244.244 292.082 244.244 291.011C244.244 288.215 245.163 288.613 245.989 291.767ZM181.687 292.719C183.708 293.107 184.73 294.271 184.73 296.183C184.73 298.361 185.11 298.68 186.297 297.496C188.462 295.333 185.339 291.706 181.522 291.949C178.765 292.126 178.772 292.159 181.687 292.719ZM188.535 292.688C189.51 293.079 190.678 293.03 191.127 292.582C191.576 292.133 190.778 291.814 189.352 291.872C187.776 291.937 187.456 292.257 188.535 292.688ZM285.129 294.805C287.08 296.318 286.788 297.266 282.313 303.923C278.408 309.732 276.443 311.452 273.294 311.808C271.08 312.061 268.361 312.973 267.254 313.835C266.144 314.698 266.854 313.443 268.829 311.047C270.804 308.65 272.824 304.851 273.319 302.604C273.956 299.707 275.009 298.52 276.941 298.52C278.527 298.52 279.961 297.392 280.372 295.818C281.195 292.677 282.131 292.479 285.129 294.805ZM247.33 296.649C248.72 298.037 244.092 303.923 241.61 303.923C237.736 303.923 237.403 302.361 240.563 299.031C243.57 295.863 245.769 295.089 247.33 296.649ZM286.067 303.585C281.782 310.737 277.939 314.742 275.457 314.644C274.095 314.588 274.417 314.12 276.35 313.343C278.013 312.674 281.261 309.066 283.567 305.323C285.873 301.582 288.062 298.52 288.43 298.52C288.799 298.52 287.736 300.8 286.067 303.585ZM236.992 304.598C237.421 305.712 239.228 306.624 241.008 306.624C243.342 306.624 244.244 307.376 244.244 309.326C244.244 311.667 243.342 312.027 237.482 312.027C230.347 312.027 229.931 311.571 232.037 306.037C233.508 302.176 235.806 301.509 236.992 304.598ZM224.264 310.909C223.521 311.65 221.475 312.038 219.715 311.771C216.583 311.295 216.6 311.238 220.574 309.064C224.567 306.878 227.054 308.122 224.264 310.909ZM222.599 315.066C222.602 315.624 220.473 316.079 217.869 316.079C215.265 316.079 213.135 315.578 213.135 314.965C213.135 314.352 215.264 313.897 217.865 313.952C220.466 314.007 222.596 314.509 222.599 315.066ZM242.006 315.066C241.662 315.624 238.677 316.079 235.373 316.079C232.068 316.079 229.366 315.624 229.366 315.066C229.366 314.509 232.351 314.053 236 314.053C239.648 314.053 242.351 314.509 242.006 315.066Z" fill="black"/>
</g>
</svg>
