<svg width="343" height="320" viewBox="0 0 343 320" fill="none" xmlns="http://www.w3.org/2000/svg">
<mask id="mask0_414_7585" style="mask-type:alpha" maskUnits="userSpaceOnUse" x="0" y="0" width="343" height="320">
<rect width="343" height="320" fill="#D9D9D9"/>
</mask>
<g mask="url(#mask0_414_7585)">
<path fill-rule="evenodd" clip-rule="evenodd" d="M124.524 2.18265C118.63 5.16233 116.935 8.65293 115.183 21.4164C114.428 26.9234 113.613 31.5857 113.375 31.7778C113.137 31.9699 106.35 36.5218 98.2954 41.8926C86.0742 50.0414 83.649 52.2323 83.649 55.1234C83.649 64.8908 95.11 70.7738 106.041 66.6184C107.963 65.8867 109.533 65.7341 109.53 66.2778C109.527 66.8214 107.996 79.221 106.129 93.8333C104.263 108.446 102.731 121.088 102.729 121.928C102.725 123.003 100.879 123.111 96.501 122.294C88.4735 120.793 88.2378 120.616 86.284 114.592C85.3766 111.792 83.5727 107.969 82.277 106.095C80.4609 103.471 80.2415 101.982 81.3165 99.6115C82.2948 97.4574 82.2498 95.5173 81.1666 93.1398C79.0317 88.4544 74.5574 88.75 71.6772 93.7679C70.4074 95.9805 67.9304 98.1509 66.1729 98.5923C57.1562 100.855 53.5566 111.993 59.1249 120.401C63.6864 127.288 62.7259 130.361 52.6315 141.178C47.5618 146.612 42.3613 151.056 41.0725 151.056C39.785 151.056 36.729 149.235 34.282 147.008C30.0271 143.138 29.9699 142.959 32.9904 142.921C36.1458 142.882 36.1458 142.879 31.6538 134.707C28.0038 128.068 26.5147 126.532 23.7271 126.532C20.5785 126.532 20.2733 127.066 20.0294 133.004C19.8346 137.755 20.588 140.744 22.8633 144.244C24.5691 146.867 27.6796 151.771 29.775 155.144C34.872 163.341 38.7032 167.406 41.3341 167.406C42.5289 167.406 45.8138 165.836 48.6368 163.919L53.7678 160.433L52.81 164.249C52.2827 166.347 50.4298 171.695 48.6913 176.129C46.3274 182.161 45.9105 184.651 47.0386 186.01C48.1858 187.393 47.2484 190.021 43.1052 197.031C34.1608 212.163 30.5135 220.203 30.5135 224.785C30.5135 229.348 34.6581 233.841 54.5566 250.85L62.9303 258.009L63.4357 279.808C64.0052 304.445 64.899 302.123 51.6628 310.399C47.0741 313.267 44.138 316.058 44.138 317.552C44.138 319.757 45.604 320 58.9587 320C69.1703 320 74.2072 319.47 75.1582 318.297C76.082 317.157 76.0929 314.12 75.1896 309.1C73.947 302.187 74.1705 300.815 78.0834 291.389L82.3234 281.17L81.4568 289.608C80.98 294.248 80.9936 299.653 81.4868 301.619C83.3289 308.957 85.0387 309.111 163.649 308.986C203.201 308.922 239.109 308.427 243.443 307.886C255.361 306.399 258.029 303.066 259.825 287.431C260.607 280.616 261.653 275.039 262.15 275.039C262.648 275.039 263.729 276.52 264.555 278.331C265.765 280.986 265.651 281.778 263.968 282.422C262.235 283.089 261.961 285.659 262.347 297.638C262.808 311.962 262.84 312.08 267.261 316.027C271.331 319.661 272.575 320 281.843 320C299.913 320 303.003 316.523 303.003 296.182C303.003 286.192 302.551 282.955 301.078 282.39C299.544 281.801 300.028 279.805 303.463 272.554C307.389 264.266 307.765 262.308 307.69 250.515C307.645 243.314 306.651 233.945 305.449 229.397C304.261 224.901 302.905 219.536 302.438 217.476C300.866 210.538 297.843 213.192 294.208 224.699C292.301 230.732 290.728 236.711 290.711 237.983C290.654 242.436 285.323 228.441 283.846 219.959C282.075 209.786 283.458 200.475 288.632 187.74C293.045 176.881 291.489 174.368 284.525 181.101C281.851 183.684 277.865 188.51 275.666 191.822C273.467 195.136 271.667 197.063 271.667 196.107C271.667 195.151 276.899 153.202 283.294 102.887C289.69 52.5715 294.585 10.0331 294.172 8.35728C293.761 6.6801 291.774 4.22769 289.759 2.90748C286.384 0.694861 279.913 0.476867 207.693 0.13898C134.968 -0.201633 128.946 -0.0544882 124.524 2.18265ZM281.437 4.80401C283.09 6.29862 283.921 8.93904 283.905 12.6381C283.879 18.4367 280.211 46.232 279.36 47.0836C279.092 47.3506 278.118 42.0384 277.195 35.2779L275.515 22.9859L225.565 22.6453C198.092 22.4573 164.272 22.5022 150.409 22.7447C125.914 23.1726 125.077 23.2816 120.713 26.6087L116.222 30.0325L117.085 22.7625C117.559 18.7637 118.554 13.5019 119.295 11.0686C121.995 2.2099 118.68 2.54915 202.719 2.54915C271.737 2.54915 279.181 2.76306 281.437 4.80401ZM198.419 8.21967C194.122 12.5168 199.301 19.2623 204.167 15.7036C207.361 13.3684 206.471 7.44444 202.847 6.92535C201.34 6.70872 199.347 7.29184 198.419 8.21967ZM204.667 11.1816C205.203 13.9433 201.218 15.754 199.151 13.6872C198.078 12.6149 198.16 11.6054 199.446 10.0549C201.575 7.49076 204.056 8.0262 204.667 11.1816ZM97.2735 13.2171C76.1487 20.8727 60.2326 32.8173 48.3725 49.9147C46.6749 52.3603 45.5222 55.0689 45.8111 55.934C46.0985 56.7992 47.9324 54.7978 49.8834 51.487C54.7774 43.187 64.8922 33.2874 75.7141 26.2095C84.6954 20.3346 103.188 12.0863 107.379 12.0863C108.564 12.0863 109.536 11.4732 109.536 10.7239C109.536 8.86684 108.948 8.98673 97.2735 13.2171ZM87.6778 25.7953C76.4934 31.8663 65.4522 41.0138 59.005 49.5537C50.987 60.174 53.0797 60.2435 61.5773 49.6381C69.0381 40.3272 82.0046 30.2151 92.3469 25.64C95.8062 24.1099 98.636 22.5799 98.636 22.2406C98.636 20.7188 94.6481 22.0117 87.6778 25.7953ZM175.936 25.3702C175.65 25.9315 172.2 31.91 168.269 38.6541L161.122 50.9161L143.442 50.4992L125.761 50.0823L137.572 37.2153L149.382 24.3484H162.919C170.365 24.3484 176.222 24.8089 175.936 25.3702ZM241.693 28.9166C241.693 31.4304 242.087 37.2548 242.568 41.8599L243.444 50.2349H224.765C207.617 50.2349 206.143 50.0401 206.787 47.8506C207.173 46.5386 208.466 41.4812 209.662 36.6104C210.857 31.7396 212.097 26.9888 212.416 26.0514C212.831 24.8334 217.083 24.3484 227.345 24.3484H241.693V28.9166ZM157.341 56.8796C149.867 67.3759 127.126 69.7029 122.89 60.4042C119.803 53.6301 121.49 52.9598 141.604 52.9598H160.132L157.341 56.8796ZM243.056 54.4571C243.056 57.1153 235.104 63.4738 230.672 64.3608C216.309 67.2328 204.907 63.1319 204.907 55.0934C204.907 53.2582 207.579 52.9598 223.981 52.9598C236.933 52.9598 243.056 53.4408 243.056 54.4571ZM266.952 150.395C260.552 201.179 255.318 243.192 255.318 243.755C255.318 244.317 253.786 244.689 251.914 244.58C248.913 244.407 248.595 243.903 249.222 240.297C249.612 238.049 254.774 197.739 260.693 150.72C270.632 71.7507 271.694 64.933 274.625 61.3184C276.37 59.1671 277.975 57.554 278.192 57.7338C278.407 57.9137 273.35 99.6115 266.952 150.395ZM40.5752 62.7381C41.8041 68.8828 42.6039 69.1484 46.2225 64.6197C50.0374 59.8456 49.4979 58.4096 43.8873 58.4096C39.9212 58.4096 39.7536 58.6276 40.5752 62.7381ZM114.83 91.791C112.62 109.774 110.5 125.919 110.119 127.668L109.427 130.848L106.95 127.668C104.545 124.582 104.583 123.611 108.219 94.7584C111.517 68.598 112.34 64.6333 115.071 61.7244C116.778 59.9069 118.326 58.5717 118.511 58.757C118.697 58.941 117.04 73.8067 114.83 91.791ZM166.158 66.3731C176.063 70.8856 193.438 68.6402 200.091 61.9874L203.167 58.911L205.884 61.9615C212.01 68.8378 229.063 69.3501 238.509 62.9398C242.898 59.9614 243.651 59.8116 244.71 61.704C247.655 66.9672 260.242 69.782 266.307 66.5366C268.172 65.5379 268.942 65.5652 268.942 66.6279C268.942 69.7016 240.271 294.861 239.67 296.51C239.175 297.864 223.543 298.15 165.098 297.872L91.152 297.52L91.5989 292.07C91.8455 289.072 92.6099 286.038 93.2979 285.326C93.9859 284.614 94.5486 280.629 94.5486 276.47C94.55 272.311 97.9711 242.545 102.154 210.323C106.335 178.101 110.279 146.526 110.917 140.157C111.555 133.787 113.958 114.209 116.257 96.6481C118.555 79.0889 120.435 64.1251 120.435 63.3975C120.435 62.67 121.616 63.1441 123.061 64.4507C129.643 70.4073 144.654 69.5081 154.089 62.5937L159.265 58.8006L160.874 61.7503C161.76 63.3717 164.137 65.4521 166.158 66.3731ZM44.6312 63.1782C44.1993 64.3022 43.6053 65.2219 43.311 65.2219C43.0167 65.2219 42.7755 64.3022 42.7755 63.1782C42.7755 62.0542 43.3696 61.1345 44.0957 61.1345C44.8206 61.1345 45.0617 62.0542 44.6312 63.1782ZM305.269 71.6812C304.023 75.2073 305.036 77.4839 307.852 77.4839C309.139 77.4839 309.816 78.9376 309.816 81.6993C309.816 84.7676 310.557 86.1068 312.541 86.6259C314.039 87.0183 315.266 88.1165 315.266 89.0675C315.266 92.3373 319.018 98.204 320.045 96.5405C320.583 95.6699 320.341 94.2761 319.507 93.4423C318.673 92.6085 317.99 90.8073 317.99 89.4394C317.99 88.0156 316.477 86.378 314.445 85.6055C312.124 84.7226 311.169 83.5604 311.678 82.2334C312.73 79.4922 311.297 76.1215 309.079 76.1215C308.085 76.1215 307.064 74.4361 306.81 72.3747C306.366 68.7738 306.306 68.7465 305.269 71.6812ZM25.2149 83.6967C19.9913 88.0919 18.5607 94.6562 21.5595 100.458C23.7544 104.7 29.8432 108.82 33.9196 108.82C37.9961 108.82 44.0848 104.7 46.2797 100.458C50.8589 91.6016 43.905 80.2088 33.9196 80.2088C31.0149 80.2088 27.8553 81.4745 25.2149 83.6967ZM42.6761 86.5238C49.0769 94.6603 43.9609 106.095 33.9196 106.095C23.8783 106.095 18.7623 94.6603 25.1631 86.5238C27.4412 83.6272 29.132 82.9337 33.9196 82.9337C38.7073 82.9337 40.3981 83.6272 42.6761 86.5238ZM91.8237 84.8779C91.8237 85.9461 90.7515 87.0592 89.4394 87.3494C88.1274 87.641 89.8141 87.878 93.1862 87.878C96.5582 87.878 98.245 87.641 96.9329 87.3494C95.6209 87.0592 94.5486 85.9461 94.5486 84.8779C94.5486 83.8084 93.9355 82.9337 93.1862 82.9337C92.4368 82.9337 91.8237 83.8084 91.8237 84.8779ZM141.668 84.1122C141.267 84.7594 140.533 88.7446 140.037 92.9681L139.135 100.646H188.86H238.587L239.387 92.9041C239.825 88.6465 239.876 84.6613 239.497 84.0482C238.57 82.5509 142.594 82.6135 141.668 84.1122ZM237.587 89.4053C237.577 91.4667 237.199 94.5322 236.748 96.2176L235.926 99.2831H189.079H142.234V93.3796C142.234 90.1315 142.643 87.066 143.143 86.5674C143.642 86.0673 165.1 85.6586 190.829 85.6586H237.606L237.587 89.4053ZM34.7166 92.6085C32.2997 96.5827 32.0926 96.6631 31.2383 93.9709C30.7383 92.3959 29.79 91.1084 29.1306 91.1084C27.7068 91.1084 30.2328 98.9493 32.0094 100.047C32.6852 100.464 33.2384 100.242 33.2384 99.5542C33.2384 98.8648 34.7521 96.0691 36.6036 93.3428C38.4538 90.6152 39.3653 88.3835 38.6269 88.3835C37.8898 88.3835 36.1295 90.2841 34.7166 92.6085ZM309.726 95.5364C311.936 99.4698 315.396 108.207 317.413 114.951C320.658 125.798 321.083 129.494 321.098 146.969C321.108 159.225 320.342 170.474 319.082 176.602C316.682 188.255 318.339 190.059 320.956 178.646C322.067 173.809 322.755 161.95 322.756 147.65C322.759 127.178 322.388 123.302 319.57 114.27C316.152 103.321 308.835 88.3835 306.889 88.3835C306.238 88.3835 307.515 91.6016 309.726 95.5364ZM91.8237 91.7896C91.8237 92.9137 92.4368 93.8333 93.1862 93.8333C93.9355 93.8333 94.5486 92.9137 94.5486 91.7896C94.5486 90.6656 93.9355 89.746 93.1862 89.746C92.4368 89.746 91.8237 90.6656 91.8237 91.7896ZM306.261 106.436C312.279 120.283 313.223 126.162 313.207 149.694C313.192 170.027 312.832 173.462 309.437 185.662C307.373 193.082 305.983 199.45 306.35 199.817C307.321 200.79 309.626 194.182 312.904 181.03C316.86 165.163 317.142 132.549 313.429 120.401C310.113 109.548 305.662 99.2831 304.273 99.2831C303.657 99.2831 304.553 102.503 306.261 106.436ZM139.079 105.755C138.753 106.316 138.06 110.303 137.538 114.611L136.588 122.445H186.231H235.873L236.739 116.123C238.478 103.439 243.944 104.733 188.638 104.733C161.705 104.733 139.405 105.193 139.079 105.755ZM234.881 113.589V119.72H187.195H139.509L139.529 116.654C139.538 114.968 139.917 112.21 140.368 110.523L141.189 107.458H188.036H234.881V113.589ZM67.3187 110.511C69.4864 111.864 70.5913 111.846 72.8775 110.418C75.5752 108.734 75.6842 108.853 74.864 112.587C73.6037 118.323 76.1787 128.068 79.6461 130.683C82.5005 132.836 82.5291 133.071 80.3206 136.44C77.548 140.672 71.4633 143.113 68.2179 141.298C65.1088 139.558 65.3459 134.302 68.6675 131.297C70.2098 129.9 71.3161 127.29 71.2099 125.295C71.1077 123.352 71.4687 120.537 72.0137 119.039C72.8121 116.84 72.4729 116.964 70.2561 119.684C67.5544 122.999 67.4604 123.013 64.6796 120.495C62.8894 118.875 61.8498 116.261 61.8498 113.378C61.8498 108.481 63.0556 107.849 67.3187 110.511ZM25.5841 137.652C26.5474 142.467 37.3026 153.781 40.9172 153.781C42.1161 153.781 47.0196 149.782 51.8127 144.894C59.6222 136.929 60.2421 136.538 57.7816 141.127C56.272 143.943 55.0376 148.837 55.0376 152C55.0376 157.347 54.6193 157.999 49.1273 161.217C41.2046 165.861 39.3585 165.613 34.9496 159.317C25.1781 145.36 21.1303 137.816 21.8783 134.956C22.8947 131.07 24.5024 132.239 25.5841 137.652ZM64.0774 135.137C63.0992 139.037 66.5067 144.244 70.0382 144.244C74.7086 144.244 79.5794 141.131 82.6613 136.176L85.6927 131.301L86.5551 140.157C87.0293 145.027 87.4898 152.569 87.577 156.913L87.7364 164.814L78.7674 159.798C70.1689 154.99 69.5763 154.855 64.4616 156.543C57.614 158.803 57.644 161.371 64.5284 162.472C68.6989 163.138 71.4088 164.915 76.4062 170.259C79.9677 174.065 84.6259 178.082 86.7568 179.184C89.5307 180.619 90.509 182.034 90.2051 184.175C89.8591 186.609 89.0239 187.082 85.6927 186.731C83.4447 186.495 74.0942 185.985 64.9153 185.598C55.7365 185.211 48.2253 184.613 48.2253 184.269C48.2253 183.924 50.4093 177.383 53.077 169.733C55.8332 161.832 57.6494 154.353 57.2815 152.419C56.9246 150.545 57.7489 146.254 59.1113 142.882C60.4751 139.509 61.9357 135.678 62.358 134.366C63.5038 130.813 64.9957 131.482 64.0774 135.137ZM93.5418 135.729C96.3512 138.86 99.2 158.825 98.2082 168.438C96.7531 182.534 90.9041 182.755 78.0807 169.196C72.9851 163.809 69.7057 161.512 66.3268 160.964C63.0965 160.439 62.2013 159.847 63.448 159.057C66.9372 156.844 72.1363 157.972 79.4609 162.532C83.5278 165.065 87.6069 166.847 88.5252 166.494C89.7746 166.016 90.0062 161.751 89.4463 149.598C88.6819 133.002 89.2787 130.981 93.5418 135.729ZM290.849 139.588C290.914 141.176 291.237 141.499 291.672 140.413C292.066 139.429 292.017 138.253 291.564 137.801C291.112 137.349 290.79 138.152 290.849 139.588ZM136.8 142.183C134.451 145.011 136.186 151.056 139.346 151.056C141.178 151.056 141.73 151.883 141.391 154.122C141.135 155.808 142.293 164.851 143.965 174.218L147.003 191.248H181.745H216.488L220.182 176.262C222.214 168.019 224.054 159.129 224.269 156.506C224.551 153.088 225.434 151.529 227.388 151C230.57 150.139 231.726 144.965 229.368 142.125C226.894 139.143 139.277 139.197 136.8 142.183ZM228.069 146.288V149.694H183.108H138.147V146.288V142.882H183.108H228.069V146.288ZM287.593 143.89C289.339 144.195 290.814 145.646 291.153 147.393L291.733 150.375L291.919 147.405C292.04 145.466 293.171 144.248 295.169 143.901C296.856 143.608 295.169 143.367 291.423 143.367C287.676 143.367 285.952 143.602 287.593 143.89ZM222.564 155.484C222.534 156.422 220.796 164.544 218.701 173.537L214.891 189.886L182.002 190.251L149.111 190.615L148.398 187.526C147.241 182.511 143.608 158.755 143.602 156.165C143.597 153.949 146.384 153.781 183.108 153.781C213.838 153.781 222.607 154.16 222.564 155.484ZM154.496 171.933C154.496 183.983 154.848 186.323 156.768 187.06C160.686 188.563 161.424 185.958 161.02 172.054C160.647 159.224 160.475 158.528 157.562 158.114C154.551 157.687 154.496 157.93 154.496 171.933ZM165.168 169.449C165.045 175.819 164.891 182.102 164.828 183.414C164.749 185.079 165.742 185.799 168.121 185.799C171.508 185.799 171.53 185.718 171.915 171.834L172.304 157.868H168.85C165.442 157.868 165.393 158.022 165.168 169.449ZM175.838 158.89C175.497 159.452 174.775 165.889 174.233 173.196L173.246 186.48H176.629C179.621 186.48 180.113 185.748 180.879 180.158C181.356 176.683 181.745 170.245 181.745 165.852C181.745 158.858 181.418 157.868 179.101 157.868C177.646 157.868 176.178 158.329 175.838 158.89ZM185.107 168.427C183.552 185.534 183.56 185.645 186.318 186.214C187.709 186.5 189.322 186.218 189.901 185.586C190.481 184.954 191.372 178.459 191.882 171.152L192.81 157.868H189.438C186.222 157.868 186.021 158.359 185.107 168.427ZM194.847 164.34C192.043 187.626 191.995 186.48 195.766 186.48C199.482 186.48 199.224 187.395 201.628 165.703C202.481 158.007 202.436 157.868 199.061 157.868C195.98 157.868 195.546 158.536 194.847 164.34ZM206.952 159.572C205.67 163.249 202.491 184.496 203.08 185.458C203.425 186.019 204.884 186.48 206.324 186.48C209.097 186.48 209.332 185.856 211.683 172.264C213.773 160.187 213.552 157.868 210.315 157.868C208.791 157.868 207.279 158.636 206.952 159.572ZM100.132 207.365C94.1535 255.092 94.0786 255.487 91.1997 254.128L88.2963 252.758L92.6984 217.234C95.1209 197.697 97.7531 179.828 98.5501 177.527C99.3472 175.226 99.9984 171.339 99.9984 168.889C99.9984 165.937 101.031 163.574 103.064 161.88C104.751 160.472 106.136 159.302 106.144 159.276C106.153 159.251 103.447 180.891 100.132 207.365ZM159.062 171.719C159.862 182.989 159.585 186.646 158.055 185.004C156.777 183.634 155.659 159.231 156.873 159.231C157.589 159.231 158.574 164.851 159.062 171.719ZM169.483 172.174C169.483 179.895 168.933 185.117 168.121 185.117C167.372 185.117 166.764 182.512 166.771 179.327C166.784 172.643 168.267 159.231 168.992 159.231C169.263 159.231 169.483 165.055 169.483 172.174ZM179.021 172.174C179.021 179.895 178.47 185.117 177.658 185.117C176.178 185.117 175.787 167.396 177.154 162.296C178.616 156.843 179.021 158.984 179.021 172.174ZM189.255 175.189C188.744 180.65 187.722 185.117 186.985 185.117C185.605 185.117 186.641 164.534 188.218 160.593C189.686 156.928 190.239 164.7 189.255 175.189ZM198.712 172.74C198.179 179.548 197.137 185.117 196.396 185.117C195.066 185.117 196.239 162.555 197.692 160.161C199.316 157.49 199.615 161.19 198.712 172.74ZM211.218 161.615C210.841 162.927 209.796 168.752 208.895 174.558C207.994 180.365 206.729 185.117 206.083 185.117C204.557 185.117 204.56 185.066 206.951 171.493C208.072 165.124 208.992 159.758 208.993 159.572C208.993 159.385 209.648 159.231 210.448 159.231C211.248 159.231 211.594 160.303 211.218 161.615ZM285.657 189.317C282.439 196.888 281.94 199.888 281.944 211.685C281.947 223.613 282.447 226.54 285.958 235.187C288.162 240.621 290.379 245.065 290.88 245.065C291.383 245.065 292.209 242.46 292.717 239.275C293.224 236.089 295.002 229.2 296.669 223.961L299.7 214.439L302.855 228.356C307.227 247.64 306.633 261.65 300.96 272.995L296.872 281.17L282.917 281.558L268.96 281.947L266.23 277.471C264.728 275.009 263.157 270.85 262.736 268.227C261.122 258.141 260.401 256.556 255.157 251.568C252.184 248.741 250.497 246.428 251.406 246.428C252.315 246.428 256.28 249.835 260.217 253.999C267.249 261.435 271.667 270.467 271.667 277.406C271.667 279.191 272.203 280.319 272.858 279.914C274.78 278.726 271.976 266.95 268.261 260.612C266.389 257.416 262.863 253.209 260.428 251.26C254.927 246.862 259.559 248.159 265.785 252.76C268.171 254.523 270.427 255.965 270.799 255.965C271.171 255.965 270.292 251.828 268.845 246.772C264.189 230.488 265.901 213.331 273.595 199.196C277.256 192.469 287.91 179.108 288.857 180.055C289.142 180.339 287.702 184.507 285.657 189.317ZM90.4272 218.124C88.0484 237.064 85.7499 253.131 85.3208 253.831C84.07 255.871 82.4841 250.354 82.4092 243.703C82.3029 234.31 88.6043 190.352 90.1983 189.367C90.9736 188.889 92.0662 186.668 92.6276 184.434C95.2053 174.165 94.3974 186.522 90.4272 218.124ZM279.353 194.471C272.66 209.384 272.425 222.664 278.515 241.819C280.316 247.485 281.779 256.442 282.212 264.449C282.665 272.824 283.432 277.389 284.298 276.855C286.594 275.436 284.358 254.883 280.469 241.659C278.485 234.915 276.541 226.015 276.148 221.882C275.351 213.499 278.095 200.694 282.565 191.931C284.095 188.934 284.805 186.48 284.143 186.48C283.481 186.48 281.326 190.075 279.353 194.471ZM147.924 212.026C146.286 215.232 143.087 247.226 144.222 249.061C145.342 250.875 205.755 251.089 206.869 249.285C208.028 247.41 211.737 212.135 210.915 210.805C210.52 210.165 196.459 209.642 179.669 209.642C151.969 209.642 149.03 209.862 147.924 212.026ZM208.994 213.838C208.994 217.511 206.325 242.105 205.494 246.087C204.855 249.15 204.833 249.153 175.816 249.153C159.844 249.153 146.476 248.853 146.111 248.486C145.395 247.772 148.613 215.548 149.683 212.707C150.168 211.417 157.441 211.004 179.66 211.004C208.46 211.004 208.994 211.056 208.994 213.838ZM186.792 215.54C186.41 216.536 183.815 220.917 181.026 225.277L175.955 233.205L173.766 229.599C171.253 225.457 170.883 225.349 167.553 227.783C165.233 229.48 165.331 230.027 169.403 238.094C171.8 242.84 174.426 246.369 175.339 246.065C177.202 245.444 193.851 218.033 193.946 215.432C194.028 213.148 187.673 213.244 186.792 215.54ZM62.1877 226.198L62.7327 233.9L58.3388 230.393L53.9449 226.887L57.5036 221.51C61.4697 215.515 61.4288 215.474 62.1877 226.198ZM298.848 222.244C298.81 222.431 298.52 230.249 298.202 239.615C297.883 248.982 297.239 259.098 296.768 262.096C296.081 266.467 296.253 267.219 297.634 265.894C299.434 264.17 301.497 221.904 299.78 221.904C299.304 221.904 298.885 222.058 298.848 222.244ZM267.58 227.09C267.58 229.426 273.421 240.978 274.601 240.978C275.166 240.978 274.193 237.88 272.438 234.092C269.005 226.679 267.58 224.626 267.58 227.09ZM267.484 249.493C267.536 250.055 266.967 250.515 266.217 250.515C265.468 250.515 264.898 248.828 264.95 246.768C265.036 243.448 265.179 243.332 266.217 245.746C266.862 247.245 267.431 248.932 267.484 249.493ZM253.953 252.947C253.939 257.976 248.072 297.828 247.069 299.701C243.425 306.51 245.103 306.375 163.829 306.375H87.9339L85.0633 302.726C82.2076 299.096 82.0795 294.838 84.4801 283.358L85.1613 280.097L87.4707 283.358C88.8168 285.259 89.7801 289.179 89.7801 292.751V298.882L165.08 299.234L240.378 299.586L241.631 296.509C242.319 294.816 243.86 284.849 245.053 274.358C247.98 248.651 247.951 248.76 251.264 250.533C252.744 251.326 253.954 252.412 253.953 252.947ZM90.7351 257.008C89.6343 257.376 89.0838 261.42 89.0539 269.362L89.0075 281.17L86.3085 277.929C83.743 274.848 83.7281 274.598 86.0129 272.863C87.3358 271.859 87.7827 271.019 87.0061 270.995C86.2309 270.971 85.4774 269.88 85.3344 268.568C85.1913 267.255 84.6913 263.935 84.2253 261.187C83.4637 256.698 83.7022 256.137 86.5783 255.666C90.1002 255.092 93.3442 256.139 90.7351 257.008ZM274.498 262.436C278.409 268.976 279.842 270.598 279.842 268.48C279.842 266.288 274.023 257.365 272.577 257.344C271.955 257.335 272.82 259.627 274.498 262.436ZM91.8237 281.251C91.8237 283.168 91.2678 284.394 90.5893 283.974C89.9108 283.554 89.6751 281.985 90.0675 280.488C91.0471 276.738 91.8237 277.076 91.8237 281.251ZM71.387 302.142C71.387 304.73 68.2765 306.899 66.7519 305.373C64.7968 303.419 66.0639 299.563 68.6621 299.563C70.4278 299.563 71.387 300.472 71.387 302.142ZM69.8951 307.377C71.9878 306.829 72.6786 307.614 73.3748 311.327C73.853 313.874 73.8721 316.561 73.4157 317.298C72.4606 318.846 45.5004 319.153 45.4991 317.616C45.4977 317.053 51.4761 316.652 58.783 316.723L72.0682 316.854L59.8062 316.042C47.6926 315.241 47.585 315.203 50.8944 312.859C53.107 311.294 54.7038 310.947 55.5948 311.838C57.7148 313.958 59.1127 313.421 58.2897 310.803C57.663 308.812 57.9205 308.867 59.8566 311.144C62.1264 313.814 62.1564 313.795 61.3321 310.235C60.4165 306.276 62.6714 304.414 65.5898 306.719C66.5217 307.456 68.4604 307.753 69.8951 307.377Z" fill="black"/>
</g>
</svg>
